M48
; DRILL file {KiCad 6.0.1-79c1e3a40b~116~ubuntu20.04.1} date Sat Jan 29 22:23:29 2022
; FORMAT={-:-/ absolute / metric / decimal}
; #@! TF.CreationDate,2022-01-29T22:23:29-05:00
; #@! TF.GenerationSoftware,Kicad,Pcbnew,6.0.1-79c1e3a40b~116~ubuntu20.04.1
; #@! TF.FileFunction,MixedPlating,1,2
FMAT,2
METRIC
; #@! TA.AperFunction,Plated,PTH,ViaDrill
T1C0.400
; #@! TA.AperFunction,Plated,PTH,ComponentDrill
T2C0.700
; #@! TA.AperFunction,Plated,PTH,ComponentDrill
T3C0.800
; #@! TA.AperFunction,Plated,PTH,ComponentDrill
T4C1.000
; #@! TA.AperFunction,Plated,PTH,ComponentDrill
T5C1.016
; #@! TA.AperFunction,Plated,PTH,ComponentDrill
T6C1.100
; #@! TA.AperFunction,Plated,PTH,ComponentDrill
T7C2.700
; #@! TA.AperFunction,NonPlated,NPTH,ComponentDrill
T8C3.200
%
G90
G05
T1
X191.398Y-79.909
T2
X197.24Y-103.15
X197.24Y-110.77
X197.24Y-118.39
T3
X133.74Y-65.05
X133.74Y-68.86
X133.74Y-72.67
X143.9Y-65.05
X143.9Y-68.86
X143.9Y-72.67
X147.71Y-65.05
X147.71Y-72.67
X147.71Y-76.48
X147.71Y-84.1
X147.71Y-87.91
X147.71Y-91.72
X147.71Y-95.53
X147.71Y-99.34
X147.71Y-106.96
X155.37Y-68.86
X155.37Y-103.15
X157.87Y-65.05
X157.87Y-68.86
X157.87Y-72.67
X157.87Y-76.48
X157.87Y-84.1
X157.87Y-87.91
X157.87Y-91.72
X157.87Y-95.53
X157.87Y-99.34
X157.87Y-103.15
X157.87Y-106.96
X157.91Y-80.29
X160.41Y-80.29
X163.07Y-96.8
X164.3Y-65.05
X164.3Y-68.86
X165.49Y-72.67
X165.49Y-75.21
X165.49Y-77.75
X165.49Y-80.29
X165.49Y-82.83
X165.49Y-85.37
X165.49Y-87.91
X165.57Y-96.8
X171.92Y-96.8
X173.11Y-72.67
X173.11Y-75.21
X173.11Y-77.75
X173.11Y-80.29
X173.11Y-82.83
X173.11Y-85.37
X173.11Y-87.91
X174.42Y-96.8
X174.46Y-65.05
X174.46Y-68.86
X178.23Y-80.29
X179.46Y-58.7
X179.46Y-62.51
X179.46Y-71.4
X179.46Y-75.21
X179.46Y-84.1
X179.46Y-87.91
X179.46Y-91.72
X179.46Y-95.53
X179.46Y-99.34
X179.46Y-103.15
X179.54Y-51.08
X179.54Y-54.89
X180.73Y-80.29
X184.54Y-67.59
X184.54Y-80.29
X187.08Y-67.59
X187.08Y-80.29
X189.62Y-58.7
X189.62Y-62.51
X189.62Y-67.59
X189.62Y-71.4
X189.62Y-75.21
X189.62Y-80.29
X189.62Y-84.1
X189.62Y-87.91
X189.62Y-91.72
X189.62Y-95.53
X189.62Y-99.34
X189.62Y-103.15
X189.7Y-51.08
X189.7Y-54.89
X194.7Y-56.47
X194.7Y-59.01
X194.7Y-61.55
X194.7Y-69.17
X194.7Y-71.71
X194.7Y-74.25
X194.7Y-90.76
X194.7Y-93.3
X194.7Y-95.84
T4
X138.185Y-77.725
X138.82Y-87.91
X138.82Y-90.45
X138.82Y-92.99
X138.82Y-95.53
X140.725Y-77.725
X141.36Y-87.91
X141.36Y-90.45
X141.36Y-92.99
X141.36Y-95.53
X143.265Y-77.725
X166.11Y-110.77
X166.11Y-113.31
X166.11Y-115.85
X166.11Y-118.39
X166.11Y-120.93
X166.11Y-123.47
X166.11Y-126.01
X166.11Y-128.55
X166.11Y-131.09
X166.135Y-49.825
X166.135Y-52.365
X166.135Y-54.905
T5
X179.46Y-113.31
X179.46Y-115.85
X179.46Y-118.39
X179.46Y-120.93
X179.46Y-123.47
X182.0Y-113.31
X182.0Y-115.85
X182.0Y-118.39
X182.0Y-120.93
X182.0Y-123.47
T6
X173.11Y-106.96
X173.11Y-117.12
X173.11Y-120.93
X173.11Y-131.09
T7
X107.9Y-120.0
X107.9Y-145.0
X107.9Y-170.0
X109.56Y-127.24
X109.56Y-152.24
X109.56Y-177.24
X113.8Y-116.1
X113.8Y-141.1
X113.8Y-166.1
X116.8Y-128.9
X116.8Y-153.9
X116.8Y-178.9
X120.7Y-123.0
X120.7Y-148.0
X120.7Y-173.0
X132.9Y-120.0
X132.9Y-145.0
X132.9Y-170.0
X134.56Y-127.24
X134.56Y-152.24
X134.56Y-177.24
X138.8Y-116.1
X138.8Y-141.1
X138.8Y-166.1
X141.8Y-128.9
X141.8Y-153.9
X141.8Y-178.9
X145.7Y-123.0
X145.7Y-148.0
X145.7Y-173.0
X157.9Y-145.0
X157.9Y-170.0
X159.56Y-152.24
X159.56Y-177.24
X163.8Y-141.1
X163.8Y-166.1
X166.8Y-153.9
X166.8Y-178.9
X170.7Y-148.0
X170.7Y-173.0
X182.9Y-145.0
X182.9Y-170.0
X184.56Y-152.24
X184.56Y-177.24
X188.8Y-141.1
X188.8Y-166.1
X191.8Y-153.9
X191.8Y-178.9
X195.7Y-148.0
X195.7Y-173.0
T8
X126.3Y-108.5
X144.8Y-30.5
X195.8Y-133.5
T0
M30
