M48
; DRILL file {KiCad 6.0.5-a6ca702e91~116~ubuntu20.04.1} date Sun Jun 19 13:50:02 2022
; FORMAT={-:-/ absolute / metric / decimal}
; #@! TF.CreationDate,2022-06-19T13:50:02-04:00
; #@! TF.GenerationSoftware,Kicad,Pcbnew,6.0.5-a6ca702e91~116~ubuntu20.04.1
; #@! TF.FileFunction,MixedPlating,1,2
FMAT,2
METRIC
; #@! TA.AperFunction,Plated,PTH,ViaDrill
T1C0.400
; #@! TA.AperFunction,Plated,PTH,ComponentDrill
T2C0.700
; #@! TA.AperFunction,Plated,PTH,ComponentDrill
T3C0.800
; #@! TA.AperFunction,Plated,PTH,ComponentDrill
T4C1.000
; #@! TA.AperFunction,Plated,PTH,ComponentDrill
T5C1.016
; #@! TA.AperFunction,Plated,PTH,ComponentDrill
T6C1.100
; #@! TA.AperFunction,NonPlated,NPTH,ComponentDrill
T7C3.200
%
G90
G05
T1
X188.398Y-77.409
T2
X194.24Y-100.65
X194.24Y-108.27
X194.24Y-115.89
T3
X130.74Y-62.55
X130.74Y-66.36
X130.74Y-70.17
X140.9Y-62.55
X140.9Y-66.36
X140.9Y-70.17
X144.71Y-62.55
X144.71Y-70.17
X144.71Y-73.98
X144.71Y-81.6
X144.71Y-85.41
X144.71Y-89.22
X144.71Y-93.03
X144.71Y-96.84
X144.71Y-104.46
X149.87Y-66.36
X149.91Y-100.65
X154.87Y-62.55
X154.87Y-66.36
X154.87Y-70.17
X154.87Y-73.98
X154.87Y-81.6
X154.87Y-85.41
X154.87Y-89.22
X154.87Y-93.03
X154.87Y-96.84
X154.87Y-104.46
X154.91Y-77.79
X154.91Y-100.65
X157.41Y-77.79
X160.07Y-94.3
X161.3Y-62.55
X161.3Y-66.36
X162.49Y-70.17
X162.49Y-72.71
X162.49Y-75.25
X162.49Y-77.79
X162.49Y-80.33
X162.49Y-82.87
X162.49Y-85.41
X162.57Y-94.3
X168.92Y-94.3
X170.11Y-70.17
X170.11Y-72.71
X170.11Y-75.25
X170.11Y-77.79
X170.11Y-80.33
X170.11Y-82.87
X170.11Y-85.41
X171.42Y-94.3
X171.46Y-62.55
X171.46Y-66.36
X175.23Y-77.79
X176.46Y-56.2
X176.46Y-60.01
X176.46Y-68.9
X176.46Y-72.71
X176.46Y-81.6
X176.46Y-85.41
X176.46Y-89.22
X176.46Y-93.03
X176.46Y-96.84
X176.46Y-100.65
X176.54Y-48.58
X176.54Y-52.39
X177.73Y-77.79
X181.54Y-65.09
X181.54Y-77.79
X184.08Y-65.09
X184.08Y-77.79
X186.62Y-56.2
X186.62Y-60.01
X186.62Y-65.09
X186.62Y-68.9
X186.62Y-72.71
X186.62Y-77.79
X186.62Y-81.6
X186.62Y-85.41
X186.62Y-89.22
X186.62Y-93.03
X186.62Y-96.84
X186.62Y-100.65
X186.7Y-48.58
X186.7Y-52.39
X191.7Y-53.97
X191.7Y-56.51
X191.7Y-59.05
X191.7Y-66.67
X191.7Y-69.21
X191.7Y-71.75
X191.7Y-88.26
X191.7Y-90.8
X191.7Y-93.34
T4
X135.185Y-75.225
X135.82Y-85.41
X135.82Y-87.95
X135.82Y-90.49
X135.82Y-93.03
X137.725Y-75.225
X138.36Y-85.41
X138.36Y-87.95
X138.36Y-90.49
X138.36Y-93.03
X140.265Y-75.225
X163.11Y-108.27
X163.11Y-110.81
X163.11Y-113.35
X163.11Y-115.89
X163.11Y-118.43
X163.11Y-120.97
X163.11Y-123.51
X163.11Y-126.05
X163.11Y-128.59
X163.135Y-47.325
X163.135Y-49.865
X163.135Y-52.405
T5
X176.46Y-110.81
X176.46Y-113.35
X176.46Y-115.89
X176.46Y-118.43
X176.46Y-120.97
X179.0Y-110.81
X179.0Y-113.35
X179.0Y-115.89
X179.0Y-118.43
X179.0Y-120.97
T6
X170.11Y-104.46
X170.11Y-114.62
X170.11Y-118.43
X170.11Y-128.59
T7
X123.3Y-106.0
X141.8Y-28.0
X192.8Y-131.0
T4
X104.9Y-116.65G85X104.9Y-118.35
G05
X104.9Y-141.65G85X104.9Y-143.35
G05
X104.9Y-166.65G85X104.9Y-168.35
G05
X105.959Y-124.139G85X107.161Y-125.341
G05
X105.959Y-149.139G85X107.161Y-150.341
G05
X105.959Y-174.139G85X107.161Y-175.341
G05
X111.65Y-113.6G85X109.95Y-113.6
G05
X111.65Y-138.6G85X109.95Y-138.6
G05
X111.65Y-163.6G85X109.95Y-163.6
G05
X114.65Y-126.4G85X112.95Y-126.4
G05
X114.65Y-151.4G85X112.95Y-151.4
G05
X114.65Y-176.4G85X112.95Y-176.4
G05
X117.7Y-119.65G85X117.7Y-121.35
G05
X117.7Y-144.65G85X117.7Y-146.35
G05
X117.7Y-169.65G85X117.7Y-171.35
G05
X129.9Y-116.65G85X129.9Y-118.35
G05
X129.9Y-141.65G85X129.9Y-143.35
G05
X129.9Y-166.65G85X129.9Y-168.35
G05
X130.959Y-124.139G85X132.161Y-125.341
G05
X130.959Y-149.139G85X132.161Y-150.341
G05
X130.959Y-174.139G85X132.161Y-175.341
G05
X136.65Y-113.6G85X134.95Y-113.6
G05
X136.65Y-138.6G85X134.95Y-138.6
G05
X136.65Y-163.6G85X134.95Y-163.6
G05
X139.65Y-126.4G85X137.95Y-126.4
G05
X139.65Y-151.4G85X137.95Y-151.4
G05
X139.65Y-176.4G85X137.95Y-176.4
G05
X142.7Y-119.65G85X142.7Y-121.35
G05
X142.7Y-144.65G85X142.7Y-146.35
G05
X142.7Y-169.65G85X142.7Y-171.35
G05
X154.9Y-141.65G85X154.9Y-143.35
G05
X154.9Y-166.65G85X154.9Y-168.35
G05
X155.959Y-149.139G85X157.161Y-150.341
G05
X155.959Y-174.139G85X157.161Y-175.341
G05
X161.65Y-138.6G85X159.95Y-138.6
G05
X161.65Y-163.6G85X159.95Y-163.6
G05
X164.65Y-151.4G85X162.95Y-151.4
G05
X164.65Y-176.4G85X162.95Y-176.4
G05
X167.7Y-144.65G85X167.7Y-146.35
G05
X167.7Y-169.65G85X167.7Y-171.35
G05
X179.9Y-141.65G85X179.9Y-143.35
G05
X179.9Y-166.65G85X179.9Y-168.35
G05
X180.959Y-149.139G85X182.161Y-150.341
G05
X180.959Y-174.139G85X182.161Y-175.341
G05
X186.65Y-138.6G85X184.95Y-138.6
G05
X186.65Y-163.6G85X184.95Y-163.6
G05
X189.65Y-151.4G85X187.95Y-151.4
G05
X189.65Y-176.4G85X187.95Y-176.4
G05
X192.7Y-144.65G85X192.7Y-146.35
G05
X192.7Y-169.65G85X192.7Y-171.35
G05
T0
M30
