G04 #@! TF.GenerationSoftware,KiCad,Pcbnew,6.0.1-79c1e3a40b~116~ubuntu20.04.1*
G04 #@! TF.CreationDate,2022-01-29T22:23:29-05:00*
G04 #@! TF.ProjectId,herovco_back,6865726f-7663-46f5-9f62-61636b2e6b69,rev?*
G04 #@! TF.SameCoordinates,Original*
G04 #@! TF.FileFunction,Legend,Top*
G04 #@! TF.FilePolarity,Positive*
%FSLAX46Y46*%
G04 Gerber Fmt 4.6, Leading zero omitted, Abs format (unit mm)*
G04 Created by KiCad (PCBNEW 6.0.1-79c1e3a40b~116~ubuntu20.04.1) date 2022-01-29 22:23:29*
%MOMM*%
%LPD*%
G01*
G04 APERTURE LIST*
%ADD10C,0.150000*%
%ADD11C,0.120000*%
G04 APERTURE END LIST*
D10*
X113486666Y-162012380D02*
X114058095Y-162012380D01*
X113772380Y-163012380D02*
X113772380Y-162012380D01*
X114391428Y-163012380D02*
X114391428Y-162345714D01*
X114391428Y-162536190D02*
X114439047Y-162440952D01*
X114486666Y-162393333D01*
X114581904Y-162345714D01*
X114677142Y-162345714D01*
X115010476Y-163012380D02*
X115010476Y-162345714D01*
X115010476Y-162012380D02*
X114962857Y-162060000D01*
X115010476Y-162107619D01*
X115058095Y-162060000D01*
X115010476Y-162012380D01*
X115010476Y-162107619D01*
X136439047Y-137012380D02*
X136772380Y-138012380D01*
X137105714Y-137012380D01*
X138153333Y-136964761D02*
X137296190Y-138250476D01*
X138629523Y-138012380D02*
X138534285Y-137964761D01*
X138486666Y-137917142D01*
X138439047Y-137821904D01*
X138439047Y-137536190D01*
X138486666Y-137440952D01*
X138534285Y-137393333D01*
X138629523Y-137345714D01*
X138772380Y-137345714D01*
X138867619Y-137393333D01*
X138915238Y-137440952D01*
X138962857Y-137536190D01*
X138962857Y-137821904D01*
X138915238Y-137917142D01*
X138867619Y-137964761D01*
X138772380Y-138012380D01*
X138629523Y-138012380D01*
X139820000Y-137964761D02*
X139724761Y-138012380D01*
X139534285Y-138012380D01*
X139439047Y-137964761D01*
X139391428Y-137917142D01*
X139343809Y-137821904D01*
X139343809Y-137536190D01*
X139391428Y-137440952D01*
X139439047Y-137393333D01*
X139534285Y-137345714D01*
X139724761Y-137345714D01*
X139820000Y-137393333D01*
X140105714Y-137345714D02*
X140486666Y-137345714D01*
X140248571Y-137012380D02*
X140248571Y-137869523D01*
X140296190Y-137964761D01*
X140391428Y-138012380D01*
X140486666Y-138012380D01*
X141534285Y-137107619D02*
X141581904Y-137060000D01*
X141677142Y-137012380D01*
X141915238Y-137012380D01*
X142010476Y-137060000D01*
X142058095Y-137107619D01*
X142105714Y-137202857D01*
X142105714Y-137298095D01*
X142058095Y-137440952D01*
X141486666Y-138012380D01*
X142105714Y-138012380D01*
X161867619Y-137488571D02*
X162200952Y-137488571D01*
X162343809Y-138012380D02*
X161867619Y-138012380D01*
X161867619Y-137012380D01*
X162343809Y-137012380D01*
X162677142Y-138012380D02*
X163200952Y-137345714D01*
X162677142Y-137345714D02*
X163200952Y-138012380D01*
X163581904Y-137345714D02*
X163581904Y-138345714D01*
X163581904Y-137393333D02*
X163677142Y-137345714D01*
X163867619Y-137345714D01*
X163962857Y-137393333D01*
X164010476Y-137440952D01*
X164058095Y-137536190D01*
X164058095Y-137821904D01*
X164010476Y-137917142D01*
X163962857Y-137964761D01*
X163867619Y-138012380D01*
X163677142Y-138012380D01*
X163581904Y-137964761D01*
X165581904Y-137488571D02*
X165248571Y-137488571D01*
X165248571Y-138012380D02*
X165248571Y-137012380D01*
X165724761Y-137012380D01*
X166105714Y-138012380D02*
X166105714Y-137012380D01*
X166439047Y-137726666D01*
X166772380Y-137012380D01*
X166772380Y-138012380D01*
X138343809Y-162964761D02*
X138486666Y-163012380D01*
X138724761Y-163012380D01*
X138820000Y-162964761D01*
X138867619Y-162917142D01*
X138915238Y-162821904D01*
X138915238Y-162726666D01*
X138867619Y-162631428D01*
X138820000Y-162583809D01*
X138724761Y-162536190D01*
X138534285Y-162488571D01*
X138439047Y-162440952D01*
X138391428Y-162393333D01*
X138343809Y-162298095D01*
X138343809Y-162202857D01*
X138391428Y-162107619D01*
X138439047Y-162060000D01*
X138534285Y-162012380D01*
X138772380Y-162012380D01*
X138915238Y-162060000D01*
X139343809Y-163012380D02*
X139343809Y-162345714D01*
X139343809Y-162012380D02*
X139296190Y-162060000D01*
X139343809Y-162107619D01*
X139391428Y-162060000D01*
X139343809Y-162012380D01*
X139343809Y-162107619D01*
X139820000Y-162345714D02*
X139820000Y-163012380D01*
X139820000Y-162440952D02*
X139867619Y-162393333D01*
X139962857Y-162345714D01*
X140105714Y-162345714D01*
X140200952Y-162393333D01*
X140248571Y-162488571D01*
X140248571Y-163012380D01*
X137915238Y-113012380D02*
X137915238Y-112012380D01*
X138296190Y-112012380D01*
X138391428Y-112060000D01*
X138439047Y-112107619D01*
X138486666Y-112202857D01*
X138486666Y-112345714D01*
X138439047Y-112440952D01*
X138391428Y-112488571D01*
X138296190Y-112536190D01*
X137915238Y-112536190D01*
X138820000Y-112012380D02*
X139058095Y-113012380D01*
X139248571Y-112298095D01*
X139439047Y-113012380D01*
X139677142Y-112012380D01*
X140058095Y-113012380D02*
X140058095Y-112012380D01*
X140391428Y-112726666D01*
X140724761Y-112012380D01*
X140724761Y-113012380D01*
X112772380Y-112698761D02*
X112915238Y-112746380D01*
X113153333Y-112746380D01*
X113248571Y-112698761D01*
X113296190Y-112651142D01*
X113343809Y-112555904D01*
X113343809Y-112460666D01*
X113296190Y-112365428D01*
X113248571Y-112317809D01*
X113153333Y-112270190D01*
X112962857Y-112222571D01*
X112867619Y-112174952D01*
X112820000Y-112127333D01*
X112772380Y-112032095D01*
X112772380Y-111936857D01*
X112820000Y-111841619D01*
X112867619Y-111794000D01*
X112962857Y-111746380D01*
X113200952Y-111746380D01*
X113343809Y-111794000D01*
X113677142Y-112079714D02*
X113915238Y-112746380D01*
X114153333Y-112079714D02*
X113915238Y-112746380D01*
X113820000Y-112984476D01*
X113772380Y-113032095D01*
X113677142Y-113079714D01*
X114534285Y-112079714D02*
X114534285Y-112746380D01*
X114534285Y-112174952D02*
X114581904Y-112127333D01*
X114677142Y-112079714D01*
X114820000Y-112079714D01*
X114915238Y-112127333D01*
X114962857Y-112222571D01*
X114962857Y-112746380D01*
X115867619Y-112698761D02*
X115772380Y-112746380D01*
X115581904Y-112746380D01*
X115486666Y-112698761D01*
X115439047Y-112651142D01*
X115391428Y-112555904D01*
X115391428Y-112270190D01*
X115439047Y-112174952D01*
X115486666Y-112127333D01*
X115581904Y-112079714D01*
X115772380Y-112079714D01*
X115867619Y-112127333D01*
X111439047Y-137012380D02*
X111772380Y-138012380D01*
X112105714Y-137012380D01*
X113153333Y-136964761D02*
X112296190Y-138250476D01*
X113629523Y-138012380D02*
X113534285Y-137964761D01*
X113486666Y-137917142D01*
X113439047Y-137821904D01*
X113439047Y-137536190D01*
X113486666Y-137440952D01*
X113534285Y-137393333D01*
X113629523Y-137345714D01*
X113772380Y-137345714D01*
X113867619Y-137393333D01*
X113915238Y-137440952D01*
X113962857Y-137536190D01*
X113962857Y-137821904D01*
X113915238Y-137917142D01*
X113867619Y-137964761D01*
X113772380Y-138012380D01*
X113629523Y-138012380D01*
X114820000Y-137964761D02*
X114724761Y-138012380D01*
X114534285Y-138012380D01*
X114439047Y-137964761D01*
X114391428Y-137917142D01*
X114343809Y-137821904D01*
X114343809Y-137536190D01*
X114391428Y-137440952D01*
X114439047Y-137393333D01*
X114534285Y-137345714D01*
X114724761Y-137345714D01*
X114820000Y-137393333D01*
X115105714Y-137345714D02*
X115486666Y-137345714D01*
X115248571Y-137012380D02*
X115248571Y-137869523D01*
X115296190Y-137964761D01*
X115391428Y-138012380D01*
X115486666Y-138012380D01*
X117105714Y-138012380D02*
X116534285Y-138012380D01*
X116820000Y-138012380D02*
X116820000Y-137012380D01*
X116724761Y-137155238D01*
X116629523Y-137250476D01*
X116534285Y-137298095D01*
X187010476Y-163012380D02*
X187010476Y-162012380D01*
X187391428Y-162012380D01*
X187486666Y-162060000D01*
X187534285Y-162107619D01*
X187581904Y-162202857D01*
X187581904Y-162345714D01*
X187534285Y-162440952D01*
X187486666Y-162488571D01*
X187391428Y-162536190D01*
X187010476Y-162536190D01*
X188439047Y-162345714D02*
X188439047Y-163012380D01*
X188010476Y-162345714D02*
X188010476Y-162869523D01*
X188058095Y-162964761D01*
X188153333Y-163012380D01*
X188296190Y-163012380D01*
X188391428Y-162964761D01*
X188439047Y-162917142D01*
X189058095Y-163012380D02*
X188962857Y-162964761D01*
X188915238Y-162869523D01*
X188915238Y-162012380D01*
X189391428Y-162964761D02*
X189486666Y-163012380D01*
X189677142Y-163012380D01*
X189772380Y-162964761D01*
X189820000Y-162869523D01*
X189820000Y-162821904D01*
X189772380Y-162726666D01*
X189677142Y-162679047D01*
X189534285Y-162679047D01*
X189439047Y-162631428D01*
X189391428Y-162536190D01*
X189391428Y-162488571D01*
X189439047Y-162393333D01*
X189534285Y-162345714D01*
X189677142Y-162345714D01*
X189772380Y-162393333D01*
X190629523Y-162964761D02*
X190534285Y-163012380D01*
X190343809Y-163012380D01*
X190248571Y-162964761D01*
X190200952Y-162869523D01*
X190200952Y-162488571D01*
X190248571Y-162393333D01*
X190343809Y-162345714D01*
X190534285Y-162345714D01*
X190629523Y-162393333D01*
X190677142Y-162488571D01*
X190677142Y-162583809D01*
X190200952Y-162679047D01*
X163058095Y-162964761D02*
X163200952Y-163012380D01*
X163439047Y-163012380D01*
X163534285Y-162964761D01*
X163581904Y-162917142D01*
X163629523Y-162821904D01*
X163629523Y-162726666D01*
X163581904Y-162631428D01*
X163534285Y-162583809D01*
X163439047Y-162536190D01*
X163248571Y-162488571D01*
X163153333Y-162440952D01*
X163105714Y-162393333D01*
X163058095Y-162298095D01*
X163058095Y-162202857D01*
X163105714Y-162107619D01*
X163153333Y-162060000D01*
X163248571Y-162012380D01*
X163486666Y-162012380D01*
X163629523Y-162060000D01*
X164486666Y-163012380D02*
X164486666Y-162488571D01*
X164439047Y-162393333D01*
X164343809Y-162345714D01*
X164153333Y-162345714D01*
X164058095Y-162393333D01*
X164486666Y-162964761D02*
X164391428Y-163012380D01*
X164153333Y-163012380D01*
X164058095Y-162964761D01*
X164010476Y-162869523D01*
X164010476Y-162774285D01*
X164058095Y-162679047D01*
X164153333Y-162631428D01*
X164391428Y-162631428D01*
X164486666Y-162583809D01*
X164867619Y-162345714D02*
X165058095Y-163012380D01*
X165248571Y-162536190D01*
X165439047Y-163012380D01*
X165629523Y-162345714D01*
X187558095Y-138012380D02*
X187081904Y-138012380D01*
X187081904Y-137012380D01*
X187891428Y-138012380D02*
X187891428Y-137345714D01*
X187891428Y-137012380D02*
X187843809Y-137060000D01*
X187891428Y-137107619D01*
X187939047Y-137060000D01*
X187891428Y-137012380D01*
X187891428Y-137107619D01*
X188367619Y-137345714D02*
X188367619Y-138012380D01*
X188367619Y-137440952D02*
X188415238Y-137393333D01*
X188510476Y-137345714D01*
X188653333Y-137345714D01*
X188748571Y-137393333D01*
X188796190Y-137488571D01*
X188796190Y-138012380D01*
X190367619Y-137488571D02*
X190034285Y-137488571D01*
X190034285Y-138012380D02*
X190034285Y-137012380D01*
X190510476Y-137012380D01*
X190891428Y-138012380D02*
X190891428Y-137012380D01*
X191224761Y-137726666D01*
X191558095Y-137012380D01*
X191558095Y-138012380D01*
G04 #@! TO.C,J10*
X165325476Y-46507380D02*
X165325476Y-47221666D01*
X165277857Y-47364523D01*
X165182619Y-47459761D01*
X165039761Y-47507380D01*
X164944523Y-47507380D01*
X166325476Y-47507380D02*
X165754047Y-47507380D01*
X166039761Y-47507380D02*
X166039761Y-46507380D01*
X165944523Y-46650238D01*
X165849285Y-46745476D01*
X165754047Y-46793095D01*
X166944523Y-46507380D02*
X167039761Y-46507380D01*
X167135000Y-46555000D01*
X167182619Y-46602619D01*
X167230238Y-46697857D01*
X167277857Y-46888333D01*
X167277857Y-47126428D01*
X167230238Y-47316904D01*
X167182619Y-47412142D01*
X167135000Y-47459761D01*
X167039761Y-47507380D01*
X166944523Y-47507380D01*
X166849285Y-47459761D01*
X166801666Y-47412142D01*
X166754047Y-47316904D01*
X166706428Y-47126428D01*
X166706428Y-46888333D01*
X166754047Y-46697857D01*
X166801666Y-46602619D01*
X166849285Y-46555000D01*
X166944523Y-46507380D01*
G04 #@! TO.C,J9*
X165776666Y-107452380D02*
X165776666Y-108166666D01*
X165729047Y-108309523D01*
X165633809Y-108404761D01*
X165490952Y-108452380D01*
X165395714Y-108452380D01*
X166300476Y-108452380D02*
X166490952Y-108452380D01*
X166586190Y-108404761D01*
X166633809Y-108357142D01*
X166729047Y-108214285D01*
X166776666Y-108023809D01*
X166776666Y-107642857D01*
X166729047Y-107547619D01*
X166681428Y-107500000D01*
X166586190Y-107452380D01*
X166395714Y-107452380D01*
X166300476Y-107500000D01*
X166252857Y-107547619D01*
X166205238Y-107642857D01*
X166205238Y-107880952D01*
X166252857Y-107976190D01*
X166300476Y-108023809D01*
X166395714Y-108071428D01*
X166586190Y-108071428D01*
X166681428Y-108023809D01*
X166729047Y-107976190D01*
X166776666Y-107880952D01*
G04 #@! TO.C,J19*
X198389285Y-148107142D02*
X198925000Y-148107142D01*
X199032142Y-148142857D01*
X199103571Y-148214285D01*
X199139285Y-148321428D01*
X199139285Y-148392857D01*
X199139285Y-147357142D02*
X199139285Y-147785714D01*
X199139285Y-147571428D02*
X198389285Y-147571428D01*
X198496428Y-147642857D01*
X198567857Y-147714285D01*
X198603571Y-147785714D01*
X199139285Y-147000000D02*
X199139285Y-146857142D01*
X199103571Y-146785714D01*
X199067857Y-146750000D01*
X198960714Y-146678571D01*
X198817857Y-146642857D01*
X198532142Y-146642857D01*
X198460714Y-146678571D01*
X198425000Y-146714285D01*
X198389285Y-146785714D01*
X198389285Y-146928571D01*
X198425000Y-147000000D01*
X198460714Y-147035714D01*
X198532142Y-147071428D01*
X198710714Y-147071428D01*
X198782142Y-147035714D01*
X198817857Y-147000000D01*
X198853571Y-146928571D01*
X198853571Y-146785714D01*
X198817857Y-146714285D01*
X198782142Y-146678571D01*
X198710714Y-146642857D01*
G04 #@! TO.C,J21*
X173389285Y-148107142D02*
X173925000Y-148107142D01*
X174032142Y-148142857D01*
X174103571Y-148214285D01*
X174139285Y-148321428D01*
X174139285Y-148392857D01*
X173460714Y-147785714D02*
X173425000Y-147750000D01*
X173389285Y-147678571D01*
X173389285Y-147500000D01*
X173425000Y-147428571D01*
X173460714Y-147392857D01*
X173532142Y-147357142D01*
X173603571Y-147357142D01*
X173710714Y-147392857D01*
X174139285Y-147821428D01*
X174139285Y-147357142D01*
X174139285Y-146642857D02*
X174139285Y-147071428D01*
X174139285Y-146857142D02*
X173389285Y-146857142D01*
X173496428Y-146928571D01*
X173567857Y-147000000D01*
X173603571Y-147071428D01*
G04 #@! TO.C,J22*
X123389285Y-148107142D02*
X123925000Y-148107142D01*
X124032142Y-148142857D01*
X124103571Y-148214285D01*
X124139285Y-148321428D01*
X124139285Y-148392857D01*
X123460714Y-147785714D02*
X123425000Y-147750000D01*
X123389285Y-147678571D01*
X123389285Y-147500000D01*
X123425000Y-147428571D01*
X123460714Y-147392857D01*
X123532142Y-147357142D01*
X123603571Y-147357142D01*
X123710714Y-147392857D01*
X124139285Y-147821428D01*
X124139285Y-147357142D01*
X123460714Y-147071428D02*
X123425000Y-147035714D01*
X123389285Y-146964285D01*
X123389285Y-146785714D01*
X123425000Y-146714285D01*
X123460714Y-146678571D01*
X123532142Y-146642857D01*
X123603571Y-146642857D01*
X123710714Y-146678571D01*
X124139285Y-147107142D01*
X124139285Y-146642857D01*
G04 #@! TO.C,J26*
X198389285Y-173107142D02*
X198925000Y-173107142D01*
X199032142Y-173142857D01*
X199103571Y-173214285D01*
X199139285Y-173321428D01*
X199139285Y-173392857D01*
X198460714Y-172785714D02*
X198425000Y-172750000D01*
X198389285Y-172678571D01*
X198389285Y-172500000D01*
X198425000Y-172428571D01*
X198460714Y-172392857D01*
X198532142Y-172357142D01*
X198603571Y-172357142D01*
X198710714Y-172392857D01*
X199139285Y-172821428D01*
X199139285Y-172357142D01*
X198389285Y-171714285D02*
X198389285Y-171857142D01*
X198425000Y-171928571D01*
X198460714Y-171964285D01*
X198567857Y-172035714D01*
X198710714Y-172071428D01*
X198996428Y-172071428D01*
X199067857Y-172035714D01*
X199103571Y-172000000D01*
X199139285Y-171928571D01*
X199139285Y-171785714D01*
X199103571Y-171714285D01*
X199067857Y-171678571D01*
X198996428Y-171642857D01*
X198817857Y-171642857D01*
X198746428Y-171678571D01*
X198710714Y-171714285D01*
X198675000Y-171785714D01*
X198675000Y-171928571D01*
X198710714Y-172000000D01*
X198746428Y-172035714D01*
X198817857Y-172071428D01*
G04 #@! TO.C,J28*
X148389285Y-148107142D02*
X148925000Y-148107142D01*
X149032142Y-148142857D01*
X149103571Y-148214285D01*
X149139285Y-148321428D01*
X149139285Y-148392857D01*
X148460714Y-147785714D02*
X148425000Y-147750000D01*
X148389285Y-147678571D01*
X148389285Y-147500000D01*
X148425000Y-147428571D01*
X148460714Y-147392857D01*
X148532142Y-147357142D01*
X148603571Y-147357142D01*
X148710714Y-147392857D01*
X149139285Y-147821428D01*
X149139285Y-147357142D01*
X148710714Y-146928571D02*
X148675000Y-147000000D01*
X148639285Y-147035714D01*
X148567857Y-147071428D01*
X148532142Y-147071428D01*
X148460714Y-147035714D01*
X148425000Y-147000000D01*
X148389285Y-146928571D01*
X148389285Y-146785714D01*
X148425000Y-146714285D01*
X148460714Y-146678571D01*
X148532142Y-146642857D01*
X148567857Y-146642857D01*
X148639285Y-146678571D01*
X148675000Y-146714285D01*
X148710714Y-146785714D01*
X148710714Y-146928571D01*
X148746428Y-147000000D01*
X148782142Y-147035714D01*
X148853571Y-147071428D01*
X148996428Y-147071428D01*
X149067857Y-147035714D01*
X149103571Y-147000000D01*
X149139285Y-146928571D01*
X149139285Y-146785714D01*
X149103571Y-146714285D01*
X149067857Y-146678571D01*
X148996428Y-146642857D01*
X148853571Y-146642857D01*
X148782142Y-146678571D01*
X148746428Y-146714285D01*
X148710714Y-146785714D01*
G04 #@! TO.C,J27*
X173389285Y-173107142D02*
X173925000Y-173107142D01*
X174032142Y-173142857D01*
X174103571Y-173214285D01*
X174139285Y-173321428D01*
X174139285Y-173392857D01*
X173460714Y-172785714D02*
X173425000Y-172750000D01*
X173389285Y-172678571D01*
X173389285Y-172500000D01*
X173425000Y-172428571D01*
X173460714Y-172392857D01*
X173532142Y-172357142D01*
X173603571Y-172357142D01*
X173710714Y-172392857D01*
X174139285Y-172821428D01*
X174139285Y-172357142D01*
X173389285Y-172107142D02*
X173389285Y-171607142D01*
X174139285Y-171928571D01*
G04 #@! TO.C,TP9*
X193781285Y-111716428D02*
X193781285Y-111287857D01*
X194531285Y-111502142D02*
X193781285Y-111502142D01*
X194531285Y-111037857D02*
X193781285Y-111037857D01*
X193781285Y-110752142D01*
X193817000Y-110680714D01*
X193852714Y-110645000D01*
X193924142Y-110609285D01*
X194031285Y-110609285D01*
X194102714Y-110645000D01*
X194138428Y-110680714D01*
X194174142Y-110752142D01*
X194174142Y-111037857D01*
X194531285Y-110252142D02*
X194531285Y-110109285D01*
X194495571Y-110037857D01*
X194459857Y-110002142D01*
X194352714Y-109930714D01*
X194209857Y-109895000D01*
X193924142Y-109895000D01*
X193852714Y-109930714D01*
X193817000Y-109966428D01*
X193781285Y-110037857D01*
X193781285Y-110180714D01*
X193817000Y-110252142D01*
X193852714Y-110287857D01*
X193924142Y-110323571D01*
X194102714Y-110323571D01*
X194174142Y-110287857D01*
X194209857Y-110252142D01*
X194245571Y-110180714D01*
X194245571Y-110037857D01*
X194209857Y-109966428D01*
X194174142Y-109930714D01*
X194102714Y-109895000D01*
X194833000Y-111341428D02*
X194797285Y-111412857D01*
X194797285Y-111520000D01*
X194833000Y-111627142D01*
X194904428Y-111698571D01*
X194975857Y-111734285D01*
X195118714Y-111770000D01*
X195225857Y-111770000D01*
X195368714Y-111734285D01*
X195440142Y-111698571D01*
X195511571Y-111627142D01*
X195547285Y-111520000D01*
X195547285Y-111448571D01*
X195511571Y-111341428D01*
X195475857Y-111305714D01*
X195225857Y-111305714D01*
X195225857Y-111448571D01*
X195547285Y-110984285D02*
X194797285Y-110984285D01*
X195547285Y-110555714D01*
X194797285Y-110555714D01*
X195547285Y-110198571D02*
X194797285Y-110198571D01*
X194797285Y-110020000D01*
X194833000Y-109912857D01*
X194904428Y-109841428D01*
X194975857Y-109805714D01*
X195118714Y-109770000D01*
X195225857Y-109770000D01*
X195368714Y-109805714D01*
X195440142Y-109841428D01*
X195511571Y-109912857D01*
X195547285Y-110020000D01*
X195547285Y-110198571D01*
G04 #@! TO.C,J24*
X148389285Y-173107142D02*
X148925000Y-173107142D01*
X149032142Y-173142857D01*
X149103571Y-173214285D01*
X149139285Y-173321428D01*
X149139285Y-173392857D01*
X148460714Y-172785714D02*
X148425000Y-172750000D01*
X148389285Y-172678571D01*
X148389285Y-172500000D01*
X148425000Y-172428571D01*
X148460714Y-172392857D01*
X148532142Y-172357142D01*
X148603571Y-172357142D01*
X148710714Y-172392857D01*
X149139285Y-172821428D01*
X149139285Y-172357142D01*
X148639285Y-171714285D02*
X149139285Y-171714285D01*
X148353571Y-171892857D02*
X148889285Y-172071428D01*
X148889285Y-171607142D01*
G04 #@! TO.C,TP7*
X193781285Y-104096428D02*
X193781285Y-103667857D01*
X194531285Y-103882142D02*
X193781285Y-103882142D01*
X194531285Y-103417857D02*
X193781285Y-103417857D01*
X193781285Y-103132142D01*
X193817000Y-103060714D01*
X193852714Y-103025000D01*
X193924142Y-102989285D01*
X194031285Y-102989285D01*
X194102714Y-103025000D01*
X194138428Y-103060714D01*
X194174142Y-103132142D01*
X194174142Y-103417857D01*
X193781285Y-102739285D02*
X193781285Y-102239285D01*
X194531285Y-102560714D01*
X195261571Y-104471428D02*
X195261571Y-103900000D01*
X195547285Y-104185714D02*
X194975857Y-104185714D01*
X195547285Y-103150000D02*
X195547285Y-103578571D01*
X195547285Y-103364285D02*
X194797285Y-103364285D01*
X194904428Y-103435714D01*
X194975857Y-103507142D01*
X195011571Y-103578571D01*
X194868714Y-102864285D02*
X194833000Y-102828571D01*
X194797285Y-102757142D01*
X194797285Y-102578571D01*
X194833000Y-102507142D01*
X194868714Y-102471428D01*
X194940142Y-102435714D01*
X195011571Y-102435714D01*
X195118714Y-102471428D01*
X195547285Y-102900000D01*
X195547285Y-102435714D01*
X194797285Y-102221428D02*
X195547285Y-101971428D01*
X194797285Y-101721428D01*
G04 #@! TO.C,J18*
X148389285Y-123107142D02*
X148925000Y-123107142D01*
X149032142Y-123142857D01*
X149103571Y-123214285D01*
X149139285Y-123321428D01*
X149139285Y-123392857D01*
X149139285Y-122357142D02*
X149139285Y-122785714D01*
X149139285Y-122571428D02*
X148389285Y-122571428D01*
X148496428Y-122642857D01*
X148567857Y-122714285D01*
X148603571Y-122785714D01*
X148710714Y-121928571D02*
X148675000Y-122000000D01*
X148639285Y-122035714D01*
X148567857Y-122071428D01*
X148532142Y-122071428D01*
X148460714Y-122035714D01*
X148425000Y-122000000D01*
X148389285Y-121928571D01*
X148389285Y-121785714D01*
X148425000Y-121714285D01*
X148460714Y-121678571D01*
X148532142Y-121642857D01*
X148567857Y-121642857D01*
X148639285Y-121678571D01*
X148675000Y-121714285D01*
X148710714Y-121785714D01*
X148710714Y-121928571D01*
X148746428Y-122000000D01*
X148782142Y-122035714D01*
X148853571Y-122071428D01*
X148996428Y-122071428D01*
X149067857Y-122035714D01*
X149103571Y-122000000D01*
X149139285Y-121928571D01*
X149139285Y-121785714D01*
X149103571Y-121714285D01*
X149067857Y-121678571D01*
X148996428Y-121642857D01*
X148853571Y-121642857D01*
X148782142Y-121678571D01*
X148746428Y-121714285D01*
X148710714Y-121785714D01*
G04 #@! TO.C,J25*
X123389285Y-173107142D02*
X123925000Y-173107142D01*
X124032142Y-173142857D01*
X124103571Y-173214285D01*
X124139285Y-173321428D01*
X124139285Y-173392857D01*
X123460714Y-172785714D02*
X123425000Y-172750000D01*
X123389285Y-172678571D01*
X123389285Y-172500000D01*
X123425000Y-172428571D01*
X123460714Y-172392857D01*
X123532142Y-172357142D01*
X123603571Y-172357142D01*
X123710714Y-172392857D01*
X124139285Y-172821428D01*
X124139285Y-172357142D01*
X123389285Y-171678571D02*
X123389285Y-172035714D01*
X123746428Y-172071428D01*
X123710714Y-172035714D01*
X123675000Y-171964285D01*
X123675000Y-171785714D01*
X123710714Y-171714285D01*
X123746428Y-171678571D01*
X123817857Y-171642857D01*
X123996428Y-171642857D01*
X124067857Y-171678571D01*
X124103571Y-171714285D01*
X124139285Y-171785714D01*
X124139285Y-171964285D01*
X124103571Y-172035714D01*
X124067857Y-172071428D01*
G04 #@! TO.C,J20*
X123389285Y-123107142D02*
X123925000Y-123107142D01*
X124032142Y-123142857D01*
X124103571Y-123214285D01*
X124139285Y-123321428D01*
X124139285Y-123392857D01*
X123460714Y-122785714D02*
X123425000Y-122750000D01*
X123389285Y-122678571D01*
X123389285Y-122500000D01*
X123425000Y-122428571D01*
X123460714Y-122392857D01*
X123532142Y-122357142D01*
X123603571Y-122357142D01*
X123710714Y-122392857D01*
X124139285Y-122821428D01*
X124139285Y-122357142D01*
X123389285Y-121892857D02*
X123389285Y-121821428D01*
X123425000Y-121750000D01*
X123460714Y-121714285D01*
X123532142Y-121678571D01*
X123675000Y-121642857D01*
X123853571Y-121642857D01*
X123996428Y-121678571D01*
X124067857Y-121714285D01*
X124103571Y-121750000D01*
X124139285Y-121821428D01*
X124139285Y-121892857D01*
X124103571Y-121964285D01*
X124067857Y-122000000D01*
X123996428Y-122035714D01*
X123853571Y-122071428D01*
X123675000Y-122071428D01*
X123532142Y-122035714D01*
X123460714Y-122000000D01*
X123425000Y-121964285D01*
X123389285Y-121892857D01*
G04 #@! TO.C,J11*
X134867380Y-78534523D02*
X135581666Y-78534523D01*
X135724523Y-78582142D01*
X135819761Y-78677380D01*
X135867380Y-78820238D01*
X135867380Y-78915476D01*
X135867380Y-77534523D02*
X135867380Y-78105952D01*
X135867380Y-77820238D02*
X134867380Y-77820238D01*
X135010238Y-77915476D01*
X135105476Y-78010714D01*
X135153095Y-78105952D01*
X135867380Y-76582142D02*
X135867380Y-77153571D01*
X135867380Y-76867857D02*
X134867380Y-76867857D01*
X135010238Y-76963095D01*
X135105476Y-77058333D01*
X135153095Y-77153571D01*
G04 #@! TO.C,TP8*
X193781285Y-119336428D02*
X193781285Y-118907857D01*
X194531285Y-119122142D02*
X193781285Y-119122142D01*
X194531285Y-118657857D02*
X193781285Y-118657857D01*
X193781285Y-118372142D01*
X193817000Y-118300714D01*
X193852714Y-118265000D01*
X193924142Y-118229285D01*
X194031285Y-118229285D01*
X194102714Y-118265000D01*
X194138428Y-118300714D01*
X194174142Y-118372142D01*
X194174142Y-118657857D01*
X194102714Y-117800714D02*
X194067000Y-117872142D01*
X194031285Y-117907857D01*
X193959857Y-117943571D01*
X193924142Y-117943571D01*
X193852714Y-117907857D01*
X193817000Y-117872142D01*
X193781285Y-117800714D01*
X193781285Y-117657857D01*
X193817000Y-117586428D01*
X193852714Y-117550714D01*
X193924142Y-117515000D01*
X193959857Y-117515000D01*
X194031285Y-117550714D01*
X194067000Y-117586428D01*
X194102714Y-117657857D01*
X194102714Y-117800714D01*
X194138428Y-117872142D01*
X194174142Y-117907857D01*
X194245571Y-117943571D01*
X194388428Y-117943571D01*
X194459857Y-117907857D01*
X194495571Y-117872142D01*
X194531285Y-117800714D01*
X194531285Y-117657857D01*
X194495571Y-117586428D01*
X194459857Y-117550714D01*
X194388428Y-117515000D01*
X194245571Y-117515000D01*
X194174142Y-117550714D01*
X194138428Y-117586428D01*
X194102714Y-117657857D01*
X195261571Y-119711428D02*
X195261571Y-119140000D01*
X195547285Y-118390000D02*
X195547285Y-118818571D01*
X195547285Y-118604285D02*
X194797285Y-118604285D01*
X194904428Y-118675714D01*
X194975857Y-118747142D01*
X195011571Y-118818571D01*
X194868714Y-118104285D02*
X194833000Y-118068571D01*
X194797285Y-117997142D01*
X194797285Y-117818571D01*
X194833000Y-117747142D01*
X194868714Y-117711428D01*
X194940142Y-117675714D01*
X195011571Y-117675714D01*
X195118714Y-117711428D01*
X195547285Y-118140000D01*
X195547285Y-117675714D01*
X194797285Y-117461428D02*
X195547285Y-117211428D01*
X194797285Y-116961428D01*
D11*
G04 #@! TO.C,J10*
X167465000Y-51095000D02*
X167465000Y-56235000D01*
X167465000Y-48495000D02*
X167465000Y-49825000D01*
X164805000Y-51095000D02*
X164805000Y-56235000D01*
X164805000Y-56235000D02*
X167465000Y-56235000D01*
X164805000Y-51095000D02*
X167465000Y-51095000D01*
X166135000Y-48495000D02*
X167465000Y-48495000D01*
G04 #@! TO.C,J9*
X166110000Y-109440000D02*
X167440000Y-109440000D01*
X167440000Y-112040000D02*
X167440000Y-132420000D01*
X167440000Y-109440000D02*
X167440000Y-110770000D01*
X164780000Y-112040000D02*
X164780000Y-132420000D01*
X164780000Y-132420000D02*
X167440000Y-132420000D01*
X164780000Y-112040000D02*
X167440000Y-112040000D01*
G04 #@! TO.C,J19*
X189700000Y-155350000D02*
X183500000Y-155350000D01*
X181450000Y-139600000D02*
X186800000Y-139600000D01*
X197200000Y-155350000D02*
X194000000Y-155350000D01*
X182210000Y-153790000D02*
X181450000Y-152850000D01*
X190800000Y-139600000D02*
X197200000Y-139600000D01*
X183500000Y-155350000D02*
X183450000Y-155350000D01*
X197200000Y-139600000D02*
X197200000Y-146000000D01*
X197200000Y-150000000D02*
X197200000Y-155350000D01*
X181450000Y-143000000D02*
X181450000Y-139600000D01*
X183450000Y-155350000D02*
X182860000Y-154610000D01*
X181450000Y-152850000D02*
X181450000Y-147000000D01*
G04 #@! TO.C,J21*
X156450000Y-152850000D02*
X156450000Y-147000000D01*
X172200000Y-155350000D02*
X169000000Y-155350000D01*
X157210000Y-153790000D02*
X156450000Y-152850000D01*
X164700000Y-155350000D02*
X158500000Y-155350000D01*
X156450000Y-139600000D02*
X161800000Y-139600000D01*
X158450000Y-155350000D02*
X157860000Y-154610000D01*
X172200000Y-150000000D02*
X172200000Y-155350000D01*
X172200000Y-139600000D02*
X172200000Y-146000000D01*
X165800000Y-139600000D02*
X172200000Y-139600000D01*
X158500000Y-155350000D02*
X158450000Y-155350000D01*
X156450000Y-143000000D02*
X156450000Y-139600000D01*
G04 #@! TO.C,J22*
X107210000Y-153790000D02*
X106450000Y-152850000D01*
X122200000Y-155350000D02*
X119000000Y-155350000D01*
X106450000Y-139600000D02*
X111800000Y-139600000D01*
X115800000Y-139600000D02*
X122200000Y-139600000D01*
X106450000Y-143000000D02*
X106450000Y-139600000D01*
X106450000Y-152850000D02*
X106450000Y-147000000D01*
X122200000Y-150000000D02*
X122200000Y-155350000D01*
X122200000Y-139600000D02*
X122200000Y-146000000D01*
X108500000Y-155350000D02*
X108450000Y-155350000D01*
X108450000Y-155350000D02*
X107860000Y-154610000D01*
X114700000Y-155350000D02*
X108500000Y-155350000D01*
G04 #@! TO.C,J26*
X181450000Y-164600000D02*
X186800000Y-164600000D01*
X190800000Y-164600000D02*
X197200000Y-164600000D01*
X197200000Y-164600000D02*
X197200000Y-171000000D01*
X183450000Y-180350000D02*
X182860000Y-179610000D01*
X181450000Y-168000000D02*
X181450000Y-164600000D01*
X182210000Y-178790000D02*
X181450000Y-177850000D01*
X189700000Y-180350000D02*
X183500000Y-180350000D01*
X197200000Y-180350000D02*
X194000000Y-180350000D01*
X197200000Y-175000000D02*
X197200000Y-180350000D01*
X181450000Y-177850000D02*
X181450000Y-172000000D01*
X183500000Y-180350000D02*
X183450000Y-180350000D01*
G04 #@! TO.C,J28*
X133500000Y-155350000D02*
X133450000Y-155350000D01*
X133450000Y-155350000D02*
X132860000Y-154610000D01*
X147200000Y-139600000D02*
X147200000Y-146000000D01*
X147200000Y-155350000D02*
X144000000Y-155350000D01*
X131450000Y-152850000D02*
X131450000Y-147000000D01*
X132210000Y-153790000D02*
X131450000Y-152850000D01*
X131450000Y-143000000D02*
X131450000Y-139600000D01*
X139700000Y-155350000D02*
X133500000Y-155350000D01*
X131450000Y-139600000D02*
X136800000Y-139600000D01*
X140800000Y-139600000D02*
X147200000Y-139600000D01*
X147200000Y-150000000D02*
X147200000Y-155350000D01*
G04 #@! TO.C,J27*
X172200000Y-175000000D02*
X172200000Y-180350000D01*
X165800000Y-164600000D02*
X172200000Y-164600000D01*
X156450000Y-164600000D02*
X161800000Y-164600000D01*
X164700000Y-180350000D02*
X158500000Y-180350000D01*
X158500000Y-180350000D02*
X158450000Y-180350000D01*
X157210000Y-178790000D02*
X156450000Y-177850000D01*
X172200000Y-164600000D02*
X172200000Y-171000000D01*
X156450000Y-177850000D02*
X156450000Y-172000000D01*
X158450000Y-180350000D02*
X157860000Y-179610000D01*
X172200000Y-180350000D02*
X169000000Y-180350000D01*
X156450000Y-168000000D02*
X156450000Y-164600000D01*
G04 #@! TO.C,TP9*
X198190000Y-111720000D02*
X196290000Y-111720000D01*
X196290000Y-111720000D02*
X196290000Y-109820000D01*
X198190000Y-109820000D02*
X198190000Y-111720000D01*
X196290000Y-109820000D02*
X198190000Y-109820000D01*
G04 #@! TO.C,J24*
X140800000Y-164600000D02*
X147200000Y-164600000D01*
X133500000Y-180350000D02*
X133450000Y-180350000D01*
X132210000Y-178790000D02*
X131450000Y-177850000D01*
X131450000Y-177850000D02*
X131450000Y-172000000D01*
X147200000Y-164600000D02*
X147200000Y-171000000D01*
X147200000Y-180350000D02*
X144000000Y-180350000D01*
X147200000Y-175000000D02*
X147200000Y-180350000D01*
X139700000Y-180350000D02*
X133500000Y-180350000D01*
X131450000Y-168000000D02*
X131450000Y-164600000D01*
X131450000Y-164600000D02*
X136800000Y-164600000D01*
X133450000Y-180350000D02*
X132860000Y-179610000D01*
G04 #@! TO.C,TP7*
X198190000Y-103150000D02*
G75*
G03*
X198190000Y-103150000I-950000J0D01*
G01*
G04 #@! TO.C,J18*
X133450000Y-130350000D02*
X132860000Y-129610000D01*
X131450000Y-114600000D02*
X136800000Y-114600000D01*
X140800000Y-114600000D02*
X147200000Y-114600000D01*
X147200000Y-114600000D02*
X147200000Y-121000000D01*
X133500000Y-130350000D02*
X133450000Y-130350000D01*
X131450000Y-118000000D02*
X131450000Y-114600000D01*
X132210000Y-128790000D02*
X131450000Y-127850000D01*
X147200000Y-130350000D02*
X144000000Y-130350000D01*
X139700000Y-130350000D02*
X133500000Y-130350000D01*
X131450000Y-127850000D02*
X131450000Y-122000000D01*
X147200000Y-125000000D02*
X147200000Y-130350000D01*
G04 #@! TO.C,J25*
X108450000Y-180350000D02*
X107860000Y-179610000D01*
X106450000Y-168000000D02*
X106450000Y-164600000D01*
X106450000Y-164600000D02*
X111800000Y-164600000D01*
X107210000Y-178790000D02*
X106450000Y-177850000D01*
X122200000Y-164600000D02*
X122200000Y-171000000D01*
X106450000Y-177850000D02*
X106450000Y-172000000D01*
X115800000Y-164600000D02*
X122200000Y-164600000D01*
X114700000Y-180350000D02*
X108500000Y-180350000D01*
X122200000Y-180350000D02*
X119000000Y-180350000D01*
X122200000Y-175000000D02*
X122200000Y-180350000D01*
X108500000Y-180350000D02*
X108450000Y-180350000D01*
G04 #@! TO.C,J20*
X106450000Y-114600000D02*
X111800000Y-114600000D01*
X106450000Y-127850000D02*
X106450000Y-122000000D01*
X122200000Y-130350000D02*
X119000000Y-130350000D01*
X106450000Y-118000000D02*
X106450000Y-114600000D01*
X108450000Y-130350000D02*
X107860000Y-129610000D01*
X114700000Y-130350000D02*
X108500000Y-130350000D01*
X122200000Y-114600000D02*
X122200000Y-121000000D01*
X122200000Y-125000000D02*
X122200000Y-130350000D01*
X108500000Y-130350000D02*
X108450000Y-130350000D01*
X107210000Y-128790000D02*
X106450000Y-127850000D01*
X115800000Y-114600000D02*
X122200000Y-114600000D01*
G04 #@! TO.C,J11*
X139455000Y-76395000D02*
X144595000Y-76395000D01*
X139455000Y-79055000D02*
X144595000Y-79055000D01*
X139455000Y-79055000D02*
X139455000Y-76395000D01*
X136855000Y-76395000D02*
X138185000Y-76395000D01*
X144595000Y-79055000D02*
X144595000Y-76395000D01*
X136855000Y-77725000D02*
X136855000Y-76395000D01*
G04 #@! TO.C,TP8*
X198190000Y-118390000D02*
G75*
G03*
X198190000Y-118390000I-950000J0D01*
G01*
G04 #@! TD*
M02*
