G04 #@! TF.GenerationSoftware,KiCad,Pcbnew,6.0.1-79c1e3a40b~116~ubuntu20.04.1*
G04 #@! TF.CreationDate,2022-01-29T22:23:29-05:00*
G04 #@! TF.ProjectId,herovco_back,6865726f-7663-46f5-9f62-61636b2e6b69,rev?*
G04 #@! TF.SameCoordinates,Original*
G04 #@! TF.FileFunction,Soldermask,Top*
G04 #@! TF.FilePolarity,Negative*
%FSLAX46Y46*%
G04 Gerber Fmt 4.6, Leading zero omitted, Abs format (unit mm)*
G04 Created by KiCad (PCBNEW 6.0.1-79c1e3a40b~116~ubuntu20.04.1) date 2022-01-29 22:23:29*
%MOMM*%
%LPD*%
G01*
G04 APERTURE LIST*
G04 Aperture macros list*
%AMRoundRect*
0 Rectangle with rounded corners*
0 $1 Rounding radius*
0 $2 $3 $4 $5 $6 $7 $8 $9 X,Y pos of 4 corners*
0 Add a 4 corners polygon primitive as box body*
4,1,4,$2,$3,$4,$5,$6,$7,$8,$9,$2,$3,0*
0 Add four circle primitives for the rounded corners*
1,1,$1+$1,$2,$3*
1,1,$1+$1,$4,$5*
1,1,$1+$1,$6,$7*
1,1,$1+$1,$8,$9*
0 Add four rect primitives between the rounded corners*
20,1,$1+$1,$2,$3,$4,$5,0*
20,1,$1+$1,$4,$5,$6,$7,0*
20,1,$1+$1,$6,$7,$8,$9,0*
20,1,$1+$1,$8,$9,$2,$3,0*%
G04 Aperture macros list end*
%ADD10RoundRect,0.050000X-0.850000X-0.850000X0.850000X-0.850000X0.850000X0.850000X-0.850000X0.850000X0*%
%ADD11O,1.800000X1.800000*%
%ADD12C,3.300000*%
%ADD13C,4.600001*%
%ADD14RoundRect,0.050000X-2.250000X2.250000X-2.250000X-2.250000X2.250000X-2.250000X2.250000X2.250000X0*%
%ADD15C,4.600000*%
%ADD16RoundRect,0.050000X0.750000X-0.750000X0.750000X0.750000X-0.750000X0.750000X-0.750000X-0.750000X0*%
%ADD17C,1.600000*%
%ADD18RoundRect,0.050000X0.850000X-0.850000X0.850000X0.850000X-0.850000X0.850000X-0.850000X-0.850000X0*%
%ADD19C,1.540000*%
%ADD20C,1.700000*%
%ADD21O,1.700000X1.700000*%
%ADD22RoundRect,0.050000X-0.863600X-0.863600X0.863600X-0.863600X0.863600X0.863600X-0.863600X0.863600X0*%
%ADD23O,1.827200X1.827200*%
%ADD24RoundRect,0.050000X-1.100000X1.100000X-1.100000X-1.100000X1.100000X-1.100000X1.100000X1.100000X0*%
%ADD25O,2.300000X2.300000*%
%ADD26RoundRect,0.300000X-0.600000X-0.600000X0.600000X-0.600000X0.600000X0.600000X-0.600000X0.600000X0*%
%ADD27C,1.800000*%
%ADD28RoundRect,0.050000X-0.800000X-0.800000X0.800000X-0.800000X0.800000X0.800000X-0.800000X0.800000X0*%
%ADD29RoundRect,0.050000X-1.200000X-0.800000X1.200000X-0.800000X1.200000X0.800000X-1.200000X0.800000X0*%
%ADD30O,2.500000X1.700000*%
%ADD31RoundRect,0.050000X0.800000X0.800000X-0.800000X0.800000X-0.800000X-0.800000X0.800000X-0.800000X0*%
%ADD32RoundRect,0.050000X1.100000X-1.100000X1.100000X1.100000X-1.100000X1.100000X-1.100000X-1.100000X0*%
G04 APERTURE END LIST*
D10*
G04 #@! TO.C,J10*
X166135000Y-49825000D03*
D11*
X166135000Y-52365000D03*
X166135000Y-54905000D03*
G04 #@! TD*
D10*
G04 #@! TO.C,J9*
X166110000Y-110770000D03*
D11*
X166110000Y-113310000D03*
X166110000Y-115850000D03*
X166110000Y-118390000D03*
X166110000Y-120930000D03*
X166110000Y-123470000D03*
X166110000Y-126010000D03*
X166110000Y-128550000D03*
X166110000Y-131090000D03*
G04 #@! TD*
D12*
G04 #@! TO.C,H6*
X126300000Y-108500000D03*
G04 #@! TD*
D13*
G04 #@! TO.C,J19*
X195700000Y-148000000D03*
X191800000Y-153900000D03*
D14*
X184560000Y-152240000D03*
D15*
X188800000Y-141100000D03*
X182900000Y-145000000D03*
G04 #@! TD*
D12*
G04 #@! TO.C,H5*
X144800000Y-30500000D03*
G04 #@! TD*
D13*
G04 #@! TO.C,J21*
X170700000Y-148000000D03*
X166800000Y-153900000D03*
D14*
X159560000Y-152240000D03*
D15*
X163800000Y-141100000D03*
X157900000Y-145000000D03*
G04 #@! TD*
D13*
G04 #@! TO.C,J22*
X120700000Y-148000000D03*
X116800000Y-153900000D03*
D14*
X109560000Y-152240000D03*
D15*
X113800000Y-141100000D03*
X107900000Y-145000000D03*
G04 #@! TD*
D13*
G04 #@! TO.C,J26*
X195700000Y-173000000D03*
X191800000Y-178900000D03*
D14*
X184560000Y-177240000D03*
D15*
X188800000Y-166100000D03*
X182900000Y-170000000D03*
G04 #@! TD*
D13*
G04 #@! TO.C,J28*
X145700000Y-148000000D03*
X141800000Y-153900000D03*
D14*
X134560000Y-152240000D03*
D15*
X138800000Y-141100000D03*
X132900000Y-145000000D03*
G04 #@! TD*
D13*
G04 #@! TO.C,J27*
X170700000Y-173000000D03*
X166800000Y-178900000D03*
D14*
X159560000Y-177240000D03*
D15*
X163800000Y-166100000D03*
X157900000Y-170000000D03*
G04 #@! TD*
D16*
G04 #@! TO.C,TP9*
X197240000Y-110770000D03*
G04 #@! TD*
D13*
G04 #@! TO.C,J24*
X145700000Y-173000000D03*
X141800000Y-178900000D03*
D14*
X134560000Y-177240000D03*
D15*
X138800000Y-166100000D03*
X132900000Y-170000000D03*
G04 #@! TD*
D17*
G04 #@! TO.C,TP7*
X197240000Y-103150000D03*
G04 #@! TD*
D12*
G04 #@! TO.C,H4*
X195800000Y-133500000D03*
G04 #@! TD*
D13*
G04 #@! TO.C,J18*
X145700000Y-123000000D03*
X141800000Y-128900000D03*
D14*
X134560000Y-127240000D03*
D15*
X138800000Y-116100000D03*
X132900000Y-120000000D03*
G04 #@! TD*
D13*
G04 #@! TO.C,J25*
X120700000Y-173000000D03*
X116800000Y-178900000D03*
D14*
X109560000Y-177240000D03*
D15*
X113800000Y-166100000D03*
X107900000Y-170000000D03*
G04 #@! TD*
D13*
G04 #@! TO.C,J20*
X120700000Y-123000000D03*
X116800000Y-128900000D03*
D14*
X109560000Y-127240000D03*
D15*
X113800000Y-116100000D03*
X107900000Y-120000000D03*
G04 #@! TD*
D18*
G04 #@! TO.C,J11*
X138185000Y-77725000D03*
D11*
X140725000Y-77725000D03*
X143265000Y-77725000D03*
G04 #@! TD*
D17*
G04 #@! TO.C,TP8*
X197240000Y-118390000D03*
G04 #@! TD*
D19*
G04 #@! TO.C,RV11*
X194700000Y-74250000D03*
X194700000Y-71710000D03*
X194700000Y-69170000D03*
G04 #@! TD*
D20*
G04 #@! TO.C,C17*
X180730000Y-80290000D03*
X178230000Y-80290000D03*
G04 #@! TD*
G04 #@! TO.C,R52*
X157870000Y-84100000D03*
D21*
X147710000Y-84100000D03*
G04 #@! TD*
D20*
G04 #@! TO.C,R45*
X179460000Y-71400000D03*
D21*
X189620000Y-71400000D03*
G04 #@! TD*
D20*
G04 #@! TO.C,R57*
X157870000Y-91720000D03*
D21*
X147710000Y-91720000D03*
G04 #@! TD*
D20*
G04 #@! TO.C,R64*
X133740000Y-65050000D03*
D21*
X143900000Y-65050000D03*
G04 #@! TD*
D20*
G04 #@! TO.C,R58*
X143900000Y-72670000D03*
D21*
X133740000Y-72670000D03*
G04 #@! TD*
D22*
G04 #@! TO.C,J23*
X179460000Y-123470000D03*
D23*
X182000000Y-123470000D03*
X179460000Y-120930000D03*
X182000000Y-120930000D03*
X179460000Y-118390000D03*
X182000000Y-118390000D03*
X179460000Y-115850000D03*
X182000000Y-115850000D03*
X179460000Y-113310000D03*
X182000000Y-113310000D03*
G04 #@! TD*
D24*
G04 #@! TO.C,D3*
X173110000Y-106960000D03*
D25*
X173110000Y-117120000D03*
G04 #@! TD*
D20*
G04 #@! TO.C,R56*
X174460000Y-68860000D03*
D21*
X164300000Y-68860000D03*
G04 #@! TD*
D20*
G04 #@! TO.C,R44*
X179460000Y-87910000D03*
D21*
X189620000Y-87910000D03*
G04 #@! TD*
D26*
G04 #@! TO.C,J17*
X138820000Y-95530000D03*
D27*
X141360000Y-95530000D03*
X138820000Y-92990000D03*
X141360000Y-92990000D03*
X138820000Y-90450000D03*
X141360000Y-90450000D03*
X138820000Y-87910000D03*
X141360000Y-87910000D03*
G04 #@! TD*
D20*
G04 #@! TO.C,R55*
X157870000Y-72670000D03*
D21*
X147710000Y-72670000D03*
G04 #@! TD*
D20*
G04 #@! TO.C,R60*
X157870000Y-95530000D03*
D21*
X147710000Y-95530000D03*
G04 #@! TD*
D20*
G04 #@! TO.C,C16*
X160410000Y-80290000D03*
X157910000Y-80290000D03*
G04 #@! TD*
D16*
G04 #@! TO.C,Q1*
X189620000Y-80290000D03*
D17*
X187080000Y-80290000D03*
X184540000Y-80290000D03*
G04 #@! TD*
D20*
G04 #@! TO.C,R61*
X143900000Y-68860000D03*
D21*
X133740000Y-68860000D03*
G04 #@! TD*
D28*
G04 #@! TO.C,C15*
X171920000Y-96800000D03*
D20*
X174420000Y-96800000D03*
G04 #@! TD*
G04 #@! TO.C,R48*
X189620000Y-58700000D03*
D21*
X179460000Y-58700000D03*
G04 #@! TD*
D20*
G04 #@! TO.C,R66*
X147710000Y-106960000D03*
D21*
X157870000Y-106960000D03*
G04 #@! TD*
D20*
G04 #@! TO.C,R67*
X157870000Y-65050000D03*
D21*
X147710000Y-65050000D03*
G04 #@! TD*
D16*
G04 #@! TO.C,Q2*
X189620000Y-67590000D03*
D17*
X187080000Y-67590000D03*
X184540000Y-67590000D03*
G04 #@! TD*
D29*
G04 #@! TO.C,U7*
X165490000Y-87910000D03*
D30*
X165490000Y-85370000D03*
X165490000Y-82830000D03*
X165490000Y-80290000D03*
X165490000Y-77750000D03*
X165490000Y-75210000D03*
X165490000Y-72670000D03*
X173110000Y-72670000D03*
X173110000Y-75210000D03*
X173110000Y-77750000D03*
X173110000Y-80290000D03*
X173110000Y-82830000D03*
X173110000Y-85370000D03*
X173110000Y-87910000D03*
G04 #@! TD*
D20*
G04 #@! TO.C,R65*
X179540000Y-51080000D03*
D21*
X189700000Y-51080000D03*
G04 #@! TD*
D20*
G04 #@! TO.C,R59*
X174460000Y-65050000D03*
D21*
X164300000Y-65050000D03*
G04 #@! TD*
D31*
G04 #@! TO.C,C14*
X165570000Y-96800000D03*
D20*
X163070000Y-96800000D03*
G04 #@! TD*
G04 #@! TO.C,R62*
X189700000Y-54890000D03*
D21*
X179540000Y-54890000D03*
G04 #@! TD*
D20*
G04 #@! TO.C,R42*
X189620000Y-62510000D03*
D21*
X179460000Y-62510000D03*
G04 #@! TD*
D20*
G04 #@! TO.C,R46*
X179460000Y-91720000D03*
D21*
X189620000Y-91720000D03*
G04 #@! TD*
D20*
G04 #@! TO.C,R50*
X179460000Y-99340000D03*
D21*
X189620000Y-99340000D03*
G04 #@! TD*
D19*
G04 #@! TO.C,RV10*
X194700000Y-61550000D03*
X194700000Y-59010000D03*
X194700000Y-56470000D03*
G04 #@! TD*
D20*
G04 #@! TO.C,R43*
X189620000Y-84100000D03*
D21*
X179460000Y-84100000D03*
G04 #@! TD*
D20*
G04 #@! TO.C,C18*
X155370000Y-103150000D03*
X157870000Y-103150000D03*
G04 #@! TD*
G04 #@! TO.C,R47*
X179460000Y-75210000D03*
D21*
X189620000Y-75210000D03*
G04 #@! TD*
D20*
G04 #@! TO.C,R63*
X147710000Y-99340000D03*
D21*
X157870000Y-99340000D03*
G04 #@! TD*
D20*
G04 #@! TO.C,R54*
X157870000Y-87910000D03*
D21*
X147710000Y-87910000D03*
G04 #@! TD*
D20*
G04 #@! TO.C,R51*
X189620000Y-103150000D03*
D21*
X179460000Y-103150000D03*
G04 #@! TD*
D19*
G04 #@! TO.C,RV12*
X194700000Y-95840000D03*
X194700000Y-93300000D03*
X194700000Y-90760000D03*
G04 #@! TD*
D20*
G04 #@! TO.C,R53*
X157870000Y-76480000D03*
D21*
X147710000Y-76480000D03*
G04 #@! TD*
D20*
G04 #@! TO.C,R49*
X189620000Y-95530000D03*
D21*
X179460000Y-95530000D03*
G04 #@! TD*
D20*
G04 #@! TO.C,C19*
X157870000Y-68860000D03*
X155370000Y-68860000D03*
G04 #@! TD*
D32*
G04 #@! TO.C,D4*
X173110000Y-131090000D03*
D25*
X173110000Y-120930000D03*
G04 #@! TD*
M02*
