G04 #@! TF.GenerationSoftware,KiCad,Pcbnew,6.0.5-a6ca702e91~116~ubuntu20.04.1*
G04 #@! TF.CreationDate,2022-06-19T13:50:02-04:00*
G04 #@! TF.ProjectId,herovco_back,6865726f-7663-46f5-9f62-61636b2e6b69,rev?*
G04 #@! TF.SameCoordinates,Original*
G04 #@! TF.FileFunction,Legend,Top*
G04 #@! TF.FilePolarity,Positive*
%FSLAX46Y46*%
G04 Gerber Fmt 4.6, Leading zero omitted, Abs format (unit mm)*
G04 Created by KiCad (PCBNEW 6.0.5-a6ca702e91~116~ubuntu20.04.1) date 2022-06-19 13:50:02*
%MOMM*%
%LPD*%
G01*
G04 APERTURE LIST*
%ADD10C,0.150000*%
%ADD11C,0.120000*%
G04 APERTURE END LIST*
D10*
X110486666Y-159512380D02*
X111058095Y-159512380D01*
X110772380Y-160512380D02*
X110772380Y-159512380D01*
X111391428Y-160512380D02*
X111391428Y-159845714D01*
X111391428Y-160036190D02*
X111439047Y-159940952D01*
X111486666Y-159893333D01*
X111581904Y-159845714D01*
X111677142Y-159845714D01*
X112010476Y-160512380D02*
X112010476Y-159845714D01*
X112010476Y-159512380D02*
X111962857Y-159560000D01*
X112010476Y-159607619D01*
X112058095Y-159560000D01*
X112010476Y-159512380D01*
X112010476Y-159607619D01*
X133439047Y-134512380D02*
X133772380Y-135512380D01*
X134105714Y-134512380D01*
X135153333Y-134464761D02*
X134296190Y-135750476D01*
X135629523Y-135512380D02*
X135534285Y-135464761D01*
X135486666Y-135417142D01*
X135439047Y-135321904D01*
X135439047Y-135036190D01*
X135486666Y-134940952D01*
X135534285Y-134893333D01*
X135629523Y-134845714D01*
X135772380Y-134845714D01*
X135867619Y-134893333D01*
X135915238Y-134940952D01*
X135962857Y-135036190D01*
X135962857Y-135321904D01*
X135915238Y-135417142D01*
X135867619Y-135464761D01*
X135772380Y-135512380D01*
X135629523Y-135512380D01*
X136820000Y-135464761D02*
X136724761Y-135512380D01*
X136534285Y-135512380D01*
X136439047Y-135464761D01*
X136391428Y-135417142D01*
X136343809Y-135321904D01*
X136343809Y-135036190D01*
X136391428Y-134940952D01*
X136439047Y-134893333D01*
X136534285Y-134845714D01*
X136724761Y-134845714D01*
X136820000Y-134893333D01*
X137105714Y-134845714D02*
X137486666Y-134845714D01*
X137248571Y-134512380D02*
X137248571Y-135369523D01*
X137296190Y-135464761D01*
X137391428Y-135512380D01*
X137486666Y-135512380D01*
X138534285Y-134607619D02*
X138581904Y-134560000D01*
X138677142Y-134512380D01*
X138915238Y-134512380D01*
X139010476Y-134560000D01*
X139058095Y-134607619D01*
X139105714Y-134702857D01*
X139105714Y-134798095D01*
X139058095Y-134940952D01*
X138486666Y-135512380D01*
X139105714Y-135512380D01*
X158867619Y-134988571D02*
X159200952Y-134988571D01*
X159343809Y-135512380D02*
X158867619Y-135512380D01*
X158867619Y-134512380D01*
X159343809Y-134512380D01*
X159677142Y-135512380D02*
X160200952Y-134845714D01*
X159677142Y-134845714D02*
X160200952Y-135512380D01*
X160581904Y-134845714D02*
X160581904Y-135845714D01*
X160581904Y-134893333D02*
X160677142Y-134845714D01*
X160867619Y-134845714D01*
X160962857Y-134893333D01*
X161010476Y-134940952D01*
X161058095Y-135036190D01*
X161058095Y-135321904D01*
X161010476Y-135417142D01*
X160962857Y-135464761D01*
X160867619Y-135512380D01*
X160677142Y-135512380D01*
X160581904Y-135464761D01*
X162581904Y-134988571D02*
X162248571Y-134988571D01*
X162248571Y-135512380D02*
X162248571Y-134512380D01*
X162724761Y-134512380D01*
X163105714Y-135512380D02*
X163105714Y-134512380D01*
X163439047Y-135226666D01*
X163772380Y-134512380D01*
X163772380Y-135512380D01*
X135343809Y-160464761D02*
X135486666Y-160512380D01*
X135724761Y-160512380D01*
X135820000Y-160464761D01*
X135867619Y-160417142D01*
X135915238Y-160321904D01*
X135915238Y-160226666D01*
X135867619Y-160131428D01*
X135820000Y-160083809D01*
X135724761Y-160036190D01*
X135534285Y-159988571D01*
X135439047Y-159940952D01*
X135391428Y-159893333D01*
X135343809Y-159798095D01*
X135343809Y-159702857D01*
X135391428Y-159607619D01*
X135439047Y-159560000D01*
X135534285Y-159512380D01*
X135772380Y-159512380D01*
X135915238Y-159560000D01*
X136343809Y-160512380D02*
X136343809Y-159845714D01*
X136343809Y-159512380D02*
X136296190Y-159560000D01*
X136343809Y-159607619D01*
X136391428Y-159560000D01*
X136343809Y-159512380D01*
X136343809Y-159607619D01*
X136820000Y-159845714D02*
X136820000Y-160512380D01*
X136820000Y-159940952D02*
X136867619Y-159893333D01*
X136962857Y-159845714D01*
X137105714Y-159845714D01*
X137200952Y-159893333D01*
X137248571Y-159988571D01*
X137248571Y-160512380D01*
X134915238Y-110512380D02*
X134915238Y-109512380D01*
X135296190Y-109512380D01*
X135391428Y-109560000D01*
X135439047Y-109607619D01*
X135486666Y-109702857D01*
X135486666Y-109845714D01*
X135439047Y-109940952D01*
X135391428Y-109988571D01*
X135296190Y-110036190D01*
X134915238Y-110036190D01*
X135820000Y-109512380D02*
X136058095Y-110512380D01*
X136248571Y-109798095D01*
X136439047Y-110512380D01*
X136677142Y-109512380D01*
X137058095Y-110512380D02*
X137058095Y-109512380D01*
X137391428Y-110226666D01*
X137724761Y-109512380D01*
X137724761Y-110512380D01*
X109772380Y-110198761D02*
X109915238Y-110246380D01*
X110153333Y-110246380D01*
X110248571Y-110198761D01*
X110296190Y-110151142D01*
X110343809Y-110055904D01*
X110343809Y-109960666D01*
X110296190Y-109865428D01*
X110248571Y-109817809D01*
X110153333Y-109770190D01*
X109962857Y-109722571D01*
X109867619Y-109674952D01*
X109820000Y-109627333D01*
X109772380Y-109532095D01*
X109772380Y-109436857D01*
X109820000Y-109341619D01*
X109867619Y-109294000D01*
X109962857Y-109246380D01*
X110200952Y-109246380D01*
X110343809Y-109294000D01*
X110677142Y-109579714D02*
X110915238Y-110246380D01*
X111153333Y-109579714D02*
X110915238Y-110246380D01*
X110820000Y-110484476D01*
X110772380Y-110532095D01*
X110677142Y-110579714D01*
X111534285Y-109579714D02*
X111534285Y-110246380D01*
X111534285Y-109674952D02*
X111581904Y-109627333D01*
X111677142Y-109579714D01*
X111820000Y-109579714D01*
X111915238Y-109627333D01*
X111962857Y-109722571D01*
X111962857Y-110246380D01*
X112867619Y-110198761D02*
X112772380Y-110246380D01*
X112581904Y-110246380D01*
X112486666Y-110198761D01*
X112439047Y-110151142D01*
X112391428Y-110055904D01*
X112391428Y-109770190D01*
X112439047Y-109674952D01*
X112486666Y-109627333D01*
X112581904Y-109579714D01*
X112772380Y-109579714D01*
X112867619Y-109627333D01*
X108439047Y-134512380D02*
X108772380Y-135512380D01*
X109105714Y-134512380D01*
X110153333Y-134464761D02*
X109296190Y-135750476D01*
X110629523Y-135512380D02*
X110534285Y-135464761D01*
X110486666Y-135417142D01*
X110439047Y-135321904D01*
X110439047Y-135036190D01*
X110486666Y-134940952D01*
X110534285Y-134893333D01*
X110629523Y-134845714D01*
X110772380Y-134845714D01*
X110867619Y-134893333D01*
X110915238Y-134940952D01*
X110962857Y-135036190D01*
X110962857Y-135321904D01*
X110915238Y-135417142D01*
X110867619Y-135464761D01*
X110772380Y-135512380D01*
X110629523Y-135512380D01*
X111820000Y-135464761D02*
X111724761Y-135512380D01*
X111534285Y-135512380D01*
X111439047Y-135464761D01*
X111391428Y-135417142D01*
X111343809Y-135321904D01*
X111343809Y-135036190D01*
X111391428Y-134940952D01*
X111439047Y-134893333D01*
X111534285Y-134845714D01*
X111724761Y-134845714D01*
X111820000Y-134893333D01*
X112105714Y-134845714D02*
X112486666Y-134845714D01*
X112248571Y-134512380D02*
X112248571Y-135369523D01*
X112296190Y-135464761D01*
X112391428Y-135512380D01*
X112486666Y-135512380D01*
X114105714Y-135512380D02*
X113534285Y-135512380D01*
X113820000Y-135512380D02*
X113820000Y-134512380D01*
X113724761Y-134655238D01*
X113629523Y-134750476D01*
X113534285Y-134798095D01*
X184010476Y-160512380D02*
X184010476Y-159512380D01*
X184391428Y-159512380D01*
X184486666Y-159560000D01*
X184534285Y-159607619D01*
X184581904Y-159702857D01*
X184581904Y-159845714D01*
X184534285Y-159940952D01*
X184486666Y-159988571D01*
X184391428Y-160036190D01*
X184010476Y-160036190D01*
X185439047Y-159845714D02*
X185439047Y-160512380D01*
X185010476Y-159845714D02*
X185010476Y-160369523D01*
X185058095Y-160464761D01*
X185153333Y-160512380D01*
X185296190Y-160512380D01*
X185391428Y-160464761D01*
X185439047Y-160417142D01*
X186058095Y-160512380D02*
X185962857Y-160464761D01*
X185915238Y-160369523D01*
X185915238Y-159512380D01*
X186391428Y-160464761D02*
X186486666Y-160512380D01*
X186677142Y-160512380D01*
X186772380Y-160464761D01*
X186820000Y-160369523D01*
X186820000Y-160321904D01*
X186772380Y-160226666D01*
X186677142Y-160179047D01*
X186534285Y-160179047D01*
X186439047Y-160131428D01*
X186391428Y-160036190D01*
X186391428Y-159988571D01*
X186439047Y-159893333D01*
X186534285Y-159845714D01*
X186677142Y-159845714D01*
X186772380Y-159893333D01*
X187629523Y-160464761D02*
X187534285Y-160512380D01*
X187343809Y-160512380D01*
X187248571Y-160464761D01*
X187200952Y-160369523D01*
X187200952Y-159988571D01*
X187248571Y-159893333D01*
X187343809Y-159845714D01*
X187534285Y-159845714D01*
X187629523Y-159893333D01*
X187677142Y-159988571D01*
X187677142Y-160083809D01*
X187200952Y-160179047D01*
X160058095Y-160464761D02*
X160200952Y-160512380D01*
X160439047Y-160512380D01*
X160534285Y-160464761D01*
X160581904Y-160417142D01*
X160629523Y-160321904D01*
X160629523Y-160226666D01*
X160581904Y-160131428D01*
X160534285Y-160083809D01*
X160439047Y-160036190D01*
X160248571Y-159988571D01*
X160153333Y-159940952D01*
X160105714Y-159893333D01*
X160058095Y-159798095D01*
X160058095Y-159702857D01*
X160105714Y-159607619D01*
X160153333Y-159560000D01*
X160248571Y-159512380D01*
X160486666Y-159512380D01*
X160629523Y-159560000D01*
X161486666Y-160512380D02*
X161486666Y-159988571D01*
X161439047Y-159893333D01*
X161343809Y-159845714D01*
X161153333Y-159845714D01*
X161058095Y-159893333D01*
X161486666Y-160464761D02*
X161391428Y-160512380D01*
X161153333Y-160512380D01*
X161058095Y-160464761D01*
X161010476Y-160369523D01*
X161010476Y-160274285D01*
X161058095Y-160179047D01*
X161153333Y-160131428D01*
X161391428Y-160131428D01*
X161486666Y-160083809D01*
X161867619Y-159845714D02*
X162058095Y-160512380D01*
X162248571Y-160036190D01*
X162439047Y-160512380D01*
X162629523Y-159845714D01*
X184558095Y-135512380D02*
X184081904Y-135512380D01*
X184081904Y-134512380D01*
X184891428Y-135512380D02*
X184891428Y-134845714D01*
X184891428Y-134512380D02*
X184843809Y-134560000D01*
X184891428Y-134607619D01*
X184939047Y-134560000D01*
X184891428Y-134512380D01*
X184891428Y-134607619D01*
X185367619Y-134845714D02*
X185367619Y-135512380D01*
X185367619Y-134940952D02*
X185415238Y-134893333D01*
X185510476Y-134845714D01*
X185653333Y-134845714D01*
X185748571Y-134893333D01*
X185796190Y-134988571D01*
X185796190Y-135512380D01*
X187367619Y-134988571D02*
X187034285Y-134988571D01*
X187034285Y-135512380D02*
X187034285Y-134512380D01*
X187510476Y-134512380D01*
X187891428Y-135512380D02*
X187891428Y-134512380D01*
X188224761Y-135226666D01*
X188558095Y-134512380D01*
X188558095Y-135512380D01*
G04 #@! TO.C,TP7*
X190781285Y-101596428D02*
X190781285Y-101167857D01*
X191531285Y-101382142D02*
X190781285Y-101382142D01*
X191531285Y-100917857D02*
X190781285Y-100917857D01*
X190781285Y-100632142D01*
X190817000Y-100560714D01*
X190852714Y-100525000D01*
X190924142Y-100489285D01*
X191031285Y-100489285D01*
X191102714Y-100525000D01*
X191138428Y-100560714D01*
X191174142Y-100632142D01*
X191174142Y-100917857D01*
X190781285Y-100239285D02*
X190781285Y-99739285D01*
X191531285Y-100060714D01*
X192261571Y-101971428D02*
X192261571Y-101400000D01*
X192547285Y-101685714D02*
X191975857Y-101685714D01*
X192547285Y-100650000D02*
X192547285Y-101078571D01*
X192547285Y-100864285D02*
X191797285Y-100864285D01*
X191904428Y-100935714D01*
X191975857Y-101007142D01*
X192011571Y-101078571D01*
X191868714Y-100364285D02*
X191833000Y-100328571D01*
X191797285Y-100257142D01*
X191797285Y-100078571D01*
X191833000Y-100007142D01*
X191868714Y-99971428D01*
X191940142Y-99935714D01*
X192011571Y-99935714D01*
X192118714Y-99971428D01*
X192547285Y-100400000D01*
X192547285Y-99935714D01*
X191797285Y-99721428D02*
X192547285Y-99471428D01*
X191797285Y-99221428D01*
G04 #@! TO.C,TP8*
X190781285Y-116836428D02*
X190781285Y-116407857D01*
X191531285Y-116622142D02*
X190781285Y-116622142D01*
X191531285Y-116157857D02*
X190781285Y-116157857D01*
X190781285Y-115872142D01*
X190817000Y-115800714D01*
X190852714Y-115765000D01*
X190924142Y-115729285D01*
X191031285Y-115729285D01*
X191102714Y-115765000D01*
X191138428Y-115800714D01*
X191174142Y-115872142D01*
X191174142Y-116157857D01*
X191102714Y-115300714D02*
X191067000Y-115372142D01*
X191031285Y-115407857D01*
X190959857Y-115443571D01*
X190924142Y-115443571D01*
X190852714Y-115407857D01*
X190817000Y-115372142D01*
X190781285Y-115300714D01*
X190781285Y-115157857D01*
X190817000Y-115086428D01*
X190852714Y-115050714D01*
X190924142Y-115015000D01*
X190959857Y-115015000D01*
X191031285Y-115050714D01*
X191067000Y-115086428D01*
X191102714Y-115157857D01*
X191102714Y-115300714D01*
X191138428Y-115372142D01*
X191174142Y-115407857D01*
X191245571Y-115443571D01*
X191388428Y-115443571D01*
X191459857Y-115407857D01*
X191495571Y-115372142D01*
X191531285Y-115300714D01*
X191531285Y-115157857D01*
X191495571Y-115086428D01*
X191459857Y-115050714D01*
X191388428Y-115015000D01*
X191245571Y-115015000D01*
X191174142Y-115050714D01*
X191138428Y-115086428D01*
X191102714Y-115157857D01*
X192261571Y-117211428D02*
X192261571Y-116640000D01*
X192547285Y-115890000D02*
X192547285Y-116318571D01*
X192547285Y-116104285D02*
X191797285Y-116104285D01*
X191904428Y-116175714D01*
X191975857Y-116247142D01*
X192011571Y-116318571D01*
X191868714Y-115604285D02*
X191833000Y-115568571D01*
X191797285Y-115497142D01*
X191797285Y-115318571D01*
X191833000Y-115247142D01*
X191868714Y-115211428D01*
X191940142Y-115175714D01*
X192011571Y-115175714D01*
X192118714Y-115211428D01*
X192547285Y-115640000D01*
X192547285Y-115175714D01*
X191797285Y-114961428D02*
X192547285Y-114711428D01*
X191797285Y-114461428D01*
G04 #@! TO.C,J27*
X170389285Y-170607142D02*
X170925000Y-170607142D01*
X171032142Y-170642857D01*
X171103571Y-170714285D01*
X171139285Y-170821428D01*
X171139285Y-170892857D01*
X170460714Y-170285714D02*
X170425000Y-170250000D01*
X170389285Y-170178571D01*
X170389285Y-170000000D01*
X170425000Y-169928571D01*
X170460714Y-169892857D01*
X170532142Y-169857142D01*
X170603571Y-169857142D01*
X170710714Y-169892857D01*
X171139285Y-170321428D01*
X171139285Y-169857142D01*
X170389285Y-169607142D02*
X170389285Y-169107142D01*
X171139285Y-169428571D01*
G04 #@! TO.C,J28*
X145389285Y-145607142D02*
X145925000Y-145607142D01*
X146032142Y-145642857D01*
X146103571Y-145714285D01*
X146139285Y-145821428D01*
X146139285Y-145892857D01*
X145460714Y-145285714D02*
X145425000Y-145250000D01*
X145389285Y-145178571D01*
X145389285Y-145000000D01*
X145425000Y-144928571D01*
X145460714Y-144892857D01*
X145532142Y-144857142D01*
X145603571Y-144857142D01*
X145710714Y-144892857D01*
X146139285Y-145321428D01*
X146139285Y-144857142D01*
X145710714Y-144428571D02*
X145675000Y-144500000D01*
X145639285Y-144535714D01*
X145567857Y-144571428D01*
X145532142Y-144571428D01*
X145460714Y-144535714D01*
X145425000Y-144500000D01*
X145389285Y-144428571D01*
X145389285Y-144285714D01*
X145425000Y-144214285D01*
X145460714Y-144178571D01*
X145532142Y-144142857D01*
X145567857Y-144142857D01*
X145639285Y-144178571D01*
X145675000Y-144214285D01*
X145710714Y-144285714D01*
X145710714Y-144428571D01*
X145746428Y-144500000D01*
X145782142Y-144535714D01*
X145853571Y-144571428D01*
X145996428Y-144571428D01*
X146067857Y-144535714D01*
X146103571Y-144500000D01*
X146139285Y-144428571D01*
X146139285Y-144285714D01*
X146103571Y-144214285D01*
X146067857Y-144178571D01*
X145996428Y-144142857D01*
X145853571Y-144142857D01*
X145782142Y-144178571D01*
X145746428Y-144214285D01*
X145710714Y-144285714D01*
G04 #@! TO.C,J20*
X120389285Y-120607142D02*
X120925000Y-120607142D01*
X121032142Y-120642857D01*
X121103571Y-120714285D01*
X121139285Y-120821428D01*
X121139285Y-120892857D01*
X120460714Y-120285714D02*
X120425000Y-120250000D01*
X120389285Y-120178571D01*
X120389285Y-120000000D01*
X120425000Y-119928571D01*
X120460714Y-119892857D01*
X120532142Y-119857142D01*
X120603571Y-119857142D01*
X120710714Y-119892857D01*
X121139285Y-120321428D01*
X121139285Y-119857142D01*
X120389285Y-119392857D02*
X120389285Y-119321428D01*
X120425000Y-119250000D01*
X120460714Y-119214285D01*
X120532142Y-119178571D01*
X120675000Y-119142857D01*
X120853571Y-119142857D01*
X120996428Y-119178571D01*
X121067857Y-119214285D01*
X121103571Y-119250000D01*
X121139285Y-119321428D01*
X121139285Y-119392857D01*
X121103571Y-119464285D01*
X121067857Y-119500000D01*
X120996428Y-119535714D01*
X120853571Y-119571428D01*
X120675000Y-119571428D01*
X120532142Y-119535714D01*
X120460714Y-119500000D01*
X120425000Y-119464285D01*
X120389285Y-119392857D01*
G04 #@! TO.C,J25*
X120389285Y-170607142D02*
X120925000Y-170607142D01*
X121032142Y-170642857D01*
X121103571Y-170714285D01*
X121139285Y-170821428D01*
X121139285Y-170892857D01*
X120460714Y-170285714D02*
X120425000Y-170250000D01*
X120389285Y-170178571D01*
X120389285Y-170000000D01*
X120425000Y-169928571D01*
X120460714Y-169892857D01*
X120532142Y-169857142D01*
X120603571Y-169857142D01*
X120710714Y-169892857D01*
X121139285Y-170321428D01*
X121139285Y-169857142D01*
X120389285Y-169178571D02*
X120389285Y-169535714D01*
X120746428Y-169571428D01*
X120710714Y-169535714D01*
X120675000Y-169464285D01*
X120675000Y-169285714D01*
X120710714Y-169214285D01*
X120746428Y-169178571D01*
X120817857Y-169142857D01*
X120996428Y-169142857D01*
X121067857Y-169178571D01*
X121103571Y-169214285D01*
X121139285Y-169285714D01*
X121139285Y-169464285D01*
X121103571Y-169535714D01*
X121067857Y-169571428D01*
G04 #@! TO.C,J26*
X194169285Y-160043142D02*
X194705000Y-160043142D01*
X194812142Y-160078857D01*
X194883571Y-160150285D01*
X194919285Y-160257428D01*
X194919285Y-160328857D01*
X194240714Y-159721714D02*
X194205000Y-159686000D01*
X194169285Y-159614571D01*
X194169285Y-159436000D01*
X194205000Y-159364571D01*
X194240714Y-159328857D01*
X194312142Y-159293142D01*
X194383571Y-159293142D01*
X194490714Y-159328857D01*
X194919285Y-159757428D01*
X194919285Y-159293142D01*
X194169285Y-158650285D02*
X194169285Y-158793142D01*
X194205000Y-158864571D01*
X194240714Y-158900285D01*
X194347857Y-158971714D01*
X194490714Y-159007428D01*
X194776428Y-159007428D01*
X194847857Y-158971714D01*
X194883571Y-158936000D01*
X194919285Y-158864571D01*
X194919285Y-158721714D01*
X194883571Y-158650285D01*
X194847857Y-158614571D01*
X194776428Y-158578857D01*
X194597857Y-158578857D01*
X194526428Y-158614571D01*
X194490714Y-158650285D01*
X194455000Y-158721714D01*
X194455000Y-158864571D01*
X194490714Y-158936000D01*
X194526428Y-158971714D01*
X194597857Y-159007428D01*
G04 #@! TO.C,J10*
X162325476Y-44007380D02*
X162325476Y-44721666D01*
X162277857Y-44864523D01*
X162182619Y-44959761D01*
X162039761Y-45007380D01*
X161944523Y-45007380D01*
X163325476Y-45007380D02*
X162754047Y-45007380D01*
X163039761Y-45007380D02*
X163039761Y-44007380D01*
X162944523Y-44150238D01*
X162849285Y-44245476D01*
X162754047Y-44293095D01*
X163944523Y-44007380D02*
X164039761Y-44007380D01*
X164135000Y-44055000D01*
X164182619Y-44102619D01*
X164230238Y-44197857D01*
X164277857Y-44388333D01*
X164277857Y-44626428D01*
X164230238Y-44816904D01*
X164182619Y-44912142D01*
X164135000Y-44959761D01*
X164039761Y-45007380D01*
X163944523Y-45007380D01*
X163849285Y-44959761D01*
X163801666Y-44912142D01*
X163754047Y-44816904D01*
X163706428Y-44626428D01*
X163706428Y-44388333D01*
X163754047Y-44197857D01*
X163801666Y-44102619D01*
X163849285Y-44055000D01*
X163944523Y-44007380D01*
G04 #@! TO.C,J21*
X170389285Y-145607142D02*
X170925000Y-145607142D01*
X171032142Y-145642857D01*
X171103571Y-145714285D01*
X171139285Y-145821428D01*
X171139285Y-145892857D01*
X170460714Y-145285714D02*
X170425000Y-145250000D01*
X170389285Y-145178571D01*
X170389285Y-145000000D01*
X170425000Y-144928571D01*
X170460714Y-144892857D01*
X170532142Y-144857142D01*
X170603571Y-144857142D01*
X170710714Y-144892857D01*
X171139285Y-145321428D01*
X171139285Y-144857142D01*
X171139285Y-144142857D02*
X171139285Y-144571428D01*
X171139285Y-144357142D02*
X170389285Y-144357142D01*
X170496428Y-144428571D01*
X170567857Y-144500000D01*
X170603571Y-144571428D01*
G04 #@! TO.C,J22*
X120389285Y-145607142D02*
X120925000Y-145607142D01*
X121032142Y-145642857D01*
X121103571Y-145714285D01*
X121139285Y-145821428D01*
X121139285Y-145892857D01*
X120460714Y-145285714D02*
X120425000Y-145250000D01*
X120389285Y-145178571D01*
X120389285Y-145000000D01*
X120425000Y-144928571D01*
X120460714Y-144892857D01*
X120532142Y-144857142D01*
X120603571Y-144857142D01*
X120710714Y-144892857D01*
X121139285Y-145321428D01*
X121139285Y-144857142D01*
X120460714Y-144571428D02*
X120425000Y-144535714D01*
X120389285Y-144464285D01*
X120389285Y-144285714D01*
X120425000Y-144214285D01*
X120460714Y-144178571D01*
X120532142Y-144142857D01*
X120603571Y-144142857D01*
X120710714Y-144178571D01*
X121139285Y-144607142D01*
X121139285Y-144142857D01*
G04 #@! TO.C,J24*
X145389285Y-170607142D02*
X145925000Y-170607142D01*
X146032142Y-170642857D01*
X146103571Y-170714285D01*
X146139285Y-170821428D01*
X146139285Y-170892857D01*
X145460714Y-170285714D02*
X145425000Y-170250000D01*
X145389285Y-170178571D01*
X145389285Y-170000000D01*
X145425000Y-169928571D01*
X145460714Y-169892857D01*
X145532142Y-169857142D01*
X145603571Y-169857142D01*
X145710714Y-169892857D01*
X146139285Y-170321428D01*
X146139285Y-169857142D01*
X145639285Y-169214285D02*
X146139285Y-169214285D01*
X145353571Y-169392857D02*
X145889285Y-169571428D01*
X145889285Y-169107142D01*
G04 #@! TO.C,J19*
X194169285Y-135043142D02*
X194705000Y-135043142D01*
X194812142Y-135078857D01*
X194883571Y-135150285D01*
X194919285Y-135257428D01*
X194919285Y-135328857D01*
X194919285Y-134293142D02*
X194919285Y-134721714D01*
X194919285Y-134507428D02*
X194169285Y-134507428D01*
X194276428Y-134578857D01*
X194347857Y-134650285D01*
X194383571Y-134721714D01*
X194919285Y-133936000D02*
X194919285Y-133793142D01*
X194883571Y-133721714D01*
X194847857Y-133686000D01*
X194740714Y-133614571D01*
X194597857Y-133578857D01*
X194312142Y-133578857D01*
X194240714Y-133614571D01*
X194205000Y-133650285D01*
X194169285Y-133721714D01*
X194169285Y-133864571D01*
X194205000Y-133936000D01*
X194240714Y-133971714D01*
X194312142Y-134007428D01*
X194490714Y-134007428D01*
X194562142Y-133971714D01*
X194597857Y-133936000D01*
X194633571Y-133864571D01*
X194633571Y-133721714D01*
X194597857Y-133650285D01*
X194562142Y-133614571D01*
X194490714Y-133578857D01*
G04 #@! TO.C,J11*
X131867380Y-76034523D02*
X132581666Y-76034523D01*
X132724523Y-76082142D01*
X132819761Y-76177380D01*
X132867380Y-76320238D01*
X132867380Y-76415476D01*
X132867380Y-75034523D02*
X132867380Y-75605952D01*
X132867380Y-75320238D02*
X131867380Y-75320238D01*
X132010238Y-75415476D01*
X132105476Y-75510714D01*
X132153095Y-75605952D01*
X132867380Y-74082142D02*
X132867380Y-74653571D01*
X132867380Y-74367857D02*
X131867380Y-74367857D01*
X132010238Y-74463095D01*
X132105476Y-74558333D01*
X132153095Y-74653571D01*
G04 #@! TO.C,TP9*
X190781285Y-109216428D02*
X190781285Y-108787857D01*
X191531285Y-109002142D02*
X190781285Y-109002142D01*
X191531285Y-108537857D02*
X190781285Y-108537857D01*
X190781285Y-108252142D01*
X190817000Y-108180714D01*
X190852714Y-108145000D01*
X190924142Y-108109285D01*
X191031285Y-108109285D01*
X191102714Y-108145000D01*
X191138428Y-108180714D01*
X191174142Y-108252142D01*
X191174142Y-108537857D01*
X191531285Y-107752142D02*
X191531285Y-107609285D01*
X191495571Y-107537857D01*
X191459857Y-107502142D01*
X191352714Y-107430714D01*
X191209857Y-107395000D01*
X190924142Y-107395000D01*
X190852714Y-107430714D01*
X190817000Y-107466428D01*
X190781285Y-107537857D01*
X190781285Y-107680714D01*
X190817000Y-107752142D01*
X190852714Y-107787857D01*
X190924142Y-107823571D01*
X191102714Y-107823571D01*
X191174142Y-107787857D01*
X191209857Y-107752142D01*
X191245571Y-107680714D01*
X191245571Y-107537857D01*
X191209857Y-107466428D01*
X191174142Y-107430714D01*
X191102714Y-107395000D01*
X191833000Y-108841428D02*
X191797285Y-108912857D01*
X191797285Y-109020000D01*
X191833000Y-109127142D01*
X191904428Y-109198571D01*
X191975857Y-109234285D01*
X192118714Y-109270000D01*
X192225857Y-109270000D01*
X192368714Y-109234285D01*
X192440142Y-109198571D01*
X192511571Y-109127142D01*
X192547285Y-109020000D01*
X192547285Y-108948571D01*
X192511571Y-108841428D01*
X192475857Y-108805714D01*
X192225857Y-108805714D01*
X192225857Y-108948571D01*
X192547285Y-108484285D02*
X191797285Y-108484285D01*
X192547285Y-108055714D01*
X191797285Y-108055714D01*
X192547285Y-107698571D02*
X191797285Y-107698571D01*
X191797285Y-107520000D01*
X191833000Y-107412857D01*
X191904428Y-107341428D01*
X191975857Y-107305714D01*
X192118714Y-107270000D01*
X192225857Y-107270000D01*
X192368714Y-107305714D01*
X192440142Y-107341428D01*
X192511571Y-107412857D01*
X192547285Y-107520000D01*
X192547285Y-107698571D01*
G04 #@! TO.C,J9*
X162776666Y-104952380D02*
X162776666Y-105666666D01*
X162729047Y-105809523D01*
X162633809Y-105904761D01*
X162490952Y-105952380D01*
X162395714Y-105952380D01*
X163300476Y-105952380D02*
X163490952Y-105952380D01*
X163586190Y-105904761D01*
X163633809Y-105857142D01*
X163729047Y-105714285D01*
X163776666Y-105523809D01*
X163776666Y-105142857D01*
X163729047Y-105047619D01*
X163681428Y-105000000D01*
X163586190Y-104952380D01*
X163395714Y-104952380D01*
X163300476Y-105000000D01*
X163252857Y-105047619D01*
X163205238Y-105142857D01*
X163205238Y-105380952D01*
X163252857Y-105476190D01*
X163300476Y-105523809D01*
X163395714Y-105571428D01*
X163586190Y-105571428D01*
X163681428Y-105523809D01*
X163729047Y-105476190D01*
X163776666Y-105380952D01*
G04 #@! TO.C,J18*
X145389285Y-120607142D02*
X145925000Y-120607142D01*
X146032142Y-120642857D01*
X146103571Y-120714285D01*
X146139285Y-120821428D01*
X146139285Y-120892857D01*
X146139285Y-119857142D02*
X146139285Y-120285714D01*
X146139285Y-120071428D02*
X145389285Y-120071428D01*
X145496428Y-120142857D01*
X145567857Y-120214285D01*
X145603571Y-120285714D01*
X145710714Y-119428571D02*
X145675000Y-119500000D01*
X145639285Y-119535714D01*
X145567857Y-119571428D01*
X145532142Y-119571428D01*
X145460714Y-119535714D01*
X145425000Y-119500000D01*
X145389285Y-119428571D01*
X145389285Y-119285714D01*
X145425000Y-119214285D01*
X145460714Y-119178571D01*
X145532142Y-119142857D01*
X145567857Y-119142857D01*
X145639285Y-119178571D01*
X145675000Y-119214285D01*
X145710714Y-119285714D01*
X145710714Y-119428571D01*
X145746428Y-119500000D01*
X145782142Y-119535714D01*
X145853571Y-119571428D01*
X145996428Y-119571428D01*
X146067857Y-119535714D01*
X146103571Y-119500000D01*
X146139285Y-119428571D01*
X146139285Y-119285714D01*
X146103571Y-119214285D01*
X146067857Y-119178571D01*
X145996428Y-119142857D01*
X145853571Y-119142857D01*
X145782142Y-119178571D01*
X145746428Y-119214285D01*
X145710714Y-119285714D01*
D11*
G04 #@! TO.C,TP7*
X195190000Y-100650000D02*
G75*
G03*
X195190000Y-100650000I-950000J0D01*
G01*
G04 #@! TO.C,TP8*
X195190000Y-115890000D02*
G75*
G03*
X195190000Y-115890000I-950000J0D01*
G01*
G04 #@! TO.C,J27*
X162800000Y-162100000D02*
X169200000Y-162100000D01*
X153450000Y-175350000D02*
X153450000Y-169500000D01*
X169200000Y-172500000D02*
X169200000Y-177850000D01*
X169200000Y-177850000D02*
X166000000Y-177850000D01*
X153450000Y-165500000D02*
X153450000Y-162100000D01*
X155450000Y-177850000D02*
X153450000Y-175350000D01*
X153450000Y-162100000D02*
X158800000Y-162100000D01*
X161700000Y-177850000D02*
X155500000Y-177850000D01*
X155500000Y-177850000D02*
X155450000Y-177850000D01*
X169200000Y-162100000D02*
X169200000Y-168500000D01*
G04 #@! TO.C,J28*
X128450000Y-137100000D02*
X133800000Y-137100000D01*
X144200000Y-152850000D02*
X141000000Y-152850000D01*
X136700000Y-152850000D02*
X130500000Y-152850000D01*
X128450000Y-140500000D02*
X128450000Y-137100000D01*
X144200000Y-147500000D02*
X144200000Y-152850000D01*
X144200000Y-137100000D02*
X144200000Y-143500000D01*
X130500000Y-152850000D02*
X130450000Y-152850000D01*
X137800000Y-137100000D02*
X144200000Y-137100000D01*
X128450000Y-150350000D02*
X128450000Y-144500000D01*
X130450000Y-152850000D02*
X128450000Y-150350000D01*
G04 #@! TO.C,J20*
X103450000Y-112100000D02*
X108800000Y-112100000D01*
X119200000Y-127850000D02*
X116000000Y-127850000D01*
X103450000Y-115500000D02*
X103450000Y-112100000D01*
X119200000Y-112100000D02*
X119200000Y-118500000D01*
X112800000Y-112100000D02*
X119200000Y-112100000D01*
X103450000Y-125350000D02*
X103450000Y-119500000D01*
X119200000Y-122500000D02*
X119200000Y-127850000D01*
X111700000Y-127850000D02*
X105500000Y-127850000D01*
X105500000Y-127850000D02*
X105450000Y-127850000D01*
X105450000Y-127850000D02*
X103450000Y-125350000D01*
G04 #@! TO.C,J25*
X112800000Y-162100000D02*
X119200000Y-162100000D01*
X103450000Y-162100000D02*
X108800000Y-162100000D01*
X119200000Y-162100000D02*
X119200000Y-168500000D01*
X119200000Y-177850000D02*
X116000000Y-177850000D01*
X105450000Y-177850000D02*
X103450000Y-175350000D01*
X103450000Y-175350000D02*
X103450000Y-169500000D01*
X105500000Y-177850000D02*
X105450000Y-177850000D01*
X111700000Y-177850000D02*
X105500000Y-177850000D01*
X103450000Y-165500000D02*
X103450000Y-162100000D01*
X119200000Y-172500000D02*
X119200000Y-177850000D01*
G04 #@! TO.C,J26*
X186700000Y-177850000D02*
X180500000Y-177850000D01*
X178450000Y-165500000D02*
X178450000Y-162100000D01*
X194200000Y-177850000D02*
X191000000Y-177850000D01*
X178450000Y-162100000D02*
X183800000Y-162100000D01*
X180500000Y-177850000D02*
X180450000Y-177850000D01*
X178450000Y-175350000D02*
X178450000Y-169500000D01*
X194200000Y-162100000D02*
X194200000Y-168500000D01*
X187800000Y-162100000D02*
X194200000Y-162100000D01*
X194200000Y-172500000D02*
X194200000Y-177850000D01*
X180450000Y-177850000D02*
X178450000Y-175350000D01*
G04 #@! TO.C,J10*
X164465000Y-45995000D02*
X164465000Y-47325000D01*
X161805000Y-53735000D02*
X164465000Y-53735000D01*
X163135000Y-45995000D02*
X164465000Y-45995000D01*
X161805000Y-48595000D02*
X161805000Y-53735000D01*
X161805000Y-48595000D02*
X164465000Y-48595000D01*
X164465000Y-48595000D02*
X164465000Y-53735000D01*
G04 #@! TO.C,J21*
X153450000Y-140500000D02*
X153450000Y-137100000D01*
X153450000Y-137100000D02*
X158800000Y-137100000D01*
X155450000Y-152850000D02*
X153450000Y-150350000D01*
X169200000Y-137100000D02*
X169200000Y-143500000D01*
X169200000Y-152850000D02*
X166000000Y-152850000D01*
X162800000Y-137100000D02*
X169200000Y-137100000D01*
X155500000Y-152850000D02*
X155450000Y-152850000D01*
X153450000Y-150350000D02*
X153450000Y-144500000D01*
X161700000Y-152850000D02*
X155500000Y-152850000D01*
X169200000Y-147500000D02*
X169200000Y-152850000D01*
G04 #@! TO.C,J22*
X112800000Y-137100000D02*
X119200000Y-137100000D01*
X105450000Y-152850000D02*
X103450000Y-150350000D01*
X105500000Y-152850000D02*
X105450000Y-152850000D01*
X119200000Y-147500000D02*
X119200000Y-152850000D01*
X103450000Y-140500000D02*
X103450000Y-137100000D01*
X103450000Y-137100000D02*
X108800000Y-137100000D01*
X119200000Y-152850000D02*
X116000000Y-152850000D01*
X111700000Y-152850000D02*
X105500000Y-152850000D01*
X119200000Y-137100000D02*
X119200000Y-143500000D01*
X103450000Y-150350000D02*
X103450000Y-144500000D01*
G04 #@! TO.C,J24*
X128450000Y-165500000D02*
X128450000Y-162100000D01*
X144200000Y-177850000D02*
X141000000Y-177850000D01*
X130500000Y-177850000D02*
X130450000Y-177850000D01*
X136700000Y-177850000D02*
X130500000Y-177850000D01*
X128450000Y-175350000D02*
X128450000Y-169500000D01*
X128450000Y-162100000D02*
X133800000Y-162100000D01*
X144200000Y-162100000D02*
X144200000Y-168500000D01*
X137800000Y-162100000D02*
X144200000Y-162100000D01*
X144200000Y-172500000D02*
X144200000Y-177850000D01*
X130450000Y-177850000D02*
X128450000Y-175350000D01*
G04 #@! TO.C,J19*
X186700000Y-152850000D02*
X180500000Y-152850000D01*
X178450000Y-137100000D02*
X183800000Y-137100000D01*
X194200000Y-137100000D02*
X194200000Y-143500000D01*
X187800000Y-137100000D02*
X194200000Y-137100000D01*
X180450000Y-152850000D02*
X178450000Y-150350000D01*
X194200000Y-147500000D02*
X194200000Y-152850000D01*
X194200000Y-152850000D02*
X191000000Y-152850000D01*
X178450000Y-150350000D02*
X178450000Y-144500000D01*
X178450000Y-140500000D02*
X178450000Y-137100000D01*
X180500000Y-152850000D02*
X180450000Y-152850000D01*
G04 #@! TO.C,J11*
X136455000Y-73895000D02*
X141595000Y-73895000D01*
X133855000Y-75225000D02*
X133855000Y-73895000D01*
X136455000Y-76555000D02*
X141595000Y-76555000D01*
X133855000Y-73895000D02*
X135185000Y-73895000D01*
X136455000Y-76555000D02*
X136455000Y-73895000D01*
X141595000Y-76555000D02*
X141595000Y-73895000D01*
G04 #@! TO.C,TP9*
X193290000Y-109220000D02*
X193290000Y-107320000D01*
X195190000Y-107320000D02*
X195190000Y-109220000D01*
X195190000Y-109220000D02*
X193290000Y-109220000D01*
X193290000Y-107320000D02*
X195190000Y-107320000D01*
G04 #@! TO.C,J9*
X164440000Y-106940000D02*
X164440000Y-108270000D01*
X163110000Y-106940000D02*
X164440000Y-106940000D01*
X161780000Y-109540000D02*
X164440000Y-109540000D01*
X161780000Y-109540000D02*
X161780000Y-129920000D01*
X164440000Y-109540000D02*
X164440000Y-129920000D01*
X161780000Y-129920000D02*
X164440000Y-129920000D01*
G04 #@! TO.C,J18*
X144200000Y-127850000D02*
X141000000Y-127850000D01*
X128450000Y-115500000D02*
X128450000Y-112100000D01*
X144200000Y-112100000D02*
X144200000Y-118500000D01*
X137800000Y-112100000D02*
X144200000Y-112100000D01*
X128450000Y-112100000D02*
X133800000Y-112100000D01*
X130500000Y-127850000D02*
X130450000Y-127850000D01*
X130450000Y-127850000D02*
X128450000Y-125350000D01*
X128450000Y-125350000D02*
X128450000Y-119500000D01*
X136700000Y-127850000D02*
X130500000Y-127850000D01*
X144200000Y-122500000D02*
X144200000Y-127850000D01*
G04 #@! TD*
M02*
