M48
; DRILL file {KiCad 6.0.1-79c1e3a40b~116~ubuntu20.04.1} date Sat Jan 29 15:48:48 2022
; FORMAT={-:-/ absolute / metric / decimal}
; #@! TF.CreationDate,2022-01-29T15:48:48-05:00
; #@! TF.GenerationSoftware,Kicad,Pcbnew,6.0.1-79c1e3a40b~116~ubuntu20.04.1
; #@! TF.FileFunction,MixedPlating,1,2
FMAT,2
METRIC
; #@! TA.AperFunction,Plated,PTH,ComponentDrill
T1C3.200
; #@! TA.AperFunction,Plated,PTH,ComponentDrill
T2C7.000
; #@! TA.AperFunction,Plated,PTH,ComponentDrill
T3C10.000
; #@! TA.AperFunction,NonPlated,NPTH,ComponentDrill
T4C2.500
%
G90
G05
T2
X41.1Y-82.6
X91.1Y-42.6
X91.1Y-72.6
X91.1Y-102.6
X91.1Y-132.6
T3
X28.6Y-132.6
X28.6Y-157.6
X28.6Y-182.6
X41.1Y-42.6
X53.6Y-132.6
X53.6Y-157.6
X53.6Y-182.6
X78.6Y-157.6
X78.6Y-182.6
X103.6Y-157.6
X103.6Y-182.6
T4
X110.1Y-47.6
X110.1Y-57.6
X110.1Y-67.6
X110.1Y-77.6
T1
X19.1Y-10.6G85X21.9Y-10.6
G05
X19.1Y-204.6G85X21.9Y-204.6
G05
X113.1Y-10.6G85X110.3Y-10.6
G05
X113.1Y-204.6G85X110.3Y-204.6
G05
T0
M30
