M48
; DRILL file {KiCad 6.0.1-79c1e3a40b~116~ubuntu20.04.1} date Sat Jan 29 17:03:37 2022
; FORMAT={-:-/ absolute / metric / decimal}
; #@! TF.CreationDate,2022-01-29T17:03:37-05:00
; #@! TF.GenerationSoftware,Kicad,Pcbnew,6.0.1-79c1e3a40b~116~ubuntu20.04.1
; #@! TF.FileFunction,MixedPlating,1,2
FMAT,2
METRIC
; #@! TA.AperFunction,Plated,PTH,ViaDrill
T1C0.400
; #@! TA.AperFunction,Plated,PTH,ComponentDrill
T2C0.700
; #@! TA.AperFunction,Plated,PTH,ComponentDrill
T3C0.750
; #@! TA.AperFunction,Plated,PTH,ComponentDrill
T4C0.800
; #@! TA.AperFunction,Plated,PTH,ComponentDrill
T5C1.000
; #@! TA.AperFunction,Plated,PTH,ComponentDrill
T6C1.100
; #@! TA.AperFunction,Plated,PTH,ComponentDrill
T7C1.200
; #@! TA.AperFunction,NonPlated,NPTH,ComponentDrill
T8C3.200
%
G90
G05
T1
X113.35Y-116.307
X151.704Y-107.544
X187.772Y-77.445
T2
X151.37Y-39.98
X157.72Y-39.98
X170.42Y-39.98
X192.09Y-139.04
X192.09Y-145.63
X192.09Y-151.74
T3
X174.23Y-46.33
X175.5Y-46.33
X176.77Y-46.33
T4
X104.46Y-108.56
X105.73Y-78.08
X105.73Y-85.7
X107.08Y-89.51
X108.27Y-81.89
X112.08Y-89.51
X114.62Y-108.56
X115.89Y-78.08
X115.89Y-81.89
X115.89Y-85.7
X115.97Y-89.51
X118.43Y-108.56
X118.43Y-112.37
X118.43Y-116.18
X119.7Y-78.08
X119.7Y-81.89
X119.7Y-85.7
X120.97Y-89.51
X123.51Y-119.99
X124.82Y-89.51
X128.51Y-119.99
X128.59Y-108.56
X128.59Y-112.37
X128.59Y-116.18
X129.82Y-89.51
X129.86Y-78.08
X129.86Y-81.89
X129.86Y-85.7
X133.67Y-71.73
X133.67Y-75.54
X133.67Y-85.7
X133.67Y-109.83
X133.67Y-113.64
X138.79Y-66.65
X138.83Y-80.62
X141.21Y-43.79
X141.21Y-51.41
X141.33Y-62.84
X141.33Y-92.05
X141.33Y-117.45
X143.75Y-43.79
X143.75Y-51.41
X143.79Y-66.65
X143.83Y-62.84
X143.83Y-71.73
X143.83Y-75.54
X143.83Y-80.62
X143.83Y-85.7
X143.83Y-92.05
X143.83Y-109.83
X143.83Y-113.64
X143.83Y-117.45
X146.29Y-43.79
X146.29Y-51.41
X148.9Y-62.83
X148.9Y-65.37
X148.9Y-67.91
X148.9Y-70.45
X148.9Y-72.99
X148.9Y-75.53
X148.9Y-78.07
X148.9Y-80.61
X148.9Y-92.05
X148.9Y-94.59
X148.9Y-97.13
X148.9Y-99.67
X148.92Y-109.83
X148.92Y-112.37
X148.92Y-114.91
X148.92Y-117.45
X148.92Y-119.99
X148.92Y-122.53
X148.92Y-125.07
X151.37Y-46.33
X151.45Y-55.22
X151.45Y-59.03
X153.99Y-51.41
X156.52Y-62.83
X156.52Y-65.37
X156.52Y-67.91
X156.52Y-70.45
X156.52Y-72.99
X156.52Y-75.53
X156.52Y-78.07
X156.52Y-80.61
X156.52Y-92.05
X156.52Y-94.59
X156.52Y-97.13
X156.52Y-99.67
X156.54Y-109.83
X156.54Y-112.37
X156.54Y-114.91
X156.54Y-117.45
X156.54Y-119.99
X156.54Y-122.53
X156.54Y-125.07
X161.53Y-46.33
X161.61Y-51.41
X161.61Y-55.22
X161.61Y-59.03
X161.61Y-67.92
X161.61Y-70.42
X161.61Y-85.7
X161.61Y-95.86
X161.61Y-99.71
X161.61Y-102.21
X161.61Y-117.49
X161.61Y-119.99
X165.38Y-46.33
X165.42Y-67.92
X165.42Y-71.73
X165.42Y-76.81
X165.42Y-80.62
X165.42Y-99.67
X165.42Y-103.48
X165.42Y-107.29
X165.42Y-111.1
X165.42Y-128.88
X170.38Y-46.33
X175.58Y-67.92
X175.58Y-71.73
X175.58Y-76.81
X175.58Y-80.62
X175.58Y-99.67
X175.58Y-103.48
X175.58Y-107.29
X175.58Y-111.1
X175.58Y-128.88
X181.93Y-57.76
X181.93Y-67.92
X181.93Y-78.08
X181.93Y-88.24
X185.26Y-63.35
X185.26Y-73.35
X185.26Y-83.35
X185.26Y-93.35
X187.8Y-63.35
X187.8Y-73.35
X187.8Y-83.35
X187.8Y-93.35
X190.34Y-63.35
X190.34Y-73.35
X190.34Y-83.35
X190.34Y-93.35
X192.09Y-57.76
X192.09Y-67.92
X192.09Y-78.08
X192.09Y-88.24
T5
X114.8Y-97.0
X114.8Y-99.5
X114.8Y-102.0
X133.685Y-104.75
X136.225Y-104.75
X138.765Y-104.75
X161.61Y-76.81
X161.61Y-79.35
X161.61Y-81.89
X161.61Y-137.77
X161.61Y-140.31
X161.61Y-142.85
X161.61Y-145.39
X161.61Y-147.93
X161.61Y-150.47
X161.61Y-153.01
X161.61Y-155.55
X161.61Y-158.09
X164.8Y-57.0
X164.8Y-59.5
X164.8Y-62.0
X164.8Y-87.0
X164.8Y-89.5
X164.8Y-92.0
X164.8Y-117.0
X164.8Y-119.5
X164.8Y-122.0
X164.8Y-147.0
X164.8Y-149.5
X164.8Y-152.0
T6
X104.568Y-123.825
X104.568Y-135.255
X114.728Y-123.825
X114.728Y-135.255
T7
X104.46Y-98.4
X104.46Y-100.94
X104.46Y-103.48
T8
X121.8Y-135.5
X140.3Y-57.5
X191.3Y-160.5
T6
X121.95Y-94.7G85X122.65Y-94.7
G05
X121.95Y-104.3G85X122.65Y-104.3
G05
X171.95Y-54.7G85X172.65Y-54.7
G05
X171.95Y-64.3G85X172.65Y-64.3
G05
X171.95Y-84.7G85X172.65Y-84.7
G05
X171.95Y-94.3G85X172.65Y-94.3
G05
X171.95Y-114.7G85X172.65Y-114.7
G05
X171.95Y-124.3G85X172.65Y-124.3
G05
X171.95Y-144.7G85X172.65Y-144.7
G05
X171.95Y-154.3G85X172.65Y-154.3
G05
T0
M30
