G04 #@! TF.GenerationSoftware,KiCad,Pcbnew,6.0.1-79c1e3a40b~116~ubuntu20.04.1*
G04 #@! TF.CreationDate,2022-01-30T07:26:50-05:00*
G04 #@! TF.ProjectId,herovco_switch,6865726f-7663-46f5-9f73-77697463682e,rev?*
G04 #@! TF.SameCoordinates,Original*
G04 #@! TF.FileFunction,Legend,Top*
G04 #@! TF.FilePolarity,Positive*
%FSLAX46Y46*%
G04 Gerber Fmt 4.6, Leading zero omitted, Abs format (unit mm)*
G04 Created by KiCad (PCBNEW 6.0.1-79c1e3a40b~116~ubuntu20.04.1) date 2022-01-30 07:26:50*
%MOMM*%
%LPD*%
G01*
G04 APERTURE LIST*
%ADD10C,0.120000*%
%ADD11C,0.150000*%
G04 APERTURE END LIST*
D10*
X159499999Y-108499999D02*
X140499999Y-108499999D01*
X140499999Y-108499999D02*
X140499999Y-91499999D01*
X159499999Y-91499999D02*
X159499999Y-108499999D01*
X159499999Y-91499999D02*
X140499999Y-91499999D01*
D11*
X144238094Y-104904760D02*
X144380951Y-104952379D01*
X144619046Y-104952379D01*
X144714284Y-104904760D01*
X144761903Y-104857141D01*
X144809522Y-104761903D01*
X144809522Y-104666665D01*
X144761903Y-104571427D01*
X144714284Y-104523808D01*
X144619046Y-104476189D01*
X144428570Y-104428570D01*
X144333332Y-104380951D01*
X144285713Y-104333332D01*
X144238094Y-104238094D01*
X144238094Y-104142856D01*
X144285713Y-104047618D01*
X144333332Y-103999999D01*
X144428570Y-103952379D01*
X144666665Y-103952379D01*
X144809522Y-103999999D01*
X145190475Y-104904760D02*
X145333332Y-104952379D01*
X145571427Y-104952379D01*
X145666665Y-104904760D01*
X145714284Y-104857141D01*
X145761903Y-104761903D01*
X145761903Y-104666665D01*
X145714284Y-104571427D01*
X145666665Y-104523808D01*
X145571427Y-104476189D01*
X145380951Y-104428570D01*
X145285713Y-104380951D01*
X145238094Y-104333332D01*
X145190475Y-104238094D01*
X145190475Y-104142856D01*
X145238094Y-104047618D01*
X145285713Y-103999999D01*
X145380951Y-103952379D01*
X145619046Y-103952379D01*
X145761903Y-103999999D01*
X144238094Y-92952379D02*
X144238094Y-91952379D01*
X144238094Y-92428570D02*
X144809522Y-92428570D01*
X144809522Y-92952379D02*
X144809522Y-91952379D01*
X145238094Y-92904760D02*
X145380951Y-92952379D01*
X145619046Y-92952379D01*
X145714284Y-92904760D01*
X145761903Y-92857141D01*
X145809522Y-92761903D01*
X145809522Y-92666665D01*
X145761903Y-92571427D01*
X145714284Y-92523808D01*
X145619046Y-92476189D01*
X145428570Y-92428570D01*
X145333332Y-92380951D01*
X145285713Y-92333332D01*
X145238094Y-92238094D01*
X145238094Y-92142856D01*
X145285713Y-92047618D01*
X145333332Y-91999999D01*
X145428570Y-91952379D01*
X145666665Y-91952379D01*
X145809522Y-91999999D01*
X152833332Y-104904760D02*
X152976189Y-104952379D01*
X153214284Y-104952379D01*
X153309522Y-104904760D01*
X153357141Y-104857141D01*
X153404760Y-104761903D01*
X153404760Y-104666665D01*
X153357141Y-104571427D01*
X153309522Y-104523808D01*
X153214284Y-104476189D01*
X153023808Y-104428570D01*
X152928570Y-104380951D01*
X152880951Y-104333332D01*
X152833332Y-104238094D01*
X152833332Y-104142856D01*
X152880951Y-104047618D01*
X152928570Y-103999999D01*
X153023808Y-103952379D01*
X153261903Y-103952379D01*
X153404760Y-103999999D01*
X153785713Y-104904760D02*
X153928570Y-104952379D01*
X154166665Y-104952379D01*
X154261903Y-104904760D01*
X154309522Y-104857141D01*
X154357141Y-104761903D01*
X154357141Y-104666665D01*
X154309522Y-104571427D01*
X154261903Y-104523808D01*
X154166665Y-104476189D01*
X153976189Y-104428570D01*
X153880951Y-104380951D01*
X153833332Y-104333332D01*
X153785713Y-104238094D01*
X153785713Y-104142856D01*
X153833332Y-104047618D01*
X153880951Y-103999999D01*
X153976189Y-103952379D01*
X154214284Y-103952379D01*
X154357141Y-103999999D01*
X155690475Y-104952379D02*
X155595237Y-104904760D01*
X155547618Y-104857141D01*
X155499999Y-104761903D01*
X155499999Y-104476189D01*
X155547618Y-104380951D01*
X155595237Y-104333332D01*
X155690475Y-104285713D01*
X155833332Y-104285713D01*
X155928570Y-104333332D01*
X155976189Y-104380951D01*
X156023808Y-104476189D01*
X156023808Y-104761903D01*
X155976189Y-104857141D01*
X155928570Y-104904760D01*
X155833332Y-104952379D01*
X155690475Y-104952379D01*
X156309522Y-104285713D02*
X156690475Y-104285713D01*
X156452379Y-104952379D02*
X156452379Y-104095237D01*
X156499999Y-103999999D01*
X156595237Y-103952379D01*
X156690475Y-103952379D01*
X156880951Y-104285713D02*
X157261903Y-104285713D01*
X157023808Y-104952379D02*
X157023808Y-104095237D01*
X157071427Y-103999999D01*
X157166665Y-103952379D01*
X157261903Y-103952379D01*
X153642856Y-92904760D02*
X153785713Y-92952379D01*
X154023808Y-92952379D01*
X154119046Y-92904760D01*
X154166665Y-92857141D01*
X154214284Y-92761903D01*
X154214284Y-92666665D01*
X154166665Y-92571427D01*
X154119046Y-92523808D01*
X154023808Y-92476189D01*
X153833332Y-92428570D01*
X153738094Y-92380951D01*
X153690475Y-92333332D01*
X153642856Y-92238094D01*
X153642856Y-92142856D01*
X153690475Y-92047618D01*
X153738094Y-91999999D01*
X153833332Y-91952379D01*
X154071427Y-91952379D01*
X154214284Y-91999999D01*
X155404760Y-92952379D02*
X155404760Y-92285713D01*
X155404760Y-91952379D02*
X155357141Y-91999999D01*
X155404760Y-92047618D01*
X155452379Y-91999999D01*
X155404760Y-91952379D01*
X155404760Y-92047618D01*
X155880951Y-92285713D02*
X155880951Y-92952379D01*
X155880951Y-92380951D02*
X155928570Y-92333332D01*
X156023808Y-92285713D01*
X156166665Y-92285713D01*
X156261903Y-92333332D01*
X156309522Y-92428570D01*
X156309522Y-92952379D01*
G04 #@! TO.C,SW2*
X148166665Y-96500160D02*
X148309522Y-96547779D01*
X148547618Y-96547779D01*
X148642856Y-96500160D01*
X148690475Y-96452541D01*
X148738094Y-96357303D01*
X148738094Y-96262065D01*
X148690475Y-96166827D01*
X148642856Y-96119208D01*
X148547618Y-96071589D01*
X148357141Y-96023970D01*
X148261903Y-95976351D01*
X148214284Y-95928732D01*
X148166665Y-95833494D01*
X148166665Y-95738256D01*
X148214284Y-95643018D01*
X148261903Y-95595399D01*
X148357141Y-95547779D01*
X148595237Y-95547779D01*
X148738094Y-95595399D01*
X149071427Y-95547779D02*
X149309522Y-96547779D01*
X149499999Y-95833494D01*
X149690475Y-96547779D01*
X149928570Y-95547779D01*
X150261903Y-95643018D02*
X150309522Y-95595399D01*
X150404760Y-95547779D01*
X150642856Y-95547779D01*
X150738094Y-95595399D01*
X150785713Y-95643018D01*
X150833332Y-95738256D01*
X150833332Y-95833494D01*
X150785713Y-95976351D01*
X150214284Y-96547779D01*
X150833332Y-96547779D01*
D10*
X141438199Y-103620399D02*
X141438199Y-98520399D01*
X141438199Y-103620399D02*
X157288199Y-103620399D01*
X142788199Y-97420399D02*
X158638199Y-97420399D01*
X141138199Y-99720399D02*
X141138199Y-98520399D01*
X142788199Y-97120399D02*
X143988199Y-97120399D01*
X158638199Y-97420399D02*
X158638199Y-102520399D01*
G04 #@! TD*
M02*
