G04 #@! TF.GenerationSoftware,KiCad,Pcbnew,6.0.1-79c1e3a40b~116~ubuntu20.04.1*
G04 #@! TF.CreationDate,2022-01-30T07:26:50-05:00*
G04 #@! TF.ProjectId,herovco_switch,6865726f-7663-46f5-9f73-77697463682e,rev?*
G04 #@! TF.SameCoordinates,Original*
G04 #@! TF.FileFunction,Legend,Bot*
G04 #@! TF.FilePolarity,Positive*
%FSLAX46Y46*%
G04 Gerber Fmt 4.6, Leading zero omitted, Abs format (unit mm)*
G04 Created by KiCad (PCBNEW 6.0.1-79c1e3a40b~116~ubuntu20.04.1) date 2022-01-30 07:26:50*
%MOMM*%
%LPD*%
G01*
G04 APERTURE LIST*
%ADD10C,0.150000*%
G04 APERTURE END LIST*
D10*
X151829046Y-96098379D02*
X151829046Y-95098379D01*
X151590951Y-95098379D01*
X151448094Y-95145999D01*
X151352856Y-95241237D01*
X151305237Y-95336475D01*
X151257618Y-95526951D01*
X151257618Y-95669808D01*
X151305237Y-95860284D01*
X151352856Y-95955522D01*
X151448094Y-96050760D01*
X151590951Y-96098379D01*
X151829046Y-96098379D01*
X150829046Y-96098379D02*
X150829046Y-95098379D01*
X150448094Y-95098379D01*
X150352856Y-95145999D01*
X150305237Y-95193618D01*
X150257618Y-95288856D01*
X150257618Y-95431713D01*
X150305237Y-95526951D01*
X150352856Y-95574570D01*
X150448094Y-95622189D01*
X150829046Y-95622189D01*
X149924284Y-95098379D02*
X149305237Y-95098379D01*
X149638570Y-95479332D01*
X149495713Y-95479332D01*
X149400475Y-95526951D01*
X149352856Y-95574570D01*
X149305237Y-95669808D01*
X149305237Y-95907903D01*
X149352856Y-96003141D01*
X149400475Y-96050760D01*
X149495713Y-96098379D01*
X149781427Y-96098379D01*
X149876665Y-96050760D01*
X149924284Y-96003141D01*
X149019522Y-95098379D02*
X148448094Y-95098379D01*
X148733808Y-96098379D02*
X148733808Y-95098379D01*
X154948094Y-97708379D02*
X154948094Y-96708379D01*
X154948094Y-97660760D02*
X155043332Y-97708379D01*
X155233808Y-97708379D01*
X155329046Y-97660760D01*
X155376665Y-97613141D01*
X155424284Y-97517903D01*
X155424284Y-97232189D01*
X155376665Y-97136951D01*
X155329046Y-97089332D01*
X155233808Y-97041713D01*
X155043332Y-97041713D01*
X154948094Y-97089332D01*
X154043332Y-97708379D02*
X154043332Y-97184570D01*
X154090951Y-97089332D01*
X154186189Y-97041713D01*
X154376665Y-97041713D01*
X154471903Y-97089332D01*
X154043332Y-97660760D02*
X154138570Y-97708379D01*
X154376665Y-97708379D01*
X154471903Y-97660760D01*
X154519522Y-97565522D01*
X154519522Y-97470284D01*
X154471903Y-97375046D01*
X154376665Y-97327427D01*
X154138570Y-97327427D01*
X154043332Y-97279808D01*
X153138570Y-97041713D02*
X153138570Y-97708379D01*
X153567141Y-97041713D02*
X153567141Y-97565522D01*
X153519522Y-97660760D01*
X153424284Y-97708379D01*
X153281427Y-97708379D01*
X153186189Y-97660760D01*
X153138570Y-97613141D01*
X152233808Y-97041713D02*
X152233808Y-97851237D01*
X152281427Y-97946475D01*
X152329046Y-97994094D01*
X152424284Y-98041713D01*
X152567141Y-98041713D01*
X152662379Y-97994094D01*
X152233808Y-97660760D02*
X152329046Y-97708379D01*
X152519522Y-97708379D01*
X152614760Y-97660760D01*
X152662379Y-97613141D01*
X152709999Y-97517903D01*
X152709999Y-97232189D01*
X152662379Y-97136951D01*
X152614760Y-97089332D01*
X152519522Y-97041713D01*
X152329046Y-97041713D01*
X152233808Y-97089332D01*
X151757618Y-97708379D02*
X151757618Y-96708379D01*
X151329046Y-97708379D02*
X151329046Y-97184570D01*
X151376665Y-97089332D01*
X151471903Y-97041713D01*
X151614760Y-97041713D01*
X151709999Y-97089332D01*
X151757618Y-97136951D01*
X150995713Y-97041713D02*
X150614760Y-97041713D01*
X150852856Y-96708379D02*
X150852856Y-97565522D01*
X150805237Y-97660760D01*
X150709999Y-97708379D01*
X150614760Y-97708379D01*
X149900475Y-97660760D02*
X149995713Y-97708379D01*
X150186189Y-97708379D01*
X150281427Y-97660760D01*
X150329046Y-97565522D01*
X150329046Y-97184570D01*
X150281427Y-97089332D01*
X150186189Y-97041713D01*
X149995713Y-97041713D01*
X149900475Y-97089332D01*
X149852856Y-97184570D01*
X149852856Y-97279808D01*
X150329046Y-97375046D01*
X149424284Y-97708379D02*
X149424284Y-97041713D01*
X149424284Y-97232189D02*
X149376665Y-97136951D01*
X149329046Y-97089332D01*
X149233808Y-97041713D01*
X149138570Y-97041713D01*
X148805237Y-97708379D02*
X148805237Y-96708379D01*
X148805237Y-97089332D02*
X148709999Y-97041713D01*
X148519522Y-97041713D01*
X148424284Y-97089332D01*
X148376665Y-97136951D01*
X148329046Y-97232189D01*
X148329046Y-97517903D01*
X148376665Y-97613141D01*
X148424284Y-97660760D01*
X148519522Y-97708379D01*
X148709999Y-97708379D01*
X148805237Y-97660760D01*
X147757618Y-97708379D02*
X147852856Y-97660760D01*
X147900475Y-97613141D01*
X147948094Y-97517903D01*
X147948094Y-97232189D01*
X147900475Y-97136951D01*
X147852856Y-97089332D01*
X147757618Y-97041713D01*
X147614760Y-97041713D01*
X147519522Y-97089332D01*
X147471903Y-97136951D01*
X147424284Y-97232189D01*
X147424284Y-97517903D01*
X147471903Y-97613141D01*
X147519522Y-97660760D01*
X147614760Y-97708379D01*
X147757618Y-97708379D01*
X146567141Y-97708379D02*
X146567141Y-97184570D01*
X146614760Y-97089332D01*
X146709999Y-97041713D01*
X146900475Y-97041713D01*
X146995713Y-97089332D01*
X146567141Y-97660760D02*
X146662379Y-97708379D01*
X146900475Y-97708379D01*
X146995713Y-97660760D01*
X147043332Y-97565522D01*
X147043332Y-97470284D01*
X146995713Y-97375046D01*
X146900475Y-97327427D01*
X146662379Y-97327427D01*
X146567141Y-97279808D01*
X146090951Y-97708379D02*
X146090951Y-97041713D01*
X146090951Y-97232189D02*
X146043332Y-97136951D01*
X145995713Y-97089332D01*
X145900475Y-97041713D01*
X145805237Y-97041713D01*
X145043332Y-97708379D02*
X145043332Y-96708379D01*
X145043332Y-97660760D02*
X145138570Y-97708379D01*
X145329046Y-97708379D01*
X145424284Y-97660760D01*
X145471903Y-97613141D01*
X145519522Y-97517903D01*
X145519522Y-97232189D01*
X145471903Y-97136951D01*
X145424284Y-97089332D01*
X145329046Y-97041713D01*
X145138570Y-97041713D01*
X145043332Y-97089332D01*
M02*
