G04 #@! TF.GenerationSoftware,KiCad,Pcbnew,6.0.5-a6ca702e91~116~ubuntu20.04.1*
G04 #@! TF.CreationDate,2022-06-19T13:49:02-04:00*
G04 #@! TF.ProjectId,herovco_switch,6865726f-7663-46f5-9f73-77697463682e,rev?*
G04 #@! TF.SameCoordinates,Original*
G04 #@! TF.FileFunction,Copper,L1,Top*
G04 #@! TF.FilePolarity,Positive*
%FSLAX46Y46*%
G04 Gerber Fmt 4.6, Leading zero omitted, Abs format (unit mm)*
G04 Created by KiCad (PCBNEW 6.0.5-a6ca702e91~116~ubuntu20.04.1) date 2022-06-19 13:49:02*
%MOMM*%
%LPD*%
G01*
G04 APERTURE LIST*
G04 Aperture macros list*
%AMRoundRect*
0 Rectangle with rounded corners*
0 $1 Rounding radius*
0 $2 $3 $4 $5 $6 $7 $8 $9 X,Y pos of 4 corners*
0 Add a 4 corners polygon primitive as box body*
4,1,4,$2,$3,$4,$5,$6,$7,$8,$9,$2,$3,0*
0 Add four circle primitives for the rounded corners*
1,1,$1+$1,$2,$3*
1,1,$1+$1,$4,$5*
1,1,$1+$1,$6,$7*
1,1,$1+$1,$8,$9*
0 Add four rect primitives between the rounded corners*
20,1,$1+$1,$2,$3,$4,$5,0*
20,1,$1+$1,$4,$5,$6,$7,0*
20,1,$1+$1,$6,$7,$8,$9,0*
20,1,$1+$1,$8,$9,$2,$3,0*%
G04 Aperture macros list end*
G04 #@! TA.AperFunction,ComponentPad*
%ADD10C,2.100000*%
G04 #@! TD*
G04 #@! TA.AperFunction,WasherPad*
%ADD11C,1.600000*%
G04 #@! TD*
G04 #@! TA.AperFunction,ComponentPad*
%ADD12R,1.600000X1.600000*%
G04 #@! TD*
G04 #@! TA.AperFunction,ComponentPad*
%ADD13C,1.600000*%
G04 #@! TD*
G04 #@! TA.AperFunction,ComponentPad*
%ADD14RoundRect,0.250001X-0.799999X-0.799999X0.799999X-0.799999X0.799999X0.799999X-0.799999X0.799999X0*%
G04 #@! TD*
G04 #@! TA.AperFunction,Conductor*
%ADD15C,0.250000*%
G04 #@! TD*
G04 APERTURE END LIST*
D10*
G04 #@! TO.P,J16,1,Pin_1*
G04 #@! TO.N,Board_0-/Octave and sync switches/HARD_SYNCA_P*
X140800000Y-93000000D03*
G04 #@! TD*
G04 #@! TO.P,J14,1,Pin_1*
G04 #@! TO.N,Board_0-/Octave and sync switches/SOFT_SYNCA_P*
X150800000Y-105000000D03*
G04 #@! TD*
D11*
G04 #@! TO.P,SW2,*
G04 #@! TO.N,*
X137738200Y-101820400D03*
X153938200Y-96220400D03*
D12*
G04 #@! TO.P,SW2,1,1*
G04 #@! TO.N,Board_0-/Octave and sync switches/SOFT_SYNC_OFF_P*
X141838200Y-100270400D03*
D13*
G04 #@! TO.P,SW2,2,2*
G04 #@! TO.N,Board_0-/Octave and sync switches/SOFT_SYNCA_P*
X146838200Y-100270400D03*
G04 #@! TO.P,SW2,3,3*
G04 #@! TO.N,Board_0-/Octave and sync switches/SOFT_SYNC_OFF_P*
X149338200Y-100270400D03*
G04 #@! TO.P,SW2,4,4*
G04 #@! TO.N,Board_0-unconnected-(SW2-Pad4)*
X151838200Y-100270400D03*
G04 #@! TO.P,SW2,5,5*
G04 #@! TO.N,Board_0-/Octave and sync switches/HARD_SYNCA_P*
X141838200Y-97770400D03*
G04 #@! TO.P,SW2,6,6*
G04 #@! TO.N,Board_0-/Octave and sync switches/SYNCA_P*
X146838200Y-97770400D03*
G04 #@! TO.P,SW2,7,7*
G04 #@! TO.N,Board_0-unconnected-(SW2-Pad7)*
X149338200Y-97770400D03*
G04 #@! TO.P,SW2,8,8*
G04 #@! TO.N,Board_0-/Octave and sync switches/SOFT_SYNCA_P*
X151838200Y-97770400D03*
G04 #@! TD*
D14*
G04 #@! TO.P,J13,1,Pin_1*
G04 #@! TO.N,Board_0-/Octave and sync switches/SYNCA_P*
X150800000Y-93000000D03*
G04 #@! TD*
D10*
G04 #@! TO.P,J15,1,Pin_1*
G04 #@! TO.N,Board_0-/Octave and sync switches/SOFT_SYNC_OFF_P*
X140800000Y-105000000D03*
G04 #@! TD*
D15*
G04 #@! TO.N,Board_0-/Octave and sync switches/HARD_SYNCA_P*
X140800000Y-93000000D02*
X141838200Y-94038200D01*
X141838200Y-94038200D02*
X141838200Y-97770400D01*
G04 #@! TO.N,Board_0-/Octave and sync switches/SOFT_SYNCA_P*
X150652000Y-104852000D02*
X150800000Y-105000000D01*
X150652000Y-98956600D02*
X151838200Y-97770400D01*
X148152000Y-98956600D02*
X150652000Y-98956600D01*
X150652000Y-98956600D02*
X150652000Y-104852000D01*
X146838200Y-100270400D02*
X148152000Y-98956600D01*
G04 #@! TO.N,Board_0-/Octave and sync switches/SOFT_SYNC_OFF_P*
X140800000Y-105000000D02*
X141838200Y-103961800D01*
X148085600Y-101523000D02*
X149338200Y-100270400D01*
X143090800Y-101523000D02*
X148085600Y-101523000D01*
X141838200Y-100270400D02*
X143090800Y-101523000D01*
X141838200Y-103961800D02*
X141838200Y-100270400D01*
G04 #@! TO.N,Board_0-/Octave and sync switches/SYNCA_P*
X150800000Y-93808600D02*
X146838200Y-97770400D01*
X150800000Y-93000000D02*
X150800000Y-93808600D01*
G04 #@! TD*
M02*
