G04 #@! TF.GenerationSoftware,KiCad,Pcbnew,6.0.5-a6ca702e91~116~ubuntu20.04.1*
G04 #@! TF.CreationDate,2022-06-19T13:49:02-04:00*
G04 #@! TF.ProjectId,herovco_switch,6865726f-7663-46f5-9f73-77697463682e,rev?*
G04 #@! TF.SameCoordinates,Original*
G04 #@! TF.FileFunction,Legend,Top*
G04 #@! TF.FilePolarity,Positive*
%FSLAX46Y46*%
G04 Gerber Fmt 4.6, Leading zero omitted, Abs format (unit mm)*
G04 Created by KiCad (PCBNEW 6.0.5-a6ca702e91~116~ubuntu20.04.1) date 2022-06-19 13:49:02*
%MOMM*%
%LPD*%
G01*
G04 APERTURE LIST*
%ADD10C,0.150000*%
%ADD11C,0.120000*%
G04 APERTURE END LIST*
D10*
X140038095Y-103404761D02*
X140180952Y-103452380D01*
X140419047Y-103452380D01*
X140514285Y-103404761D01*
X140561904Y-103357142D01*
X140609523Y-103261904D01*
X140609523Y-103166666D01*
X140561904Y-103071428D01*
X140514285Y-103023809D01*
X140419047Y-102976190D01*
X140228571Y-102928571D01*
X140133333Y-102880952D01*
X140085714Y-102833333D01*
X140038095Y-102738095D01*
X140038095Y-102642857D01*
X140085714Y-102547619D01*
X140133333Y-102500000D01*
X140228571Y-102452380D01*
X140466666Y-102452380D01*
X140609523Y-102500000D01*
X140990476Y-103404761D02*
X141133333Y-103452380D01*
X141371428Y-103452380D01*
X141466666Y-103404761D01*
X141514285Y-103357142D01*
X141561904Y-103261904D01*
X141561904Y-103166666D01*
X141514285Y-103071428D01*
X141466666Y-103023809D01*
X141371428Y-102976190D01*
X141180952Y-102928571D01*
X141085714Y-102880952D01*
X141038095Y-102833333D01*
X140990476Y-102738095D01*
X140990476Y-102642857D01*
X141038095Y-102547619D01*
X141085714Y-102500000D01*
X141180952Y-102452380D01*
X141419047Y-102452380D01*
X141561904Y-102500000D01*
X140038095Y-91452380D02*
X140038095Y-90452380D01*
X140038095Y-90928571D02*
X140609523Y-90928571D01*
X140609523Y-91452380D02*
X140609523Y-90452380D01*
X141038095Y-91404761D02*
X141180952Y-91452380D01*
X141419047Y-91452380D01*
X141514285Y-91404761D01*
X141561904Y-91357142D01*
X141609523Y-91261904D01*
X141609523Y-91166666D01*
X141561904Y-91071428D01*
X141514285Y-91023809D01*
X141419047Y-90976190D01*
X141228571Y-90928571D01*
X141133333Y-90880952D01*
X141085714Y-90833333D01*
X141038095Y-90738095D01*
X141038095Y-90642857D01*
X141085714Y-90547619D01*
X141133333Y-90500000D01*
X141228571Y-90452380D01*
X141466666Y-90452380D01*
X141609523Y-90500000D01*
X148633333Y-103404761D02*
X148776190Y-103452380D01*
X149014285Y-103452380D01*
X149109523Y-103404761D01*
X149157142Y-103357142D01*
X149204761Y-103261904D01*
X149204761Y-103166666D01*
X149157142Y-103071428D01*
X149109523Y-103023809D01*
X149014285Y-102976190D01*
X148823809Y-102928571D01*
X148728571Y-102880952D01*
X148680952Y-102833333D01*
X148633333Y-102738095D01*
X148633333Y-102642857D01*
X148680952Y-102547619D01*
X148728571Y-102500000D01*
X148823809Y-102452380D01*
X149061904Y-102452380D01*
X149204761Y-102500000D01*
X149585714Y-103404761D02*
X149728571Y-103452380D01*
X149966666Y-103452380D01*
X150061904Y-103404761D01*
X150109523Y-103357142D01*
X150157142Y-103261904D01*
X150157142Y-103166666D01*
X150109523Y-103071428D01*
X150061904Y-103023809D01*
X149966666Y-102976190D01*
X149776190Y-102928571D01*
X149680952Y-102880952D01*
X149633333Y-102833333D01*
X149585714Y-102738095D01*
X149585714Y-102642857D01*
X149633333Y-102547619D01*
X149680952Y-102500000D01*
X149776190Y-102452380D01*
X150014285Y-102452380D01*
X150157142Y-102500000D01*
X151490476Y-103452380D02*
X151395238Y-103404761D01*
X151347619Y-103357142D01*
X151300000Y-103261904D01*
X151300000Y-102976190D01*
X151347619Y-102880952D01*
X151395238Y-102833333D01*
X151490476Y-102785714D01*
X151633333Y-102785714D01*
X151728571Y-102833333D01*
X151776190Y-102880952D01*
X151823809Y-102976190D01*
X151823809Y-103261904D01*
X151776190Y-103357142D01*
X151728571Y-103404761D01*
X151633333Y-103452380D01*
X151490476Y-103452380D01*
X152109523Y-102785714D02*
X152490476Y-102785714D01*
X152252380Y-103452380D02*
X152252380Y-102595238D01*
X152300000Y-102500000D01*
X152395238Y-102452380D01*
X152490476Y-102452380D01*
X152680952Y-102785714D02*
X153061904Y-102785714D01*
X152823809Y-103452380D02*
X152823809Y-102595238D01*
X152871428Y-102500000D01*
X152966666Y-102452380D01*
X153061904Y-102452380D01*
X149442857Y-91404761D02*
X149585714Y-91452380D01*
X149823809Y-91452380D01*
X149919047Y-91404761D01*
X149966666Y-91357142D01*
X150014285Y-91261904D01*
X150014285Y-91166666D01*
X149966666Y-91071428D01*
X149919047Y-91023809D01*
X149823809Y-90976190D01*
X149633333Y-90928571D01*
X149538095Y-90880952D01*
X149490476Y-90833333D01*
X149442857Y-90738095D01*
X149442857Y-90642857D01*
X149490476Y-90547619D01*
X149538095Y-90500000D01*
X149633333Y-90452380D01*
X149871428Y-90452380D01*
X150014285Y-90500000D01*
X151204761Y-91452380D02*
X151204761Y-90785714D01*
X151204761Y-90452380D02*
X151157142Y-90500000D01*
X151204761Y-90547619D01*
X151252380Y-90500000D01*
X151204761Y-90452380D01*
X151204761Y-90547619D01*
X151680952Y-90785714D02*
X151680952Y-91452380D01*
X151680952Y-90880952D02*
X151728571Y-90833333D01*
X151823809Y-90785714D01*
X151966666Y-90785714D01*
X152061904Y-90833333D01*
X152109523Y-90928571D01*
X152109523Y-91452380D01*
G04 #@! TO.C,SW2*
X143031666Y-99277761D02*
X143174523Y-99325380D01*
X143412619Y-99325380D01*
X143507857Y-99277761D01*
X143555476Y-99230142D01*
X143603095Y-99134904D01*
X143603095Y-99039666D01*
X143555476Y-98944428D01*
X143507857Y-98896809D01*
X143412619Y-98849190D01*
X143222142Y-98801571D01*
X143126904Y-98753952D01*
X143079285Y-98706333D01*
X143031666Y-98611095D01*
X143031666Y-98515857D01*
X143079285Y-98420619D01*
X143126904Y-98373000D01*
X143222142Y-98325380D01*
X143460238Y-98325380D01*
X143603095Y-98373000D01*
X143936428Y-98325380D02*
X144174523Y-99325380D01*
X144365000Y-98611095D01*
X144555476Y-99325380D01*
X144793571Y-98325380D01*
X145126904Y-98420619D02*
X145174523Y-98373000D01*
X145269761Y-98325380D01*
X145507857Y-98325380D01*
X145603095Y-98373000D01*
X145650714Y-98420619D01*
X145698333Y-98515857D01*
X145698333Y-98611095D01*
X145650714Y-98753952D01*
X145079285Y-99325380D01*
X145698333Y-99325380D01*
D11*
X138588200Y-102420400D02*
X139788200Y-102420400D01*
X137238200Y-95920400D02*
X137238200Y-101020400D01*
X137238200Y-95920400D02*
X153088200Y-95920400D01*
X138588200Y-102120400D02*
X154438200Y-102120400D01*
X154438200Y-102120400D02*
X154438200Y-97020400D01*
X136938200Y-99820400D02*
X136938200Y-101020400D01*
G04 #@! TD*
M02*
