M48
; DRILL file {KiCad 6.0.1-79c1e3a40b~116~ubuntu20.04.1} date Sun Jan 30 07:26:04 2022
; FORMAT={-:-/ absolute / metric / decimal}
; #@! TF.CreationDate,2022-01-30T07:26:04-05:00
; #@! TF.GenerationSoftware,Kicad,Pcbnew,6.0.1-79c1e3a40b~116~ubuntu20.04.1
; #@! TF.FileFunction,MixedPlating,1,2
FMAT,2
METRIC
; #@! TA.AperFunction,Plated,PTH,ViaDrill
T1C0.400
; #@! TA.AperFunction,Plated,PTH,ComponentDrill
T2C0.700
; #@! TA.AperFunction,Plated,PTH,ComponentDrill
T3C0.750
; #@! TA.AperFunction,Plated,PTH,ComponentDrill
T4C0.800
; #@! TA.AperFunction,Plated,PTH,ComponentDrill
T5C1.000
; #@! TA.AperFunction,Plated,PTH,ComponentDrill
T6C1.100
; #@! TA.AperFunction,Plated,PTH,ComponentDrill
T7C1.200
; #@! TA.AperFunction,NonPlated,NPTH,ComponentDrill
T8C3.200
%
G90
G05
T1
X116.05Y-115.307
X154.404Y-106.544
X190.472Y-76.445
T2
X154.07Y-38.98
X160.42Y-38.98
X173.12Y-38.98
X194.79Y-138.04
X194.79Y-144.63
X194.79Y-150.74
T3
X176.93Y-45.33
X178.2Y-45.33
X179.47Y-45.33
T4
X107.16Y-107.56
X108.43Y-77.08
X108.43Y-84.7
X109.78Y-88.51
X110.97Y-80.89
X114.78Y-88.51
X117.32Y-107.56
X118.59Y-77.08
X118.59Y-80.89
X118.59Y-84.7
X118.67Y-88.51
X121.13Y-107.56
X121.13Y-111.37
X121.13Y-115.18
X122.4Y-77.08
X122.4Y-80.89
X122.4Y-84.7
X123.67Y-88.51
X126.21Y-118.99
X127.52Y-88.51
X131.21Y-118.99
X131.29Y-107.56
X131.29Y-111.37
X131.29Y-115.18
X132.52Y-88.51
X132.56Y-77.08
X132.56Y-80.89
X132.56Y-84.7
X136.37Y-70.73
X136.37Y-74.54
X136.37Y-84.7
X136.37Y-108.83
X136.37Y-112.64
X141.49Y-65.65
X141.53Y-79.62
X143.91Y-42.79
X143.91Y-50.41
X144.03Y-61.84
X144.03Y-91.05
X144.03Y-116.45
X146.45Y-42.79
X146.45Y-50.41
X146.49Y-65.65
X146.53Y-61.84
X146.53Y-70.73
X146.53Y-74.54
X146.53Y-79.62
X146.53Y-84.7
X146.53Y-91.05
X146.53Y-108.83
X146.53Y-112.64
X146.53Y-116.45
X148.99Y-42.79
X148.99Y-50.41
X151.6Y-61.83
X151.6Y-64.37
X151.6Y-66.91
X151.6Y-69.45
X151.6Y-71.99
X151.6Y-74.53
X151.6Y-77.07
X151.6Y-79.61
X151.6Y-91.05
X151.6Y-93.59
X151.6Y-96.13
X151.6Y-98.67
X151.62Y-108.83
X151.62Y-111.37
X151.62Y-113.91
X151.62Y-116.45
X151.62Y-118.99
X151.62Y-121.53
X151.62Y-124.07
X154.07Y-45.33
X154.15Y-54.22
X154.15Y-58.03
X156.69Y-50.41
X159.22Y-61.83
X159.22Y-64.37
X159.22Y-66.91
X159.22Y-69.45
X159.22Y-71.99
X159.22Y-74.53
X159.22Y-77.07
X159.22Y-79.61
X159.22Y-91.05
X159.22Y-93.59
X159.22Y-96.13
X159.22Y-98.67
X159.24Y-108.83
X159.24Y-111.37
X159.24Y-113.91
X159.24Y-116.45
X159.24Y-118.99
X159.24Y-121.53
X159.24Y-124.07
X164.23Y-45.33
X164.31Y-50.41
X164.31Y-54.22
X164.31Y-58.03
X164.31Y-66.92
X164.31Y-69.42
X164.31Y-84.7
X164.31Y-94.86
X164.31Y-98.71
X164.31Y-101.21
X164.31Y-116.49
X164.31Y-118.99
X168.08Y-45.33
X168.12Y-66.92
X168.12Y-70.73
X168.12Y-75.81
X168.12Y-79.62
X168.12Y-98.67
X168.12Y-102.48
X168.12Y-106.29
X168.12Y-110.1
X168.12Y-127.88
X173.08Y-45.33
X178.28Y-66.92
X178.28Y-70.73
X178.28Y-75.81
X178.28Y-79.62
X178.28Y-98.67
X178.28Y-102.48
X178.28Y-106.29
X178.28Y-110.1
X178.28Y-127.88
X184.63Y-56.76
X184.63Y-66.92
X184.63Y-77.08
X184.63Y-87.24
X187.96Y-62.35
X187.96Y-72.35
X187.96Y-82.35
X187.96Y-92.35
X190.5Y-62.35
X190.5Y-72.35
X190.5Y-82.35
X190.5Y-92.35
X193.04Y-62.35
X193.04Y-72.35
X193.04Y-82.35
X193.04Y-92.35
X194.79Y-56.76
X194.79Y-66.92
X194.79Y-77.08
X194.79Y-87.24
T5
X117.5Y-96.0
X117.5Y-98.5
X117.5Y-101.0
X136.385Y-103.75
X138.925Y-103.75
X141.465Y-103.75
X164.31Y-75.81
X164.31Y-78.35
X164.31Y-80.89
X164.31Y-136.77
X164.31Y-139.31
X164.31Y-141.85
X164.31Y-144.39
X164.31Y-146.93
X164.31Y-149.47
X164.31Y-152.01
X164.31Y-154.55
X164.31Y-157.09
X167.5Y-56.0
X167.5Y-58.5
X167.5Y-61.0
X167.5Y-86.0
X167.5Y-88.5
X167.5Y-91.0
X167.5Y-116.0
X167.5Y-118.5
X167.5Y-121.0
X167.5Y-146.0
X167.5Y-148.5
X167.5Y-151.0
T6
X107.5Y-122.5
X107.5Y-134.5
X117.5Y-122.5
X117.5Y-134.5
T7
X107.16Y-97.4
X107.16Y-99.94
X107.16Y-102.48
T8
X124.5Y-134.5
X143.0Y-56.5
X194.0Y-159.5
T6
X124.65Y-93.7G85X125.35Y-93.7
G05
X124.65Y-103.3G85X125.35Y-103.3
G05
X174.65Y-53.7G85X175.35Y-53.7
G05
X174.65Y-63.3G85X175.35Y-63.3
G05
X174.65Y-83.7G85X175.35Y-83.7
G05
X174.65Y-93.3G85X175.35Y-93.3
G05
X174.65Y-113.7G85X175.35Y-113.7
G05
X174.65Y-123.3G85X175.35Y-123.3
G05
X174.65Y-143.7G85X175.35Y-143.7
G05
X174.65Y-153.3G85X175.35Y-153.3
G05
T0
M30
