G04 #@! TF.GenerationSoftware,KiCad,Pcbnew,6.0.1-79c1e3a40b~116~ubuntu20.04.1*
G04 #@! TF.CreationDate,2022-01-30T07:26:04-05:00*
G04 #@! TF.ProjectId,herovco_front,6865726f-7663-46f5-9f66-726f6e742e6b,rev?*
G04 #@! TF.SameCoordinates,Original*
G04 #@! TF.FileFunction,Legend,Top*
G04 #@! TF.FilePolarity,Positive*
%FSLAX46Y46*%
G04 Gerber Fmt 4.6, Leading zero omitted, Abs format (unit mm)*
G04 Created by KiCad (PCBNEW 6.0.1-79c1e3a40b~116~ubuntu20.04.1) date 2022-01-30 07:26:04*
%MOMM*%
%LPD*%
G01*
G04 APERTURE LIST*
%ADD10C,0.120000*%
%ADD11C,0.150000*%
%ADD12C,0.100000*%
G04 APERTURE END LIST*
D10*
X121999997Y-119499997D02*
X103999997Y-119499997D01*
X121999997Y-136499997D02*
X103999997Y-136499997D01*
X121999997Y-119499997D02*
X121999997Y-136499997D01*
D11*
X186436282Y-86055282D02*
X186436282Y-85305282D01*
X186721997Y-85305282D01*
X186793425Y-85340997D01*
X186829139Y-85376711D01*
X186864854Y-85448139D01*
X186864854Y-85555282D01*
X186829139Y-85626711D01*
X186793425Y-85662425D01*
X186721997Y-85698139D01*
X186436282Y-85698139D01*
X187114854Y-85305282D02*
X187293425Y-86055282D01*
X187436282Y-85519568D01*
X187579139Y-86055282D01*
X187757711Y-85305282D01*
X188043425Y-86055282D02*
X188043425Y-85305282D01*
X188293425Y-85840997D01*
X188543425Y-85305282D01*
X188543425Y-86055282D01*
X189471997Y-86055282D02*
X189471997Y-85555282D01*
X189471997Y-85626711D02*
X189507711Y-85590997D01*
X189579139Y-85555282D01*
X189686282Y-85555282D01*
X189757711Y-85590997D01*
X189793425Y-85662425D01*
X189793425Y-86055282D01*
X189793425Y-85662425D02*
X189829139Y-85590997D01*
X189900568Y-85555282D01*
X190007711Y-85555282D01*
X190079139Y-85590997D01*
X190114854Y-85662425D01*
X190114854Y-86055282D01*
X190793425Y-86055282D02*
X190793425Y-85662425D01*
X190757711Y-85590997D01*
X190686282Y-85555282D01*
X190543425Y-85555282D01*
X190471997Y-85590997D01*
X190793425Y-86019568D02*
X190721997Y-86055282D01*
X190543425Y-86055282D01*
X190471997Y-86019568D01*
X190436282Y-85948139D01*
X190436282Y-85876711D01*
X190471997Y-85805282D01*
X190543425Y-85769568D01*
X190721997Y-85769568D01*
X190793425Y-85733854D01*
X191079139Y-86055282D02*
X191471997Y-85555282D01*
X191079139Y-85555282D02*
X191471997Y-86055282D01*
X192436282Y-86055282D02*
X192364854Y-86019568D01*
X192329139Y-85948139D01*
X192329139Y-85305282D01*
X192721997Y-86055282D02*
X192721997Y-85555282D01*
X192721997Y-85305282D02*
X192686282Y-85340997D01*
X192721997Y-85376711D01*
X192757711Y-85340997D01*
X192721997Y-85305282D01*
X192721997Y-85376711D01*
X193079139Y-86055282D02*
X193079139Y-85555282D01*
X193079139Y-85626711D02*
X193114854Y-85590997D01*
X193186282Y-85555282D01*
X193293425Y-85555282D01*
X193364854Y-85590997D01*
X193400568Y-85662425D01*
X193400568Y-86055282D01*
X193400568Y-85662425D02*
X193436282Y-85590997D01*
X193507711Y-85555282D01*
X193614854Y-85555282D01*
X193686282Y-85590997D01*
X193721997Y-85662425D01*
X193721997Y-86055282D01*
X194079139Y-86055282D02*
X194079139Y-85555282D01*
X194079139Y-85305282D02*
X194043425Y-85340997D01*
X194079139Y-85376711D01*
X194114854Y-85340997D01*
X194079139Y-85305282D01*
X194079139Y-85376711D01*
X194329139Y-85555282D02*
X194614854Y-85555282D01*
X194436282Y-85305282D02*
X194436282Y-85948139D01*
X194471997Y-86019568D01*
X194543425Y-86055282D01*
X194614854Y-86055282D01*
X136423568Y-101311068D02*
X136423568Y-101061068D01*
X136030711Y-101061068D02*
X136780711Y-101061068D01*
X136780711Y-101418211D01*
X136030711Y-101703925D02*
X136780711Y-101703925D01*
X136244997Y-101953925D01*
X136780711Y-102203925D01*
X136030711Y-102203925D01*
X115333330Y-132904758D02*
X115476187Y-132952377D01*
X115714282Y-132952377D01*
X115809520Y-132904758D01*
X115857139Y-132857139D01*
X115904758Y-132761901D01*
X115904758Y-132666663D01*
X115857139Y-132571425D01*
X115809520Y-132523806D01*
X115714282Y-132476187D01*
X115523806Y-132428568D01*
X115428568Y-132380949D01*
X115380949Y-132333330D01*
X115333330Y-132238092D01*
X115333330Y-132142854D01*
X115380949Y-132047616D01*
X115428568Y-131999997D01*
X115523806Y-131952377D01*
X115761901Y-131952377D01*
X115904758Y-131999997D01*
X116285711Y-132904758D02*
X116428568Y-132952377D01*
X116666663Y-132952377D01*
X116761901Y-132904758D01*
X116809520Y-132857139D01*
X116857139Y-132761901D01*
X116857139Y-132666663D01*
X116809520Y-132571425D01*
X116761901Y-132523806D01*
X116666663Y-132476187D01*
X116476187Y-132428568D01*
X116380949Y-132380949D01*
X116333330Y-132333330D01*
X116285711Y-132238092D01*
X116285711Y-132142854D01*
X116333330Y-132047616D01*
X116380949Y-131999997D01*
X116476187Y-131952377D01*
X116714282Y-131952377D01*
X116857139Y-131999997D01*
X118190473Y-132952377D02*
X118095235Y-132904758D01*
X118047616Y-132857139D01*
X117999997Y-132761901D01*
X117999997Y-132476187D01*
X118047616Y-132380949D01*
X118095235Y-132333330D01*
X118190473Y-132285711D01*
X118333330Y-132285711D01*
X118428568Y-132333330D01*
X118476187Y-132380949D01*
X118523806Y-132476187D01*
X118523806Y-132761901D01*
X118476187Y-132857139D01*
X118428568Y-132904758D01*
X118333330Y-132952377D01*
X118190473Y-132952377D01*
X118809520Y-132285711D02*
X119190473Y-132285711D01*
X118952377Y-132952377D02*
X118952377Y-132095235D01*
X118999997Y-131999997D01*
X119095235Y-131952377D01*
X119190473Y-131952377D01*
X119380949Y-132285711D02*
X119761901Y-132285711D01*
X119523806Y-132952377D02*
X119523806Y-132095235D01*
X119571425Y-131999997D01*
X119666663Y-131952377D01*
X119761901Y-131952377D01*
X159748211Y-149773568D02*
X159855354Y-149809282D01*
X160033925Y-149809282D01*
X160105354Y-149773568D01*
X160141068Y-149737854D01*
X160176782Y-149666425D01*
X160176782Y-149594997D01*
X160141068Y-149523568D01*
X160105354Y-149487854D01*
X160033925Y-149452139D01*
X159891068Y-149416425D01*
X159819639Y-149380711D01*
X159783925Y-149344997D01*
X159748211Y-149273568D01*
X159748211Y-149202139D01*
X159783925Y-149130711D01*
X159819639Y-149094997D01*
X159891068Y-149059282D01*
X160069639Y-149059282D01*
X160176782Y-149094997D01*
X160426782Y-149309282D02*
X160605354Y-149809282D01*
X160783925Y-149309282D02*
X160605354Y-149809282D01*
X160533925Y-149987854D01*
X160498211Y-150023568D01*
X160426782Y-150059282D01*
X161069639Y-149309282D02*
X161069639Y-149809282D01*
X161069639Y-149380711D02*
X161105354Y-149344997D01*
X161176782Y-149309282D01*
X161283925Y-149309282D01*
X161355354Y-149344997D01*
X161391068Y-149416425D01*
X161391068Y-149809282D01*
X162069639Y-149773568D02*
X161998211Y-149809282D01*
X161855354Y-149809282D01*
X161783925Y-149773568D01*
X161748211Y-149737854D01*
X161712497Y-149666425D01*
X161712497Y-149452139D01*
X161748211Y-149380711D01*
X161783925Y-149344997D01*
X161855354Y-149309282D01*
X161998211Y-149309282D01*
X162069639Y-149344997D01*
X187882711Y-65917854D02*
X187846997Y-65953568D01*
X187739854Y-65989282D01*
X187668425Y-65989282D01*
X187561282Y-65953568D01*
X187489854Y-65882139D01*
X187454139Y-65810711D01*
X187418425Y-65667854D01*
X187418425Y-65560711D01*
X187454139Y-65417854D01*
X187489854Y-65346425D01*
X187561282Y-65274997D01*
X187668425Y-65239282D01*
X187739854Y-65239282D01*
X187846997Y-65274997D01*
X187882711Y-65310711D01*
X188489854Y-65953568D02*
X188418425Y-65989282D01*
X188275568Y-65989282D01*
X188204139Y-65953568D01*
X188168425Y-65882139D01*
X188168425Y-65596425D01*
X188204139Y-65524997D01*
X188275568Y-65489282D01*
X188418425Y-65489282D01*
X188489854Y-65524997D01*
X188525568Y-65596425D01*
X188525568Y-65667854D01*
X188168425Y-65739282D01*
X188846997Y-65489282D02*
X188846997Y-65989282D01*
X188846997Y-65560711D02*
X188882711Y-65524997D01*
X188954139Y-65489282D01*
X189061282Y-65489282D01*
X189132711Y-65524997D01*
X189168425Y-65596425D01*
X189168425Y-65989282D01*
X189418425Y-65489282D02*
X189704139Y-65489282D01*
X189525568Y-65239282D02*
X189525568Y-65882139D01*
X189561282Y-65953568D01*
X189632711Y-65989282D01*
X189704139Y-65989282D01*
X190239854Y-65953568D02*
X190168425Y-65989282D01*
X190025568Y-65989282D01*
X189954139Y-65953568D01*
X189918425Y-65882139D01*
X189918425Y-65596425D01*
X189954139Y-65524997D01*
X190025568Y-65489282D01*
X190168425Y-65489282D01*
X190239854Y-65524997D01*
X190275568Y-65596425D01*
X190275568Y-65667854D01*
X189918425Y-65739282D01*
X190596997Y-65989282D02*
X190596997Y-65489282D01*
X190596997Y-65632139D02*
X190632711Y-65560711D01*
X190668425Y-65524997D01*
X190739854Y-65489282D01*
X190811282Y-65489282D01*
X191525568Y-65489282D02*
X191811282Y-65489282D01*
X191632711Y-65989282D02*
X191632711Y-65346425D01*
X191668425Y-65274997D01*
X191739854Y-65239282D01*
X191811282Y-65239282D01*
X192061282Y-65989282D02*
X192061282Y-65489282D01*
X192061282Y-65632139D02*
X192096997Y-65560711D01*
X192132711Y-65524997D01*
X192204139Y-65489282D01*
X192275568Y-65489282D01*
X192811282Y-65953568D02*
X192739854Y-65989282D01*
X192596997Y-65989282D01*
X192525568Y-65953568D01*
X192489854Y-65882139D01*
X192489854Y-65596425D01*
X192525568Y-65524997D01*
X192596997Y-65489282D01*
X192739854Y-65489282D01*
X192811282Y-65524997D01*
X192846997Y-65596425D01*
X192846997Y-65667854D01*
X192489854Y-65739282D01*
X193489854Y-65489282D02*
X193489854Y-66239282D01*
X193489854Y-65953568D02*
X193418425Y-65989282D01*
X193275568Y-65989282D01*
X193204139Y-65953568D01*
X193168425Y-65917854D01*
X193132711Y-65846425D01*
X193132711Y-65632139D01*
X193168425Y-65560711D01*
X193204139Y-65524997D01*
X193275568Y-65489282D01*
X193418425Y-65489282D01*
X193489854Y-65524997D01*
X180621616Y-145128568D02*
X180621616Y-144652377D01*
X181621616Y-144652377D01*
X180621616Y-145461901D02*
X181288282Y-145461901D01*
X181621616Y-145461901D02*
X181573997Y-145414282D01*
X181526377Y-145461901D01*
X181573997Y-145509520D01*
X181621616Y-145461901D01*
X181526377Y-145461901D01*
X181288282Y-145938092D02*
X180621616Y-145938092D01*
X181193044Y-145938092D02*
X181240663Y-145985711D01*
X181288282Y-146080949D01*
X181288282Y-146223806D01*
X181240663Y-146319044D01*
X181145425Y-146366663D01*
X180621616Y-146366663D01*
X181145425Y-147938092D02*
X181145425Y-147604758D01*
X180621616Y-147604758D02*
X181621616Y-147604758D01*
X181621616Y-148080949D01*
X180621616Y-148461901D02*
X181621616Y-148461901D01*
X180907330Y-148795235D01*
X181621616Y-149128568D01*
X180621616Y-149128568D01*
X180716854Y-150938092D02*
X180669235Y-150890473D01*
X180621616Y-150747616D01*
X180621616Y-150652377D01*
X180669235Y-150509520D01*
X180764473Y-150414282D01*
X180859711Y-150366663D01*
X181050187Y-150319044D01*
X181193044Y-150319044D01*
X181383520Y-150366663D01*
X181478758Y-150414282D01*
X181573997Y-150509520D01*
X181621616Y-150652377D01*
X181621616Y-150747616D01*
X181573997Y-150890473D01*
X181526377Y-150938092D01*
X181621616Y-151223806D02*
X180621616Y-151557139D01*
X181621616Y-151890473D01*
X157819639Y-156679282D02*
X158069639Y-157429282D01*
X158319639Y-156679282D01*
X159105354Y-156643568D02*
X158462497Y-157607854D01*
X159462497Y-157429282D02*
X159391068Y-157393568D01*
X159355354Y-157357854D01*
X159319639Y-157286425D01*
X159319639Y-157072139D01*
X159355354Y-157000711D01*
X159391068Y-156964997D01*
X159462497Y-156929282D01*
X159569639Y-156929282D01*
X159641068Y-156964997D01*
X159676782Y-157000711D01*
X159712497Y-157072139D01*
X159712497Y-157286425D01*
X159676782Y-157357854D01*
X159641068Y-157393568D01*
X159569639Y-157429282D01*
X159462497Y-157429282D01*
X160355354Y-157393568D02*
X160283925Y-157429282D01*
X160141068Y-157429282D01*
X160069639Y-157393568D01*
X160033925Y-157357854D01*
X159998211Y-157286425D01*
X159998211Y-157072139D01*
X160033925Y-157000711D01*
X160069639Y-156964997D01*
X160141068Y-156929282D01*
X160283925Y-156929282D01*
X160355354Y-156964997D01*
X160569639Y-156929282D02*
X160855354Y-156929282D01*
X160676782Y-156679282D02*
X160676782Y-157322139D01*
X160712497Y-157393568D01*
X160783925Y-157429282D01*
X160855354Y-157429282D01*
X162069639Y-157429282D02*
X161641068Y-157429282D01*
X161855354Y-157429282D02*
X161855354Y-156679282D01*
X161783925Y-156786425D01*
X161712497Y-156857854D01*
X161641068Y-156893568D01*
X160498211Y-136394997D02*
X160426782Y-136359282D01*
X160319639Y-136359282D01*
X160212497Y-136394997D01*
X160141068Y-136466425D01*
X160105354Y-136537854D01*
X160069639Y-136680711D01*
X160069639Y-136787854D01*
X160105354Y-136930711D01*
X160141068Y-137002139D01*
X160212497Y-137073568D01*
X160319639Y-137109282D01*
X160391068Y-137109282D01*
X160498211Y-137073568D01*
X160533925Y-137037854D01*
X160533925Y-136787854D01*
X160391068Y-136787854D01*
X160855354Y-137109282D02*
X160855354Y-136359282D01*
X161283925Y-137109282D01*
X161283925Y-136359282D01*
X161641068Y-137109282D02*
X161641068Y-136359282D01*
X161819639Y-136359282D01*
X161926782Y-136394997D01*
X161998211Y-136466425D01*
X162033925Y-136537854D01*
X162069639Y-136680711D01*
X162069639Y-136787854D01*
X162033925Y-136930711D01*
X161998211Y-137002139D01*
X161926782Y-137073568D01*
X161819639Y-137109282D01*
X161641068Y-137109282D01*
X106738092Y-120952377D02*
X106738092Y-119952377D01*
X106738092Y-120428568D02*
X107309520Y-120428568D01*
X107309520Y-120952377D02*
X107309520Y-119952377D01*
X107738092Y-120904758D02*
X107880949Y-120952377D01*
X108119044Y-120952377D01*
X108214282Y-120904758D01*
X108261901Y-120857139D01*
X108309520Y-120761901D01*
X108309520Y-120666663D01*
X108261901Y-120571425D01*
X108214282Y-120523806D01*
X108119044Y-120476187D01*
X107928568Y-120428568D01*
X107833330Y-120380949D01*
X107785711Y-120333330D01*
X107738092Y-120238092D01*
X107738092Y-120142854D01*
X107785711Y-120047616D01*
X107833330Y-119999997D01*
X107928568Y-119952377D01*
X108166663Y-119952377D01*
X108309520Y-119999997D01*
X131107425Y-95693806D02*
X131107425Y-95360473D01*
X130583616Y-95360473D02*
X131583616Y-95360473D01*
X131583616Y-95836663D01*
X130583616Y-96217616D02*
X131250282Y-96217616D01*
X131583616Y-96217616D02*
X131535997Y-96169997D01*
X131488377Y-96217616D01*
X131535997Y-96265235D01*
X131583616Y-96217616D01*
X131488377Y-96217616D01*
X131250282Y-96693806D02*
X130583616Y-96693806D01*
X131155044Y-96693806D02*
X131202663Y-96741425D01*
X131250282Y-96836663D01*
X131250282Y-96979520D01*
X131202663Y-97074758D01*
X131107425Y-97122377D01*
X130583616Y-97122377D01*
X130631235Y-97979520D02*
X130583616Y-97884282D01*
X130583616Y-97693806D01*
X130631235Y-97598568D01*
X130726473Y-97550949D01*
X131107425Y-97550949D01*
X131202663Y-97598568D01*
X131250282Y-97693806D01*
X131250282Y-97884282D01*
X131202663Y-97979520D01*
X131107425Y-98027139D01*
X131012187Y-98027139D01*
X130916949Y-97550949D01*
X131250282Y-99074758D02*
X131250282Y-99455711D01*
X131583616Y-99217616D02*
X130726473Y-99217616D01*
X130631235Y-99265235D01*
X130583616Y-99360473D01*
X130583616Y-99455711D01*
X131250282Y-100217616D02*
X130583616Y-100217616D01*
X131250282Y-99789044D02*
X130726473Y-99789044D01*
X130631235Y-99836663D01*
X130583616Y-99931901D01*
X130583616Y-100074758D01*
X130631235Y-100169997D01*
X130678854Y-100217616D01*
X131250282Y-100693806D02*
X130583616Y-100693806D01*
X131155044Y-100693806D02*
X131202663Y-100741425D01*
X131250282Y-100836663D01*
X131250282Y-100979520D01*
X131202663Y-101074758D01*
X131107425Y-101122377D01*
X130583616Y-101122377D01*
X130631235Y-101979520D02*
X130583616Y-101884282D01*
X130583616Y-101693806D01*
X130631235Y-101598568D01*
X130726473Y-101550949D01*
X131107425Y-101550949D01*
X131202663Y-101598568D01*
X131250282Y-101693806D01*
X131250282Y-101884282D01*
X131202663Y-101979520D01*
X131107425Y-102027139D01*
X131012187Y-102027139D01*
X130916949Y-101550949D01*
X138570711Y-100953925D02*
X139320711Y-100953925D01*
X139320711Y-101239639D01*
X139284997Y-101311068D01*
X139249282Y-101346782D01*
X139177854Y-101382497D01*
X139070711Y-101382497D01*
X138999282Y-101346782D01*
X138963568Y-101311068D01*
X138927854Y-101239639D01*
X138927854Y-100953925D01*
X139320711Y-101632497D02*
X138570711Y-101811068D01*
X139106425Y-101953925D01*
X138570711Y-102096782D01*
X139320711Y-102275354D01*
X160906782Y-81193568D02*
X161013925Y-81229282D01*
X161192497Y-81229282D01*
X161263925Y-81193568D01*
X161299639Y-81157854D01*
X161335354Y-81086425D01*
X161335354Y-81014997D01*
X161299639Y-80943568D01*
X161263925Y-80907854D01*
X161192497Y-80872139D01*
X161049639Y-80836425D01*
X160978211Y-80800711D01*
X160942497Y-80764997D01*
X160906782Y-80693568D01*
X160906782Y-80622139D01*
X160942497Y-80550711D01*
X160978211Y-80514997D01*
X161049639Y-80479282D01*
X161228211Y-80479282D01*
X161335354Y-80514997D01*
X161978211Y-81229282D02*
X161978211Y-80836425D01*
X161942497Y-80764997D01*
X161871068Y-80729282D01*
X161728211Y-80729282D01*
X161656782Y-80764997D01*
X161978211Y-81193568D02*
X161906782Y-81229282D01*
X161728211Y-81229282D01*
X161656782Y-81193568D01*
X161621068Y-81122139D01*
X161621068Y-81050711D01*
X161656782Y-80979282D01*
X161728211Y-80943568D01*
X161906782Y-80943568D01*
X161978211Y-80907854D01*
X162263925Y-80729282D02*
X162406782Y-81229282D01*
X162549639Y-80872139D01*
X162692497Y-81229282D01*
X162835354Y-80729282D01*
X106738092Y-132904758D02*
X106880949Y-132952377D01*
X107119044Y-132952377D01*
X107214282Y-132904758D01*
X107261901Y-132857139D01*
X107309520Y-132761901D01*
X107309520Y-132666663D01*
X107261901Y-132571425D01*
X107214282Y-132523806D01*
X107119044Y-132476187D01*
X106928568Y-132428568D01*
X106833330Y-132380949D01*
X106785711Y-132333330D01*
X106738092Y-132238092D01*
X106738092Y-132142854D01*
X106785711Y-132047616D01*
X106833330Y-131999997D01*
X106928568Y-131952377D01*
X107166663Y-131952377D01*
X107309520Y-131999997D01*
X107690473Y-132904758D02*
X107833330Y-132952377D01*
X108071425Y-132952377D01*
X108166663Y-132904758D01*
X108214282Y-132857139D01*
X108261901Y-132761901D01*
X108261901Y-132666663D01*
X108214282Y-132571425D01*
X108166663Y-132523806D01*
X108071425Y-132476187D01*
X107880949Y-132428568D01*
X107785711Y-132380949D01*
X107738092Y-132333330D01*
X107690473Y-132238092D01*
X107690473Y-132142854D01*
X107738092Y-132047616D01*
X107785711Y-131999997D01*
X107880949Y-131952377D01*
X108119044Y-131952377D01*
X108261901Y-131999997D01*
X158819639Y-139363568D02*
X159391068Y-139363568D01*
X160141068Y-139649282D02*
X159712497Y-139649282D01*
X159926782Y-139649282D02*
X159926782Y-138899282D01*
X159855354Y-139006425D01*
X159783925Y-139077854D01*
X159712497Y-139113568D01*
X160426782Y-138970711D02*
X160462497Y-138934997D01*
X160533925Y-138899282D01*
X160712497Y-138899282D01*
X160783925Y-138934997D01*
X160819639Y-138970711D01*
X160855354Y-139042139D01*
X160855354Y-139113568D01*
X160819639Y-139220711D01*
X160391068Y-139649282D01*
X160855354Y-139649282D01*
X161641068Y-138899282D02*
X161891068Y-139649282D01*
X162141068Y-138899282D01*
X157819639Y-154139282D02*
X158069639Y-154889282D01*
X158319639Y-154139282D01*
X159105354Y-154103568D02*
X158462497Y-155067854D01*
X159462497Y-154889282D02*
X159391068Y-154853568D01*
X159355354Y-154817854D01*
X159319639Y-154746425D01*
X159319639Y-154532139D01*
X159355354Y-154460711D01*
X159391068Y-154424997D01*
X159462497Y-154389282D01*
X159569639Y-154389282D01*
X159641068Y-154424997D01*
X159676782Y-154460711D01*
X159712497Y-154532139D01*
X159712497Y-154746425D01*
X159676782Y-154817854D01*
X159641068Y-154853568D01*
X159569639Y-154889282D01*
X159462497Y-154889282D01*
X160355354Y-154853568D02*
X160283925Y-154889282D01*
X160141068Y-154889282D01*
X160069639Y-154853568D01*
X160033925Y-154817854D01*
X159998211Y-154746425D01*
X159998211Y-154532139D01*
X160033925Y-154460711D01*
X160069639Y-154424997D01*
X160141068Y-154389282D01*
X160283925Y-154389282D01*
X160355354Y-154424997D01*
X160569639Y-154389282D02*
X160855354Y-154389282D01*
X160676782Y-154139282D02*
X160676782Y-154782139D01*
X160712497Y-154853568D01*
X160783925Y-154889282D01*
X160855354Y-154889282D01*
X161641068Y-154210711D02*
X161676782Y-154174997D01*
X161748211Y-154139282D01*
X161926782Y-154139282D01*
X161998211Y-154174997D01*
X162033925Y-154210711D01*
X162069639Y-154282139D01*
X162069639Y-154353568D01*
X162033925Y-154460711D01*
X161605354Y-154889282D01*
X162069639Y-154889282D01*
X159033925Y-152349282D02*
X158676782Y-152349282D01*
X158676782Y-151599282D01*
X159283925Y-152349282D02*
X159283925Y-151849282D01*
X159283925Y-151599282D02*
X159248211Y-151634997D01*
X159283925Y-151670711D01*
X159319639Y-151634997D01*
X159283925Y-151599282D01*
X159283925Y-151670711D01*
X159641068Y-151849282D02*
X159641068Y-152349282D01*
X159641068Y-151920711D02*
X159676782Y-151884997D01*
X159748211Y-151849282D01*
X159855354Y-151849282D01*
X159926782Y-151884997D01*
X159962497Y-151956425D01*
X159962497Y-152349282D01*
X161141068Y-151956425D02*
X160891068Y-151956425D01*
X160891068Y-152349282D02*
X160891068Y-151599282D01*
X161248211Y-151599282D01*
X161533925Y-152349282D02*
X161533925Y-151599282D01*
X161783925Y-152134997D01*
X162033925Y-151599282D01*
X162033925Y-152349282D01*
X116142854Y-120904758D02*
X116285711Y-120952377D01*
X116523806Y-120952377D01*
X116619044Y-120904758D01*
X116666663Y-120857139D01*
X116714282Y-120761901D01*
X116714282Y-120666663D01*
X116666663Y-120571425D01*
X116619044Y-120523806D01*
X116523806Y-120476187D01*
X116333330Y-120428568D01*
X116238092Y-120380949D01*
X116190473Y-120333330D01*
X116142854Y-120238092D01*
X116142854Y-120142854D01*
X116190473Y-120047616D01*
X116238092Y-119999997D01*
X116333330Y-119952377D01*
X116571425Y-119952377D01*
X116714282Y-119999997D01*
X117904758Y-120952377D02*
X117904758Y-120285711D01*
X117904758Y-119952377D02*
X117857139Y-119999997D01*
X117904758Y-120047616D01*
X117952377Y-119999997D01*
X117904758Y-119952377D01*
X117904758Y-120047616D01*
X118380949Y-120285711D02*
X118380949Y-120952377D01*
X118380949Y-120380949D02*
X118428568Y-120333330D01*
X118523806Y-120285711D01*
X118666663Y-120285711D01*
X118761901Y-120333330D01*
X118809520Y-120428568D01*
X118809520Y-120952377D01*
X158819639Y-141903568D02*
X159391068Y-141903568D01*
X159105354Y-142189282D02*
X159105354Y-141617854D01*
X160141068Y-142189282D02*
X159712497Y-142189282D01*
X159926782Y-142189282D02*
X159926782Y-141439282D01*
X159855354Y-141546425D01*
X159783925Y-141617854D01*
X159712497Y-141653568D01*
X160426782Y-141510711D02*
X160462497Y-141474997D01*
X160533925Y-141439282D01*
X160712497Y-141439282D01*
X160783925Y-141474997D01*
X160819639Y-141510711D01*
X160855354Y-141582139D01*
X160855354Y-141653568D01*
X160819639Y-141760711D01*
X160391068Y-142189282D01*
X160855354Y-142189282D01*
X161641068Y-141439282D02*
X161891068Y-142189282D01*
X162141068Y-141439282D01*
X186989854Y-95961282D02*
X186989854Y-95211282D01*
X186989854Y-95568425D02*
X187418425Y-95568425D01*
X187418425Y-95961282D02*
X187418425Y-95211282D01*
X187775568Y-95961282D02*
X187775568Y-95461282D01*
X187775568Y-95211282D02*
X187739854Y-95246997D01*
X187775568Y-95282711D01*
X187811282Y-95246997D01*
X187775568Y-95211282D01*
X187775568Y-95282711D01*
X188596997Y-95461282D02*
X188882711Y-95461282D01*
X188704139Y-95961282D02*
X188704139Y-95318425D01*
X188739854Y-95246997D01*
X188811282Y-95211282D01*
X188882711Y-95211282D01*
X189132711Y-95961282D02*
X189132711Y-95461282D01*
X189132711Y-95604139D02*
X189168425Y-95532711D01*
X189204139Y-95496997D01*
X189275568Y-95461282D01*
X189346997Y-95461282D01*
X189882711Y-95925568D02*
X189811282Y-95961282D01*
X189668425Y-95961282D01*
X189596997Y-95925568D01*
X189561282Y-95854139D01*
X189561282Y-95568425D01*
X189596997Y-95496997D01*
X189668425Y-95461282D01*
X189811282Y-95461282D01*
X189882711Y-95496997D01*
X189918425Y-95568425D01*
X189918425Y-95639854D01*
X189561282Y-95711282D01*
X190561282Y-95461282D02*
X190561282Y-96211282D01*
X190561282Y-95925568D02*
X190489854Y-95961282D01*
X190346997Y-95961282D01*
X190275568Y-95925568D01*
X190239854Y-95889854D01*
X190204139Y-95818425D01*
X190204139Y-95604139D01*
X190239854Y-95532711D01*
X190275568Y-95496997D01*
X190346997Y-95461282D01*
X190489854Y-95461282D01*
X190561282Y-95496997D01*
X191382711Y-95461282D02*
X191668425Y-95461282D01*
X191489854Y-95211282D02*
X191489854Y-95854139D01*
X191525568Y-95925568D01*
X191596997Y-95961282D01*
X191668425Y-95961282D01*
X191918425Y-95961282D02*
X191918425Y-95461282D01*
X191918425Y-95604139D02*
X191954139Y-95532711D01*
X191989854Y-95496997D01*
X192061282Y-95461282D01*
X192132711Y-95461282D01*
X192704139Y-95961282D02*
X192704139Y-95568425D01*
X192668425Y-95496997D01*
X192596997Y-95461282D01*
X192454139Y-95461282D01*
X192382711Y-95496997D01*
X192704139Y-95925568D02*
X192632711Y-95961282D01*
X192454139Y-95961282D01*
X192382711Y-95925568D01*
X192346997Y-95854139D01*
X192346997Y-95782711D01*
X192382711Y-95711282D01*
X192454139Y-95675568D01*
X192632711Y-95675568D01*
X192704139Y-95639854D01*
X193382711Y-95925568D02*
X193311282Y-95961282D01*
X193168425Y-95961282D01*
X193096997Y-95925568D01*
X193061282Y-95889854D01*
X193025568Y-95818425D01*
X193025568Y-95604139D01*
X193061282Y-95532711D01*
X193096997Y-95496997D01*
X193168425Y-95461282D01*
X193311282Y-95461282D01*
X193382711Y-95496997D01*
X193704139Y-95961282D02*
X193704139Y-95211282D01*
X193775568Y-95675568D02*
X193989854Y-95961282D01*
X193989854Y-95461282D02*
X193704139Y-95746997D01*
X141110711Y-99703925D02*
X141860711Y-99703925D01*
X141860711Y-99989639D01*
X141824997Y-100061068D01*
X141789282Y-100096782D01*
X141717854Y-100132497D01*
X141610711Y-100132497D01*
X141539282Y-100096782D01*
X141503568Y-100061068D01*
X141467854Y-99989639D01*
X141467854Y-99703925D01*
X141110711Y-100453925D02*
X141610711Y-100453925D01*
X141860711Y-100453925D02*
X141824997Y-100418211D01*
X141789282Y-100453925D01*
X141824997Y-100489639D01*
X141860711Y-100453925D01*
X141789282Y-100453925D01*
X141610711Y-100703925D02*
X141610711Y-100989639D01*
X141860711Y-100811068D02*
X141217854Y-100811068D01*
X141146425Y-100846782D01*
X141110711Y-100918211D01*
X141110711Y-100989639D01*
X141146425Y-101561068D02*
X141110711Y-101489639D01*
X141110711Y-101346782D01*
X141146425Y-101275354D01*
X141182139Y-101239639D01*
X141253568Y-101203925D01*
X141467854Y-101203925D01*
X141539282Y-101239639D01*
X141574997Y-101275354D01*
X141610711Y-101346782D01*
X141610711Y-101489639D01*
X141574997Y-101561068D01*
X141110711Y-101882497D02*
X141860711Y-101882497D01*
X141110711Y-102203925D02*
X141503568Y-102203925D01*
X141574997Y-102168211D01*
X141610711Y-102096782D01*
X141610711Y-101989639D01*
X141574997Y-101918211D01*
X141539282Y-101882497D01*
X158355354Y-146876425D02*
X158605354Y-146876425D01*
X158712497Y-147269282D02*
X158355354Y-147269282D01*
X158355354Y-146519282D01*
X158712497Y-146519282D01*
X158962497Y-147269282D02*
X159355354Y-146769282D01*
X158962497Y-146769282D02*
X159355354Y-147269282D01*
X159641068Y-146769282D02*
X159641068Y-147519282D01*
X159641068Y-146804997D02*
X159712497Y-146769282D01*
X159855354Y-146769282D01*
X159926782Y-146804997D01*
X159962497Y-146840711D01*
X159998211Y-146912139D01*
X159998211Y-147126425D01*
X159962497Y-147197854D01*
X159926782Y-147233568D01*
X159855354Y-147269282D01*
X159712497Y-147269282D01*
X159641068Y-147233568D01*
X161141068Y-146876425D02*
X160891068Y-146876425D01*
X160891068Y-147269282D02*
X160891068Y-146519282D01*
X161248211Y-146519282D01*
X161533925Y-147269282D02*
X161533925Y-146519282D01*
X161783925Y-147054997D01*
X162033925Y-146519282D01*
X162033925Y-147269282D01*
X188204139Y-75399282D02*
X188632711Y-75399282D01*
X188418425Y-76149282D02*
X188418425Y-75399282D01*
X188882711Y-76149282D02*
X188882711Y-75649282D01*
X188882711Y-75792139D02*
X188918425Y-75720711D01*
X188954139Y-75684997D01*
X189025568Y-75649282D01*
X189096997Y-75649282D01*
X189668425Y-76149282D02*
X189668425Y-75756425D01*
X189632711Y-75684997D01*
X189561282Y-75649282D01*
X189418425Y-75649282D01*
X189346997Y-75684997D01*
X189668425Y-76113568D02*
X189596997Y-76149282D01*
X189418425Y-76149282D01*
X189346997Y-76113568D01*
X189311282Y-76042139D01*
X189311282Y-75970711D01*
X189346997Y-75899282D01*
X189418425Y-75863568D01*
X189596997Y-75863568D01*
X189668425Y-75827854D01*
X190346997Y-76113568D02*
X190275568Y-76149282D01*
X190132711Y-76149282D01*
X190061282Y-76113568D01*
X190025568Y-76077854D01*
X189989854Y-76006425D01*
X189989854Y-75792139D01*
X190025568Y-75720711D01*
X190061282Y-75684997D01*
X190132711Y-75649282D01*
X190275568Y-75649282D01*
X190346997Y-75684997D01*
X190668425Y-76149282D02*
X190668425Y-75399282D01*
X190739854Y-75863568D02*
X190954139Y-76149282D01*
X190954139Y-75649282D02*
X190668425Y-75934997D01*
X191275568Y-76149282D02*
X191275568Y-75649282D01*
X191275568Y-75399282D02*
X191239854Y-75434997D01*
X191275568Y-75470711D01*
X191311282Y-75434997D01*
X191275568Y-75399282D01*
X191275568Y-75470711D01*
X191632711Y-75649282D02*
X191632711Y-76149282D01*
X191632711Y-75720711D02*
X191668425Y-75684997D01*
X191739854Y-75649282D01*
X191846997Y-75649282D01*
X191918425Y-75684997D01*
X191954139Y-75756425D01*
X191954139Y-76149282D01*
X192632711Y-75649282D02*
X192632711Y-76256425D01*
X192596997Y-76327854D01*
X192561282Y-76363568D01*
X192489854Y-76399282D01*
X192382711Y-76399282D01*
X192311282Y-76363568D01*
X192632711Y-76113568D02*
X192561282Y-76149282D01*
X192418425Y-76149282D01*
X192346997Y-76113568D01*
X192311282Y-76077854D01*
X192275568Y-76006425D01*
X192275568Y-75792139D01*
X192311282Y-75720711D01*
X192346997Y-75684997D01*
X192418425Y-75649282D01*
X192561282Y-75649282D01*
X192632711Y-75684997D01*
X180367616Y-54395139D02*
X181367616Y-54395139D01*
X181367616Y-54776092D01*
X181319997Y-54871330D01*
X181272377Y-54918949D01*
X181177139Y-54966568D01*
X181034282Y-54966568D01*
X180939044Y-54918949D01*
X180891425Y-54871330D01*
X180843806Y-54776092D01*
X180843806Y-54395139D01*
X181034282Y-55823711D02*
X180367616Y-55823711D01*
X181034282Y-55395139D02*
X180510473Y-55395139D01*
X180415235Y-55442758D01*
X180367616Y-55537997D01*
X180367616Y-55680854D01*
X180415235Y-55776092D01*
X180462854Y-55823711D01*
X180367616Y-56442758D02*
X180415235Y-56347520D01*
X180510473Y-56299901D01*
X181367616Y-56299901D01*
X180415235Y-56776092D02*
X180367616Y-56871330D01*
X180367616Y-57061806D01*
X180415235Y-57157044D01*
X180510473Y-57204663D01*
X180558092Y-57204663D01*
X180653330Y-57157044D01*
X180700949Y-57061806D01*
X180700949Y-56918949D01*
X180748568Y-56823711D01*
X180843806Y-56776092D01*
X180891425Y-56776092D01*
X180986663Y-56823711D01*
X181034282Y-56918949D01*
X181034282Y-57061806D01*
X180986663Y-57157044D01*
X180415235Y-58014187D02*
X180367616Y-57918949D01*
X180367616Y-57728473D01*
X180415235Y-57633235D01*
X180510473Y-57585616D01*
X180891425Y-57585616D01*
X180986663Y-57633235D01*
X181034282Y-57728473D01*
X181034282Y-57918949D01*
X180986663Y-58014187D01*
X180891425Y-58061806D01*
X180796187Y-58061806D01*
X180700949Y-57585616D01*
X181034282Y-59157044D02*
X180367616Y-59347520D01*
X180843806Y-59537997D01*
X180367616Y-59728473D01*
X181034282Y-59918949D01*
X180367616Y-60299901D02*
X181034282Y-60299901D01*
X181367616Y-60299901D02*
X181319997Y-60252282D01*
X181272377Y-60299901D01*
X181319997Y-60347520D01*
X181367616Y-60299901D01*
X181272377Y-60299901D01*
X180367616Y-61204663D02*
X181367616Y-61204663D01*
X180415235Y-61204663D02*
X180367616Y-61109425D01*
X180367616Y-60918949D01*
X180415235Y-60823711D01*
X180462854Y-60776092D01*
X180558092Y-60728473D01*
X180843806Y-60728473D01*
X180939044Y-60776092D01*
X180986663Y-60823711D01*
X181034282Y-60918949D01*
X181034282Y-61109425D01*
X180986663Y-61204663D01*
X181034282Y-61537997D02*
X181034282Y-61918949D01*
X181367616Y-61680854D02*
X180510473Y-61680854D01*
X180415235Y-61728473D01*
X180367616Y-61823711D01*
X180367616Y-61918949D01*
X180367616Y-62252282D02*
X181367616Y-62252282D01*
X180367616Y-62680854D02*
X180891425Y-62680854D01*
X180986663Y-62633235D01*
X181034282Y-62537997D01*
X181034282Y-62395139D01*
X180986663Y-62299901D01*
X180939044Y-62252282D01*
X181399425Y-116124854D02*
X181399425Y-115791520D01*
X180875616Y-115791520D02*
X181875616Y-115791520D01*
X181875616Y-116267711D01*
X180875616Y-116648663D02*
X181542282Y-116648663D01*
X181351806Y-116648663D02*
X181447044Y-116696282D01*
X181494663Y-116743901D01*
X181542282Y-116839139D01*
X181542282Y-116934377D01*
X180923235Y-117648663D02*
X180875616Y-117553425D01*
X180875616Y-117362949D01*
X180923235Y-117267711D01*
X181018473Y-117220092D01*
X181399425Y-117220092D01*
X181494663Y-117267711D01*
X181542282Y-117362949D01*
X181542282Y-117553425D01*
X181494663Y-117648663D01*
X181399425Y-117696282D01*
X181304187Y-117696282D01*
X181208949Y-117220092D01*
X181542282Y-118553425D02*
X180542282Y-118553425D01*
X180923235Y-118553425D02*
X180875616Y-118458187D01*
X180875616Y-118267711D01*
X180923235Y-118172473D01*
X180970854Y-118124854D01*
X181066092Y-118077235D01*
X181351806Y-118077235D01*
X181447044Y-118124854D01*
X181494663Y-118172473D01*
X181542282Y-118267711D01*
X181542282Y-118458187D01*
X181494663Y-118553425D01*
X180970854Y-120362949D02*
X180923235Y-120315330D01*
X180875616Y-120172473D01*
X180875616Y-120077235D01*
X180923235Y-119934377D01*
X181018473Y-119839139D01*
X181113711Y-119791520D01*
X181304187Y-119743901D01*
X181447044Y-119743901D01*
X181637520Y-119791520D01*
X181732758Y-119839139D01*
X181827997Y-119934377D01*
X181875616Y-120077235D01*
X181875616Y-120172473D01*
X181827997Y-120315330D01*
X181780377Y-120362949D01*
X181875616Y-120648663D02*
X180875616Y-120981997D01*
X181875616Y-121315330D01*
X179113806Y-40712377D02*
X179113806Y-39712377D01*
X179113806Y-40188568D02*
X179685235Y-40188568D01*
X179685235Y-40712377D02*
X179685235Y-39712377D01*
X180542377Y-40664758D02*
X180447139Y-40712377D01*
X180256663Y-40712377D01*
X180161425Y-40664758D01*
X180113806Y-40569520D01*
X180113806Y-40188568D01*
X180161425Y-40093330D01*
X180256663Y-40045711D01*
X180447139Y-40045711D01*
X180542377Y-40093330D01*
X180589997Y-40188568D01*
X180589997Y-40283806D01*
X180113806Y-40379044D01*
X181018568Y-40712377D02*
X181018568Y-40045711D01*
X181018568Y-40236187D02*
X181066187Y-40140949D01*
X181113806Y-40093330D01*
X181209044Y-40045711D01*
X181304282Y-40045711D01*
X181780473Y-40712377D02*
X181685235Y-40664758D01*
X181637616Y-40617139D01*
X181589997Y-40521901D01*
X181589997Y-40236187D01*
X181637616Y-40140949D01*
X181685235Y-40093330D01*
X181780473Y-40045711D01*
X181923330Y-40045711D01*
X182018568Y-40093330D01*
X182066187Y-40140949D01*
X182113806Y-40236187D01*
X182113806Y-40521901D01*
X182066187Y-40617139D01*
X182018568Y-40664758D01*
X181923330Y-40712377D01*
X181780473Y-40712377D01*
X183161425Y-39712377D02*
X183494758Y-40712377D01*
X183828092Y-39712377D01*
X184732854Y-40617139D02*
X184685235Y-40664758D01*
X184542377Y-40712377D01*
X184447139Y-40712377D01*
X184304282Y-40664758D01*
X184209044Y-40569520D01*
X184161425Y-40474282D01*
X184113806Y-40283806D01*
X184113806Y-40140949D01*
X184161425Y-39950473D01*
X184209044Y-39855235D01*
X184304282Y-39759997D01*
X184447139Y-39712377D01*
X184542377Y-39712377D01*
X184685235Y-39759997D01*
X184732854Y-39807616D01*
X185351901Y-39712377D02*
X185542377Y-39712377D01*
X185637616Y-39759997D01*
X185732854Y-39855235D01*
X185780473Y-40045711D01*
X185780473Y-40379044D01*
X185732854Y-40569520D01*
X185637616Y-40664758D01*
X185542377Y-40712377D01*
X185351901Y-40712377D01*
X185256663Y-40664758D01*
X185161425Y-40569520D01*
X185113806Y-40379044D01*
X185113806Y-40045711D01*
X185161425Y-39855235D01*
X185256663Y-39759997D01*
X185351901Y-39712377D01*
X186828092Y-40045711D02*
X187209044Y-40045711D01*
X186970949Y-40712377D02*
X186970949Y-39855235D01*
X187018568Y-39759997D01*
X187113806Y-39712377D01*
X187209044Y-39712377D01*
X187542377Y-40712377D02*
X187542377Y-40045711D01*
X187542377Y-40236187D02*
X187589997Y-40140949D01*
X187637616Y-40093330D01*
X187732854Y-40045711D01*
X187828092Y-40045711D01*
X188304282Y-40712377D02*
X188209044Y-40664758D01*
X188161425Y-40617139D01*
X188113806Y-40521901D01*
X188113806Y-40236187D01*
X188161425Y-40140949D01*
X188209044Y-40093330D01*
X188304282Y-40045711D01*
X188447139Y-40045711D01*
X188542377Y-40093330D01*
X188589997Y-40140949D01*
X188637616Y-40236187D01*
X188637616Y-40521901D01*
X188589997Y-40617139D01*
X188542377Y-40664758D01*
X188447139Y-40712377D01*
X188304282Y-40712377D01*
X189066187Y-40045711D02*
X189066187Y-40712377D01*
X189066187Y-40140949D02*
X189113806Y-40093330D01*
X189209044Y-40045711D01*
X189351901Y-40045711D01*
X189447139Y-40093330D01*
X189494758Y-40188568D01*
X189494758Y-40712377D01*
X189828092Y-40045711D02*
X190209044Y-40045711D01*
X189970949Y-39712377D02*
X189970949Y-40569520D01*
X190018568Y-40664758D01*
X190113806Y-40712377D01*
X190209044Y-40712377D01*
X191304282Y-40712377D02*
X191304282Y-39712377D01*
X191304282Y-40093330D02*
X191399520Y-40045711D01*
X191589997Y-40045711D01*
X191685235Y-40093330D01*
X191732854Y-40140949D01*
X191780473Y-40236187D01*
X191780473Y-40521901D01*
X191732854Y-40617139D01*
X191685235Y-40664758D01*
X191589997Y-40712377D01*
X191399520Y-40712377D01*
X191304282Y-40664758D01*
X192351901Y-40712377D02*
X192256663Y-40664758D01*
X192209044Y-40617139D01*
X192161425Y-40521901D01*
X192161425Y-40236187D01*
X192209044Y-40140949D01*
X192256663Y-40093330D01*
X192351901Y-40045711D01*
X192494758Y-40045711D01*
X192589997Y-40093330D01*
X192637616Y-40140949D01*
X192685235Y-40236187D01*
X192685235Y-40521901D01*
X192637616Y-40617139D01*
X192589997Y-40664758D01*
X192494758Y-40712377D01*
X192351901Y-40712377D01*
X193542377Y-40712377D02*
X193542377Y-40188568D01*
X193494758Y-40093330D01*
X193399520Y-40045711D01*
X193209044Y-40045711D01*
X193113806Y-40093330D01*
X193542377Y-40664758D02*
X193447139Y-40712377D01*
X193209044Y-40712377D01*
X193113806Y-40664758D01*
X193066187Y-40569520D01*
X193066187Y-40474282D01*
X193113806Y-40379044D01*
X193209044Y-40331425D01*
X193447139Y-40331425D01*
X193542377Y-40283806D01*
X194018568Y-40712377D02*
X194018568Y-40045711D01*
X194018568Y-40236187D02*
X194066187Y-40140949D01*
X194113806Y-40093330D01*
X194209044Y-40045711D01*
X194304282Y-40045711D01*
X195066187Y-40712377D02*
X195066187Y-39712377D01*
X195066187Y-40664758D02*
X194970949Y-40712377D01*
X194780473Y-40712377D01*
X194685235Y-40664758D01*
X194637616Y-40617139D01*
X194589997Y-40521901D01*
X194589997Y-40236187D01*
X194637616Y-40140949D01*
X194685235Y-40093330D01*
X194780473Y-40045711D01*
X194970949Y-40045711D01*
X195066187Y-40093330D01*
X160049639Y-78689282D02*
X160049639Y-77939282D01*
X160335354Y-77939282D01*
X160406782Y-77974997D01*
X160442497Y-78010711D01*
X160478211Y-78082139D01*
X160478211Y-78189282D01*
X160442497Y-78260711D01*
X160406782Y-78296425D01*
X160335354Y-78332139D01*
X160049639Y-78332139D01*
X161121068Y-78189282D02*
X161121068Y-78689282D01*
X160799639Y-78189282D02*
X160799639Y-78582139D01*
X160835354Y-78653568D01*
X160906782Y-78689282D01*
X161013925Y-78689282D01*
X161085354Y-78653568D01*
X161121068Y-78617854D01*
X161585354Y-78689282D02*
X161513925Y-78653568D01*
X161478211Y-78582139D01*
X161478211Y-77939282D01*
X161835354Y-78653568D02*
X161906782Y-78689282D01*
X162049639Y-78689282D01*
X162121068Y-78653568D01*
X162156782Y-78582139D01*
X162156782Y-78546425D01*
X162121068Y-78474997D01*
X162049639Y-78439282D01*
X161942497Y-78439282D01*
X161871068Y-78403568D01*
X161835354Y-78332139D01*
X161835354Y-78296425D01*
X161871068Y-78224997D01*
X161942497Y-78189282D01*
X162049639Y-78189282D01*
X162121068Y-78224997D01*
X162763925Y-78653568D02*
X162692497Y-78689282D01*
X162549639Y-78689282D01*
X162478211Y-78653568D01*
X162442497Y-78582139D01*
X162442497Y-78296425D01*
X162478211Y-78224997D01*
X162549639Y-78189282D01*
X162692497Y-78189282D01*
X162763925Y-78224997D01*
X162799639Y-78296425D01*
X162799639Y-78367854D01*
X162442497Y-78439282D01*
X107948092Y-127749758D02*
X108090949Y-127797377D01*
X108329044Y-127797377D01*
X108424282Y-127749758D01*
X108471901Y-127702139D01*
X108519520Y-127606901D01*
X108519520Y-127511663D01*
X108471901Y-127416425D01*
X108424282Y-127368806D01*
X108329044Y-127321187D01*
X108138568Y-127273568D01*
X108043330Y-127225949D01*
X107995711Y-127178330D01*
X107948092Y-127083092D01*
X107948092Y-126987854D01*
X107995711Y-126892616D01*
X108043330Y-126844997D01*
X108138568Y-126797377D01*
X108376663Y-126797377D01*
X108519520Y-126844997D01*
X108852854Y-127130711D02*
X109090949Y-127797377D01*
X109329044Y-127130711D02*
X109090949Y-127797377D01*
X108995711Y-128035473D01*
X108948092Y-128083092D01*
X108852854Y-128130711D01*
X109709997Y-127130711D02*
X109709997Y-127797377D01*
X109709997Y-127225949D02*
X109757616Y-127178330D01*
X109852854Y-127130711D01*
X109995711Y-127130711D01*
X110090949Y-127178330D01*
X110138568Y-127273568D01*
X110138568Y-127797377D01*
X111043330Y-127749758D02*
X110948092Y-127797377D01*
X110757616Y-127797377D01*
X110662377Y-127749758D01*
X110614758Y-127702139D01*
X110567139Y-127606901D01*
X110567139Y-127321187D01*
X110614758Y-127225949D01*
X110662377Y-127178330D01*
X110757616Y-127130711D01*
X110948092Y-127130711D01*
X111043330Y-127178330D01*
X112186187Y-127749758D02*
X112281425Y-127797377D01*
X112471901Y-127797377D01*
X112567139Y-127749758D01*
X112614758Y-127654520D01*
X112614758Y-127606901D01*
X112567139Y-127511663D01*
X112471901Y-127464044D01*
X112329044Y-127464044D01*
X112233806Y-127416425D01*
X112186187Y-127321187D01*
X112186187Y-127273568D01*
X112233806Y-127178330D01*
X112329044Y-127130711D01*
X112471901Y-127130711D01*
X112567139Y-127178330D01*
X112948092Y-127130711D02*
X113138568Y-127797377D01*
X113329044Y-127321187D01*
X113519520Y-127797377D01*
X113709997Y-127130711D01*
X114090949Y-127797377D02*
X114090949Y-127130711D01*
X114090949Y-126797377D02*
X114043330Y-126844997D01*
X114090949Y-126892616D01*
X114138568Y-126844997D01*
X114090949Y-126797377D01*
X114090949Y-126892616D01*
X114424282Y-127130711D02*
X114805235Y-127130711D01*
X114567139Y-126797377D02*
X114567139Y-127654520D01*
X114614758Y-127749758D01*
X114709997Y-127797377D01*
X114805235Y-127797377D01*
X115567139Y-127749758D02*
X115471901Y-127797377D01*
X115281425Y-127797377D01*
X115186187Y-127749758D01*
X115138568Y-127702139D01*
X115090949Y-127606901D01*
X115090949Y-127321187D01*
X115138568Y-127225949D01*
X115186187Y-127178330D01*
X115281425Y-127130711D01*
X115471901Y-127130711D01*
X115567139Y-127178330D01*
X115995711Y-127797377D02*
X115995711Y-126797377D01*
X116424282Y-127797377D02*
X116424282Y-127273568D01*
X116376663Y-127178330D01*
X116281425Y-127130711D01*
X116138568Y-127130711D01*
X116043330Y-127178330D01*
X115995711Y-127225949D01*
X107471901Y-129407377D02*
X107471901Y-128407377D01*
X107471901Y-129359758D02*
X107376663Y-129407377D01*
X107186187Y-129407377D01*
X107090949Y-129359758D01*
X107043330Y-129312139D01*
X106995711Y-129216901D01*
X106995711Y-128931187D01*
X107043330Y-128835949D01*
X107090949Y-128788330D01*
X107186187Y-128740711D01*
X107376663Y-128740711D01*
X107471901Y-128788330D01*
X108376663Y-129407377D02*
X108376663Y-128883568D01*
X108329044Y-128788330D01*
X108233806Y-128740711D01*
X108043330Y-128740711D01*
X107948092Y-128788330D01*
X108376663Y-129359758D02*
X108281425Y-129407377D01*
X108043330Y-129407377D01*
X107948092Y-129359758D01*
X107900473Y-129264520D01*
X107900473Y-129169282D01*
X107948092Y-129074044D01*
X108043330Y-129026425D01*
X108281425Y-129026425D01*
X108376663Y-128978806D01*
X109281425Y-128740711D02*
X109281425Y-129407377D01*
X108852854Y-128740711D02*
X108852854Y-129264520D01*
X108900473Y-129359758D01*
X108995711Y-129407377D01*
X109138568Y-129407377D01*
X109233806Y-129359758D01*
X109281425Y-129312139D01*
X110186187Y-128740711D02*
X110186187Y-129550235D01*
X110138568Y-129645473D01*
X110090949Y-129693092D01*
X109995711Y-129740711D01*
X109852854Y-129740711D01*
X109757616Y-129693092D01*
X110186187Y-129359758D02*
X110090949Y-129407377D01*
X109900473Y-129407377D01*
X109805235Y-129359758D01*
X109757616Y-129312139D01*
X109709997Y-129216901D01*
X109709997Y-128931187D01*
X109757616Y-128835949D01*
X109805235Y-128788330D01*
X109900473Y-128740711D01*
X110090949Y-128740711D01*
X110186187Y-128788330D01*
X110662377Y-129407377D02*
X110662377Y-128407377D01*
X111090949Y-129407377D02*
X111090949Y-128883568D01*
X111043330Y-128788330D01*
X110948092Y-128740711D01*
X110805235Y-128740711D01*
X110709997Y-128788330D01*
X110662377Y-128835949D01*
X111424282Y-128740711D02*
X111805235Y-128740711D01*
X111567139Y-128407377D02*
X111567139Y-129264520D01*
X111614758Y-129359758D01*
X111709997Y-129407377D01*
X111805235Y-129407377D01*
X112519520Y-129359758D02*
X112424282Y-129407377D01*
X112233806Y-129407377D01*
X112138568Y-129359758D01*
X112090949Y-129264520D01*
X112090949Y-128883568D01*
X112138568Y-128788330D01*
X112233806Y-128740711D01*
X112424282Y-128740711D01*
X112519520Y-128788330D01*
X112567139Y-128883568D01*
X112567139Y-128978806D01*
X112090949Y-129074044D01*
X112995711Y-129407377D02*
X112995711Y-128740711D01*
X112995711Y-128931187D02*
X113043330Y-128835949D01*
X113090949Y-128788330D01*
X113186187Y-128740711D01*
X113281425Y-128740711D01*
X113614758Y-129407377D02*
X113614758Y-128407377D01*
X113614758Y-128788330D02*
X113709997Y-128740711D01*
X113900473Y-128740711D01*
X113995711Y-128788330D01*
X114043330Y-128835949D01*
X114090949Y-128931187D01*
X114090949Y-129216901D01*
X114043330Y-129312139D01*
X113995711Y-129359758D01*
X113900473Y-129407377D01*
X113709997Y-129407377D01*
X113614758Y-129359758D01*
X114662377Y-129407377D02*
X114567139Y-129359758D01*
X114519520Y-129312139D01*
X114471901Y-129216901D01*
X114471901Y-128931187D01*
X114519520Y-128835949D01*
X114567139Y-128788330D01*
X114662377Y-128740711D01*
X114805235Y-128740711D01*
X114900473Y-128788330D01*
X114948092Y-128835949D01*
X114995711Y-128931187D01*
X114995711Y-129216901D01*
X114948092Y-129312139D01*
X114900473Y-129359758D01*
X114805235Y-129407377D01*
X114662377Y-129407377D01*
X115852854Y-129407377D02*
X115852854Y-128883568D01*
X115805235Y-128788330D01*
X115709997Y-128740711D01*
X115519520Y-128740711D01*
X115424282Y-128788330D01*
X115852854Y-129359758D02*
X115757616Y-129407377D01*
X115519520Y-129407377D01*
X115424282Y-129359758D01*
X115376663Y-129264520D01*
X115376663Y-129169282D01*
X115424282Y-129074044D01*
X115519520Y-129026425D01*
X115757616Y-129026425D01*
X115852854Y-128978806D01*
X116329044Y-129407377D02*
X116329044Y-128740711D01*
X116329044Y-128931187D02*
X116376663Y-128835949D01*
X116424282Y-128788330D01*
X116519520Y-128740711D01*
X116614758Y-128740711D01*
X117376663Y-129407377D02*
X117376663Y-128407377D01*
X117376663Y-129359758D02*
X117281425Y-129407377D01*
X117090949Y-129407377D01*
X116995711Y-129359758D01*
X116948092Y-129312139D01*
X116900473Y-129216901D01*
X116900473Y-128931187D01*
X116948092Y-128835949D01*
X116995711Y-128788330D01*
X117090949Y-128740711D01*
X117281425Y-128740711D01*
X117376663Y-128788330D01*
X159926782Y-144729282D02*
X159926782Y-143979282D01*
X160212497Y-143979282D01*
X160283925Y-144014997D01*
X160319639Y-144050711D01*
X160355354Y-144122139D01*
X160355354Y-144229282D01*
X160319639Y-144300711D01*
X160283925Y-144336425D01*
X160212497Y-144372139D01*
X159926782Y-144372139D01*
X160605354Y-143979282D02*
X160783925Y-144729282D01*
X160926782Y-144193568D01*
X161069639Y-144729282D01*
X161248211Y-143979282D01*
X161533925Y-144729282D02*
X161533925Y-143979282D01*
X161783925Y-144514997D01*
X162033925Y-143979282D01*
X162033925Y-144729282D01*
X161621068Y-75399282D02*
X162049639Y-75399282D01*
X161835354Y-76149282D02*
X161835354Y-75399282D01*
X162299639Y-76149282D02*
X162299639Y-75649282D01*
X162299639Y-75792139D02*
X162335354Y-75720711D01*
X162371068Y-75684997D01*
X162442497Y-75649282D01*
X162513925Y-75649282D01*
X162763925Y-76149282D02*
X162763925Y-75649282D01*
X162763925Y-75399282D02*
X162728211Y-75434997D01*
X162763925Y-75470711D01*
X162799639Y-75434997D01*
X162763925Y-75399282D01*
X162763925Y-75470711D01*
X180621616Y-87105235D02*
X181621616Y-87105235D01*
X181621616Y-87486187D01*
X181573997Y-87581425D01*
X181526377Y-87629044D01*
X181431139Y-87676663D01*
X181288282Y-87676663D01*
X181193044Y-87629044D01*
X181145425Y-87581425D01*
X181097806Y-87486187D01*
X181097806Y-87105235D01*
X181621616Y-88009997D02*
X180621616Y-88248092D01*
X181335901Y-88438568D01*
X180621616Y-88629044D01*
X181621616Y-88867139D01*
X180621616Y-89248092D02*
X181621616Y-89248092D01*
X180907330Y-89581425D01*
X181621616Y-89914758D01*
X180621616Y-89914758D01*
G04 #@! TO.C,TP3*
X191331282Y-151686425D02*
X191331282Y-151257854D01*
X192081282Y-151472139D02*
X191331282Y-151472139D01*
X192081282Y-151007854D02*
X191331282Y-151007854D01*
X191331282Y-150722139D01*
X191366997Y-150650711D01*
X191402711Y-150614997D01*
X191474139Y-150579282D01*
X191581282Y-150579282D01*
X191652711Y-150614997D01*
X191688425Y-150650711D01*
X191724139Y-150722139D01*
X191724139Y-151007854D01*
X191331282Y-150329282D02*
X191331282Y-149864997D01*
X191616997Y-150114997D01*
X191616997Y-150007854D01*
X191652711Y-149936425D01*
X191688425Y-149900711D01*
X191759854Y-149864997D01*
X191938425Y-149864997D01*
X192009854Y-149900711D01*
X192045568Y-149936425D01*
X192081282Y-150007854D01*
X192081282Y-150222139D01*
X192045568Y-150293568D01*
X192009854Y-150329282D01*
X192811568Y-152061425D02*
X192811568Y-151489997D01*
X193097282Y-150739997D02*
X193097282Y-151168568D01*
X193097282Y-150954282D02*
X192347282Y-150954282D01*
X192454425Y-151025711D01*
X192525854Y-151097139D01*
X192561568Y-151168568D01*
X192418711Y-150454282D02*
X192382997Y-150418568D01*
X192347282Y-150347139D01*
X192347282Y-150168568D01*
X192382997Y-150097139D01*
X192418711Y-150061425D01*
X192490139Y-150025711D01*
X192561568Y-150025711D01*
X192668711Y-150061425D01*
X193097282Y-150489997D01*
X193097282Y-150025711D01*
X192347282Y-149811425D02*
X193097282Y-149561425D01*
X192347282Y-149311425D01*
G04 #@! TO.C,RV2*
X186553568Y-69029282D02*
X186303568Y-68672139D01*
X186124997Y-69029282D02*
X186124997Y-68279282D01*
X186410711Y-68279282D01*
X186482139Y-68314997D01*
X186517854Y-68350711D01*
X186553568Y-68422139D01*
X186553568Y-68529282D01*
X186517854Y-68600711D01*
X186482139Y-68636425D01*
X186410711Y-68672139D01*
X186124997Y-68672139D01*
X186767854Y-68279282D02*
X187017854Y-69029282D01*
X187267854Y-68279282D01*
X187482139Y-68350711D02*
X187517854Y-68314997D01*
X187589282Y-68279282D01*
X187767854Y-68279282D01*
X187839282Y-68314997D01*
X187874997Y-68350711D01*
X187910711Y-68422139D01*
X187910711Y-68493568D01*
X187874997Y-68600711D01*
X187446425Y-69029282D01*
X187910711Y-69029282D01*
X193553568Y-68839282D02*
X193124997Y-68839282D01*
X193339282Y-68839282D02*
X193339282Y-68089282D01*
X193267854Y-68196425D01*
X193196425Y-68267854D01*
X193124997Y-68303568D01*
X194017854Y-68089282D02*
X194089282Y-68089282D01*
X194160711Y-68124997D01*
X194196425Y-68160711D01*
X194232139Y-68232139D01*
X194267854Y-68374997D01*
X194267854Y-68553568D01*
X194232139Y-68696425D01*
X194196425Y-68767854D01*
X194160711Y-68803568D01*
X194089282Y-68839282D01*
X194017854Y-68839282D01*
X193946425Y-68803568D01*
X193910711Y-68767854D01*
X193874997Y-68696425D01*
X193839282Y-68553568D01*
X193839282Y-68374997D01*
X193874997Y-68232139D01*
X193910711Y-68160711D01*
X193946425Y-68124997D01*
X194017854Y-68089282D01*
X194589282Y-68839282D02*
X194589282Y-68089282D01*
X194660711Y-68553568D02*
X194874997Y-68839282D01*
X194874997Y-68339282D02*
X194589282Y-68624997D01*
G04 #@! TO.C,TP5*
X191331282Y-145576425D02*
X191331282Y-145147854D01*
X192081282Y-145362139D02*
X191331282Y-145362139D01*
X192081282Y-144897854D02*
X191331282Y-144897854D01*
X191331282Y-144612139D01*
X191366997Y-144540711D01*
X191402711Y-144504997D01*
X191474139Y-144469282D01*
X191581282Y-144469282D01*
X191652711Y-144504997D01*
X191688425Y-144540711D01*
X191724139Y-144612139D01*
X191724139Y-144897854D01*
X191331282Y-143790711D02*
X191331282Y-144147854D01*
X191688425Y-144183568D01*
X191652711Y-144147854D01*
X191616997Y-144076425D01*
X191616997Y-143897854D01*
X191652711Y-143826425D01*
X191688425Y-143790711D01*
X191759854Y-143754997D01*
X191938425Y-143754997D01*
X192009854Y-143790711D01*
X192045568Y-143826425D01*
X192081282Y-143897854D01*
X192081282Y-144076425D01*
X192045568Y-144147854D01*
X192009854Y-144183568D01*
X192382997Y-145201425D02*
X192347282Y-145272854D01*
X192347282Y-145379997D01*
X192382997Y-145487139D01*
X192454425Y-145558568D01*
X192525854Y-145594282D01*
X192668711Y-145629997D01*
X192775854Y-145629997D01*
X192918711Y-145594282D01*
X192990139Y-145558568D01*
X193061568Y-145487139D01*
X193097282Y-145379997D01*
X193097282Y-145308568D01*
X193061568Y-145201425D01*
X193025854Y-145165711D01*
X192775854Y-145165711D01*
X192775854Y-145308568D01*
X193097282Y-144844282D02*
X192347282Y-144844282D01*
X193097282Y-144415711D01*
X192347282Y-144415711D01*
X193097282Y-144058568D02*
X192347282Y-144058568D01*
X192347282Y-143879997D01*
X192382997Y-143772854D01*
X192454425Y-143701425D01*
X192525854Y-143665711D01*
X192668711Y-143629997D01*
X192775854Y-143629997D01*
X192918711Y-143665711D01*
X192990139Y-143701425D01*
X193061568Y-143772854D01*
X193097282Y-143879997D01*
X193097282Y-144058568D01*
G04 #@! TO.C,RV3*
X167561568Y-111259282D02*
X167311568Y-110902139D01*
X167132997Y-111259282D02*
X167132997Y-110509282D01*
X167418711Y-110509282D01*
X167490139Y-110544997D01*
X167525854Y-110580711D01*
X167561568Y-110652139D01*
X167561568Y-110759282D01*
X167525854Y-110830711D01*
X167490139Y-110866425D01*
X167418711Y-110902139D01*
X167132997Y-110902139D01*
X167775854Y-110509282D02*
X168025854Y-111259282D01*
X168275854Y-110509282D01*
X168454425Y-110509282D02*
X168918711Y-110509282D01*
X168668711Y-110794997D01*
X168775854Y-110794997D01*
X168847282Y-110830711D01*
X168882997Y-110866425D01*
X168918711Y-110937854D01*
X168918711Y-111116425D01*
X168882997Y-111187854D01*
X168847282Y-111223568D01*
X168775854Y-111259282D01*
X168561568Y-111259282D01*
X168490139Y-111223568D01*
X168454425Y-111187854D01*
X178380425Y-111259282D02*
X177951854Y-111259282D01*
X178166139Y-111259282D02*
X178166139Y-110509282D01*
X178094711Y-110616425D01*
X178023282Y-110687854D01*
X177951854Y-110723568D01*
X178844711Y-110509282D02*
X178916139Y-110509282D01*
X178987568Y-110544997D01*
X179023282Y-110580711D01*
X179058997Y-110652139D01*
X179094711Y-110794997D01*
X179094711Y-110973568D01*
X179058997Y-111116425D01*
X179023282Y-111187854D01*
X178987568Y-111223568D01*
X178916139Y-111259282D01*
X178844711Y-111259282D01*
X178773282Y-111223568D01*
X178737568Y-111187854D01*
X178701854Y-111116425D01*
X178666139Y-110973568D01*
X178666139Y-110794997D01*
X178701854Y-110652139D01*
X178737568Y-110580711D01*
X178773282Y-110544997D01*
X178844711Y-110509282D01*
X179558997Y-110509282D02*
X179630425Y-110509282D01*
X179701854Y-110544997D01*
X179737568Y-110580711D01*
X179773282Y-110652139D01*
X179808997Y-110794997D01*
X179808997Y-110973568D01*
X179773282Y-111116425D01*
X179737568Y-111187854D01*
X179701854Y-111223568D01*
X179630425Y-111259282D01*
X179558997Y-111259282D01*
X179487568Y-111223568D01*
X179451854Y-111187854D01*
X179416139Y-111116425D01*
X179380425Y-110973568D01*
X179380425Y-110794997D01*
X179416139Y-110652139D01*
X179451854Y-110580711D01*
X179487568Y-110544997D01*
X179558997Y-110509282D01*
X180130425Y-111259282D02*
X180130425Y-110509282D01*
X180201854Y-110973568D02*
X180416139Y-111259282D01*
X180416139Y-110759282D02*
X180130425Y-111044997D01*
G04 #@! TO.C,TP6*
X172173568Y-41617282D02*
X172602139Y-41617282D01*
X172387854Y-42367282D02*
X172387854Y-41617282D01*
X172852139Y-42367282D02*
X172852139Y-41617282D01*
X173137854Y-41617282D01*
X173209282Y-41652997D01*
X173244997Y-41688711D01*
X173280711Y-41760139D01*
X173280711Y-41867282D01*
X173244997Y-41938711D01*
X173209282Y-41974425D01*
X173137854Y-42010139D01*
X172852139Y-42010139D01*
X173923568Y-41617282D02*
X173780711Y-41617282D01*
X173709282Y-41652997D01*
X173673568Y-41688711D01*
X173602139Y-41795854D01*
X173566425Y-41938711D01*
X173566425Y-42224425D01*
X173602139Y-42295854D01*
X173637854Y-42331568D01*
X173709282Y-42367282D01*
X173852139Y-42367282D01*
X173923568Y-42331568D01*
X173959282Y-42295854D01*
X173994997Y-42224425D01*
X173994997Y-42045854D01*
X173959282Y-41974425D01*
X173923568Y-41938711D01*
X173852139Y-41902997D01*
X173709282Y-41902997D01*
X173637854Y-41938711D01*
X173602139Y-41974425D01*
X173566425Y-42045854D01*
X172155711Y-41065568D02*
X172727139Y-41065568D01*
X173441425Y-40601282D02*
X173084282Y-40601282D01*
X173048568Y-40958425D01*
X173084282Y-40922711D01*
X173155711Y-40886997D01*
X173334282Y-40886997D01*
X173405711Y-40922711D01*
X173441425Y-40958425D01*
X173477139Y-41029854D01*
X173477139Y-41208425D01*
X173441425Y-41279854D01*
X173405711Y-41315568D01*
X173334282Y-41351282D01*
X173155711Y-41351282D01*
X173084282Y-41315568D01*
X173048568Y-41279854D01*
X173691425Y-40601282D02*
X173941425Y-41351282D01*
X174191425Y-40601282D01*
G04 #@! TO.C,TP1*
X191331282Y-138986425D02*
X191331282Y-138557854D01*
X192081282Y-138772139D02*
X191331282Y-138772139D01*
X192081282Y-138307854D02*
X191331282Y-138307854D01*
X191331282Y-138022139D01*
X191366997Y-137950711D01*
X191402711Y-137914997D01*
X191474139Y-137879282D01*
X191581282Y-137879282D01*
X191652711Y-137914997D01*
X191688425Y-137950711D01*
X191724139Y-138022139D01*
X191724139Y-138307854D01*
X192081282Y-137164997D02*
X192081282Y-137593568D01*
X192081282Y-137379282D02*
X191331282Y-137379282D01*
X191438425Y-137450711D01*
X191509854Y-137522139D01*
X191545568Y-137593568D01*
X192811568Y-139361425D02*
X192811568Y-138789997D01*
X193097282Y-139075711D02*
X192525854Y-139075711D01*
X193097282Y-138039997D02*
X193097282Y-138468568D01*
X193097282Y-138254282D02*
X192347282Y-138254282D01*
X192454425Y-138325711D01*
X192525854Y-138397139D01*
X192561568Y-138468568D01*
X192418711Y-137754282D02*
X192382997Y-137718568D01*
X192347282Y-137647139D01*
X192347282Y-137468568D01*
X192382997Y-137397139D01*
X192418711Y-137361425D01*
X192490139Y-137325711D01*
X192561568Y-137325711D01*
X192668711Y-137361425D01*
X193097282Y-137789997D01*
X193097282Y-137325711D01*
X192347282Y-137111425D02*
X193097282Y-136861425D01*
X192347282Y-136611425D01*
G04 #@! TO.C,RV7*
X167561568Y-51259282D02*
X167311568Y-50902139D01*
X167132997Y-51259282D02*
X167132997Y-50509282D01*
X167418711Y-50509282D01*
X167490139Y-50544997D01*
X167525854Y-50580711D01*
X167561568Y-50652139D01*
X167561568Y-50759282D01*
X167525854Y-50830711D01*
X167490139Y-50866425D01*
X167418711Y-50902139D01*
X167132997Y-50902139D01*
X167775854Y-50509282D02*
X168025854Y-51259282D01*
X168275854Y-50509282D01*
X168454425Y-50509282D02*
X168954425Y-50509282D01*
X168632997Y-51259282D01*
X178380425Y-51259282D02*
X177951854Y-51259282D01*
X178166139Y-51259282D02*
X178166139Y-50509282D01*
X178094711Y-50616425D01*
X178023282Y-50687854D01*
X177951854Y-50723568D01*
X178844711Y-50509282D02*
X178916139Y-50509282D01*
X178987568Y-50544997D01*
X179023282Y-50580711D01*
X179058997Y-50652139D01*
X179094711Y-50794997D01*
X179094711Y-50973568D01*
X179058997Y-51116425D01*
X179023282Y-51187854D01*
X178987568Y-51223568D01*
X178916139Y-51259282D01*
X178844711Y-51259282D01*
X178773282Y-51223568D01*
X178737568Y-51187854D01*
X178701854Y-51116425D01*
X178666139Y-50973568D01*
X178666139Y-50794997D01*
X178701854Y-50652139D01*
X178737568Y-50580711D01*
X178773282Y-50544997D01*
X178844711Y-50509282D01*
X179558997Y-50509282D02*
X179630425Y-50509282D01*
X179701854Y-50544997D01*
X179737568Y-50580711D01*
X179773282Y-50652139D01*
X179808997Y-50794997D01*
X179808997Y-50973568D01*
X179773282Y-51116425D01*
X179737568Y-51187854D01*
X179701854Y-51223568D01*
X179630425Y-51259282D01*
X179558997Y-51259282D01*
X179487568Y-51223568D01*
X179451854Y-51187854D01*
X179416139Y-51116425D01*
X179380425Y-50973568D01*
X179380425Y-50794997D01*
X179416139Y-50652139D01*
X179451854Y-50580711D01*
X179487568Y-50544997D01*
X179558997Y-50509282D01*
X180130425Y-51259282D02*
X180130425Y-50509282D01*
X180201854Y-50973568D02*
X180416139Y-51259282D01*
X180416139Y-50759282D02*
X180130425Y-51044997D01*
G04 #@! TO.C,RV1*
X117561568Y-91259282D02*
X117311568Y-90902139D01*
X117132997Y-91259282D02*
X117132997Y-90509282D01*
X117418711Y-90509282D01*
X117490139Y-90544997D01*
X117525854Y-90580711D01*
X117561568Y-90652139D01*
X117561568Y-90759282D01*
X117525854Y-90830711D01*
X117490139Y-90866425D01*
X117418711Y-90902139D01*
X117132997Y-90902139D01*
X117775854Y-90509282D02*
X118025854Y-91259282D01*
X118275854Y-90509282D01*
X118918711Y-91259282D02*
X118490139Y-91259282D01*
X118704425Y-91259282D02*
X118704425Y-90509282D01*
X118632997Y-90616425D01*
X118561568Y-90687854D01*
X118490139Y-90723568D01*
X128380425Y-91259282D02*
X127951854Y-91259282D01*
X128166139Y-91259282D02*
X128166139Y-90509282D01*
X128094711Y-90616425D01*
X128023282Y-90687854D01*
X127951854Y-90723568D01*
X128844711Y-90509282D02*
X128916139Y-90509282D01*
X128987568Y-90544997D01*
X129023282Y-90580711D01*
X129058997Y-90652139D01*
X129094711Y-90794997D01*
X129094711Y-90973568D01*
X129058997Y-91116425D01*
X129023282Y-91187854D01*
X128987568Y-91223568D01*
X128916139Y-91259282D01*
X128844711Y-91259282D01*
X128773282Y-91223568D01*
X128737568Y-91187854D01*
X128701854Y-91116425D01*
X128666139Y-90973568D01*
X128666139Y-90794997D01*
X128701854Y-90652139D01*
X128737568Y-90580711D01*
X128773282Y-90544997D01*
X128844711Y-90509282D01*
X129558997Y-90509282D02*
X129630425Y-90509282D01*
X129701854Y-90544997D01*
X129737568Y-90580711D01*
X129773282Y-90652139D01*
X129808997Y-90794997D01*
X129808997Y-90973568D01*
X129773282Y-91116425D01*
X129737568Y-91187854D01*
X129701854Y-91223568D01*
X129630425Y-91259282D01*
X129558997Y-91259282D01*
X129487568Y-91223568D01*
X129451854Y-91187854D01*
X129416139Y-91116425D01*
X129380425Y-90973568D01*
X129380425Y-90794997D01*
X129416139Y-90652139D01*
X129451854Y-90580711D01*
X129487568Y-90544997D01*
X129558997Y-90509282D01*
X130130425Y-91259282D02*
X130130425Y-90509282D01*
X130201854Y-90973568D02*
X130416139Y-91259282D01*
X130416139Y-90759282D02*
X130130425Y-91044997D01*
G04 #@! TO.C,TP2*
X159473568Y-41617282D02*
X159902139Y-41617282D01*
X159687854Y-42367282D02*
X159687854Y-41617282D01*
X160152139Y-42367282D02*
X160152139Y-41617282D01*
X160437854Y-41617282D01*
X160509282Y-41652997D01*
X160544997Y-41688711D01*
X160580711Y-41760139D01*
X160580711Y-41867282D01*
X160544997Y-41938711D01*
X160509282Y-41974425D01*
X160437854Y-42010139D01*
X160152139Y-42010139D01*
X160866425Y-41688711D02*
X160902139Y-41652997D01*
X160973568Y-41617282D01*
X161152139Y-41617282D01*
X161223568Y-41652997D01*
X161259282Y-41688711D01*
X161294997Y-41760139D01*
X161294997Y-41831568D01*
X161259282Y-41938711D01*
X160830711Y-42367282D01*
X161294997Y-42367282D01*
X158419997Y-41065568D02*
X158991425Y-41065568D01*
X158705711Y-41351282D02*
X158705711Y-40779854D01*
X159705711Y-40601282D02*
X159348568Y-40601282D01*
X159312854Y-40958425D01*
X159348568Y-40922711D01*
X159419997Y-40886997D01*
X159598568Y-40886997D01*
X159669997Y-40922711D01*
X159705711Y-40958425D01*
X159741425Y-41029854D01*
X159741425Y-41208425D01*
X159705711Y-41279854D01*
X159669997Y-41315568D01*
X159598568Y-41351282D01*
X159419997Y-41351282D01*
X159348568Y-41315568D01*
X159312854Y-41279854D01*
X159955711Y-40601282D02*
X160205711Y-41351282D01*
X160455711Y-40601282D01*
X161134282Y-41351282D02*
X160884282Y-40994139D01*
X160705711Y-41351282D02*
X160705711Y-40601282D01*
X160991425Y-40601282D01*
X161062854Y-40636997D01*
X161098568Y-40672711D01*
X161134282Y-40744139D01*
X161134282Y-40851282D01*
X161098568Y-40922711D01*
X161062854Y-40958425D01*
X160991425Y-40994139D01*
X160705711Y-40994139D01*
X161455711Y-40958425D02*
X161705711Y-40958425D01*
X161812854Y-41351282D02*
X161455711Y-41351282D01*
X161455711Y-40601282D01*
X161812854Y-40601282D01*
X162384282Y-40958425D02*
X162134282Y-40958425D01*
X162134282Y-41351282D02*
X162134282Y-40601282D01*
X162491425Y-40601282D01*
G04 #@! TO.C,RV9*
X186553568Y-79029282D02*
X186303568Y-78672139D01*
X186124997Y-79029282D02*
X186124997Y-78279282D01*
X186410711Y-78279282D01*
X186482139Y-78314997D01*
X186517854Y-78350711D01*
X186553568Y-78422139D01*
X186553568Y-78529282D01*
X186517854Y-78600711D01*
X186482139Y-78636425D01*
X186410711Y-78672139D01*
X186124997Y-78672139D01*
X186767854Y-78279282D02*
X187017854Y-79029282D01*
X187267854Y-78279282D01*
X187553568Y-79029282D02*
X187696425Y-79029282D01*
X187767854Y-78993568D01*
X187803568Y-78957854D01*
X187874997Y-78850711D01*
X187910711Y-78707854D01*
X187910711Y-78422139D01*
X187874997Y-78350711D01*
X187839282Y-78314997D01*
X187767854Y-78279282D01*
X187624997Y-78279282D01*
X187553568Y-78314997D01*
X187517854Y-78350711D01*
X187482139Y-78422139D01*
X187482139Y-78600711D01*
X187517854Y-78672139D01*
X187553568Y-78707854D01*
X187624997Y-78743568D01*
X187767854Y-78743568D01*
X187839282Y-78707854D01*
X187874997Y-78672139D01*
X187910711Y-78600711D01*
X193517854Y-78089282D02*
X193160711Y-78089282D01*
X193124997Y-78446425D01*
X193160711Y-78410711D01*
X193232139Y-78374997D01*
X193410711Y-78374997D01*
X193482139Y-78410711D01*
X193517854Y-78446425D01*
X193553568Y-78517854D01*
X193553568Y-78696425D01*
X193517854Y-78767854D01*
X193482139Y-78803568D01*
X193410711Y-78839282D01*
X193232139Y-78839282D01*
X193160711Y-78803568D01*
X193124997Y-78767854D01*
X194017854Y-78089282D02*
X194089282Y-78089282D01*
X194160711Y-78124997D01*
X194196425Y-78160711D01*
X194232139Y-78232139D01*
X194267854Y-78374997D01*
X194267854Y-78553568D01*
X194232139Y-78696425D01*
X194196425Y-78767854D01*
X194160711Y-78803568D01*
X194089282Y-78839282D01*
X194017854Y-78839282D01*
X193946425Y-78803568D01*
X193910711Y-78767854D01*
X193874997Y-78696425D01*
X193839282Y-78553568D01*
X193839282Y-78374997D01*
X193874997Y-78232139D01*
X193910711Y-78160711D01*
X193946425Y-78124997D01*
X194017854Y-78089282D01*
X194589282Y-78839282D02*
X194589282Y-78089282D01*
X194660711Y-78553568D02*
X194874997Y-78839282D01*
X194874997Y-78339282D02*
X194589282Y-78624997D01*
G04 #@! TO.C,RV6*
X186553568Y-59029282D02*
X186303568Y-58672139D01*
X186124997Y-59029282D02*
X186124997Y-58279282D01*
X186410711Y-58279282D01*
X186482139Y-58314997D01*
X186517854Y-58350711D01*
X186553568Y-58422139D01*
X186553568Y-58529282D01*
X186517854Y-58600711D01*
X186482139Y-58636425D01*
X186410711Y-58672139D01*
X186124997Y-58672139D01*
X186767854Y-58279282D02*
X187017854Y-59029282D01*
X187267854Y-58279282D01*
X187839282Y-58279282D02*
X187696425Y-58279282D01*
X187624997Y-58314997D01*
X187589282Y-58350711D01*
X187517854Y-58457854D01*
X187482139Y-58600711D01*
X187482139Y-58886425D01*
X187517854Y-58957854D01*
X187553568Y-58993568D01*
X187624997Y-59029282D01*
X187767854Y-59029282D01*
X187839282Y-58993568D01*
X187874997Y-58957854D01*
X187910711Y-58886425D01*
X187910711Y-58707854D01*
X187874997Y-58636425D01*
X187839282Y-58600711D01*
X187767854Y-58564997D01*
X187624997Y-58564997D01*
X187553568Y-58600711D01*
X187517854Y-58636425D01*
X187482139Y-58707854D01*
X193124997Y-58160711D02*
X193160711Y-58124997D01*
X193232139Y-58089282D01*
X193410711Y-58089282D01*
X193482139Y-58124997D01*
X193517854Y-58160711D01*
X193553568Y-58232139D01*
X193553568Y-58303568D01*
X193517854Y-58410711D01*
X193089282Y-58839282D01*
X193553568Y-58839282D01*
X194017854Y-58089282D02*
X194089282Y-58089282D01*
X194160711Y-58124997D01*
X194196425Y-58160711D01*
X194232139Y-58232139D01*
X194267854Y-58374997D01*
X194267854Y-58553568D01*
X194232139Y-58696425D01*
X194196425Y-58767854D01*
X194160711Y-58803568D01*
X194089282Y-58839282D01*
X194017854Y-58839282D01*
X193946425Y-58803568D01*
X193910711Y-58767854D01*
X193874997Y-58696425D01*
X193839282Y-58553568D01*
X193839282Y-58374997D01*
X193874997Y-58232139D01*
X193910711Y-58160711D01*
X193946425Y-58124997D01*
X194017854Y-58089282D01*
X194589282Y-58839282D02*
X194589282Y-58089282D01*
X194660711Y-58553568D02*
X194874997Y-58839282D01*
X194874997Y-58339282D02*
X194589282Y-58624997D01*
G04 #@! TO.C,RV8*
X167561568Y-81259282D02*
X167311568Y-80902139D01*
X167132997Y-81259282D02*
X167132997Y-80509282D01*
X167418711Y-80509282D01*
X167490139Y-80544997D01*
X167525854Y-80580711D01*
X167561568Y-80652139D01*
X167561568Y-80759282D01*
X167525854Y-80830711D01*
X167490139Y-80866425D01*
X167418711Y-80902139D01*
X167132997Y-80902139D01*
X167775854Y-80509282D02*
X168025854Y-81259282D01*
X168275854Y-80509282D01*
X168632997Y-80830711D02*
X168561568Y-80794997D01*
X168525854Y-80759282D01*
X168490139Y-80687854D01*
X168490139Y-80652139D01*
X168525854Y-80580711D01*
X168561568Y-80544997D01*
X168632997Y-80509282D01*
X168775854Y-80509282D01*
X168847282Y-80544997D01*
X168882997Y-80580711D01*
X168918711Y-80652139D01*
X168918711Y-80687854D01*
X168882997Y-80759282D01*
X168847282Y-80794997D01*
X168775854Y-80830711D01*
X168632997Y-80830711D01*
X168561568Y-80866425D01*
X168525854Y-80902139D01*
X168490139Y-80973568D01*
X168490139Y-81116425D01*
X168525854Y-81187854D01*
X168561568Y-81223568D01*
X168632997Y-81259282D01*
X168775854Y-81259282D01*
X168847282Y-81223568D01*
X168882997Y-81187854D01*
X168918711Y-81116425D01*
X168918711Y-80973568D01*
X168882997Y-80902139D01*
X168847282Y-80866425D01*
X168775854Y-80830711D01*
X178380425Y-81259282D02*
X177951854Y-81259282D01*
X178166139Y-81259282D02*
X178166139Y-80509282D01*
X178094711Y-80616425D01*
X178023282Y-80687854D01*
X177951854Y-80723568D01*
X178844711Y-80509282D02*
X178916139Y-80509282D01*
X178987568Y-80544997D01*
X179023282Y-80580711D01*
X179058997Y-80652139D01*
X179094711Y-80794997D01*
X179094711Y-80973568D01*
X179058997Y-81116425D01*
X179023282Y-81187854D01*
X178987568Y-81223568D01*
X178916139Y-81259282D01*
X178844711Y-81259282D01*
X178773282Y-81223568D01*
X178737568Y-81187854D01*
X178701854Y-81116425D01*
X178666139Y-80973568D01*
X178666139Y-80794997D01*
X178701854Y-80652139D01*
X178737568Y-80580711D01*
X178773282Y-80544997D01*
X178844711Y-80509282D01*
X179558997Y-80509282D02*
X179630425Y-80509282D01*
X179701854Y-80544997D01*
X179737568Y-80580711D01*
X179773282Y-80652139D01*
X179808997Y-80794997D01*
X179808997Y-80973568D01*
X179773282Y-81116425D01*
X179737568Y-81187854D01*
X179701854Y-81223568D01*
X179630425Y-81259282D01*
X179558997Y-81259282D01*
X179487568Y-81223568D01*
X179451854Y-81187854D01*
X179416139Y-81116425D01*
X179380425Y-80973568D01*
X179380425Y-80794997D01*
X179416139Y-80652139D01*
X179451854Y-80580711D01*
X179487568Y-80544997D01*
X179558997Y-80509282D01*
X180130425Y-81259282D02*
X180130425Y-80509282D01*
X180201854Y-80973568D02*
X180416139Y-81259282D01*
X180416139Y-80759282D02*
X180130425Y-81044997D01*
G04 #@! TO.C,RV5*
X186553568Y-89029282D02*
X186303568Y-88672139D01*
X186124997Y-89029282D02*
X186124997Y-88279282D01*
X186410711Y-88279282D01*
X186482139Y-88314997D01*
X186517854Y-88350711D01*
X186553568Y-88422139D01*
X186553568Y-88529282D01*
X186517854Y-88600711D01*
X186482139Y-88636425D01*
X186410711Y-88672139D01*
X186124997Y-88672139D01*
X186767854Y-88279282D02*
X187017854Y-89029282D01*
X187267854Y-88279282D01*
X187874997Y-88279282D02*
X187517854Y-88279282D01*
X187482139Y-88636425D01*
X187517854Y-88600711D01*
X187589282Y-88564997D01*
X187767854Y-88564997D01*
X187839282Y-88600711D01*
X187874997Y-88636425D01*
X187910711Y-88707854D01*
X187910711Y-88886425D01*
X187874997Y-88957854D01*
X187839282Y-88993568D01*
X187767854Y-89029282D01*
X187589282Y-89029282D01*
X187517854Y-88993568D01*
X187482139Y-88957854D01*
X193124997Y-88160711D02*
X193160711Y-88124997D01*
X193232139Y-88089282D01*
X193410711Y-88089282D01*
X193482139Y-88124997D01*
X193517854Y-88160711D01*
X193553568Y-88232139D01*
X193553568Y-88303568D01*
X193517854Y-88410711D01*
X193089282Y-88839282D01*
X193553568Y-88839282D01*
X194017854Y-88089282D02*
X194089282Y-88089282D01*
X194160711Y-88124997D01*
X194196425Y-88160711D01*
X194232139Y-88232139D01*
X194267854Y-88374997D01*
X194267854Y-88553568D01*
X194232139Y-88696425D01*
X194196425Y-88767854D01*
X194160711Y-88803568D01*
X194089282Y-88839282D01*
X194017854Y-88839282D01*
X193946425Y-88803568D01*
X193910711Y-88767854D01*
X193874997Y-88696425D01*
X193839282Y-88553568D01*
X193839282Y-88374997D01*
X193874997Y-88232139D01*
X193910711Y-88160711D01*
X193946425Y-88124997D01*
X194017854Y-88089282D01*
X194589282Y-88839282D02*
X194589282Y-88089282D01*
X194660711Y-88553568D02*
X194874997Y-88839282D01*
X194874997Y-88339282D02*
X194589282Y-88624997D01*
G04 #@! TO.C,TP4*
X153123568Y-41617282D02*
X153552139Y-41617282D01*
X153337854Y-42367282D02*
X153337854Y-41617282D01*
X153802139Y-42367282D02*
X153802139Y-41617282D01*
X154087854Y-41617282D01*
X154159282Y-41652997D01*
X154194997Y-41688711D01*
X154230711Y-41760139D01*
X154230711Y-41867282D01*
X154194997Y-41938711D01*
X154159282Y-41974425D01*
X154087854Y-42010139D01*
X153802139Y-42010139D01*
X154873568Y-41867282D02*
X154873568Y-42367282D01*
X154694997Y-41581568D02*
X154516425Y-42117282D01*
X154980711Y-42117282D01*
X152069997Y-41065568D02*
X152641425Y-41065568D01*
X153355711Y-40601282D02*
X152998568Y-40601282D01*
X152962854Y-40958425D01*
X152998568Y-40922711D01*
X153069997Y-40886997D01*
X153248568Y-40886997D01*
X153319997Y-40922711D01*
X153355711Y-40958425D01*
X153391425Y-41029854D01*
X153391425Y-41208425D01*
X153355711Y-41279854D01*
X153319997Y-41315568D01*
X153248568Y-41351282D01*
X153069997Y-41351282D01*
X152998568Y-41315568D01*
X152962854Y-41279854D01*
X153605711Y-40601282D02*
X153855711Y-41351282D01*
X154105711Y-40601282D01*
X154784282Y-41351282D02*
X154534282Y-40994139D01*
X154355711Y-41351282D02*
X154355711Y-40601282D01*
X154641425Y-40601282D01*
X154712854Y-40636997D01*
X154748568Y-40672711D01*
X154784282Y-40744139D01*
X154784282Y-40851282D01*
X154748568Y-40922711D01*
X154712854Y-40958425D01*
X154641425Y-40994139D01*
X154355711Y-40994139D01*
X155105711Y-40958425D02*
X155355711Y-40958425D01*
X155462854Y-41351282D02*
X155105711Y-41351282D01*
X155105711Y-40601282D01*
X155462854Y-40601282D01*
X156034282Y-40958425D02*
X155784282Y-40958425D01*
X155784282Y-41351282D02*
X155784282Y-40601282D01*
X156141425Y-40601282D01*
G04 #@! TO.C,RV4*
X167561568Y-141259282D02*
X167311568Y-140902139D01*
X167132997Y-141259282D02*
X167132997Y-140509282D01*
X167418711Y-140509282D01*
X167490139Y-140544997D01*
X167525854Y-140580711D01*
X167561568Y-140652139D01*
X167561568Y-140759282D01*
X167525854Y-140830711D01*
X167490139Y-140866425D01*
X167418711Y-140902139D01*
X167132997Y-140902139D01*
X167775854Y-140509282D02*
X168025854Y-141259282D01*
X168275854Y-140509282D01*
X168847282Y-140759282D02*
X168847282Y-141259282D01*
X168668711Y-140473568D02*
X168490139Y-141009282D01*
X168954425Y-141009282D01*
X178380425Y-141259282D02*
X177951854Y-141259282D01*
X178166139Y-141259282D02*
X178166139Y-140509282D01*
X178094711Y-140616425D01*
X178023282Y-140687854D01*
X177951854Y-140723568D01*
X178844711Y-140509282D02*
X178916139Y-140509282D01*
X178987568Y-140544997D01*
X179023282Y-140580711D01*
X179058997Y-140652139D01*
X179094711Y-140794997D01*
X179094711Y-140973568D01*
X179058997Y-141116425D01*
X179023282Y-141187854D01*
X178987568Y-141223568D01*
X178916139Y-141259282D01*
X178844711Y-141259282D01*
X178773282Y-141223568D01*
X178737568Y-141187854D01*
X178701854Y-141116425D01*
X178666139Y-140973568D01*
X178666139Y-140794997D01*
X178701854Y-140652139D01*
X178737568Y-140580711D01*
X178773282Y-140544997D01*
X178844711Y-140509282D01*
X179558997Y-140509282D02*
X179630425Y-140509282D01*
X179701854Y-140544997D01*
X179737568Y-140580711D01*
X179773282Y-140652139D01*
X179808997Y-140794997D01*
X179808997Y-140973568D01*
X179773282Y-141116425D01*
X179737568Y-141187854D01*
X179701854Y-141223568D01*
X179630425Y-141259282D01*
X179558997Y-141259282D01*
X179487568Y-141223568D01*
X179451854Y-141187854D01*
X179416139Y-141116425D01*
X179380425Y-140973568D01*
X179380425Y-140794997D01*
X179416139Y-140652139D01*
X179451854Y-140580711D01*
X179487568Y-140544997D01*
X179558997Y-140509282D01*
X180130425Y-141259282D02*
X180130425Y-140509282D01*
X180201854Y-140973568D02*
X180416139Y-141259282D01*
X180416139Y-140759282D02*
X180130425Y-141044997D01*
D10*
G04 #@! TO.C,TP3*
X195739997Y-150739997D02*
G75*
G03*
X195739997Y-150739997I-950000J0D01*
G01*
G04 #@! TO.C,RV2*
X185614997Y-69819997D02*
X185614997Y-74889997D01*
X195384997Y-69819997D02*
X195384997Y-74889997D01*
X185614997Y-74889997D02*
X195384997Y-74889997D01*
X185614997Y-69819997D02*
X195384997Y-69819997D01*
D12*
X193999997Y-74584497D02*
X193999997Y-72415497D01*
X192911290Y-73328496D02*
G75*
G03*
X193999997Y-72404497I1080403J-169603D01*
G01*
D10*
G04 #@! TO.C,TP5*
X195739997Y-144629997D02*
G75*
G03*
X195739997Y-144629997I-950000J0D01*
G01*
G04 #@! TO.C,RV3*
X168379997Y-120159997D02*
X168379997Y-119329997D01*
X176909997Y-123369997D02*
X179969997Y-123369997D01*
X168379997Y-114809997D02*
X168379997Y-113629997D01*
X168379997Y-113619997D02*
X173099997Y-113619997D01*
X168379997Y-123369997D02*
X168379997Y-121879997D01*
X179969997Y-123369997D02*
X179969997Y-113629997D01*
X176909997Y-113629997D02*
X179969997Y-113629997D01*
X168379997Y-123369997D02*
X173099997Y-123369997D01*
X168379997Y-117709997D02*
X168379997Y-117179997D01*
G04 #@! TO.C,TP6*
X174069997Y-38979997D02*
G75*
G03*
X174069997Y-38979997I-950000J0D01*
G01*
G04 #@! TO.C,TP1*
X195739997Y-138039997D02*
G75*
G03*
X195739997Y-138039997I-950000J0D01*
G01*
G04 #@! TO.C,RV7*
X168379997Y-53619997D02*
X173099997Y-53619997D01*
X176909997Y-53629997D02*
X179969997Y-53629997D01*
X168379997Y-63369997D02*
X173099997Y-63369997D01*
X176909997Y-63369997D02*
X179969997Y-63369997D01*
X168379997Y-54809997D02*
X168379997Y-53629997D01*
X168379997Y-63369997D02*
X168379997Y-61879997D01*
X168379997Y-57709997D02*
X168379997Y-57179997D01*
X179969997Y-63369997D02*
X179969997Y-53629997D01*
X168379997Y-60159997D02*
X168379997Y-59329997D01*
G04 #@! TO.C,RV1*
X129969997Y-103369997D02*
X129969997Y-93629997D01*
X118379997Y-97709997D02*
X118379997Y-97179997D01*
X118379997Y-93619997D02*
X123099997Y-93619997D01*
X126909997Y-93629997D02*
X129969997Y-93629997D01*
X118379997Y-103369997D02*
X123099997Y-103369997D01*
X126909997Y-103369997D02*
X129969997Y-103369997D01*
X118379997Y-94809997D02*
X118379997Y-93629997D01*
X118379997Y-100159997D02*
X118379997Y-99329997D01*
X118379997Y-103369997D02*
X118379997Y-101879997D01*
G04 #@! TO.C,TP2*
X161369997Y-38979997D02*
G75*
G03*
X161369997Y-38979997I-950000J0D01*
G01*
G04 #@! TO.C,RV9*
X185614997Y-79819997D02*
X185614997Y-84889997D01*
D12*
X193999997Y-84584497D02*
X193999997Y-82415497D01*
D10*
X195384997Y-79819997D02*
X195384997Y-84889997D01*
X185614997Y-79819997D02*
X195384997Y-79819997D01*
X185614997Y-84889997D02*
X195384997Y-84889997D01*
D12*
X192911290Y-83328496D02*
G75*
G03*
X193999997Y-82404497I1080403J-169603D01*
G01*
D10*
G04 #@! TO.C,RV6*
X195384997Y-59819997D02*
X195384997Y-64889997D01*
X185614997Y-59819997D02*
X185614997Y-64889997D01*
X185614997Y-64889997D02*
X195384997Y-64889997D01*
X185614997Y-59819997D02*
X195384997Y-59819997D01*
D12*
X193999997Y-64584497D02*
X193999997Y-62415497D01*
X192911290Y-63328496D02*
G75*
G03*
X193999997Y-62404497I1080403J-169603D01*
G01*
D10*
G04 #@! TO.C,RV8*
X176909997Y-83629997D02*
X179969997Y-83629997D01*
X176909997Y-93369997D02*
X179969997Y-93369997D01*
X179969997Y-93369997D02*
X179969997Y-83629997D01*
X168379997Y-83619997D02*
X173099997Y-83619997D01*
X168379997Y-93369997D02*
X168379997Y-91879997D01*
X168379997Y-84809997D02*
X168379997Y-83629997D01*
X168379997Y-90159997D02*
X168379997Y-89329997D01*
X168379997Y-93369997D02*
X173099997Y-93369997D01*
X168379997Y-87709997D02*
X168379997Y-87179997D01*
G04 #@! TO.C,RV5*
X185614997Y-94889997D02*
X195384997Y-94889997D01*
D12*
X193999997Y-94584497D02*
X193999997Y-92415497D01*
D10*
X195384997Y-89819997D02*
X195384997Y-94889997D01*
X185614997Y-89819997D02*
X195384997Y-89819997D01*
X185614997Y-89819997D02*
X185614997Y-94889997D01*
D12*
X192911290Y-93328496D02*
G75*
G03*
X193999997Y-92404497I1080403J-169603D01*
G01*
D10*
G04 #@! TO.C,TP4*
X155019997Y-38979997D02*
G75*
G03*
X155019997Y-38979997I-950000J0D01*
G01*
G04 #@! TO.C,RV4*
X168379997Y-144809997D02*
X168379997Y-143629997D01*
X168379997Y-153369997D02*
X173099997Y-153369997D01*
X168379997Y-143619997D02*
X173099997Y-143619997D01*
X168379997Y-150159997D02*
X168379997Y-149329997D01*
X179969997Y-153369997D02*
X179969997Y-143629997D01*
X176909997Y-153369997D02*
X179969997Y-153369997D01*
X168379997Y-153369997D02*
X168379997Y-151879997D01*
X176909997Y-143629997D02*
X179969997Y-143629997D01*
X168379997Y-147709997D02*
X168379997Y-147179997D01*
G04 #@! TD*
M02*
