M48
; DRILL file {KiCad 6.0.5-a6ca702e91~116~ubuntu20.04.1} date Sun Jun 19 13:49:35 2022
; FORMAT={-:-/ absolute / metric / decimal}
; #@! TF.CreationDate,2022-06-19T13:49:35-04:00
; #@! TF.GenerationSoftware,Kicad,Pcbnew,6.0.5-a6ca702e91~116~ubuntu20.04.1
; #@! TF.FileFunction,MixedPlating,1,2
FMAT,2
METRIC
; #@! TA.AperFunction,Plated,PTH,ViaDrill
T1C0.400
; #@! TA.AperFunction,Plated,PTH,ComponentDrill
T2C0.700
; #@! TA.AperFunction,Plated,PTH,ComponentDrill
T3C0.800
; #@! TA.AperFunction,Plated,PTH,ComponentDrill
T4C1.000
; #@! TA.AperFunction,Plated,PTH,ComponentDrill
T5C1.100
; #@! TA.AperFunction,Plated,PTH,ComponentDrill
T6C1.200
; #@! TA.AperFunction,NonPlated,NPTH,ComponentDrill
T7C3.200
%
G90
G05
T1
X114.85Y-114.307
X153.204Y-105.544
X189.272Y-75.445
T2
X152.87Y-37.98
X159.22Y-37.98
X171.92Y-37.98
X193.59Y-137.04
X193.59Y-143.63
X193.59Y-149.74
T3
X105.96Y-106.56
X107.23Y-76.08
X107.23Y-83.7
X108.58Y-87.51
X109.77Y-79.89
X113.58Y-87.51
X116.12Y-106.56
X117.39Y-76.08
X117.39Y-79.89
X117.39Y-83.7
X117.47Y-87.51
X119.93Y-106.56
X119.93Y-110.37
X119.93Y-114.18
X121.2Y-76.08
X121.2Y-79.89
X121.2Y-83.7
X122.47Y-87.51
X125.01Y-117.99
X126.32Y-87.51
X130.01Y-117.99
X130.09Y-106.56
X130.09Y-110.37
X130.09Y-114.18
X131.32Y-87.51
X131.36Y-76.08
X131.36Y-79.89
X131.36Y-83.7
X135.17Y-69.73
X135.17Y-73.54
X135.17Y-83.7
X135.17Y-107.83
X135.17Y-111.64
X140.29Y-64.65
X140.33Y-78.62
X142.71Y-41.79
X142.71Y-49.41
X142.83Y-60.84
X142.83Y-90.05
X142.83Y-115.45
X145.25Y-41.79
X145.25Y-49.41
X145.29Y-64.65
X145.33Y-60.84
X145.33Y-69.73
X145.33Y-73.54
X145.33Y-78.62
X145.33Y-83.7
X145.33Y-90.05
X145.33Y-107.83
X145.33Y-111.64
X145.33Y-115.45
X147.79Y-41.79
X147.79Y-49.41
X150.4Y-60.83
X150.4Y-63.37
X150.4Y-65.91
X150.4Y-68.45
X150.4Y-70.99
X150.4Y-73.53
X150.4Y-76.07
X150.4Y-78.61
X150.4Y-90.05
X150.4Y-92.59
X150.4Y-95.13
X150.4Y-97.67
X150.42Y-107.83
X150.42Y-110.37
X150.42Y-112.91
X150.42Y-115.45
X150.42Y-117.99
X150.42Y-120.53
X150.42Y-123.07
X152.87Y-44.33
X152.95Y-53.22
X152.95Y-57.03
X155.49Y-49.41
X158.02Y-60.83
X158.02Y-63.37
X158.02Y-65.91
X158.02Y-68.45
X158.02Y-70.99
X158.02Y-73.53
X158.02Y-76.07
X158.02Y-78.61
X158.02Y-90.05
X158.02Y-92.59
X158.02Y-95.13
X158.02Y-97.67
X158.04Y-107.83
X158.04Y-110.37
X158.04Y-112.91
X158.04Y-115.45
X158.04Y-117.99
X158.04Y-120.53
X158.04Y-123.07
X163.03Y-44.33
X163.11Y-49.41
X163.11Y-53.22
X163.11Y-57.03
X163.11Y-65.92
X163.11Y-68.42
X163.11Y-83.7
X163.11Y-93.86
X163.11Y-97.71
X163.11Y-100.21
X163.11Y-115.49
X163.11Y-117.99
X166.88Y-44.33
X166.92Y-65.92
X166.92Y-69.73
X166.92Y-74.81
X166.92Y-78.62
X166.92Y-97.67
X166.92Y-101.48
X166.92Y-105.29
X166.92Y-109.1
X166.92Y-126.88
X171.88Y-44.33
X175.77Y-44.33
X177.08Y-65.92
X177.08Y-69.73
X177.08Y-74.81
X177.08Y-78.62
X177.08Y-97.67
X177.08Y-101.48
X177.08Y-105.29
X177.08Y-109.1
X177.08Y-126.88
X178.31Y-44.33
X180.85Y-44.33
X183.43Y-55.76
X183.43Y-65.92
X183.43Y-76.08
X183.43Y-86.24
X186.76Y-61.35
X186.76Y-71.35
X186.76Y-81.35
X186.76Y-91.35
X189.3Y-61.35
X189.3Y-71.35
X189.3Y-81.35
X189.3Y-91.35
X191.84Y-61.35
X191.84Y-71.35
X191.84Y-81.35
X191.84Y-91.35
X193.59Y-55.76
X193.59Y-65.92
X193.59Y-76.08
X193.59Y-86.24
T4
X116.3Y-95.0
X116.3Y-97.5
X116.3Y-100.0
X135.185Y-102.75
X137.725Y-102.75
X140.265Y-102.75
X163.11Y-74.81
X163.11Y-77.35
X163.11Y-79.89
X163.11Y-135.77
X163.11Y-138.31
X163.11Y-140.85
X163.11Y-143.39
X163.11Y-145.93
X163.11Y-148.47
X163.11Y-151.01
X163.11Y-153.55
X163.11Y-156.09
X166.3Y-55.0
X166.3Y-57.5
X166.3Y-60.0
X166.3Y-85.0
X166.3Y-87.5
X166.3Y-90.0
X166.3Y-115.0
X166.3Y-117.5
X166.3Y-120.0
X166.3Y-145.0
X166.3Y-147.5
X166.3Y-150.0
T5
X106.3Y-121.5
X106.3Y-133.5
X116.3Y-121.5
X116.3Y-133.5
T6
X105.96Y-96.4
X105.96Y-98.94
X105.96Y-101.48
T7
X123.3Y-133.5
X141.8Y-55.5
X192.8Y-158.5
T5
X123.45Y-92.7G85X124.15Y-92.7
G05
X123.45Y-102.3G85X124.15Y-102.3
G05
X173.45Y-52.7G85X174.15Y-52.7
G05
X173.45Y-62.3G85X174.15Y-62.3
G05
X173.45Y-82.7G85X174.15Y-82.7
G05
X173.45Y-92.3G85X174.15Y-92.3
G05
X173.45Y-112.7G85X174.15Y-112.7
G05
X173.45Y-122.3G85X174.15Y-122.3
G05
X173.45Y-142.7G85X174.15Y-142.7
G05
X173.45Y-152.3G85X174.15Y-152.3
G05
T0
M30
