G04 #@! TF.GenerationSoftware,KiCad,Pcbnew,6.0.1-79c1e3a40b~116~ubuntu20.04.1*
G04 #@! TF.CreationDate,2022-01-30T07:26:04-05:00*
G04 #@! TF.ProjectId,herovco_front,6865726f-7663-46f5-9f66-726f6e742e6b,rev?*
G04 #@! TF.SameCoordinates,Original*
G04 #@! TF.FileFunction,Soldermask,Top*
G04 #@! TF.FilePolarity,Negative*
%FSLAX46Y46*%
G04 Gerber Fmt 4.6, Leading zero omitted, Abs format (unit mm)*
G04 Created by KiCad (PCBNEW 6.0.1-79c1e3a40b~116~ubuntu20.04.1) date 2022-01-30 07:26:04*
%MOMM*%
%LPD*%
G01*
G04 APERTURE LIST*
G04 Aperture macros list*
%AMRoundRect*
0 Rectangle with rounded corners*
0 $1 Rounding radius*
0 $2 $3 $4 $5 $6 $7 $8 $9 X,Y pos of 4 corners*
0 Add a 4 corners polygon primitive as box body*
4,1,4,$2,$3,$4,$5,$6,$7,$8,$9,$2,$3,0*
0 Add four circle primitives for the rounded corners*
1,1,$1+$1,$2,$3*
1,1,$1+$1,$4,$5*
1,1,$1+$1,$6,$7*
1,1,$1+$1,$8,$9*
0 Add four rect primitives between the rounded corners*
20,1,$1+$1,$2,$3,$4,$5,0*
20,1,$1+$1,$4,$5,$6,$7,0*
20,1,$1+$1,$6,$7,$8,$9,0*
20,1,$1+$1,$8,$9,$2,$3,0*%
G04 Aperture macros list end*
%ADD10C,1.600000*%
%ADD11C,1.540000*%
%ADD12O,3.340000X2.820000*%
%ADD13RoundRect,0.050000X0.900000X-0.900000X0.900000X0.900000X-0.900000X0.900000X-0.900000X-0.900000X0*%
%ADD14C,1.900000*%
%ADD15C,2.200000*%
%ADD16RoundRect,0.300001X-0.799999X-0.799999X0.799999X-0.799999X0.799999X0.799999X-0.799999X0.799999X0*%
%ADD17C,3.300000*%
%ADD18C,1.700000*%
%ADD19O,1.700000X1.700000*%
%ADD20RoundRect,0.050000X1.200000X0.800000X-1.200000X0.800000X-1.200000X-0.800000X1.200000X-0.800000X0*%
%ADD21O,2.500000X1.700000*%
%ADD22RoundRect,0.050000X0.525000X0.750000X-0.525000X0.750000X-0.525000X-0.750000X0.525000X-0.750000X0*%
%ADD23O,1.150000X1.600000*%
%ADD24RoundRect,0.050000X-0.800000X-0.800000X0.800000X-0.800000X0.800000X0.800000X-0.800000X0.800000X0*%
%ADD25RoundRect,0.050000X0.850000X0.850000X-0.850000X0.850000X-0.850000X-0.850000X0.850000X-0.850000X0*%
%ADD26O,1.800000X1.800000*%
%ADD27RoundRect,0.050000X-1.200000X-0.800000X1.200000X-0.800000X1.200000X0.800000X-1.200000X0.800000X0*%
%ADD28RoundRect,0.300000X0.850000X-0.620000X0.850000X0.620000X-0.850000X0.620000X-0.850000X-0.620000X0*%
%ADD29O,2.300000X1.840000*%
%ADD30RoundRect,0.050000X0.750000X-0.750000X0.750000X0.750000X-0.750000X0.750000X-0.750000X-0.750000X0*%
%ADD31RoundRect,0.050000X-0.850000X0.850000X-0.850000X-0.850000X0.850000X-0.850000X0.850000X0.850000X0*%
G04 APERTURE END LIST*
D10*
G04 #@! TO.C,TP3*
X194789997Y-150739997D03*
G04 #@! TD*
D11*
G04 #@! TO.C,RV2*
X193039997Y-72349997D03*
X190499997Y-72349997D03*
X187959997Y-72349997D03*
G04 #@! TD*
D10*
G04 #@! TO.C,TP5*
X194789997Y-144629997D03*
G04 #@! TD*
D12*
G04 #@! TO.C,RV3*
X174999997Y-113699997D03*
X174999997Y-123299997D03*
D13*
X167499997Y-115999997D03*
D14*
X167499997Y-118499997D03*
X167499997Y-120999997D03*
G04 #@! TD*
D15*
G04 #@! TO.C,J8*
X107499997Y-122499997D03*
G04 #@! TD*
G04 #@! TO.C,J6*
X117499997Y-134499997D03*
G04 #@! TD*
D10*
G04 #@! TO.C,TP6*
X173119997Y-38979997D03*
G04 #@! TD*
D16*
G04 #@! TO.C,J5*
X117499997Y-122499997D03*
G04 #@! TD*
D15*
G04 #@! TO.C,J7*
X107499997Y-134499997D03*
G04 #@! TD*
D10*
G04 #@! TO.C,TP1*
X194789997Y-138039997D03*
G04 #@! TD*
D12*
G04 #@! TO.C,RV7*
X174999997Y-63299997D03*
X174999997Y-53699997D03*
D13*
X167499997Y-55999997D03*
D14*
X167499997Y-58499997D03*
X167499997Y-60999997D03*
G04 #@! TD*
D12*
G04 #@! TO.C,RV1*
X124999997Y-103299997D03*
X124999997Y-93699997D03*
D13*
X117499997Y-95999997D03*
D14*
X117499997Y-98499997D03*
X117499997Y-100999997D03*
G04 #@! TD*
D10*
G04 #@! TO.C,TP2*
X160419997Y-38979997D03*
G04 #@! TD*
D11*
G04 #@! TO.C,RV9*
X193039997Y-82349997D03*
X190499997Y-82349997D03*
X187959997Y-82349997D03*
G04 #@! TD*
G04 #@! TO.C,RV6*
X193039997Y-62349997D03*
X190499997Y-62349997D03*
X187959997Y-62349997D03*
G04 #@! TD*
D17*
G04 #@! TO.C,H1*
X124499997Y-134499997D03*
G04 #@! TD*
G04 #@! TO.C,H3*
X193999997Y-159499997D03*
G04 #@! TD*
D12*
G04 #@! TO.C,RV8*
X174999997Y-83699997D03*
X174999997Y-93299997D03*
D13*
X167499997Y-85999997D03*
D14*
X167499997Y-88499997D03*
X167499997Y-90999997D03*
G04 #@! TD*
D11*
G04 #@! TO.C,RV5*
X193039997Y-92349997D03*
X190499997Y-92349997D03*
X187959997Y-92349997D03*
G04 #@! TD*
D10*
G04 #@! TO.C,TP4*
X154069997Y-38979997D03*
G04 #@! TD*
D12*
G04 #@! TO.C,RV4*
X174999997Y-153299997D03*
X174999997Y-143699997D03*
D13*
X167499997Y-145999997D03*
D14*
X167499997Y-148499997D03*
X167499997Y-150999997D03*
G04 #@! TD*
D17*
G04 #@! TO.C,H2*
X142999997Y-56499997D03*
G04 #@! TD*
D18*
G04 #@! TO.C,R25*
X168119997Y-66919997D03*
D19*
X178279997Y-66919997D03*
G04 #@! TD*
D18*
G04 #@! TO.C,C7*
X126209997Y-118989997D03*
X131209997Y-118989997D03*
G04 #@! TD*
G04 #@! TO.C,C8*
X141489997Y-65649997D03*
X146489997Y-65649997D03*
G04 #@! TD*
G04 #@! TO.C,R14*
X122399997Y-77079997D03*
D19*
X132559997Y-77079997D03*
G04 #@! TD*
D18*
G04 #@! TO.C,C5*
X164309997Y-118989997D03*
X164309997Y-116489997D03*
G04 #@! TD*
G04 #@! TO.C,R1*
X168119997Y-70729997D03*
D19*
X178279997Y-70729997D03*
G04 #@! TD*
D18*
G04 #@! TO.C,C9*
X141529997Y-79619997D03*
X146529997Y-79619997D03*
G04 #@! TD*
G04 #@! TO.C,R28*
X164309997Y-84699997D03*
D19*
X164309997Y-94859997D03*
G04 #@! TD*
D18*
G04 #@! TO.C,R2*
X184629997Y-66919997D03*
D19*
X194789997Y-66919997D03*
G04 #@! TD*
D20*
G04 #@! TO.C,U2*
X159219997Y-91049997D03*
D21*
X159219997Y-93589997D03*
X159219997Y-96129997D03*
X159219997Y-98669997D03*
X151599997Y-98669997D03*
X151599997Y-96129997D03*
X151599997Y-93589997D03*
X151599997Y-91049997D03*
G04 #@! TD*
D18*
G04 #@! TO.C,R4*
X131289997Y-107559997D03*
D19*
X121129997Y-107559997D03*
G04 #@! TD*
D18*
G04 #@! TO.C,R15*
X132559997Y-80889997D03*
D19*
X122399997Y-80889997D03*
G04 #@! TD*
D18*
G04 #@! TO.C,R3*
X164309997Y-58029997D03*
D19*
X154149997Y-58029997D03*
G04 #@! TD*
D18*
G04 #@! TO.C,C11*
X123669997Y-88509997D03*
X118669997Y-88509997D03*
G04 #@! TD*
G04 #@! TO.C,C12*
X114779997Y-88509997D03*
X109779997Y-88509997D03*
G04 #@! TD*
D22*
G04 #@! TO.C,U6*
X179469997Y-45329997D03*
D23*
X178199997Y-45329997D03*
X176929997Y-45329997D03*
G04 #@! TD*
D18*
G04 #@! TO.C,C4*
X146529997Y-116449997D03*
X144029997Y-116449997D03*
G04 #@! TD*
G04 #@! TO.C,R13*
X146529997Y-74539997D03*
D19*
X136369997Y-74539997D03*
G04 #@! TD*
D24*
G04 #@! TO.C,D2*
X156689997Y-50409997D03*
D19*
X164309997Y-50409997D03*
G04 #@! TD*
D18*
G04 #@! TO.C,R19*
X184629997Y-87239997D03*
D19*
X194789997Y-87239997D03*
G04 #@! TD*
D25*
G04 #@! TO.C,J2*
X164309997Y-75809997D03*
D26*
X164309997Y-78349997D03*
X164309997Y-80889997D03*
G04 #@! TD*
D20*
G04 #@! TO.C,U3*
X159219997Y-61829997D03*
D21*
X159219997Y-64369997D03*
X159219997Y-66909997D03*
X159219997Y-69449997D03*
X159219997Y-71989997D03*
X159219997Y-74529997D03*
X159219997Y-77069997D03*
X159219997Y-79609997D03*
X151599997Y-79609997D03*
X151599997Y-77069997D03*
X151599997Y-74529997D03*
X151599997Y-71989997D03*
X151599997Y-69449997D03*
X151599997Y-66909997D03*
X151599997Y-64369997D03*
X151599997Y-61829997D03*
G04 #@! TD*
D18*
G04 #@! TO.C,R22*
X108429997Y-84699997D03*
D19*
X118589997Y-84699997D03*
G04 #@! TD*
D18*
G04 #@! TO.C,R30*
X194789997Y-77079997D03*
D19*
X184629997Y-77079997D03*
G04 #@! TD*
D18*
G04 #@! TO.C,C1*
X164309997Y-66919997D03*
X164309997Y-69419997D03*
G04 #@! TD*
G04 #@! TO.C,R5*
X131289997Y-115179997D03*
D19*
X121129997Y-115179997D03*
G04 #@! TD*
D18*
G04 #@! TO.C,R6*
X131289997Y-111369997D03*
D19*
X121129997Y-111369997D03*
G04 #@! TD*
D18*
G04 #@! TO.C,R9*
X178279997Y-110099997D03*
D19*
X168119997Y-110099997D03*
G04 #@! TD*
D18*
G04 #@! TO.C,R20*
X184629997Y-56759997D03*
D19*
X194789997Y-56759997D03*
G04 #@! TD*
D25*
G04 #@! TO.C,J1*
X164309997Y-136769997D03*
D26*
X164309997Y-139309997D03*
X164309997Y-141849997D03*
X164309997Y-144389997D03*
X164309997Y-146929997D03*
X164309997Y-149469997D03*
X164309997Y-152009997D03*
X164309997Y-154549997D03*
X164309997Y-157089997D03*
G04 #@! TD*
D18*
G04 #@! TO.C,R24*
X154069997Y-45329997D03*
D19*
X164229997Y-45329997D03*
G04 #@! TD*
D18*
G04 #@! TO.C,R31*
X168119997Y-102479997D03*
D19*
X178279997Y-102479997D03*
G04 #@! TD*
D18*
G04 #@! TO.C,R26*
X168119997Y-79619997D03*
D19*
X178279997Y-79619997D03*
G04 #@! TD*
D24*
G04 #@! TO.C,D1*
X110969997Y-80889997D03*
D19*
X118589997Y-80889997D03*
G04 #@! TD*
D18*
G04 #@! TO.C,R11*
X146529997Y-70729997D03*
D19*
X136369997Y-70729997D03*
G04 #@! TD*
D27*
G04 #@! TO.C,U1*
X151619997Y-124069997D03*
D21*
X151619997Y-121529997D03*
X151619997Y-118989997D03*
X151619997Y-116449997D03*
X151619997Y-113909997D03*
X151619997Y-111369997D03*
X151619997Y-108829997D03*
X159239997Y-108829997D03*
X159239997Y-111369997D03*
X159239997Y-113909997D03*
X159239997Y-116449997D03*
X159239997Y-118989997D03*
X159239997Y-121529997D03*
X159239997Y-124069997D03*
G04 #@! TD*
D28*
G04 #@! TO.C,J4*
X107159997Y-102479997D03*
D29*
X107159997Y-99939997D03*
X107159997Y-97399997D03*
G04 #@! TD*
D18*
G04 #@! TO.C,R27*
X178279997Y-98669997D03*
D19*
X168119997Y-98669997D03*
G04 #@! TD*
D18*
G04 #@! TO.C,C13*
X168079997Y-45329997D03*
X173079997Y-45329997D03*
G04 #@! TD*
G04 #@! TO.C,C6*
X146529997Y-61839997D03*
X144029997Y-61839997D03*
G04 #@! TD*
G04 #@! TO.C,R10*
X146529997Y-112639997D03*
D19*
X136369997Y-112639997D03*
G04 #@! TD*
D18*
G04 #@! TO.C,R23*
X154149997Y-54219997D03*
D19*
X164309997Y-54219997D03*
G04 #@! TD*
D18*
G04 #@! TO.C,R18*
X132559997Y-84699997D03*
D19*
X122399997Y-84699997D03*
G04 #@! TD*
D30*
G04 #@! TO.C,U4*
X148989997Y-50409997D03*
D10*
X146449997Y-50409997D03*
X143909997Y-50409997D03*
G04 #@! TD*
D31*
G04 #@! TO.C,J3*
X136384997Y-103749997D03*
D26*
X138924997Y-103749997D03*
X141464997Y-103749997D03*
G04 #@! TD*
D18*
G04 #@! TO.C,C10*
X127519997Y-88509997D03*
X132519997Y-88509997D03*
G04 #@! TD*
G04 #@! TO.C,C3*
X164309997Y-101209997D03*
X164309997Y-98709997D03*
G04 #@! TD*
G04 #@! TO.C,R16*
X118589997Y-77079997D03*
D19*
X108429997Y-77079997D03*
G04 #@! TD*
D18*
G04 #@! TO.C,R8*
X168119997Y-127879997D03*
D19*
X178279997Y-127879997D03*
G04 #@! TD*
D18*
G04 #@! TO.C,R21*
X146529997Y-108829997D03*
D19*
X136369997Y-108829997D03*
G04 #@! TD*
D30*
G04 #@! TO.C,U5*
X148989997Y-42789997D03*
D10*
X146449997Y-42789997D03*
X143909997Y-42789997D03*
G04 #@! TD*
D18*
G04 #@! TO.C,R12*
X168119997Y-106289997D03*
D19*
X178279997Y-106289997D03*
G04 #@! TD*
D18*
G04 #@! TO.C,R7*
X117319997Y-107559997D03*
D19*
X107159997Y-107559997D03*
G04 #@! TD*
D18*
G04 #@! TO.C,R29*
X178279997Y-75809997D03*
D19*
X168119997Y-75809997D03*
G04 #@! TD*
D18*
G04 #@! TO.C,R17*
X146529997Y-84699997D03*
D19*
X136369997Y-84699997D03*
G04 #@! TD*
D18*
G04 #@! TO.C,C2*
X146529997Y-91049997D03*
X144029997Y-91049997D03*
G04 #@! TD*
M02*
