G04 #@! TF.GenerationSoftware,KiCad,Pcbnew,6.0.1-79c1e3a40b~116~ubuntu20.04.1*
G04 #@! TF.CreationDate,2022-01-30T07:26:04-05:00*
G04 #@! TF.ProjectId,herovco_front,6865726f-7663-46f5-9f66-726f6e742e6b,rev?*
G04 #@! TF.SameCoordinates,Original*
G04 #@! TF.FileFunction,Legend,Bot*
G04 #@! TF.FilePolarity,Positive*
%FSLAX46Y46*%
G04 Gerber Fmt 4.6, Leading zero omitted, Abs format (unit mm)*
G04 Created by KiCad (PCBNEW 6.0.1-79c1e3a40b~116~ubuntu20.04.1) date 2022-01-30 07:26:04*
%MOMM*%
%LPD*%
G01*
G04 APERTURE LIST*
%ADD10C,0.150000*%
%ADD11C,0.120000*%
G04 APERTURE END LIST*
D10*
X113174639Y-102533568D02*
X112603211Y-102533568D01*
X112888925Y-102819282D02*
X112888925Y-102247854D01*
X111888925Y-102069282D02*
X112246068Y-102069282D01*
X112281782Y-102426425D01*
X112246068Y-102390711D01*
X112174639Y-102354997D01*
X111996068Y-102354997D01*
X111924639Y-102390711D01*
X111888925Y-102426425D01*
X111853211Y-102497854D01*
X111853211Y-102676425D01*
X111888925Y-102747854D01*
X111924639Y-102783568D01*
X111996068Y-102819282D01*
X112174639Y-102819282D01*
X112246068Y-102783568D01*
X112281782Y-102747854D01*
X111638925Y-102069282D02*
X111388925Y-102819282D01*
X111138925Y-102069282D01*
X109221568Y-93337532D02*
X109078711Y-93337532D01*
X109007282Y-93373247D01*
X108935854Y-93444675D01*
X108900139Y-93587532D01*
X108900139Y-93837532D01*
X108935854Y-93980389D01*
X109007282Y-94051818D01*
X109078711Y-94087532D01*
X109221568Y-94087532D01*
X109292997Y-94051818D01*
X109364425Y-93980389D01*
X109400139Y-93837532D01*
X109400139Y-93587532D01*
X109364425Y-93444675D01*
X109292997Y-93373247D01*
X109221568Y-93337532D01*
X108257282Y-94051818D02*
X108328711Y-94087532D01*
X108471568Y-94087532D01*
X108542997Y-94051818D01*
X108578711Y-94016104D01*
X108614425Y-93944675D01*
X108614425Y-93730389D01*
X108578711Y-93658961D01*
X108542997Y-93623247D01*
X108471568Y-93587532D01*
X108328711Y-93587532D01*
X108257282Y-93623247D01*
X108042997Y-93587532D02*
X107757282Y-93587532D01*
X107935854Y-93337532D02*
X107935854Y-93980389D01*
X107900139Y-94051818D01*
X107828711Y-94087532D01*
X107757282Y-94087532D01*
X107185854Y-94087532D02*
X107185854Y-93694675D01*
X107221568Y-93623247D01*
X107292997Y-93587532D01*
X107435854Y-93587532D01*
X107507282Y-93623247D01*
X107185854Y-94051818D02*
X107257282Y-94087532D01*
X107435854Y-94087532D01*
X107507282Y-94051818D01*
X107542997Y-93980389D01*
X107542997Y-93908961D01*
X107507282Y-93837532D01*
X107435854Y-93801818D01*
X107257282Y-93801818D01*
X107185854Y-93766104D01*
X106900139Y-93587532D02*
X106721568Y-94087532D01*
X106542997Y-93587532D01*
X105971568Y-94051818D02*
X106042997Y-94087532D01*
X106185854Y-94087532D01*
X106257282Y-94051818D01*
X106292997Y-93980389D01*
X106292997Y-93694675D01*
X106257282Y-93623247D01*
X106185854Y-93587532D01*
X106042997Y-93587532D01*
X105971568Y-93623247D01*
X105935854Y-93694675D01*
X105935854Y-93766104D01*
X106292997Y-93837532D01*
X109275139Y-95259318D02*
X109203711Y-95295032D01*
X109060854Y-95295032D01*
X108989425Y-95259318D01*
X108953711Y-95187889D01*
X108953711Y-95152175D01*
X108989425Y-95080747D01*
X109060854Y-95045032D01*
X109167997Y-95045032D01*
X109239425Y-95009318D01*
X109275139Y-94937889D01*
X109275139Y-94902175D01*
X109239425Y-94830747D01*
X109167997Y-94795032D01*
X109060854Y-94795032D01*
X108989425Y-94830747D01*
X108703711Y-94795032D02*
X108560854Y-95295032D01*
X108417997Y-94937889D01*
X108275139Y-95295032D01*
X108132282Y-94795032D01*
X107846568Y-95295032D02*
X107846568Y-94795032D01*
X107846568Y-94545032D02*
X107882282Y-94580747D01*
X107846568Y-94616461D01*
X107810854Y-94580747D01*
X107846568Y-94545032D01*
X107846568Y-94616461D01*
X107596568Y-94795032D02*
X107310854Y-94795032D01*
X107489425Y-94545032D02*
X107489425Y-95187889D01*
X107453711Y-95259318D01*
X107382282Y-95295032D01*
X107310854Y-95295032D01*
X106739425Y-95259318D02*
X106810854Y-95295032D01*
X106953711Y-95295032D01*
X107025139Y-95259318D01*
X107060854Y-95223604D01*
X107096568Y-95152175D01*
X107096568Y-94937889D01*
X107060854Y-94866461D01*
X107025139Y-94830747D01*
X106953711Y-94795032D01*
X106810854Y-94795032D01*
X106739425Y-94830747D01*
X106417997Y-95295032D02*
X106417997Y-94545032D01*
X106096568Y-95295032D02*
X106096568Y-94902175D01*
X106132282Y-94830747D01*
X106203711Y-94795032D01*
X106310854Y-94795032D01*
X106382282Y-94830747D01*
X106417997Y-94866461D01*
X113174639Y-97453568D02*
X112603211Y-97453568D01*
X111888925Y-96989282D02*
X112246068Y-96989282D01*
X112281782Y-97346425D01*
X112246068Y-97310711D01*
X112174639Y-97274997D01*
X111996068Y-97274997D01*
X111924639Y-97310711D01*
X111888925Y-97346425D01*
X111853211Y-97417854D01*
X111853211Y-97596425D01*
X111888925Y-97667854D01*
X111924639Y-97703568D01*
X111996068Y-97739282D01*
X112174639Y-97739282D01*
X112246068Y-97703568D01*
X112281782Y-97667854D01*
X111638925Y-96989282D02*
X111388925Y-97739282D01*
X111138925Y-96989282D01*
X114496068Y-99529282D02*
X114353211Y-99529282D01*
X114281782Y-99564997D01*
X114210354Y-99636425D01*
X114174639Y-99779282D01*
X114174639Y-100029282D01*
X114210354Y-100172139D01*
X114281782Y-100243568D01*
X114353211Y-100279282D01*
X114496068Y-100279282D01*
X114567497Y-100243568D01*
X114638925Y-100172139D01*
X114674639Y-100029282D01*
X114674639Y-99779282D01*
X114638925Y-99636425D01*
X114567497Y-99564997D01*
X114496068Y-99529282D01*
X113531782Y-100243568D02*
X113603211Y-100279282D01*
X113746068Y-100279282D01*
X113817497Y-100243568D01*
X113853211Y-100207854D01*
X113888925Y-100136425D01*
X113888925Y-99922139D01*
X113853211Y-99850711D01*
X113817497Y-99814997D01*
X113746068Y-99779282D01*
X113603211Y-99779282D01*
X113531782Y-99814997D01*
X113317497Y-99779282D02*
X113031782Y-99779282D01*
X113210354Y-99529282D02*
X113210354Y-100172139D01*
X113174639Y-100243568D01*
X113103211Y-100279282D01*
X113031782Y-100279282D01*
X112460354Y-100279282D02*
X112460354Y-99886425D01*
X112496068Y-99814997D01*
X112567497Y-99779282D01*
X112710354Y-99779282D01*
X112781782Y-99814997D01*
X112460354Y-100243568D02*
X112531782Y-100279282D01*
X112710354Y-100279282D01*
X112781782Y-100243568D01*
X112817497Y-100172139D01*
X112817497Y-100100711D01*
X112781782Y-100029282D01*
X112710354Y-99993568D01*
X112531782Y-99993568D01*
X112460354Y-99957854D01*
X112174639Y-99779282D02*
X111996068Y-100279282D01*
X111817497Y-99779282D01*
X111246068Y-100243568D02*
X111317497Y-100279282D01*
X111460354Y-100279282D01*
X111531782Y-100243568D01*
X111567497Y-100172139D01*
X111567497Y-99886425D01*
X111531782Y-99814997D01*
X111460354Y-99779282D01*
X111317497Y-99779282D01*
X111246068Y-99814997D01*
X111210354Y-99886425D01*
X111210354Y-99957854D01*
X111567497Y-100029282D01*
G04 #@! TO.C,TP3*
X192811568Y-149418568D02*
X192811568Y-149989997D01*
X193097282Y-150739997D02*
X193097282Y-150311425D01*
X193097282Y-150525711D02*
X192347282Y-150525711D01*
X192454425Y-150454282D01*
X192525854Y-150382854D01*
X192561568Y-150311425D01*
X192418711Y-151025711D02*
X192382997Y-151061425D01*
X192347282Y-151132854D01*
X192347282Y-151311425D01*
X192382997Y-151382854D01*
X192418711Y-151418568D01*
X192490139Y-151454282D01*
X192561568Y-151454282D01*
X192668711Y-151418568D01*
X193097282Y-150989997D01*
X193097282Y-151454282D01*
X192347282Y-151668568D02*
X193097282Y-151918568D01*
X192347282Y-152168568D01*
X191331282Y-149793568D02*
X191331282Y-150222139D01*
X192081282Y-150007854D02*
X191331282Y-150007854D01*
X192081282Y-150472139D02*
X191331282Y-150472139D01*
X191331282Y-150757854D01*
X191366997Y-150829282D01*
X191402711Y-150864997D01*
X191474139Y-150900711D01*
X191581282Y-150900711D01*
X191652711Y-150864997D01*
X191688425Y-150829282D01*
X191724139Y-150757854D01*
X191724139Y-150472139D01*
X191331282Y-151150711D02*
X191331282Y-151614997D01*
X191616997Y-151364997D01*
X191616997Y-151472139D01*
X191652711Y-151543568D01*
X191688425Y-151579282D01*
X191759854Y-151614997D01*
X191938425Y-151614997D01*
X192009854Y-151579282D01*
X192045568Y-151543568D01*
X192081282Y-151472139D01*
X192081282Y-151257854D01*
X192045568Y-151186425D01*
X192009854Y-151150711D01*
G04 #@! TO.C,TP5*
X192382997Y-144058568D02*
X192347282Y-143987139D01*
X192347282Y-143879997D01*
X192382997Y-143772854D01*
X192454425Y-143701425D01*
X192525854Y-143665711D01*
X192668711Y-143629997D01*
X192775854Y-143629997D01*
X192918711Y-143665711D01*
X192990139Y-143701425D01*
X193061568Y-143772854D01*
X193097282Y-143879997D01*
X193097282Y-143951425D01*
X193061568Y-144058568D01*
X193025854Y-144094282D01*
X192775854Y-144094282D01*
X192775854Y-143951425D01*
X193097282Y-144415711D02*
X192347282Y-144415711D01*
X193097282Y-144844282D01*
X192347282Y-144844282D01*
X193097282Y-145201425D02*
X192347282Y-145201425D01*
X192347282Y-145379997D01*
X192382997Y-145487139D01*
X192454425Y-145558568D01*
X192525854Y-145594282D01*
X192668711Y-145629997D01*
X192775854Y-145629997D01*
X192918711Y-145594282D01*
X192990139Y-145558568D01*
X193061568Y-145487139D01*
X193097282Y-145379997D01*
X193097282Y-145201425D01*
X191331282Y-143683568D02*
X191331282Y-144112139D01*
X192081282Y-143897854D02*
X191331282Y-143897854D01*
X192081282Y-144362139D02*
X191331282Y-144362139D01*
X191331282Y-144647854D01*
X191366997Y-144719282D01*
X191402711Y-144754997D01*
X191474139Y-144790711D01*
X191581282Y-144790711D01*
X191652711Y-144754997D01*
X191688425Y-144719282D01*
X191724139Y-144647854D01*
X191724139Y-144362139D01*
X191331282Y-145469282D02*
X191331282Y-145112139D01*
X191688425Y-145076425D01*
X191652711Y-145112139D01*
X191616997Y-145183568D01*
X191616997Y-145362139D01*
X191652711Y-145433568D01*
X191688425Y-145469282D01*
X191759854Y-145504997D01*
X191938425Y-145504997D01*
X192009854Y-145469282D01*
X192045568Y-145433568D01*
X192081282Y-145362139D01*
X192081282Y-145183568D01*
X192045568Y-145112139D01*
X192009854Y-145076425D01*
G04 #@! TO.C,TP6*
X174066425Y-41617282D02*
X173637854Y-41617282D01*
X173852139Y-42367282D02*
X173852139Y-41617282D01*
X173387854Y-42367282D02*
X173387854Y-41617282D01*
X173102139Y-41617282D01*
X173030711Y-41652997D01*
X172994997Y-41688711D01*
X172959282Y-41760139D01*
X172959282Y-41867282D01*
X172994997Y-41938711D01*
X173030711Y-41974425D01*
X173102139Y-42010139D01*
X173387854Y-42010139D01*
X172316425Y-41617282D02*
X172459282Y-41617282D01*
X172530711Y-41652997D01*
X172566425Y-41688711D01*
X172637854Y-41795854D01*
X172673568Y-41938711D01*
X172673568Y-42224425D01*
X172637854Y-42295854D01*
X172602139Y-42331568D01*
X172530711Y-42367282D01*
X172387854Y-42367282D01*
X172316425Y-42331568D01*
X172280711Y-42295854D01*
X172244997Y-42224425D01*
X172244997Y-42045854D01*
X172280711Y-41974425D01*
X172316425Y-41938711D01*
X172387854Y-41902997D01*
X172530711Y-41902997D01*
X172602139Y-41938711D01*
X172637854Y-41974425D01*
X172673568Y-42045854D01*
X174084282Y-41065568D02*
X173512854Y-41065568D01*
X172798568Y-40601282D02*
X173155711Y-40601282D01*
X173191425Y-40958425D01*
X173155711Y-40922711D01*
X173084282Y-40886997D01*
X172905711Y-40886997D01*
X172834282Y-40922711D01*
X172798568Y-40958425D01*
X172762854Y-41029854D01*
X172762854Y-41208425D01*
X172798568Y-41279854D01*
X172834282Y-41315568D01*
X172905711Y-41351282D01*
X173084282Y-41351282D01*
X173155711Y-41315568D01*
X173191425Y-41279854D01*
X172548568Y-40601282D02*
X172298568Y-41351282D01*
X172048568Y-40601282D01*
G04 #@! TO.C,TP1*
X192811568Y-136718568D02*
X192811568Y-137289997D01*
X193097282Y-137004282D02*
X192525854Y-137004282D01*
X193097282Y-138039997D02*
X193097282Y-137611425D01*
X193097282Y-137825711D02*
X192347282Y-137825711D01*
X192454425Y-137754282D01*
X192525854Y-137682854D01*
X192561568Y-137611425D01*
X192418711Y-138325711D02*
X192382997Y-138361425D01*
X192347282Y-138432854D01*
X192347282Y-138611425D01*
X192382997Y-138682854D01*
X192418711Y-138718568D01*
X192490139Y-138754282D01*
X192561568Y-138754282D01*
X192668711Y-138718568D01*
X193097282Y-138289997D01*
X193097282Y-138754282D01*
X192347282Y-138968568D02*
X193097282Y-139218568D01*
X192347282Y-139468568D01*
X191331282Y-137093568D02*
X191331282Y-137522139D01*
X192081282Y-137307854D02*
X191331282Y-137307854D01*
X192081282Y-137772139D02*
X191331282Y-137772139D01*
X191331282Y-138057854D01*
X191366997Y-138129282D01*
X191402711Y-138164997D01*
X191474139Y-138200711D01*
X191581282Y-138200711D01*
X191652711Y-138164997D01*
X191688425Y-138129282D01*
X191724139Y-138057854D01*
X191724139Y-137772139D01*
X192081282Y-138914997D02*
X192081282Y-138486425D01*
X192081282Y-138700711D02*
X191331282Y-138700711D01*
X191438425Y-138629282D01*
X191509854Y-138557854D01*
X191545568Y-138486425D01*
G04 #@! TO.C,TP2*
X162419997Y-41065568D02*
X161848568Y-41065568D01*
X162134282Y-41351282D02*
X162134282Y-40779854D01*
X161134282Y-40601282D02*
X161491425Y-40601282D01*
X161527139Y-40958425D01*
X161491425Y-40922711D01*
X161419997Y-40886997D01*
X161241425Y-40886997D01*
X161169997Y-40922711D01*
X161134282Y-40958425D01*
X161098568Y-41029854D01*
X161098568Y-41208425D01*
X161134282Y-41279854D01*
X161169997Y-41315568D01*
X161241425Y-41351282D01*
X161419997Y-41351282D01*
X161491425Y-41315568D01*
X161527139Y-41279854D01*
X160884282Y-40601282D02*
X160634282Y-41351282D01*
X160384282Y-40601282D01*
X159705711Y-41351282D02*
X159955711Y-40994139D01*
X160134282Y-41351282D02*
X160134282Y-40601282D01*
X159848568Y-40601282D01*
X159777139Y-40636997D01*
X159741425Y-40672711D01*
X159705711Y-40744139D01*
X159705711Y-40851282D01*
X159741425Y-40922711D01*
X159777139Y-40958425D01*
X159848568Y-40994139D01*
X160134282Y-40994139D01*
X159384282Y-40958425D02*
X159134282Y-40958425D01*
X159027139Y-41351282D02*
X159384282Y-41351282D01*
X159384282Y-40601282D01*
X159027139Y-40601282D01*
X158455711Y-40958425D02*
X158705711Y-40958425D01*
X158705711Y-41351282D02*
X158705711Y-40601282D01*
X158348568Y-40601282D01*
X161366425Y-41617282D02*
X160937854Y-41617282D01*
X161152139Y-42367282D02*
X161152139Y-41617282D01*
X160687854Y-42367282D02*
X160687854Y-41617282D01*
X160402139Y-41617282D01*
X160330711Y-41652997D01*
X160294997Y-41688711D01*
X160259282Y-41760139D01*
X160259282Y-41867282D01*
X160294997Y-41938711D01*
X160330711Y-41974425D01*
X160402139Y-42010139D01*
X160687854Y-42010139D01*
X159973568Y-41688711D02*
X159937854Y-41652997D01*
X159866425Y-41617282D01*
X159687854Y-41617282D01*
X159616425Y-41652997D01*
X159580711Y-41688711D01*
X159544997Y-41760139D01*
X159544997Y-41831568D01*
X159580711Y-41938711D01*
X160009282Y-42367282D01*
X159544997Y-42367282D01*
G04 #@! TO.C,TP4*
X156069997Y-41065568D02*
X155498568Y-41065568D01*
X154784282Y-40601282D02*
X155141425Y-40601282D01*
X155177139Y-40958425D01*
X155141425Y-40922711D01*
X155069997Y-40886997D01*
X154891425Y-40886997D01*
X154819997Y-40922711D01*
X154784282Y-40958425D01*
X154748568Y-41029854D01*
X154748568Y-41208425D01*
X154784282Y-41279854D01*
X154819997Y-41315568D01*
X154891425Y-41351282D01*
X155069997Y-41351282D01*
X155141425Y-41315568D01*
X155177139Y-41279854D01*
X154534282Y-40601282D02*
X154284282Y-41351282D01*
X154034282Y-40601282D01*
X153355711Y-41351282D02*
X153605711Y-40994139D01*
X153784282Y-41351282D02*
X153784282Y-40601282D01*
X153498568Y-40601282D01*
X153427139Y-40636997D01*
X153391425Y-40672711D01*
X153355711Y-40744139D01*
X153355711Y-40851282D01*
X153391425Y-40922711D01*
X153427139Y-40958425D01*
X153498568Y-40994139D01*
X153784282Y-40994139D01*
X153034282Y-40958425D02*
X152784282Y-40958425D01*
X152677139Y-41351282D02*
X153034282Y-41351282D01*
X153034282Y-40601282D01*
X152677139Y-40601282D01*
X152105711Y-40958425D02*
X152355711Y-40958425D01*
X152355711Y-41351282D02*
X152355711Y-40601282D01*
X151998568Y-40601282D01*
X155016425Y-41617282D02*
X154587854Y-41617282D01*
X154802139Y-42367282D02*
X154802139Y-41617282D01*
X154337854Y-42367282D02*
X154337854Y-41617282D01*
X154052139Y-41617282D01*
X153980711Y-41652997D01*
X153944997Y-41688711D01*
X153909282Y-41760139D01*
X153909282Y-41867282D01*
X153944997Y-41938711D01*
X153980711Y-41974425D01*
X154052139Y-42010139D01*
X154337854Y-42010139D01*
X153266425Y-41867282D02*
X153266425Y-42367282D01*
X153444997Y-41581568D02*
X153623568Y-42117282D01*
X153159282Y-42117282D01*
G04 #@! TO.C,R25*
X181302139Y-67386282D02*
X181552139Y-67029139D01*
X181730711Y-67386282D02*
X181730711Y-66636282D01*
X181444997Y-66636282D01*
X181373568Y-66671997D01*
X181337854Y-66707711D01*
X181302139Y-66779139D01*
X181302139Y-66886282D01*
X181337854Y-66957711D01*
X181373568Y-66993425D01*
X181444997Y-67029139D01*
X181730711Y-67029139D01*
X181016425Y-66707711D02*
X180980711Y-66671997D01*
X180909282Y-66636282D01*
X180730711Y-66636282D01*
X180659282Y-66671997D01*
X180623568Y-66707711D01*
X180587854Y-66779139D01*
X180587854Y-66850568D01*
X180623568Y-66957711D01*
X181052139Y-67386282D01*
X180587854Y-67386282D01*
X179909282Y-66636282D02*
X180266425Y-66636282D01*
X180302139Y-66993425D01*
X180266425Y-66957711D01*
X180194997Y-66921997D01*
X180016425Y-66921997D01*
X179944997Y-66957711D01*
X179909282Y-66993425D01*
X179873568Y-67064854D01*
X179873568Y-67243425D01*
X179909282Y-67314854D01*
X179944997Y-67350568D01*
X180016425Y-67386282D01*
X180194997Y-67386282D01*
X180266425Y-67350568D01*
X180302139Y-67314854D01*
X174432139Y-66580711D02*
X174396425Y-66544997D01*
X174324997Y-66509282D01*
X174146425Y-66509282D01*
X174074997Y-66544997D01*
X174039282Y-66580711D01*
X174003568Y-66652139D01*
X174003568Y-66723568D01*
X174039282Y-66830711D01*
X174467854Y-67259282D01*
X174003568Y-67259282D01*
X173360711Y-66759282D02*
X173360711Y-67259282D01*
X173539282Y-66473568D02*
X173717854Y-67009282D01*
X173253568Y-67009282D01*
X172824997Y-66509282D02*
X172753568Y-66509282D01*
X172682139Y-66544997D01*
X172646425Y-66580711D01*
X172610711Y-66652139D01*
X172574997Y-66794997D01*
X172574997Y-66973568D01*
X172610711Y-67116425D01*
X172646425Y-67187854D01*
X172682139Y-67223568D01*
X172753568Y-67259282D01*
X172824997Y-67259282D01*
X172896425Y-67223568D01*
X172932139Y-67187854D01*
X172967854Y-67116425D01*
X173003568Y-66973568D01*
X173003568Y-66794997D01*
X172967854Y-66652139D01*
X172932139Y-66580711D01*
X172896425Y-66544997D01*
X172824997Y-66509282D01*
X172253568Y-67259282D02*
X172253568Y-66509282D01*
X172182139Y-66973568D02*
X171967854Y-67259282D01*
X171967854Y-66759282D02*
X172253568Y-67044997D01*
G04 #@! TO.C,C7*
X133827997Y-119257854D02*
X133863711Y-119293568D01*
X133970854Y-119329282D01*
X134042282Y-119329282D01*
X134149425Y-119293568D01*
X134220854Y-119222139D01*
X134256568Y-119150711D01*
X134292282Y-119007854D01*
X134292282Y-118900711D01*
X134256568Y-118757854D01*
X134220854Y-118686425D01*
X134149425Y-118614997D01*
X134042282Y-118579282D01*
X133970854Y-118579282D01*
X133863711Y-118614997D01*
X133827997Y-118650711D01*
X133577997Y-118579282D02*
X133077997Y-118579282D01*
X133399425Y-119329282D01*
X123941711Y-119329282D02*
X124370282Y-119329282D01*
X124155997Y-119329282D02*
X124155997Y-118579282D01*
X124227425Y-118686425D01*
X124298854Y-118757854D01*
X124370282Y-118793568D01*
X123477425Y-118579282D02*
X123405997Y-118579282D01*
X123334568Y-118614997D01*
X123298854Y-118650711D01*
X123263139Y-118722139D01*
X123227425Y-118864997D01*
X123227425Y-119043568D01*
X123263139Y-119186425D01*
X123298854Y-119257854D01*
X123334568Y-119293568D01*
X123405997Y-119329282D01*
X123477425Y-119329282D01*
X123548854Y-119293568D01*
X123584568Y-119257854D01*
X123620282Y-119186425D01*
X123655997Y-119043568D01*
X123655997Y-118864997D01*
X123620282Y-118722139D01*
X123584568Y-118650711D01*
X123548854Y-118614997D01*
X123477425Y-118579282D01*
X122763139Y-118579282D02*
X122691711Y-118579282D01*
X122620282Y-118614997D01*
X122584568Y-118650711D01*
X122548854Y-118722139D01*
X122513139Y-118864997D01*
X122513139Y-119043568D01*
X122548854Y-119186425D01*
X122584568Y-119257854D01*
X122620282Y-119293568D01*
X122691711Y-119329282D01*
X122763139Y-119329282D01*
X122834568Y-119293568D01*
X122870282Y-119257854D01*
X122905997Y-119186425D01*
X122941711Y-119043568D01*
X122941711Y-118864997D01*
X122905997Y-118722139D01*
X122870282Y-118650711D01*
X122834568Y-118614997D01*
X122763139Y-118579282D01*
X122191711Y-118829282D02*
X122191711Y-119329282D01*
X122191711Y-118900711D02*
X122155997Y-118864997D01*
X122084568Y-118829282D01*
X121977425Y-118829282D01*
X121905997Y-118864997D01*
X121870282Y-118936425D01*
X121870282Y-119329282D01*
X121263139Y-118936425D02*
X121513139Y-118936425D01*
X121513139Y-119329282D02*
X121513139Y-118579282D01*
X121155997Y-118579282D01*
G04 #@! TO.C,C8*
X149067997Y-66298854D02*
X149103711Y-66334568D01*
X149210854Y-66370282D01*
X149282282Y-66370282D01*
X149389425Y-66334568D01*
X149460854Y-66263139D01*
X149496568Y-66191711D01*
X149532282Y-66048854D01*
X149532282Y-65941711D01*
X149496568Y-65798854D01*
X149460854Y-65727425D01*
X149389425Y-65655997D01*
X149282282Y-65620282D01*
X149210854Y-65620282D01*
X149103711Y-65655997D01*
X149067997Y-65691711D01*
X148639425Y-65941711D02*
X148710854Y-65905997D01*
X148746568Y-65870282D01*
X148782282Y-65798854D01*
X148782282Y-65763139D01*
X148746568Y-65691711D01*
X148710854Y-65655997D01*
X148639425Y-65620282D01*
X148496568Y-65620282D01*
X148425139Y-65655997D01*
X148389425Y-65691711D01*
X148353711Y-65763139D01*
X148353711Y-65798854D01*
X148389425Y-65870282D01*
X148425139Y-65905997D01*
X148496568Y-65941711D01*
X148639425Y-65941711D01*
X148710854Y-65977425D01*
X148746568Y-66013139D01*
X148782282Y-66084568D01*
X148782282Y-66227425D01*
X148746568Y-66298854D01*
X148710854Y-66334568D01*
X148639425Y-66370282D01*
X148496568Y-66370282D01*
X148425139Y-66334568D01*
X148389425Y-66298854D01*
X148353711Y-66227425D01*
X148353711Y-66084568D01*
X148389425Y-66013139D01*
X148425139Y-65977425D01*
X148496568Y-65941711D01*
X144833568Y-65989282D02*
X145262139Y-65989282D01*
X145047854Y-65989282D02*
X145047854Y-65239282D01*
X145119282Y-65346425D01*
X145190711Y-65417854D01*
X145262139Y-65453568D01*
X144369282Y-65239282D02*
X144297854Y-65239282D01*
X144226425Y-65274997D01*
X144190711Y-65310711D01*
X144154997Y-65382139D01*
X144119282Y-65524997D01*
X144119282Y-65703568D01*
X144154997Y-65846425D01*
X144190711Y-65917854D01*
X144226425Y-65953568D01*
X144297854Y-65989282D01*
X144369282Y-65989282D01*
X144440711Y-65953568D01*
X144476425Y-65917854D01*
X144512139Y-65846425D01*
X144547854Y-65703568D01*
X144547854Y-65524997D01*
X144512139Y-65382139D01*
X144476425Y-65310711D01*
X144440711Y-65274997D01*
X144369282Y-65239282D01*
X143797854Y-65489282D02*
X143797854Y-65989282D01*
X143797854Y-65560711D02*
X143762139Y-65524997D01*
X143690711Y-65489282D01*
X143583568Y-65489282D01*
X143512139Y-65524997D01*
X143476425Y-65596425D01*
X143476425Y-65989282D01*
X142869282Y-65596425D02*
X143119282Y-65596425D01*
X143119282Y-65989282D02*
X143119282Y-65239282D01*
X142762139Y-65239282D01*
G04 #@! TO.C,R14*
X135455139Y-77546282D02*
X135705139Y-77189139D01*
X135883711Y-77546282D02*
X135883711Y-76796282D01*
X135597997Y-76796282D01*
X135526568Y-76831997D01*
X135490854Y-76867711D01*
X135455139Y-76939139D01*
X135455139Y-77046282D01*
X135490854Y-77117711D01*
X135526568Y-77153425D01*
X135597997Y-77189139D01*
X135883711Y-77189139D01*
X134740854Y-77546282D02*
X135169425Y-77546282D01*
X134955139Y-77546282D02*
X134955139Y-76796282D01*
X135026568Y-76903425D01*
X135097997Y-76974854D01*
X135169425Y-77010568D01*
X134097997Y-77046282D02*
X134097997Y-77546282D01*
X134276568Y-76760568D02*
X134455139Y-77296282D01*
X133990854Y-77296282D01*
X128229997Y-77419282D02*
X128658568Y-77419282D01*
X128444282Y-77419282D02*
X128444282Y-76669282D01*
X128515711Y-76776425D01*
X128587139Y-76847854D01*
X128658568Y-76883568D01*
X127908568Y-77347854D02*
X127872854Y-77383568D01*
X127908568Y-77419282D01*
X127944282Y-77383568D01*
X127908568Y-77347854D01*
X127908568Y-77419282D01*
X127194282Y-76669282D02*
X127551425Y-76669282D01*
X127587139Y-77026425D01*
X127551425Y-76990711D01*
X127479997Y-76954997D01*
X127301425Y-76954997D01*
X127229997Y-76990711D01*
X127194282Y-77026425D01*
X127158568Y-77097854D01*
X127158568Y-77276425D01*
X127194282Y-77347854D01*
X127229997Y-77383568D01*
X127301425Y-77419282D01*
X127479997Y-77419282D01*
X127551425Y-77383568D01*
X127587139Y-77347854D01*
X126837139Y-77419282D02*
X126837139Y-76669282D01*
X126587139Y-77204997D01*
X126337139Y-76669282D01*
X126337139Y-77419282D01*
G04 #@! TO.C,C5*
X162672854Y-115562997D02*
X162708568Y-115527282D01*
X162744282Y-115420139D01*
X162744282Y-115348711D01*
X162708568Y-115241568D01*
X162637139Y-115170139D01*
X162565711Y-115134425D01*
X162422854Y-115098711D01*
X162315711Y-115098711D01*
X162172854Y-115134425D01*
X162101425Y-115170139D01*
X162029997Y-115241568D01*
X161994282Y-115348711D01*
X161994282Y-115420139D01*
X162029997Y-115527282D01*
X162065711Y-115562997D01*
X161994282Y-116241568D02*
X161994282Y-115884425D01*
X162351425Y-115848711D01*
X162315711Y-115884425D01*
X162279997Y-115955854D01*
X162279997Y-116134425D01*
X162315711Y-116205854D01*
X162351425Y-116241568D01*
X162422854Y-116277282D01*
X162601425Y-116277282D01*
X162672854Y-116241568D01*
X162708568Y-116205854D01*
X162744282Y-116134425D01*
X162744282Y-115955854D01*
X162708568Y-115884425D01*
X162672854Y-115848711D01*
X162744282Y-117829282D02*
X162744282Y-117400711D01*
X162744282Y-117614997D02*
X161994282Y-117614997D01*
X162101425Y-117543568D01*
X162172854Y-117472139D01*
X162208568Y-117400711D01*
X161994282Y-118293568D02*
X161994282Y-118364997D01*
X162029997Y-118436425D01*
X162065711Y-118472139D01*
X162137139Y-118507854D01*
X162279997Y-118543568D01*
X162458568Y-118543568D01*
X162601425Y-118507854D01*
X162672854Y-118472139D01*
X162708568Y-118436425D01*
X162744282Y-118364997D01*
X162744282Y-118293568D01*
X162708568Y-118222139D01*
X162672854Y-118186425D01*
X162601425Y-118150711D01*
X162458568Y-118114997D01*
X162279997Y-118114997D01*
X162137139Y-118150711D01*
X162065711Y-118186425D01*
X162029997Y-118222139D01*
X161994282Y-118293568D01*
X161994282Y-119007854D02*
X161994282Y-119079282D01*
X162029997Y-119150711D01*
X162065711Y-119186425D01*
X162137139Y-119222139D01*
X162279997Y-119257854D01*
X162458568Y-119257854D01*
X162601425Y-119222139D01*
X162672854Y-119186425D01*
X162708568Y-119150711D01*
X162744282Y-119079282D01*
X162744282Y-119007854D01*
X162708568Y-118936425D01*
X162672854Y-118900711D01*
X162601425Y-118864997D01*
X162458568Y-118829282D01*
X162279997Y-118829282D01*
X162137139Y-118864997D01*
X162065711Y-118900711D01*
X162029997Y-118936425D01*
X161994282Y-119007854D01*
X162244282Y-119579282D02*
X162744282Y-119579282D01*
X162315711Y-119579282D02*
X162279997Y-119614997D01*
X162244282Y-119686425D01*
X162244282Y-119793568D01*
X162279997Y-119864997D01*
X162351425Y-119900711D01*
X162744282Y-119900711D01*
X162351425Y-120507854D02*
X162351425Y-120257854D01*
X162744282Y-120257854D02*
X161994282Y-120257854D01*
X161994282Y-120614997D01*
G04 #@! TO.C,R1*
X180944997Y-71196282D02*
X181194997Y-70839139D01*
X181373568Y-71196282D02*
X181373568Y-70446282D01*
X181087854Y-70446282D01*
X181016425Y-70481997D01*
X180980711Y-70517711D01*
X180944997Y-70589139D01*
X180944997Y-70696282D01*
X180980711Y-70767711D01*
X181016425Y-70803425D01*
X181087854Y-70839139D01*
X181373568Y-70839139D01*
X180230711Y-71196282D02*
X180659282Y-71196282D01*
X180444997Y-71196282D02*
X180444997Y-70446282D01*
X180516425Y-70553425D01*
X180587854Y-70624854D01*
X180659282Y-70660568D01*
X173414282Y-71069282D02*
X173842854Y-71069282D01*
X173628568Y-71069282D02*
X173628568Y-70319282D01*
X173699997Y-70426425D01*
X173771425Y-70497854D01*
X173842854Y-70533568D01*
X173092854Y-71069282D02*
X173092854Y-70319282D01*
X172842854Y-70854997D01*
X172592854Y-70319282D01*
X172592854Y-71069282D01*
G04 #@! TO.C,C9*
X144154997Y-83387854D02*
X144190711Y-83423568D01*
X144297854Y-83459282D01*
X144369282Y-83459282D01*
X144476425Y-83423568D01*
X144547854Y-83352139D01*
X144583568Y-83280711D01*
X144619282Y-83137854D01*
X144619282Y-83030711D01*
X144583568Y-82887854D01*
X144547854Y-82816425D01*
X144476425Y-82744997D01*
X144369282Y-82709282D01*
X144297854Y-82709282D01*
X144190711Y-82744997D01*
X144154997Y-82780711D01*
X143797854Y-83459282D02*
X143654997Y-83459282D01*
X143583568Y-83423568D01*
X143547854Y-83387854D01*
X143476425Y-83280711D01*
X143440711Y-83137854D01*
X143440711Y-82852139D01*
X143476425Y-82780711D01*
X143512139Y-82744997D01*
X143583568Y-82709282D01*
X143726425Y-82709282D01*
X143797854Y-82744997D01*
X143833568Y-82780711D01*
X143869282Y-82852139D01*
X143869282Y-83030711D01*
X143833568Y-83102139D01*
X143797854Y-83137854D01*
X143726425Y-83173568D01*
X143583568Y-83173568D01*
X143512139Y-83137854D01*
X143476425Y-83102139D01*
X143440711Y-83030711D01*
X149389425Y-79959282D02*
X149817997Y-79959282D01*
X149603711Y-79959282D02*
X149603711Y-79209282D01*
X149675139Y-79316425D01*
X149746568Y-79387854D01*
X149817997Y-79423568D01*
X149067997Y-79459282D02*
X149067997Y-79959282D01*
X149067997Y-79530711D02*
X149032282Y-79494997D01*
X148960854Y-79459282D01*
X148853711Y-79459282D01*
X148782282Y-79494997D01*
X148746568Y-79566425D01*
X148746568Y-79959282D01*
X148139425Y-79566425D02*
X148389425Y-79566425D01*
X148389425Y-79959282D02*
X148389425Y-79209282D01*
X148032282Y-79209282D01*
G04 #@! TO.C,R28*
X162279282Y-89297854D02*
X161922139Y-89047854D01*
X162279282Y-88869282D02*
X161529282Y-88869282D01*
X161529282Y-89154997D01*
X161564997Y-89226425D01*
X161600711Y-89262139D01*
X161672139Y-89297854D01*
X161779282Y-89297854D01*
X161850711Y-89262139D01*
X161886425Y-89226425D01*
X161922139Y-89154997D01*
X161922139Y-88869282D01*
X161600711Y-89583568D02*
X161564997Y-89619282D01*
X161529282Y-89690711D01*
X161529282Y-89869282D01*
X161564997Y-89940711D01*
X161600711Y-89976425D01*
X161672139Y-90012139D01*
X161743568Y-90012139D01*
X161850711Y-89976425D01*
X162279282Y-89547854D01*
X162279282Y-90012139D01*
X161850711Y-90440711D02*
X161814997Y-90369282D01*
X161779282Y-90333568D01*
X161707854Y-90297854D01*
X161672139Y-90297854D01*
X161600711Y-90333568D01*
X161564997Y-90369282D01*
X161529282Y-90440711D01*
X161529282Y-90583568D01*
X161564997Y-90654997D01*
X161600711Y-90690711D01*
X161672139Y-90726425D01*
X161707854Y-90726425D01*
X161779282Y-90690711D01*
X161814997Y-90654997D01*
X161850711Y-90583568D01*
X161850711Y-90440711D01*
X161886425Y-90369282D01*
X161922139Y-90333568D01*
X161993568Y-90297854D01*
X162136425Y-90297854D01*
X162207854Y-90333568D01*
X162243568Y-90369282D01*
X162279282Y-90440711D01*
X162279282Y-90583568D01*
X162243568Y-90654997D01*
X162207854Y-90690711D01*
X162136425Y-90726425D01*
X161993568Y-90726425D01*
X161922139Y-90690711D01*
X161886425Y-90654997D01*
X161850711Y-90583568D01*
X164649282Y-88976425D02*
X164649282Y-88547854D01*
X164649282Y-88762139D02*
X163899282Y-88762139D01*
X164006425Y-88690711D01*
X164077854Y-88619282D01*
X164113568Y-88547854D01*
X163899282Y-89440711D02*
X163899282Y-89512139D01*
X163934997Y-89583568D01*
X163970711Y-89619282D01*
X164042139Y-89654997D01*
X164184997Y-89690711D01*
X164363568Y-89690711D01*
X164506425Y-89654997D01*
X164577854Y-89619282D01*
X164613568Y-89583568D01*
X164649282Y-89512139D01*
X164649282Y-89440711D01*
X164613568Y-89369282D01*
X164577854Y-89333568D01*
X164506425Y-89297854D01*
X164363568Y-89262139D01*
X164184997Y-89262139D01*
X164042139Y-89297854D01*
X163970711Y-89333568D01*
X163934997Y-89369282D01*
X163899282Y-89440711D01*
X163899282Y-90154997D02*
X163899282Y-90226425D01*
X163934997Y-90297854D01*
X163970711Y-90333568D01*
X164042139Y-90369282D01*
X164184997Y-90404997D01*
X164363568Y-90404997D01*
X164506425Y-90369282D01*
X164577854Y-90333568D01*
X164613568Y-90297854D01*
X164649282Y-90226425D01*
X164649282Y-90154997D01*
X164613568Y-90083568D01*
X164577854Y-90047854D01*
X164506425Y-90012139D01*
X164363568Y-89976425D01*
X164184997Y-89976425D01*
X164042139Y-90012139D01*
X163970711Y-90047854D01*
X163934997Y-90083568D01*
X163899282Y-90154997D01*
X164649282Y-90726425D02*
X163899282Y-90726425D01*
X164363568Y-90797854D02*
X164649282Y-91012139D01*
X164149282Y-91012139D02*
X164434997Y-90726425D01*
G04 #@! TO.C,R2*
X189834997Y-64846282D02*
X190084997Y-64489139D01*
X190263568Y-64846282D02*
X190263568Y-64096282D01*
X189977854Y-64096282D01*
X189906425Y-64131997D01*
X189870711Y-64167711D01*
X189834997Y-64239139D01*
X189834997Y-64346282D01*
X189870711Y-64417711D01*
X189906425Y-64453425D01*
X189977854Y-64489139D01*
X190263568Y-64489139D01*
X189549282Y-64167711D02*
X189513568Y-64131997D01*
X189442139Y-64096282D01*
X189263568Y-64096282D01*
X189192139Y-64131997D01*
X189156425Y-64167711D01*
X189120711Y-64239139D01*
X189120711Y-64310568D01*
X189156425Y-64417711D01*
X189584997Y-64846282D01*
X189120711Y-64846282D01*
X190584997Y-66580711D02*
X190549282Y-66544997D01*
X190477854Y-66509282D01*
X190299282Y-66509282D01*
X190227854Y-66544997D01*
X190192139Y-66580711D01*
X190156425Y-66652139D01*
X190156425Y-66723568D01*
X190192139Y-66830711D01*
X190620711Y-67259282D01*
X190156425Y-67259282D01*
X189513568Y-66759282D02*
X189513568Y-67259282D01*
X189692139Y-66473568D02*
X189870711Y-67009282D01*
X189406425Y-67009282D01*
X189120711Y-67259282D02*
X189120711Y-66509282D01*
X189049282Y-66973568D02*
X188834997Y-67259282D01*
X188834997Y-66759282D02*
X189120711Y-67044997D01*
G04 #@! TO.C,U2*
X155981425Y-88309282D02*
X155981425Y-88916425D01*
X155945711Y-88987854D01*
X155909997Y-89023568D01*
X155838568Y-89059282D01*
X155695711Y-89059282D01*
X155624282Y-89023568D01*
X155588568Y-88987854D01*
X155552854Y-88916425D01*
X155552854Y-88309282D01*
X155231425Y-88380711D02*
X155195711Y-88344997D01*
X155124282Y-88309282D01*
X154945711Y-88309282D01*
X154874282Y-88344997D01*
X154838568Y-88380711D01*
X154802854Y-88452139D01*
X154802854Y-88523568D01*
X154838568Y-88630711D01*
X155267139Y-89059282D01*
X154802854Y-89059282D01*
X154999282Y-93270711D02*
X154999282Y-93699282D01*
X155749282Y-93484997D02*
X154999282Y-93484997D01*
X155749282Y-94306425D02*
X155749282Y-93949282D01*
X154999282Y-93949282D01*
X154999282Y-94699282D02*
X154999282Y-94770711D01*
X155034997Y-94842139D01*
X155070711Y-94877854D01*
X155142139Y-94913568D01*
X155284997Y-94949282D01*
X155463568Y-94949282D01*
X155606425Y-94913568D01*
X155677854Y-94877854D01*
X155713568Y-94842139D01*
X155749282Y-94770711D01*
X155749282Y-94699282D01*
X155713568Y-94627854D01*
X155677854Y-94592139D01*
X155606425Y-94556425D01*
X155463568Y-94520711D01*
X155284997Y-94520711D01*
X155142139Y-94556425D01*
X155070711Y-94592139D01*
X155034997Y-94627854D01*
X154999282Y-94699282D01*
X154999282Y-95199282D02*
X154999282Y-95699282D01*
X155749282Y-95377854D01*
X155070711Y-95949282D02*
X155034997Y-95984997D01*
X154999282Y-96056425D01*
X154999282Y-96234997D01*
X155034997Y-96306425D01*
X155070711Y-96342139D01*
X155142139Y-96377854D01*
X155213568Y-96377854D01*
X155320711Y-96342139D01*
X155749282Y-95913568D01*
X155749282Y-96377854D01*
G04 #@! TO.C,R4*
X133573997Y-108026282D02*
X133823997Y-107669139D01*
X134002568Y-108026282D02*
X134002568Y-107276282D01*
X133716854Y-107276282D01*
X133645425Y-107311997D01*
X133609711Y-107347711D01*
X133573997Y-107419139D01*
X133573997Y-107526282D01*
X133609711Y-107597711D01*
X133645425Y-107633425D01*
X133716854Y-107669139D01*
X134002568Y-107669139D01*
X132931139Y-107526282D02*
X132931139Y-108026282D01*
X133109711Y-107240568D02*
X133288282Y-107776282D01*
X132823997Y-107776282D01*
X127013568Y-107899282D02*
X127442139Y-107899282D01*
X127227854Y-107899282D02*
X127227854Y-107149282D01*
X127299282Y-107256425D01*
X127370711Y-107327854D01*
X127442139Y-107363568D01*
X126549282Y-107149282D02*
X126477854Y-107149282D01*
X126406425Y-107184997D01*
X126370711Y-107220711D01*
X126334997Y-107292139D01*
X126299282Y-107434997D01*
X126299282Y-107613568D01*
X126334997Y-107756425D01*
X126370711Y-107827854D01*
X126406425Y-107863568D01*
X126477854Y-107899282D01*
X126549282Y-107899282D01*
X126620711Y-107863568D01*
X126656425Y-107827854D01*
X126692139Y-107756425D01*
X126727854Y-107613568D01*
X126727854Y-107434997D01*
X126692139Y-107292139D01*
X126656425Y-107220711D01*
X126620711Y-107184997D01*
X126549282Y-107149282D01*
X125834997Y-107149282D02*
X125763568Y-107149282D01*
X125692139Y-107184997D01*
X125656425Y-107220711D01*
X125620711Y-107292139D01*
X125584997Y-107434997D01*
X125584997Y-107613568D01*
X125620711Y-107756425D01*
X125656425Y-107827854D01*
X125692139Y-107863568D01*
X125763568Y-107899282D01*
X125834997Y-107899282D01*
X125906425Y-107863568D01*
X125942139Y-107827854D01*
X125977854Y-107756425D01*
X126013568Y-107613568D01*
X126013568Y-107434997D01*
X125977854Y-107292139D01*
X125942139Y-107220711D01*
X125906425Y-107184997D01*
X125834997Y-107149282D01*
X125263568Y-107899282D02*
X125263568Y-107149282D01*
X125192139Y-107613568D02*
X124977854Y-107899282D01*
X124977854Y-107399282D02*
X125263568Y-107684997D01*
G04 #@! TO.C,R15*
X135328139Y-81229282D02*
X135578139Y-80872139D01*
X135756711Y-81229282D02*
X135756711Y-80479282D01*
X135470997Y-80479282D01*
X135399568Y-80514997D01*
X135363854Y-80550711D01*
X135328139Y-80622139D01*
X135328139Y-80729282D01*
X135363854Y-80800711D01*
X135399568Y-80836425D01*
X135470997Y-80872139D01*
X135756711Y-80872139D01*
X134613854Y-81229282D02*
X135042425Y-81229282D01*
X134828139Y-81229282D02*
X134828139Y-80479282D01*
X134899568Y-80586425D01*
X134970997Y-80657854D01*
X135042425Y-80693568D01*
X133935282Y-80479282D02*
X134292425Y-80479282D01*
X134328139Y-80836425D01*
X134292425Y-80800711D01*
X134220997Y-80764997D01*
X134042425Y-80764997D01*
X133970997Y-80800711D01*
X133935282Y-80836425D01*
X133899568Y-80907854D01*
X133899568Y-81086425D01*
X133935282Y-81157854D01*
X133970997Y-81193568D01*
X134042425Y-81229282D01*
X134220997Y-81229282D01*
X134292425Y-81193568D01*
X134328139Y-81157854D01*
X128426425Y-80729282D02*
X128426425Y-81229282D01*
X128604997Y-80443568D02*
X128783568Y-80979282D01*
X128319282Y-80979282D01*
X128104997Y-80479282D02*
X127604997Y-80479282D01*
X127926425Y-81229282D01*
X127176425Y-80479282D02*
X127104997Y-80479282D01*
X127033568Y-80514997D01*
X126997854Y-80550711D01*
X126962139Y-80622139D01*
X126926425Y-80764997D01*
X126926425Y-80943568D01*
X126962139Y-81086425D01*
X126997854Y-81157854D01*
X127033568Y-81193568D01*
X127104997Y-81229282D01*
X127176425Y-81229282D01*
X127247854Y-81193568D01*
X127283568Y-81157854D01*
X127319282Y-81086425D01*
X127354997Y-80943568D01*
X127354997Y-80764997D01*
X127319282Y-80622139D01*
X127283568Y-80550711D01*
X127247854Y-80514997D01*
X127176425Y-80479282D01*
X126176425Y-81229282D02*
X126426425Y-80872139D01*
X126604997Y-81229282D02*
X126604997Y-80479282D01*
X126319282Y-80479282D01*
X126247854Y-80514997D01*
X126212139Y-80550711D01*
X126176425Y-80622139D01*
X126176425Y-80729282D01*
X126212139Y-80800711D01*
X126247854Y-80836425D01*
X126319282Y-80872139D01*
X126604997Y-80872139D01*
G04 #@! TO.C,R3*
X152115997Y-58242282D02*
X152365997Y-57885139D01*
X152544568Y-58242282D02*
X152544568Y-57492282D01*
X152258854Y-57492282D01*
X152187425Y-57527997D01*
X152151711Y-57563711D01*
X152115997Y-57635139D01*
X152115997Y-57742282D01*
X152151711Y-57813711D01*
X152187425Y-57849425D01*
X152258854Y-57885139D01*
X152544568Y-57885139D01*
X151865997Y-57492282D02*
X151401711Y-57492282D01*
X151651711Y-57777997D01*
X151544568Y-57777997D01*
X151473139Y-57813711D01*
X151437425Y-57849425D01*
X151401711Y-57920854D01*
X151401711Y-58099425D01*
X151437425Y-58170854D01*
X151473139Y-58206568D01*
X151544568Y-58242282D01*
X151758854Y-58242282D01*
X151830282Y-58206568D01*
X151865997Y-58170854D01*
X159890711Y-57619282D02*
X160247854Y-57619282D01*
X160283568Y-57976425D01*
X160247854Y-57940711D01*
X160176425Y-57904997D01*
X159997854Y-57904997D01*
X159926425Y-57940711D01*
X159890711Y-57976425D01*
X159854997Y-58047854D01*
X159854997Y-58226425D01*
X159890711Y-58297854D01*
X159926425Y-58333568D01*
X159997854Y-58369282D01*
X160176425Y-58369282D01*
X160247854Y-58333568D01*
X160283568Y-58297854D01*
X159533568Y-58297854D02*
X159497854Y-58333568D01*
X159533568Y-58369282D01*
X159569282Y-58333568D01*
X159533568Y-58297854D01*
X159533568Y-58369282D01*
X158854997Y-57619282D02*
X158997854Y-57619282D01*
X159069282Y-57654997D01*
X159104997Y-57690711D01*
X159176425Y-57797854D01*
X159212139Y-57940711D01*
X159212139Y-58226425D01*
X159176425Y-58297854D01*
X159140711Y-58333568D01*
X159069282Y-58369282D01*
X158926425Y-58369282D01*
X158854997Y-58333568D01*
X158819282Y-58297854D01*
X158783568Y-58226425D01*
X158783568Y-58047854D01*
X158819282Y-57976425D01*
X158854997Y-57940711D01*
X158926425Y-57904997D01*
X159069282Y-57904997D01*
X159140711Y-57940711D01*
X159176425Y-57976425D01*
X159212139Y-58047854D01*
X158462139Y-58369282D02*
X158462139Y-57619282D01*
X158390711Y-58083568D02*
X158176425Y-58369282D01*
X158176425Y-57869282D02*
X158462139Y-58154997D01*
G04 #@! TO.C,C11*
X121652139Y-86277854D02*
X121687854Y-86313568D01*
X121794997Y-86349282D01*
X121866425Y-86349282D01*
X121973568Y-86313568D01*
X122044997Y-86242139D01*
X122080711Y-86170711D01*
X122116425Y-86027854D01*
X122116425Y-85920711D01*
X122080711Y-85777854D01*
X122044997Y-85706425D01*
X121973568Y-85634997D01*
X121866425Y-85599282D01*
X121794997Y-85599282D01*
X121687854Y-85634997D01*
X121652139Y-85670711D01*
X120937854Y-86349282D02*
X121366425Y-86349282D01*
X121152139Y-86349282D02*
X121152139Y-85599282D01*
X121223568Y-85706425D01*
X121294997Y-85777854D01*
X121366425Y-85813568D01*
X120223568Y-86349282D02*
X120652139Y-86349282D01*
X120437854Y-86349282D02*
X120437854Y-85599282D01*
X120509282Y-85706425D01*
X120580711Y-85777854D01*
X120652139Y-85813568D01*
X121933568Y-88849282D02*
X122362139Y-88849282D01*
X122147854Y-88849282D02*
X122147854Y-88099282D01*
X122219282Y-88206425D01*
X122290711Y-88277854D01*
X122362139Y-88313568D01*
X121469282Y-88099282D02*
X121397854Y-88099282D01*
X121326425Y-88134997D01*
X121290711Y-88170711D01*
X121254997Y-88242139D01*
X121219282Y-88384997D01*
X121219282Y-88563568D01*
X121254997Y-88706425D01*
X121290711Y-88777854D01*
X121326425Y-88813568D01*
X121397854Y-88849282D01*
X121469282Y-88849282D01*
X121540711Y-88813568D01*
X121576425Y-88777854D01*
X121612139Y-88706425D01*
X121647854Y-88563568D01*
X121647854Y-88384997D01*
X121612139Y-88242139D01*
X121576425Y-88170711D01*
X121540711Y-88134997D01*
X121469282Y-88099282D01*
X120897854Y-88349282D02*
X120897854Y-88849282D01*
X120897854Y-88420711D02*
X120862139Y-88384997D01*
X120790711Y-88349282D01*
X120683568Y-88349282D01*
X120612139Y-88384997D01*
X120576425Y-88456425D01*
X120576425Y-88849282D01*
X119969282Y-88456425D02*
X120219282Y-88456425D01*
X120219282Y-88849282D02*
X120219282Y-88099282D01*
X119862139Y-88099282D01*
G04 #@! TO.C,C12*
X107642139Y-88904854D02*
X107677854Y-88940568D01*
X107784997Y-88976282D01*
X107856425Y-88976282D01*
X107963568Y-88940568D01*
X108034997Y-88869139D01*
X108070711Y-88797711D01*
X108106425Y-88654854D01*
X108106425Y-88547711D01*
X108070711Y-88404854D01*
X108034997Y-88333425D01*
X107963568Y-88261997D01*
X107856425Y-88226282D01*
X107784997Y-88226282D01*
X107677854Y-88261997D01*
X107642139Y-88297711D01*
X106927854Y-88976282D02*
X107356425Y-88976282D01*
X107142139Y-88976282D02*
X107142139Y-88226282D01*
X107213568Y-88333425D01*
X107284997Y-88404854D01*
X107356425Y-88440568D01*
X106642139Y-88297711D02*
X106606425Y-88261997D01*
X106534997Y-88226282D01*
X106356425Y-88226282D01*
X106284997Y-88261997D01*
X106249282Y-88297711D01*
X106213568Y-88369139D01*
X106213568Y-88440568D01*
X106249282Y-88547711D01*
X106677854Y-88976282D01*
X106213568Y-88976282D01*
X113400711Y-88849282D02*
X113829282Y-88849282D01*
X113614997Y-88849282D02*
X113614997Y-88099282D01*
X113686425Y-88206425D01*
X113757854Y-88277854D01*
X113829282Y-88313568D01*
X112936425Y-88099282D02*
X112864997Y-88099282D01*
X112793568Y-88134997D01*
X112757854Y-88170711D01*
X112722139Y-88242139D01*
X112686425Y-88384997D01*
X112686425Y-88563568D01*
X112722139Y-88706425D01*
X112757854Y-88777854D01*
X112793568Y-88813568D01*
X112864997Y-88849282D01*
X112936425Y-88849282D01*
X113007854Y-88813568D01*
X113043568Y-88777854D01*
X113079282Y-88706425D01*
X113114997Y-88563568D01*
X113114997Y-88384997D01*
X113079282Y-88242139D01*
X113043568Y-88170711D01*
X113007854Y-88134997D01*
X112936425Y-88099282D01*
X112222139Y-88099282D02*
X112150711Y-88099282D01*
X112079282Y-88134997D01*
X112043568Y-88170711D01*
X112007854Y-88242139D01*
X111972139Y-88384997D01*
X111972139Y-88563568D01*
X112007854Y-88706425D01*
X112043568Y-88777854D01*
X112079282Y-88813568D01*
X112150711Y-88849282D01*
X112222139Y-88849282D01*
X112293568Y-88813568D01*
X112329282Y-88777854D01*
X112364997Y-88706425D01*
X112400711Y-88563568D01*
X112400711Y-88384997D01*
X112364997Y-88242139D01*
X112329282Y-88170711D01*
X112293568Y-88134997D01*
X112222139Y-88099282D01*
X111650711Y-88349282D02*
X111650711Y-88849282D01*
X111650711Y-88420711D02*
X111614997Y-88384997D01*
X111543568Y-88349282D01*
X111436425Y-88349282D01*
X111364997Y-88384997D01*
X111329282Y-88456425D01*
X111329282Y-88849282D01*
X110722139Y-88456425D02*
X110972139Y-88456425D01*
X110972139Y-88849282D02*
X110972139Y-88099282D01*
X110614997Y-88099282D01*
G04 #@! TO.C,U6*
X178771425Y-41359282D02*
X178771425Y-41966425D01*
X178735711Y-42037854D01*
X178699997Y-42073568D01*
X178628568Y-42109282D01*
X178485711Y-42109282D01*
X178414282Y-42073568D01*
X178378568Y-42037854D01*
X178342854Y-41966425D01*
X178342854Y-41359282D01*
X177664282Y-41359282D02*
X177807139Y-41359282D01*
X177878568Y-41394997D01*
X177914282Y-41430711D01*
X177985711Y-41537854D01*
X178021425Y-41680711D01*
X178021425Y-41966425D01*
X177985711Y-42037854D01*
X177949997Y-42073568D01*
X177878568Y-42109282D01*
X177735711Y-42109282D01*
X177664282Y-42073568D01*
X177628568Y-42037854D01*
X177592854Y-41966425D01*
X177592854Y-41787854D01*
X177628568Y-41716425D01*
X177664282Y-41680711D01*
X177735711Y-41644997D01*
X177878568Y-41644997D01*
X177949997Y-41680711D01*
X177985711Y-41716425D01*
X178021425Y-41787854D01*
X181331568Y-48590282D02*
X181688711Y-48590282D01*
X181688711Y-47840282D01*
X181152997Y-47840282D02*
X180652997Y-47840282D01*
X180974425Y-48590282D01*
X180331568Y-48590282D02*
X180188711Y-48590282D01*
X180117282Y-48554568D01*
X180081568Y-48518854D01*
X180010139Y-48411711D01*
X179974425Y-48268854D01*
X179974425Y-47983139D01*
X180010139Y-47911711D01*
X180045854Y-47875997D01*
X180117282Y-47840282D01*
X180260139Y-47840282D01*
X180331568Y-47875997D01*
X180367282Y-47911711D01*
X180402997Y-47983139D01*
X180402997Y-48161711D01*
X180367282Y-48233139D01*
X180331568Y-48268854D01*
X180260139Y-48304568D01*
X180117282Y-48304568D01*
X180045854Y-48268854D01*
X180010139Y-48233139D01*
X179974425Y-48161711D01*
X179295854Y-48590282D02*
X179652997Y-48590282D01*
X179652997Y-47840282D01*
X178902997Y-47840282D02*
X178831568Y-47840282D01*
X178760139Y-47875997D01*
X178724425Y-47911711D01*
X178688711Y-47983139D01*
X178652997Y-48125997D01*
X178652997Y-48304568D01*
X178688711Y-48447425D01*
X178724425Y-48518854D01*
X178760139Y-48554568D01*
X178831568Y-48590282D01*
X178902997Y-48590282D01*
X178974425Y-48554568D01*
X179010139Y-48518854D01*
X179045854Y-48447425D01*
X179081568Y-48304568D01*
X179081568Y-48125997D01*
X179045854Y-47983139D01*
X179010139Y-47911711D01*
X178974425Y-47875997D01*
X178902997Y-47840282D01*
X177974425Y-47840282D02*
X178331568Y-47840282D01*
X178367282Y-48197425D01*
X178331568Y-48161711D01*
X178260139Y-48125997D01*
X178081568Y-48125997D01*
X178010139Y-48161711D01*
X177974425Y-48197425D01*
X177938711Y-48268854D01*
X177938711Y-48447425D01*
X177974425Y-48518854D01*
X178010139Y-48554568D01*
X178081568Y-48590282D01*
X178260139Y-48590282D01*
X178331568Y-48554568D01*
X178367282Y-48518854D01*
X177795854Y-48661711D02*
X177224425Y-48661711D01*
X177152997Y-47840282D02*
X176724425Y-47840282D01*
X176938711Y-48590282D02*
X176938711Y-47840282D01*
X176331568Y-47840282D02*
X176188711Y-47840282D01*
X176117282Y-47875997D01*
X176045854Y-47947425D01*
X176010139Y-48090282D01*
X176010139Y-48340282D01*
X176045854Y-48483139D01*
X176117282Y-48554568D01*
X176188711Y-48590282D01*
X176331568Y-48590282D01*
X176402997Y-48554568D01*
X176474425Y-48483139D01*
X176510139Y-48340282D01*
X176510139Y-48090282D01*
X176474425Y-47947425D01*
X176402997Y-47875997D01*
X176331568Y-47840282D01*
X175652997Y-48590282D02*
X175510139Y-48590282D01*
X175438711Y-48554568D01*
X175402997Y-48518854D01*
X175331568Y-48411711D01*
X175295854Y-48268854D01*
X175295854Y-47983139D01*
X175331568Y-47911711D01*
X175367282Y-47875997D01*
X175438711Y-47840282D01*
X175581568Y-47840282D01*
X175652997Y-47875997D01*
X175688711Y-47911711D01*
X175724425Y-47983139D01*
X175724425Y-48161711D01*
X175688711Y-48233139D01*
X175652997Y-48268854D01*
X175581568Y-48304568D01*
X175438711Y-48304568D01*
X175367282Y-48268854D01*
X175331568Y-48233139D01*
X175295854Y-48161711D01*
X175010139Y-47911711D02*
X174974425Y-47875997D01*
X174902997Y-47840282D01*
X174724425Y-47840282D01*
X174652997Y-47875997D01*
X174617282Y-47911711D01*
X174581568Y-47983139D01*
X174581568Y-48054568D01*
X174617282Y-48161711D01*
X175045854Y-48590282D01*
X174581568Y-48590282D01*
G04 #@! TO.C,C4*
X148559997Y-116717854D02*
X148595711Y-116753568D01*
X148702854Y-116789282D01*
X148774282Y-116789282D01*
X148881425Y-116753568D01*
X148952854Y-116682139D01*
X148988568Y-116610711D01*
X149024282Y-116467854D01*
X149024282Y-116360711D01*
X148988568Y-116217854D01*
X148952854Y-116146425D01*
X148881425Y-116074997D01*
X148774282Y-116039282D01*
X148702854Y-116039282D01*
X148595711Y-116074997D01*
X148559997Y-116110711D01*
X147917139Y-116289282D02*
X147917139Y-116789282D01*
X148095711Y-116003568D02*
X148274282Y-116539282D01*
X147809997Y-116539282D01*
X142102711Y-116662282D02*
X142531282Y-116662282D01*
X142316997Y-116662282D02*
X142316997Y-115912282D01*
X142388425Y-116019425D01*
X142459854Y-116090854D01*
X142531282Y-116126568D01*
X141638425Y-115912282D02*
X141566997Y-115912282D01*
X141495568Y-115947997D01*
X141459854Y-115983711D01*
X141424139Y-116055139D01*
X141388425Y-116197997D01*
X141388425Y-116376568D01*
X141424139Y-116519425D01*
X141459854Y-116590854D01*
X141495568Y-116626568D01*
X141566997Y-116662282D01*
X141638425Y-116662282D01*
X141709854Y-116626568D01*
X141745568Y-116590854D01*
X141781282Y-116519425D01*
X141816997Y-116376568D01*
X141816997Y-116197997D01*
X141781282Y-116055139D01*
X141745568Y-115983711D01*
X141709854Y-115947997D01*
X141638425Y-115912282D01*
X140924139Y-115912282D02*
X140852711Y-115912282D01*
X140781282Y-115947997D01*
X140745568Y-115983711D01*
X140709854Y-116055139D01*
X140674139Y-116197997D01*
X140674139Y-116376568D01*
X140709854Y-116519425D01*
X140745568Y-116590854D01*
X140781282Y-116626568D01*
X140852711Y-116662282D01*
X140924139Y-116662282D01*
X140995568Y-116626568D01*
X141031282Y-116590854D01*
X141066997Y-116519425D01*
X141102711Y-116376568D01*
X141102711Y-116197997D01*
X141066997Y-116055139D01*
X141031282Y-115983711D01*
X140995568Y-115947997D01*
X140924139Y-115912282D01*
X140352711Y-116162282D02*
X140352711Y-116662282D01*
X140352711Y-116233711D02*
X140316997Y-116197997D01*
X140245568Y-116162282D01*
X140138425Y-116162282D01*
X140066997Y-116197997D01*
X140031282Y-116269425D01*
X140031282Y-116662282D01*
X139424139Y-116269425D02*
X139674139Y-116269425D01*
X139674139Y-116662282D02*
X139674139Y-115912282D01*
X139316997Y-115912282D01*
G04 #@! TO.C,R13*
X149298139Y-74879282D02*
X149548139Y-74522139D01*
X149726711Y-74879282D02*
X149726711Y-74129282D01*
X149440997Y-74129282D01*
X149369568Y-74164997D01*
X149333854Y-74200711D01*
X149298139Y-74272139D01*
X149298139Y-74379282D01*
X149333854Y-74450711D01*
X149369568Y-74486425D01*
X149440997Y-74522139D01*
X149726711Y-74522139D01*
X148583854Y-74879282D02*
X149012425Y-74879282D01*
X148798139Y-74879282D02*
X148798139Y-74129282D01*
X148869568Y-74236425D01*
X148940997Y-74307854D01*
X149012425Y-74343568D01*
X148333854Y-74129282D02*
X147869568Y-74129282D01*
X148119568Y-74414997D01*
X148012425Y-74414997D01*
X147940997Y-74450711D01*
X147905282Y-74486425D01*
X147869568Y-74557854D01*
X147869568Y-74736425D01*
X147905282Y-74807854D01*
X147940997Y-74843568D01*
X148012425Y-74879282D01*
X148226711Y-74879282D01*
X148298139Y-74843568D01*
X148333854Y-74807854D01*
X142074997Y-74879282D02*
X142503568Y-74879282D01*
X142289282Y-74879282D02*
X142289282Y-74129282D01*
X142360711Y-74236425D01*
X142432139Y-74307854D01*
X142503568Y-74343568D01*
X141753568Y-74807854D02*
X141717854Y-74843568D01*
X141753568Y-74879282D01*
X141789282Y-74843568D01*
X141753568Y-74807854D01*
X141753568Y-74879282D01*
X141289282Y-74450711D02*
X141360711Y-74414997D01*
X141396425Y-74379282D01*
X141432139Y-74307854D01*
X141432139Y-74272139D01*
X141396425Y-74200711D01*
X141360711Y-74164997D01*
X141289282Y-74129282D01*
X141146425Y-74129282D01*
X141074997Y-74164997D01*
X141039282Y-74200711D01*
X141003568Y-74272139D01*
X141003568Y-74307854D01*
X141039282Y-74379282D01*
X141074997Y-74414997D01*
X141146425Y-74450711D01*
X141289282Y-74450711D01*
X141360711Y-74486425D01*
X141396425Y-74522139D01*
X141432139Y-74593568D01*
X141432139Y-74736425D01*
X141396425Y-74807854D01*
X141360711Y-74843568D01*
X141289282Y-74879282D01*
X141146425Y-74879282D01*
X141074997Y-74843568D01*
X141039282Y-74807854D01*
X141003568Y-74736425D01*
X141003568Y-74593568D01*
X141039282Y-74522139D01*
X141074997Y-74486425D01*
X141146425Y-74450711D01*
X140682139Y-74879282D02*
X140682139Y-74129282D01*
X140610711Y-74593568D02*
X140396425Y-74879282D01*
X140396425Y-74379282D02*
X140682139Y-74664997D01*
G04 #@! TO.C,D2*
X161688568Y-48717282D02*
X161688568Y-47967282D01*
X161509997Y-47967282D01*
X161402854Y-48002997D01*
X161331425Y-48074425D01*
X161295711Y-48145854D01*
X161259997Y-48288711D01*
X161259997Y-48395854D01*
X161295711Y-48538711D01*
X161331425Y-48610139D01*
X161402854Y-48681568D01*
X161509997Y-48717282D01*
X161688568Y-48717282D01*
X160974282Y-48038711D02*
X160938568Y-48002997D01*
X160867139Y-47967282D01*
X160688568Y-47967282D01*
X160617139Y-48002997D01*
X160581425Y-48038711D01*
X160545711Y-48110139D01*
X160545711Y-48181568D01*
X160581425Y-48288711D01*
X161009997Y-48717282D01*
X160545711Y-48717282D01*
X156886425Y-48717282D02*
X156886425Y-47967282D01*
X156457854Y-48717282D02*
X156779282Y-48288711D01*
X156457854Y-47967282D02*
X156886425Y-48395854D01*
X154741139Y-50749282D02*
X155169711Y-50749282D01*
X154955425Y-50749282D02*
X154955425Y-49999282D01*
X155026854Y-50106425D01*
X155098282Y-50177854D01*
X155169711Y-50213568D01*
X154419711Y-50749282D02*
X154419711Y-49999282D01*
X153991139Y-50749282D01*
X153991139Y-49999282D01*
X153312568Y-50249282D02*
X153312568Y-50749282D01*
X153491139Y-49963568D02*
X153669711Y-50499282D01*
X153205425Y-50499282D01*
X152526854Y-50749282D02*
X152955425Y-50749282D01*
X152741139Y-50749282D02*
X152741139Y-49999282D01*
X152812568Y-50106425D01*
X152883997Y-50177854D01*
X152955425Y-50213568D01*
X151883997Y-50249282D02*
X151883997Y-50749282D01*
X152062568Y-49963568D02*
X152241139Y-50499282D01*
X151776854Y-50499282D01*
X151383997Y-50320711D02*
X151455425Y-50284997D01*
X151491139Y-50249282D01*
X151526854Y-50177854D01*
X151526854Y-50142139D01*
X151491139Y-50070711D01*
X151455425Y-50034997D01*
X151383997Y-49999282D01*
X151241139Y-49999282D01*
X151169711Y-50034997D01*
X151133997Y-50070711D01*
X151098282Y-50142139D01*
X151098282Y-50177854D01*
X151133997Y-50249282D01*
X151169711Y-50284997D01*
X151241139Y-50320711D01*
X151383997Y-50320711D01*
X151455425Y-50356425D01*
X151491139Y-50392139D01*
X151526854Y-50463568D01*
X151526854Y-50606425D01*
X151491139Y-50677854D01*
X151455425Y-50713568D01*
X151383997Y-50749282D01*
X151241139Y-50749282D01*
X151169711Y-50713568D01*
X151133997Y-50677854D01*
X151098282Y-50606425D01*
X151098282Y-50463568D01*
X151133997Y-50392139D01*
X151169711Y-50356425D01*
X151241139Y-50320711D01*
G04 #@! TO.C,R19*
X190319139Y-85293282D02*
X190569139Y-84936139D01*
X190747711Y-85293282D02*
X190747711Y-84543282D01*
X190461997Y-84543282D01*
X190390568Y-84578997D01*
X190354854Y-84614711D01*
X190319139Y-84686139D01*
X190319139Y-84793282D01*
X190354854Y-84864711D01*
X190390568Y-84900425D01*
X190461997Y-84936139D01*
X190747711Y-84936139D01*
X189604854Y-85293282D02*
X190033425Y-85293282D01*
X189819139Y-85293282D02*
X189819139Y-84543282D01*
X189890568Y-84650425D01*
X189961997Y-84721854D01*
X190033425Y-84757568D01*
X189247711Y-85293282D02*
X189104854Y-85293282D01*
X189033425Y-85257568D01*
X188997711Y-85221854D01*
X188926282Y-85114711D01*
X188890568Y-84971854D01*
X188890568Y-84686139D01*
X188926282Y-84614711D01*
X188961997Y-84578997D01*
X189033425Y-84543282D01*
X189176282Y-84543282D01*
X189247711Y-84578997D01*
X189283425Y-84614711D01*
X189319139Y-84686139D01*
X189319139Y-84864711D01*
X189283425Y-84936139D01*
X189247711Y-84971854D01*
X189176282Y-85007568D01*
X189033425Y-85007568D01*
X188961997Y-84971854D01*
X188926282Y-84936139D01*
X188890568Y-84864711D01*
X189924282Y-87579282D02*
X190352854Y-87579282D01*
X190138568Y-87579282D02*
X190138568Y-86829282D01*
X190209997Y-86936425D01*
X190281425Y-87007854D01*
X190352854Y-87043568D01*
X189602854Y-87579282D02*
X189602854Y-86829282D01*
X189352854Y-87364997D01*
X189102854Y-86829282D01*
X189102854Y-87579282D01*
G04 #@! TO.C,J2*
X164643330Y-72932377D02*
X164643330Y-73646663D01*
X164690949Y-73789520D01*
X164786187Y-73884758D01*
X164929044Y-73932377D01*
X165024282Y-73932377D01*
X164214758Y-73027616D02*
X164167139Y-72979997D01*
X164071901Y-72932377D01*
X163833806Y-72932377D01*
X163738568Y-72979997D01*
X163690949Y-73027616D01*
X163643330Y-73122854D01*
X163643330Y-73218092D01*
X163690949Y-73360949D01*
X164262377Y-73932377D01*
X163643330Y-73932377D01*
G04 #@! TO.C,U3*
X152181425Y-59270282D02*
X152181425Y-59877425D01*
X152145711Y-59948854D01*
X152109997Y-59984568D01*
X152038568Y-60020282D01*
X151895711Y-60020282D01*
X151824282Y-59984568D01*
X151788568Y-59948854D01*
X151752854Y-59877425D01*
X151752854Y-59270282D01*
X151467139Y-59270282D02*
X151002854Y-59270282D01*
X151252854Y-59555997D01*
X151145711Y-59555997D01*
X151074282Y-59591711D01*
X151038568Y-59627425D01*
X151002854Y-59698854D01*
X151002854Y-59877425D01*
X151038568Y-59948854D01*
X151074282Y-59984568D01*
X151145711Y-60020282D01*
X151359997Y-60020282D01*
X151431425Y-59984568D01*
X151467139Y-59948854D01*
X155534997Y-68434282D02*
X155534997Y-68791425D01*
X155749282Y-68362854D02*
X154999282Y-68612854D01*
X155749282Y-68862854D01*
X155713568Y-69077139D02*
X155749282Y-69184282D01*
X155749282Y-69362854D01*
X155713568Y-69434282D01*
X155677854Y-69469997D01*
X155606425Y-69505711D01*
X155534997Y-69505711D01*
X155463568Y-69469997D01*
X155427854Y-69434282D01*
X155392139Y-69362854D01*
X155356425Y-69219997D01*
X155320711Y-69148568D01*
X155284997Y-69112854D01*
X155213568Y-69077139D01*
X155142139Y-69077139D01*
X155070711Y-69112854D01*
X155034997Y-69148568D01*
X154999282Y-69219997D01*
X154999282Y-69398568D01*
X155034997Y-69505711D01*
X154999282Y-69755711D02*
X154999282Y-70219997D01*
X155284997Y-69969997D01*
X155284997Y-70077139D01*
X155320711Y-70148568D01*
X155356425Y-70184282D01*
X155427854Y-70219997D01*
X155606425Y-70219997D01*
X155677854Y-70184282D01*
X155713568Y-70148568D01*
X155749282Y-70077139D01*
X155749282Y-69862854D01*
X155713568Y-69791425D01*
X155677854Y-69755711D01*
X154999282Y-70469997D02*
X154999282Y-70934282D01*
X155284997Y-70684282D01*
X155284997Y-70791425D01*
X155320711Y-70862854D01*
X155356425Y-70898568D01*
X155427854Y-70934282D01*
X155606425Y-70934282D01*
X155677854Y-70898568D01*
X155713568Y-70862854D01*
X155749282Y-70791425D01*
X155749282Y-70577139D01*
X155713568Y-70505711D01*
X155677854Y-70469997D01*
X155249282Y-71577139D02*
X155749282Y-71577139D01*
X154963568Y-71398568D02*
X155499282Y-71219997D01*
X155499282Y-71684282D01*
X154999282Y-72112854D02*
X154999282Y-72184282D01*
X155034997Y-72255711D01*
X155070711Y-72291425D01*
X155142139Y-72327139D01*
X155284997Y-72362854D01*
X155463568Y-72362854D01*
X155606425Y-72327139D01*
X155677854Y-72291425D01*
X155713568Y-72255711D01*
X155749282Y-72184282D01*
X155749282Y-72112854D01*
X155713568Y-72041425D01*
X155677854Y-72005711D01*
X155606425Y-71969997D01*
X155463568Y-71934282D01*
X155284997Y-71934282D01*
X155142139Y-71969997D01*
X155070711Y-72005711D01*
X155034997Y-72041425D01*
X154999282Y-72112854D01*
X155534997Y-72648568D02*
X155534997Y-73005711D01*
X155749282Y-72577139D02*
X154999282Y-72827139D01*
X155749282Y-73077139D01*
G04 #@! TO.C,R22*
X106499139Y-85039282D02*
X106749139Y-84682139D01*
X106927711Y-85039282D02*
X106927711Y-84289282D01*
X106641997Y-84289282D01*
X106570568Y-84324997D01*
X106534854Y-84360711D01*
X106499139Y-84432139D01*
X106499139Y-84539282D01*
X106534854Y-84610711D01*
X106570568Y-84646425D01*
X106641997Y-84682139D01*
X106927711Y-84682139D01*
X106213425Y-84360711D02*
X106177711Y-84324997D01*
X106106282Y-84289282D01*
X105927711Y-84289282D01*
X105856282Y-84324997D01*
X105820568Y-84360711D01*
X105784854Y-84432139D01*
X105784854Y-84503568D01*
X105820568Y-84610711D01*
X106249139Y-85039282D01*
X105784854Y-85039282D01*
X105499139Y-84360711D02*
X105463425Y-84324997D01*
X105391997Y-84289282D01*
X105213425Y-84289282D01*
X105141997Y-84324997D01*
X105106282Y-84360711D01*
X105070568Y-84432139D01*
X105070568Y-84503568D01*
X105106282Y-84610711D01*
X105534854Y-85039282D01*
X105070568Y-85039282D01*
X113956425Y-85039282D02*
X114384997Y-85039282D01*
X114170711Y-85039282D02*
X114170711Y-84289282D01*
X114242139Y-84396425D01*
X114313568Y-84467854D01*
X114384997Y-84503568D01*
X113492139Y-84289282D02*
X113420711Y-84289282D01*
X113349282Y-84324997D01*
X113313568Y-84360711D01*
X113277854Y-84432139D01*
X113242139Y-84574997D01*
X113242139Y-84753568D01*
X113277854Y-84896425D01*
X113313568Y-84967854D01*
X113349282Y-85003568D01*
X113420711Y-85039282D01*
X113492139Y-85039282D01*
X113563568Y-85003568D01*
X113599282Y-84967854D01*
X113634997Y-84896425D01*
X113670711Y-84753568D01*
X113670711Y-84574997D01*
X113634997Y-84432139D01*
X113599282Y-84360711D01*
X113563568Y-84324997D01*
X113492139Y-84289282D01*
X112920711Y-85039282D02*
X112920711Y-84289282D01*
X112849282Y-84753568D02*
X112634997Y-85039282D01*
X112634997Y-84539282D02*
X112920711Y-84824997D01*
G04 #@! TO.C,R30*
X190192139Y-75049282D02*
X190442139Y-74692139D01*
X190620711Y-75049282D02*
X190620711Y-74299282D01*
X190334997Y-74299282D01*
X190263568Y-74334997D01*
X190227854Y-74370711D01*
X190192139Y-74442139D01*
X190192139Y-74549282D01*
X190227854Y-74620711D01*
X190263568Y-74656425D01*
X190334997Y-74692139D01*
X190620711Y-74692139D01*
X189942139Y-74299282D02*
X189477854Y-74299282D01*
X189727854Y-74584997D01*
X189620711Y-74584997D01*
X189549282Y-74620711D01*
X189513568Y-74656425D01*
X189477854Y-74727854D01*
X189477854Y-74906425D01*
X189513568Y-74977854D01*
X189549282Y-75013568D01*
X189620711Y-75049282D01*
X189834997Y-75049282D01*
X189906425Y-75013568D01*
X189942139Y-74977854D01*
X189013568Y-74299282D02*
X188942139Y-74299282D01*
X188870711Y-74334997D01*
X188834997Y-74370711D01*
X188799282Y-74442139D01*
X188763568Y-74584997D01*
X188763568Y-74763568D01*
X188799282Y-74906425D01*
X188834997Y-74977854D01*
X188870711Y-75013568D01*
X188942139Y-75049282D01*
X189013568Y-75049282D01*
X189084997Y-75013568D01*
X189120711Y-74977854D01*
X189156425Y-74906425D01*
X189192139Y-74763568D01*
X189192139Y-74584997D01*
X189156425Y-74442139D01*
X189120711Y-74370711D01*
X189084997Y-74334997D01*
X189013568Y-74299282D01*
X190584997Y-76740711D02*
X190549282Y-76704997D01*
X190477854Y-76669282D01*
X190299282Y-76669282D01*
X190227854Y-76704997D01*
X190192139Y-76740711D01*
X190156425Y-76812139D01*
X190156425Y-76883568D01*
X190192139Y-76990711D01*
X190620711Y-77419282D01*
X190156425Y-77419282D01*
X189692139Y-76669282D02*
X189620711Y-76669282D01*
X189549282Y-76704997D01*
X189513568Y-76740711D01*
X189477854Y-76812139D01*
X189442139Y-76954997D01*
X189442139Y-77133568D01*
X189477854Y-77276425D01*
X189513568Y-77347854D01*
X189549282Y-77383568D01*
X189620711Y-77419282D01*
X189692139Y-77419282D01*
X189763568Y-77383568D01*
X189799282Y-77347854D01*
X189834997Y-77276425D01*
X189870711Y-77133568D01*
X189870711Y-76954997D01*
X189834997Y-76812139D01*
X189799282Y-76740711D01*
X189763568Y-76704997D01*
X189692139Y-76669282D01*
X189120711Y-77419282D02*
X189120711Y-76669282D01*
X189049282Y-77133568D02*
X188834997Y-77419282D01*
X188834997Y-76919282D02*
X189120711Y-77204997D01*
G04 #@! TO.C,C1*
X162577854Y-66294997D02*
X162613568Y-66259282D01*
X162649282Y-66152139D01*
X162649282Y-66080711D01*
X162613568Y-65973568D01*
X162542139Y-65902139D01*
X162470711Y-65866425D01*
X162327854Y-65830711D01*
X162220711Y-65830711D01*
X162077854Y-65866425D01*
X162006425Y-65902139D01*
X161934997Y-65973568D01*
X161899282Y-66080711D01*
X161899282Y-66152139D01*
X161934997Y-66259282D01*
X161970711Y-66294997D01*
X162649282Y-67009282D02*
X162649282Y-66580711D01*
X162649282Y-66794997D02*
X161899282Y-66794997D01*
X162006425Y-66723568D01*
X162077854Y-66652139D01*
X162113568Y-66580711D01*
X162649282Y-68759282D02*
X162649282Y-68330711D01*
X162649282Y-68544997D02*
X161899282Y-68544997D01*
X162006425Y-68473568D01*
X162077854Y-68402139D01*
X162113568Y-68330711D01*
X161899282Y-69223568D02*
X161899282Y-69294997D01*
X161934997Y-69366425D01*
X161970711Y-69402139D01*
X162042139Y-69437854D01*
X162184997Y-69473568D01*
X162363568Y-69473568D01*
X162506425Y-69437854D01*
X162577854Y-69402139D01*
X162613568Y-69366425D01*
X162649282Y-69294997D01*
X162649282Y-69223568D01*
X162613568Y-69152139D01*
X162577854Y-69116425D01*
X162506425Y-69080711D01*
X162363568Y-69044997D01*
X162184997Y-69044997D01*
X162042139Y-69080711D01*
X161970711Y-69116425D01*
X161934997Y-69152139D01*
X161899282Y-69223568D01*
X161899282Y-69937854D02*
X161899282Y-70009282D01*
X161934997Y-70080711D01*
X161970711Y-70116425D01*
X162042139Y-70152139D01*
X162184997Y-70187854D01*
X162363568Y-70187854D01*
X162506425Y-70152139D01*
X162577854Y-70116425D01*
X162613568Y-70080711D01*
X162649282Y-70009282D01*
X162649282Y-69937854D01*
X162613568Y-69866425D01*
X162577854Y-69830711D01*
X162506425Y-69794997D01*
X162363568Y-69759282D01*
X162184997Y-69759282D01*
X162042139Y-69794997D01*
X161970711Y-69830711D01*
X161934997Y-69866425D01*
X161899282Y-69937854D01*
X162149282Y-70509282D02*
X162649282Y-70509282D01*
X162220711Y-70509282D02*
X162184997Y-70544997D01*
X162149282Y-70616425D01*
X162149282Y-70723568D01*
X162184997Y-70794997D01*
X162256425Y-70830711D01*
X162649282Y-70830711D01*
X162256425Y-71437854D02*
X162256425Y-71187854D01*
X162649282Y-71187854D02*
X161899282Y-71187854D01*
X161899282Y-71544997D01*
G04 #@! TO.C,R5*
X133573997Y-115646282D02*
X133823997Y-115289139D01*
X134002568Y-115646282D02*
X134002568Y-114896282D01*
X133716854Y-114896282D01*
X133645425Y-114931997D01*
X133609711Y-114967711D01*
X133573997Y-115039139D01*
X133573997Y-115146282D01*
X133609711Y-115217711D01*
X133645425Y-115253425D01*
X133716854Y-115289139D01*
X134002568Y-115289139D01*
X132895425Y-114896282D02*
X133252568Y-114896282D01*
X133288282Y-115253425D01*
X133252568Y-115217711D01*
X133181139Y-115181997D01*
X133002568Y-115181997D01*
X132931139Y-115217711D01*
X132895425Y-115253425D01*
X132859711Y-115324854D01*
X132859711Y-115503425D01*
X132895425Y-115574854D01*
X132931139Y-115610568D01*
X133002568Y-115646282D01*
X133181139Y-115646282D01*
X133252568Y-115610568D01*
X133288282Y-115574854D01*
X127013568Y-115519282D02*
X127442139Y-115519282D01*
X127227854Y-115519282D02*
X127227854Y-114769282D01*
X127299282Y-114876425D01*
X127370711Y-114947854D01*
X127442139Y-114983568D01*
X126549282Y-114769282D02*
X126477854Y-114769282D01*
X126406425Y-114804997D01*
X126370711Y-114840711D01*
X126334997Y-114912139D01*
X126299282Y-115054997D01*
X126299282Y-115233568D01*
X126334997Y-115376425D01*
X126370711Y-115447854D01*
X126406425Y-115483568D01*
X126477854Y-115519282D01*
X126549282Y-115519282D01*
X126620711Y-115483568D01*
X126656425Y-115447854D01*
X126692139Y-115376425D01*
X126727854Y-115233568D01*
X126727854Y-115054997D01*
X126692139Y-114912139D01*
X126656425Y-114840711D01*
X126620711Y-114804997D01*
X126549282Y-114769282D01*
X125834997Y-114769282D02*
X125763568Y-114769282D01*
X125692139Y-114804997D01*
X125656425Y-114840711D01*
X125620711Y-114912139D01*
X125584997Y-115054997D01*
X125584997Y-115233568D01*
X125620711Y-115376425D01*
X125656425Y-115447854D01*
X125692139Y-115483568D01*
X125763568Y-115519282D01*
X125834997Y-115519282D01*
X125906425Y-115483568D01*
X125942139Y-115447854D01*
X125977854Y-115376425D01*
X126013568Y-115233568D01*
X126013568Y-115054997D01*
X125977854Y-114912139D01*
X125942139Y-114840711D01*
X125906425Y-114804997D01*
X125834997Y-114769282D01*
X125263568Y-115519282D02*
X125263568Y-114769282D01*
X125192139Y-115233568D02*
X124977854Y-115519282D01*
X124977854Y-115019282D02*
X125263568Y-115304997D01*
G04 #@! TO.C,R6*
X133573997Y-111836282D02*
X133823997Y-111479139D01*
X134002568Y-111836282D02*
X134002568Y-111086282D01*
X133716854Y-111086282D01*
X133645425Y-111121997D01*
X133609711Y-111157711D01*
X133573997Y-111229139D01*
X133573997Y-111336282D01*
X133609711Y-111407711D01*
X133645425Y-111443425D01*
X133716854Y-111479139D01*
X134002568Y-111479139D01*
X132931139Y-111086282D02*
X133073997Y-111086282D01*
X133145425Y-111121997D01*
X133181139Y-111157711D01*
X133252568Y-111264854D01*
X133288282Y-111407711D01*
X133288282Y-111693425D01*
X133252568Y-111764854D01*
X133216854Y-111800568D01*
X133145425Y-111836282D01*
X133002568Y-111836282D01*
X132931139Y-111800568D01*
X132895425Y-111764854D01*
X132859711Y-111693425D01*
X132859711Y-111514854D01*
X132895425Y-111443425D01*
X132931139Y-111407711D01*
X133002568Y-111371997D01*
X133145425Y-111371997D01*
X133216854Y-111407711D01*
X133252568Y-111443425D01*
X133288282Y-111514854D01*
X127013568Y-111709282D02*
X127442139Y-111709282D01*
X127227854Y-111709282D02*
X127227854Y-110959282D01*
X127299282Y-111066425D01*
X127370711Y-111137854D01*
X127442139Y-111173568D01*
X126549282Y-110959282D02*
X126477854Y-110959282D01*
X126406425Y-110994997D01*
X126370711Y-111030711D01*
X126334997Y-111102139D01*
X126299282Y-111244997D01*
X126299282Y-111423568D01*
X126334997Y-111566425D01*
X126370711Y-111637854D01*
X126406425Y-111673568D01*
X126477854Y-111709282D01*
X126549282Y-111709282D01*
X126620711Y-111673568D01*
X126656425Y-111637854D01*
X126692139Y-111566425D01*
X126727854Y-111423568D01*
X126727854Y-111244997D01*
X126692139Y-111102139D01*
X126656425Y-111030711D01*
X126620711Y-110994997D01*
X126549282Y-110959282D01*
X125834997Y-110959282D02*
X125763568Y-110959282D01*
X125692139Y-110994997D01*
X125656425Y-111030711D01*
X125620711Y-111102139D01*
X125584997Y-111244997D01*
X125584997Y-111423568D01*
X125620711Y-111566425D01*
X125656425Y-111637854D01*
X125692139Y-111673568D01*
X125763568Y-111709282D01*
X125834997Y-111709282D01*
X125906425Y-111673568D01*
X125942139Y-111637854D01*
X125977854Y-111566425D01*
X126013568Y-111423568D01*
X126013568Y-111244997D01*
X125977854Y-111102139D01*
X125942139Y-111030711D01*
X125906425Y-110994997D01*
X125834997Y-110959282D01*
X125263568Y-111709282D02*
X125263568Y-110959282D01*
X125192139Y-111423568D02*
X124977854Y-111709282D01*
X124977854Y-111209282D02*
X125263568Y-111494997D01*
G04 #@! TO.C,R9*
X180944997Y-110439282D02*
X181194997Y-110082139D01*
X181373568Y-110439282D02*
X181373568Y-109689282D01*
X181087854Y-109689282D01*
X181016425Y-109724997D01*
X180980711Y-109760711D01*
X180944997Y-109832139D01*
X180944997Y-109939282D01*
X180980711Y-110010711D01*
X181016425Y-110046425D01*
X181087854Y-110082139D01*
X181373568Y-110082139D01*
X180587854Y-110439282D02*
X180444997Y-110439282D01*
X180373568Y-110403568D01*
X180337854Y-110367854D01*
X180266425Y-110260711D01*
X180230711Y-110117854D01*
X180230711Y-109832139D01*
X180266425Y-109760711D01*
X180302139Y-109724997D01*
X180373568Y-109689282D01*
X180516425Y-109689282D01*
X180587854Y-109724997D01*
X180623568Y-109760711D01*
X180659282Y-109832139D01*
X180659282Y-110010711D01*
X180623568Y-110082139D01*
X180587854Y-110117854D01*
X180516425Y-110153568D01*
X180373568Y-110153568D01*
X180302139Y-110117854D01*
X180266425Y-110082139D01*
X180230711Y-110010711D01*
X173646425Y-110439282D02*
X174074997Y-110439282D01*
X173860711Y-110439282D02*
X173860711Y-109689282D01*
X173932139Y-109796425D01*
X174003568Y-109867854D01*
X174074997Y-109903568D01*
X173182139Y-109689282D02*
X173110711Y-109689282D01*
X173039282Y-109724997D01*
X173003568Y-109760711D01*
X172967854Y-109832139D01*
X172932139Y-109974997D01*
X172932139Y-110153568D01*
X172967854Y-110296425D01*
X173003568Y-110367854D01*
X173039282Y-110403568D01*
X173110711Y-110439282D01*
X173182139Y-110439282D01*
X173253568Y-110403568D01*
X173289282Y-110367854D01*
X173324997Y-110296425D01*
X173360711Y-110153568D01*
X173360711Y-109974997D01*
X173324997Y-109832139D01*
X173289282Y-109760711D01*
X173253568Y-109724997D01*
X173182139Y-109689282D01*
X172610711Y-110439282D02*
X172610711Y-109689282D01*
X172539282Y-110153568D02*
X172324997Y-110439282D01*
X172324997Y-109939282D02*
X172610711Y-110224997D01*
G04 #@! TO.C,R20*
X190192139Y-54686282D02*
X190442139Y-54329139D01*
X190620711Y-54686282D02*
X190620711Y-53936282D01*
X190334997Y-53936282D01*
X190263568Y-53971997D01*
X190227854Y-54007711D01*
X190192139Y-54079139D01*
X190192139Y-54186282D01*
X190227854Y-54257711D01*
X190263568Y-54293425D01*
X190334997Y-54329139D01*
X190620711Y-54329139D01*
X189906425Y-54007711D02*
X189870711Y-53971997D01*
X189799282Y-53936282D01*
X189620711Y-53936282D01*
X189549282Y-53971997D01*
X189513568Y-54007711D01*
X189477854Y-54079139D01*
X189477854Y-54150568D01*
X189513568Y-54257711D01*
X189942139Y-54686282D01*
X189477854Y-54686282D01*
X189013568Y-53936282D02*
X188942139Y-53936282D01*
X188870711Y-53971997D01*
X188834997Y-54007711D01*
X188799282Y-54079139D01*
X188763568Y-54221997D01*
X188763568Y-54400568D01*
X188799282Y-54543425D01*
X188834997Y-54614854D01*
X188870711Y-54650568D01*
X188942139Y-54686282D01*
X189013568Y-54686282D01*
X189084997Y-54650568D01*
X189120711Y-54614854D01*
X189156425Y-54543425D01*
X189192139Y-54400568D01*
X189192139Y-54221997D01*
X189156425Y-54079139D01*
X189120711Y-54007711D01*
X189084997Y-53971997D01*
X189013568Y-53936282D01*
X190227854Y-56599282D02*
X190227854Y-57099282D01*
X190406425Y-56313568D02*
X190584997Y-56849282D01*
X190120711Y-56849282D01*
X189906425Y-56349282D02*
X189406425Y-56349282D01*
X189727854Y-57099282D01*
X189120711Y-57099282D02*
X189120711Y-56349282D01*
X189049282Y-56813568D02*
X188834997Y-57099282D01*
X188834997Y-56599282D02*
X189120711Y-56884997D01*
G04 #@! TO.C,J1*
X164643330Y-133892377D02*
X164643330Y-134606663D01*
X164690949Y-134749520D01*
X164786187Y-134844758D01*
X164929044Y-134892377D01*
X165024282Y-134892377D01*
X163643330Y-134892377D02*
X164214758Y-134892377D01*
X163929044Y-134892377D02*
X163929044Y-133892377D01*
X164024282Y-134035235D01*
X164119520Y-134130473D01*
X164214758Y-134178092D01*
G04 #@! TO.C,R24*
X159632139Y-43383282D02*
X159882139Y-43026139D01*
X160060711Y-43383282D02*
X160060711Y-42633282D01*
X159774997Y-42633282D01*
X159703568Y-42668997D01*
X159667854Y-42704711D01*
X159632139Y-42776139D01*
X159632139Y-42883282D01*
X159667854Y-42954711D01*
X159703568Y-42990425D01*
X159774997Y-43026139D01*
X160060711Y-43026139D01*
X159346425Y-42704711D02*
X159310711Y-42668997D01*
X159239282Y-42633282D01*
X159060711Y-42633282D01*
X158989282Y-42668997D01*
X158953568Y-42704711D01*
X158917854Y-42776139D01*
X158917854Y-42847568D01*
X158953568Y-42954711D01*
X159382139Y-43383282D01*
X158917854Y-43383282D01*
X158274997Y-42883282D02*
X158274997Y-43383282D01*
X158453568Y-42597568D02*
X158632139Y-43133282D01*
X158167854Y-43133282D01*
X159239282Y-45669282D02*
X159667854Y-45669282D01*
X159453568Y-45669282D02*
X159453568Y-44919282D01*
X159524997Y-45026425D01*
X159596425Y-45097854D01*
X159667854Y-45133568D01*
X158917854Y-45669282D02*
X158917854Y-44919282D01*
X158846425Y-45383568D02*
X158632139Y-45669282D01*
X158632139Y-45169282D02*
X158917854Y-45454997D01*
G04 #@! TO.C,R31*
X181175139Y-102819282D02*
X181425139Y-102462139D01*
X181603711Y-102819282D02*
X181603711Y-102069282D01*
X181317997Y-102069282D01*
X181246568Y-102104997D01*
X181210854Y-102140711D01*
X181175139Y-102212139D01*
X181175139Y-102319282D01*
X181210854Y-102390711D01*
X181246568Y-102426425D01*
X181317997Y-102462139D01*
X181603711Y-102462139D01*
X180925139Y-102069282D02*
X180460854Y-102069282D01*
X180710854Y-102354997D01*
X180603711Y-102354997D01*
X180532282Y-102390711D01*
X180496568Y-102426425D01*
X180460854Y-102497854D01*
X180460854Y-102676425D01*
X180496568Y-102747854D01*
X180532282Y-102783568D01*
X180603711Y-102819282D01*
X180817997Y-102819282D01*
X180889425Y-102783568D01*
X180925139Y-102747854D01*
X179746568Y-102819282D02*
X180175139Y-102819282D01*
X179960854Y-102819282D02*
X179960854Y-102069282D01*
X180032282Y-102176425D01*
X180103711Y-102247854D01*
X180175139Y-102283568D01*
X173646425Y-102819282D02*
X174074997Y-102819282D01*
X173860711Y-102819282D02*
X173860711Y-102069282D01*
X173932139Y-102176425D01*
X174003568Y-102247854D01*
X174074997Y-102283568D01*
X173182139Y-102069282D02*
X173110711Y-102069282D01*
X173039282Y-102104997D01*
X173003568Y-102140711D01*
X172967854Y-102212139D01*
X172932139Y-102354997D01*
X172932139Y-102533568D01*
X172967854Y-102676425D01*
X173003568Y-102747854D01*
X173039282Y-102783568D01*
X173110711Y-102819282D01*
X173182139Y-102819282D01*
X173253568Y-102783568D01*
X173289282Y-102747854D01*
X173324997Y-102676425D01*
X173360711Y-102533568D01*
X173360711Y-102354997D01*
X173324997Y-102212139D01*
X173289282Y-102140711D01*
X173253568Y-102104997D01*
X173182139Y-102069282D01*
X172610711Y-102819282D02*
X172610711Y-102069282D01*
X172539282Y-102533568D02*
X172324997Y-102819282D01*
X172324997Y-102319282D02*
X172610711Y-102604997D01*
G04 #@! TO.C,R26*
X181302139Y-80086282D02*
X181552139Y-79729139D01*
X181730711Y-80086282D02*
X181730711Y-79336282D01*
X181444997Y-79336282D01*
X181373568Y-79371997D01*
X181337854Y-79407711D01*
X181302139Y-79479139D01*
X181302139Y-79586282D01*
X181337854Y-79657711D01*
X181373568Y-79693425D01*
X181444997Y-79729139D01*
X181730711Y-79729139D01*
X181016425Y-79407711D02*
X180980711Y-79371997D01*
X180909282Y-79336282D01*
X180730711Y-79336282D01*
X180659282Y-79371997D01*
X180623568Y-79407711D01*
X180587854Y-79479139D01*
X180587854Y-79550568D01*
X180623568Y-79657711D01*
X181052139Y-80086282D01*
X180587854Y-80086282D01*
X179944997Y-79336282D02*
X180087854Y-79336282D01*
X180159282Y-79371997D01*
X180194997Y-79407711D01*
X180266425Y-79514854D01*
X180302139Y-79657711D01*
X180302139Y-79943425D01*
X180266425Y-80014854D01*
X180230711Y-80050568D01*
X180159282Y-80086282D01*
X180016425Y-80086282D01*
X179944997Y-80050568D01*
X179909282Y-80014854D01*
X179873568Y-79943425D01*
X179873568Y-79764854D01*
X179909282Y-79693425D01*
X179944997Y-79657711D01*
X180016425Y-79621997D01*
X180159282Y-79621997D01*
X180230711Y-79657711D01*
X180266425Y-79693425D01*
X180302139Y-79764854D01*
X174003568Y-79959282D02*
X174432139Y-79959282D01*
X174217854Y-79959282D02*
X174217854Y-79209282D01*
X174289282Y-79316425D01*
X174360711Y-79387854D01*
X174432139Y-79423568D01*
X173539282Y-79209282D02*
X173467854Y-79209282D01*
X173396425Y-79244997D01*
X173360711Y-79280711D01*
X173324997Y-79352139D01*
X173289282Y-79494997D01*
X173289282Y-79673568D01*
X173324997Y-79816425D01*
X173360711Y-79887854D01*
X173396425Y-79923568D01*
X173467854Y-79959282D01*
X173539282Y-79959282D01*
X173610711Y-79923568D01*
X173646425Y-79887854D01*
X173682139Y-79816425D01*
X173717854Y-79673568D01*
X173717854Y-79494997D01*
X173682139Y-79352139D01*
X173646425Y-79280711D01*
X173610711Y-79244997D01*
X173539282Y-79209282D01*
X172824997Y-79209282D02*
X172753568Y-79209282D01*
X172682139Y-79244997D01*
X172646425Y-79280711D01*
X172610711Y-79352139D01*
X172574997Y-79494997D01*
X172574997Y-79673568D01*
X172610711Y-79816425D01*
X172646425Y-79887854D01*
X172682139Y-79923568D01*
X172753568Y-79959282D01*
X172824997Y-79959282D01*
X172896425Y-79923568D01*
X172932139Y-79887854D01*
X172967854Y-79816425D01*
X173003568Y-79673568D01*
X173003568Y-79494997D01*
X172967854Y-79352139D01*
X172932139Y-79280711D01*
X172896425Y-79244997D01*
X172824997Y-79209282D01*
X172253568Y-79959282D02*
X172253568Y-79209282D01*
X172182139Y-79673568D02*
X171967854Y-79959282D01*
X171967854Y-79459282D02*
X172253568Y-79744997D01*
G04 #@! TO.C,D1*
X109237568Y-80594282D02*
X109237568Y-79844282D01*
X109058997Y-79844282D01*
X108951854Y-79879997D01*
X108880425Y-79951425D01*
X108844711Y-80022854D01*
X108808997Y-80165711D01*
X108808997Y-80272854D01*
X108844711Y-80415711D01*
X108880425Y-80487139D01*
X108951854Y-80558568D01*
X109058997Y-80594282D01*
X109237568Y-80594282D01*
X108094711Y-80594282D02*
X108523282Y-80594282D01*
X108308997Y-80594282D02*
X108308997Y-79844282D01*
X108380425Y-79951425D01*
X108451854Y-80022854D01*
X108523282Y-80058568D01*
X109021139Y-82118282D02*
X109449711Y-82118282D01*
X109235425Y-82118282D02*
X109235425Y-81368282D01*
X109306854Y-81475425D01*
X109378282Y-81546854D01*
X109449711Y-81582568D01*
X108699711Y-82118282D02*
X108699711Y-81368282D01*
X108271139Y-82118282D01*
X108271139Y-81368282D01*
X107592568Y-81618282D02*
X107592568Y-82118282D01*
X107771139Y-81332568D02*
X107949711Y-81868282D01*
X107485425Y-81868282D01*
X106806854Y-82118282D02*
X107235425Y-82118282D01*
X107021139Y-82118282D02*
X107021139Y-81368282D01*
X107092568Y-81475425D01*
X107163997Y-81546854D01*
X107235425Y-81582568D01*
X106163997Y-81618282D02*
X106163997Y-82118282D01*
X106342568Y-81332568D02*
X106521139Y-81868282D01*
X106056854Y-81868282D01*
X105663997Y-81689711D02*
X105735425Y-81653997D01*
X105771139Y-81618282D01*
X105806854Y-81546854D01*
X105806854Y-81511139D01*
X105771139Y-81439711D01*
X105735425Y-81403997D01*
X105663997Y-81368282D01*
X105521139Y-81368282D01*
X105449711Y-81403997D01*
X105413997Y-81439711D01*
X105378282Y-81511139D01*
X105378282Y-81546854D01*
X105413997Y-81618282D01*
X105449711Y-81653997D01*
X105521139Y-81689711D01*
X105663997Y-81689711D01*
X105735425Y-81725425D01*
X105771139Y-81761139D01*
X105806854Y-81832568D01*
X105806854Y-81975425D01*
X105771139Y-82046854D01*
X105735425Y-82082568D01*
X105663997Y-82118282D01*
X105521139Y-82118282D01*
X105449711Y-82082568D01*
X105413997Y-82046854D01*
X105378282Y-81975425D01*
X105378282Y-81832568D01*
X105413997Y-81761139D01*
X105449711Y-81725425D01*
X105521139Y-81689711D01*
X111166425Y-83134282D02*
X111166425Y-82384282D01*
X110737854Y-83134282D02*
X111059282Y-82705711D01*
X110737854Y-82384282D02*
X111166425Y-82812854D01*
G04 #@! TO.C,R11*
X149298139Y-71069282D02*
X149548139Y-70712139D01*
X149726711Y-71069282D02*
X149726711Y-70319282D01*
X149440997Y-70319282D01*
X149369568Y-70354997D01*
X149333854Y-70390711D01*
X149298139Y-70462139D01*
X149298139Y-70569282D01*
X149333854Y-70640711D01*
X149369568Y-70676425D01*
X149440997Y-70712139D01*
X149726711Y-70712139D01*
X148583854Y-71069282D02*
X149012425Y-71069282D01*
X148798139Y-71069282D02*
X148798139Y-70319282D01*
X148869568Y-70426425D01*
X148940997Y-70497854D01*
X149012425Y-70533568D01*
X147869568Y-71069282D02*
X148298139Y-71069282D01*
X148083854Y-71069282D02*
X148083854Y-70319282D01*
X148155282Y-70426425D01*
X148226711Y-70497854D01*
X148298139Y-70533568D01*
X142396425Y-70569282D02*
X142396425Y-71069282D01*
X142574997Y-70283568D02*
X142753568Y-70819282D01*
X142289282Y-70819282D01*
X142074997Y-70319282D02*
X141574997Y-70319282D01*
X141896425Y-71069282D01*
X141146425Y-70319282D02*
X141074997Y-70319282D01*
X141003568Y-70354997D01*
X140967854Y-70390711D01*
X140932139Y-70462139D01*
X140896425Y-70604997D01*
X140896425Y-70783568D01*
X140932139Y-70926425D01*
X140967854Y-70997854D01*
X141003568Y-71033568D01*
X141074997Y-71069282D01*
X141146425Y-71069282D01*
X141217854Y-71033568D01*
X141253568Y-70997854D01*
X141289282Y-70926425D01*
X141324997Y-70783568D01*
X141324997Y-70604997D01*
X141289282Y-70462139D01*
X141253568Y-70390711D01*
X141217854Y-70354997D01*
X141146425Y-70319282D01*
X140146425Y-71069282D02*
X140396425Y-70712139D01*
X140574997Y-71069282D02*
X140574997Y-70319282D01*
X140289282Y-70319282D01*
X140217854Y-70354997D01*
X140182139Y-70390711D01*
X140146425Y-70462139D01*
X140146425Y-70569282D01*
X140182139Y-70640711D01*
X140217854Y-70676425D01*
X140289282Y-70712139D01*
X140574997Y-70712139D01*
G04 #@! TO.C,U1*
X156001425Y-125989282D02*
X156001425Y-126596425D01*
X155965711Y-126667854D01*
X155929997Y-126703568D01*
X155858568Y-126739282D01*
X155715711Y-126739282D01*
X155644282Y-126703568D01*
X155608568Y-126667854D01*
X155572854Y-126596425D01*
X155572854Y-125989282D01*
X154822854Y-126739282D02*
X155251425Y-126739282D01*
X155037139Y-126739282D02*
X155037139Y-125989282D01*
X155108568Y-126096425D01*
X155179997Y-126167854D01*
X155251425Y-126203568D01*
X155019282Y-114860711D02*
X155019282Y-115289282D01*
X155769282Y-115074997D02*
X155019282Y-115074997D01*
X155769282Y-115896425D02*
X155769282Y-115539282D01*
X155019282Y-115539282D01*
X155019282Y-116289282D02*
X155019282Y-116360711D01*
X155054997Y-116432139D01*
X155090711Y-116467854D01*
X155162139Y-116503568D01*
X155304997Y-116539282D01*
X155483568Y-116539282D01*
X155626425Y-116503568D01*
X155697854Y-116467854D01*
X155733568Y-116432139D01*
X155769282Y-116360711D01*
X155769282Y-116289282D01*
X155733568Y-116217854D01*
X155697854Y-116182139D01*
X155626425Y-116146425D01*
X155483568Y-116110711D01*
X155304997Y-116110711D01*
X155162139Y-116146425D01*
X155090711Y-116182139D01*
X155054997Y-116217854D01*
X155019282Y-116289282D01*
X155019282Y-116789282D02*
X155019282Y-117289282D01*
X155769282Y-116967854D01*
X155269282Y-117896425D02*
X155769282Y-117896425D01*
X154983568Y-117717854D02*
X155519282Y-117539282D01*
X155519282Y-118003568D01*
G04 #@! TO.C,J4*
X107409997Y-104609282D02*
X107409997Y-105144997D01*
X107445711Y-105252139D01*
X107517139Y-105323568D01*
X107624282Y-105359282D01*
X107695711Y-105359282D01*
X106731425Y-104859282D02*
X106731425Y-105359282D01*
X106909997Y-104573568D02*
X107088568Y-105109282D01*
X106624282Y-105109282D01*
G04 #@! TO.C,R27*
X181175139Y-99009282D02*
X181425139Y-98652139D01*
X181603711Y-99009282D02*
X181603711Y-98259282D01*
X181317997Y-98259282D01*
X181246568Y-98294997D01*
X181210854Y-98330711D01*
X181175139Y-98402139D01*
X181175139Y-98509282D01*
X181210854Y-98580711D01*
X181246568Y-98616425D01*
X181317997Y-98652139D01*
X181603711Y-98652139D01*
X180889425Y-98330711D02*
X180853711Y-98294997D01*
X180782282Y-98259282D01*
X180603711Y-98259282D01*
X180532282Y-98294997D01*
X180496568Y-98330711D01*
X180460854Y-98402139D01*
X180460854Y-98473568D01*
X180496568Y-98580711D01*
X180925139Y-99009282D01*
X180460854Y-99009282D01*
X180210854Y-98259282D02*
X179710854Y-98259282D01*
X180032282Y-99009282D01*
X173646425Y-99009282D02*
X174074997Y-99009282D01*
X173860711Y-99009282D02*
X173860711Y-98259282D01*
X173932139Y-98366425D01*
X174003568Y-98437854D01*
X174074997Y-98473568D01*
X173182139Y-98259282D02*
X173110711Y-98259282D01*
X173039282Y-98294997D01*
X173003568Y-98330711D01*
X172967854Y-98402139D01*
X172932139Y-98544997D01*
X172932139Y-98723568D01*
X172967854Y-98866425D01*
X173003568Y-98937854D01*
X173039282Y-98973568D01*
X173110711Y-99009282D01*
X173182139Y-99009282D01*
X173253568Y-98973568D01*
X173289282Y-98937854D01*
X173324997Y-98866425D01*
X173360711Y-98723568D01*
X173360711Y-98544997D01*
X173324997Y-98402139D01*
X173289282Y-98330711D01*
X173253568Y-98294997D01*
X173182139Y-98259282D01*
X172610711Y-99009282D02*
X172610711Y-98259282D01*
X172539282Y-98723568D02*
X172324997Y-99009282D01*
X172324997Y-98509282D02*
X172610711Y-98794997D01*
G04 #@! TO.C,C13*
X171062139Y-43441854D02*
X171097854Y-43477568D01*
X171204997Y-43513282D01*
X171276425Y-43513282D01*
X171383568Y-43477568D01*
X171454997Y-43406139D01*
X171490711Y-43334711D01*
X171526425Y-43191854D01*
X171526425Y-43084711D01*
X171490711Y-42941854D01*
X171454997Y-42870425D01*
X171383568Y-42798997D01*
X171276425Y-42763282D01*
X171204997Y-42763282D01*
X171097854Y-42798997D01*
X171062139Y-42834711D01*
X170347854Y-43513282D02*
X170776425Y-43513282D01*
X170562139Y-43513282D02*
X170562139Y-42763282D01*
X170633568Y-42870425D01*
X170704997Y-42941854D01*
X170776425Y-42977568D01*
X170097854Y-42763282D02*
X169633568Y-42763282D01*
X169883568Y-43048997D01*
X169776425Y-43048997D01*
X169704997Y-43084711D01*
X169669282Y-43120425D01*
X169633568Y-43191854D01*
X169633568Y-43370425D01*
X169669282Y-43441854D01*
X169704997Y-43477568D01*
X169776425Y-43513282D01*
X169990711Y-43513282D01*
X170062139Y-43477568D01*
X170097854Y-43441854D01*
X171423568Y-45669282D02*
X171852139Y-45669282D01*
X171637854Y-45669282D02*
X171637854Y-44919282D01*
X171709282Y-45026425D01*
X171780711Y-45097854D01*
X171852139Y-45133568D01*
X170959282Y-44919282D02*
X170887854Y-44919282D01*
X170816425Y-44954997D01*
X170780711Y-44990711D01*
X170744997Y-45062139D01*
X170709282Y-45204997D01*
X170709282Y-45383568D01*
X170744997Y-45526425D01*
X170780711Y-45597854D01*
X170816425Y-45633568D01*
X170887854Y-45669282D01*
X170959282Y-45669282D01*
X171030711Y-45633568D01*
X171066425Y-45597854D01*
X171102139Y-45526425D01*
X171137854Y-45383568D01*
X171137854Y-45204997D01*
X171102139Y-45062139D01*
X171066425Y-44990711D01*
X171030711Y-44954997D01*
X170959282Y-44919282D01*
X170387854Y-45169282D02*
X170387854Y-45669282D01*
X170387854Y-45240711D02*
X170352139Y-45204997D01*
X170280711Y-45169282D01*
X170173568Y-45169282D01*
X170102139Y-45204997D01*
X170066425Y-45276425D01*
X170066425Y-45669282D01*
X169459282Y-45276425D02*
X169709282Y-45276425D01*
X169709282Y-45669282D02*
X169709282Y-44919282D01*
X169352139Y-44919282D01*
G04 #@! TO.C,C6*
X147154997Y-60107854D02*
X147190711Y-60143568D01*
X147297854Y-60179282D01*
X147369282Y-60179282D01*
X147476425Y-60143568D01*
X147547854Y-60072139D01*
X147583568Y-60000711D01*
X147619282Y-59857854D01*
X147619282Y-59750711D01*
X147583568Y-59607854D01*
X147547854Y-59536425D01*
X147476425Y-59464997D01*
X147369282Y-59429282D01*
X147297854Y-59429282D01*
X147190711Y-59464997D01*
X147154997Y-59500711D01*
X146512139Y-59429282D02*
X146654997Y-59429282D01*
X146726425Y-59464997D01*
X146762139Y-59500711D01*
X146833568Y-59607854D01*
X146869282Y-59750711D01*
X146869282Y-60036425D01*
X146833568Y-60107854D01*
X146797854Y-60143568D01*
X146726425Y-60179282D01*
X146583568Y-60179282D01*
X146512139Y-60143568D01*
X146476425Y-60107854D01*
X146440711Y-60036425D01*
X146440711Y-59857854D01*
X146476425Y-59786425D01*
X146512139Y-59750711D01*
X146583568Y-59714997D01*
X146726425Y-59714997D01*
X146797854Y-59750711D01*
X146833568Y-59786425D01*
X146869282Y-59857854D01*
X144690711Y-60179282D02*
X145119282Y-60179282D01*
X144904997Y-60179282D02*
X144904997Y-59429282D01*
X144976425Y-59536425D01*
X145047854Y-59607854D01*
X145119282Y-59643568D01*
X144226425Y-59429282D02*
X144154997Y-59429282D01*
X144083568Y-59464997D01*
X144047854Y-59500711D01*
X144012139Y-59572139D01*
X143976425Y-59714997D01*
X143976425Y-59893568D01*
X144012139Y-60036425D01*
X144047854Y-60107854D01*
X144083568Y-60143568D01*
X144154997Y-60179282D01*
X144226425Y-60179282D01*
X144297854Y-60143568D01*
X144333568Y-60107854D01*
X144369282Y-60036425D01*
X144404997Y-59893568D01*
X144404997Y-59714997D01*
X144369282Y-59572139D01*
X144333568Y-59500711D01*
X144297854Y-59464997D01*
X144226425Y-59429282D01*
X143512139Y-59429282D02*
X143440711Y-59429282D01*
X143369282Y-59464997D01*
X143333568Y-59500711D01*
X143297854Y-59572139D01*
X143262139Y-59714997D01*
X143262139Y-59893568D01*
X143297854Y-60036425D01*
X143333568Y-60107854D01*
X143369282Y-60143568D01*
X143440711Y-60179282D01*
X143512139Y-60179282D01*
X143583568Y-60143568D01*
X143619282Y-60107854D01*
X143654997Y-60036425D01*
X143690711Y-59893568D01*
X143690711Y-59714997D01*
X143654997Y-59572139D01*
X143619282Y-59500711D01*
X143583568Y-59464997D01*
X143512139Y-59429282D01*
X142940711Y-59679282D02*
X142940711Y-60179282D01*
X142940711Y-59750711D02*
X142904997Y-59714997D01*
X142833568Y-59679282D01*
X142726425Y-59679282D01*
X142654997Y-59714997D01*
X142619282Y-59786425D01*
X142619282Y-60179282D01*
X142012139Y-59786425D02*
X142262139Y-59786425D01*
X142262139Y-60179282D02*
X142262139Y-59429282D01*
X141904997Y-59429282D01*
G04 #@! TO.C,R10*
X149425139Y-113106282D02*
X149675139Y-112749139D01*
X149853711Y-113106282D02*
X149853711Y-112356282D01*
X149567997Y-112356282D01*
X149496568Y-112391997D01*
X149460854Y-112427711D01*
X149425139Y-112499139D01*
X149425139Y-112606282D01*
X149460854Y-112677711D01*
X149496568Y-112713425D01*
X149567997Y-112749139D01*
X149853711Y-112749139D01*
X148710854Y-113106282D02*
X149139425Y-113106282D01*
X148925139Y-113106282D02*
X148925139Y-112356282D01*
X148996568Y-112463425D01*
X149067997Y-112534854D01*
X149139425Y-112570568D01*
X148246568Y-112356282D02*
X148175139Y-112356282D01*
X148103711Y-112391997D01*
X148067997Y-112427711D01*
X148032282Y-112499139D01*
X147996568Y-112641997D01*
X147996568Y-112820568D01*
X148032282Y-112963425D01*
X148067997Y-113034854D01*
X148103711Y-113070568D01*
X148175139Y-113106282D01*
X148246568Y-113106282D01*
X148317997Y-113070568D01*
X148353711Y-113034854D01*
X148389425Y-112963425D01*
X148425139Y-112820568D01*
X148425139Y-112641997D01*
X148389425Y-112499139D01*
X148353711Y-112427711D01*
X148317997Y-112391997D01*
X148246568Y-112356282D01*
X142253568Y-112979282D02*
X142682139Y-112979282D01*
X142467854Y-112979282D02*
X142467854Y-112229282D01*
X142539282Y-112336425D01*
X142610711Y-112407854D01*
X142682139Y-112443568D01*
X141789282Y-112229282D02*
X141717854Y-112229282D01*
X141646425Y-112264997D01*
X141610711Y-112300711D01*
X141574997Y-112372139D01*
X141539282Y-112514997D01*
X141539282Y-112693568D01*
X141574997Y-112836425D01*
X141610711Y-112907854D01*
X141646425Y-112943568D01*
X141717854Y-112979282D01*
X141789282Y-112979282D01*
X141860711Y-112943568D01*
X141896425Y-112907854D01*
X141932139Y-112836425D01*
X141967854Y-112693568D01*
X141967854Y-112514997D01*
X141932139Y-112372139D01*
X141896425Y-112300711D01*
X141860711Y-112264997D01*
X141789282Y-112229282D01*
X141074997Y-112229282D02*
X141003568Y-112229282D01*
X140932139Y-112264997D01*
X140896425Y-112300711D01*
X140860711Y-112372139D01*
X140824997Y-112514997D01*
X140824997Y-112693568D01*
X140860711Y-112836425D01*
X140896425Y-112907854D01*
X140932139Y-112943568D01*
X141003568Y-112979282D01*
X141074997Y-112979282D01*
X141146425Y-112943568D01*
X141182139Y-112907854D01*
X141217854Y-112836425D01*
X141253568Y-112693568D01*
X141253568Y-112514997D01*
X141217854Y-112372139D01*
X141182139Y-112300711D01*
X141146425Y-112264997D01*
X141074997Y-112229282D01*
X140503568Y-112979282D02*
X140503568Y-112229282D01*
X140432139Y-112693568D02*
X140217854Y-112979282D01*
X140217854Y-112479282D02*
X140503568Y-112764997D01*
G04 #@! TO.C,R23*
X152219139Y-54559282D02*
X152469139Y-54202139D01*
X152647711Y-54559282D02*
X152647711Y-53809282D01*
X152361997Y-53809282D01*
X152290568Y-53844997D01*
X152254854Y-53880711D01*
X152219139Y-53952139D01*
X152219139Y-54059282D01*
X152254854Y-54130711D01*
X152290568Y-54166425D01*
X152361997Y-54202139D01*
X152647711Y-54202139D01*
X151933425Y-53880711D02*
X151897711Y-53844997D01*
X151826282Y-53809282D01*
X151647711Y-53809282D01*
X151576282Y-53844997D01*
X151540568Y-53880711D01*
X151504854Y-53952139D01*
X151504854Y-54023568D01*
X151540568Y-54130711D01*
X151969139Y-54559282D01*
X151504854Y-54559282D01*
X151254854Y-53809282D02*
X150790568Y-53809282D01*
X151040568Y-54094997D01*
X150933425Y-54094997D01*
X150861997Y-54130711D01*
X150826282Y-54166425D01*
X150790568Y-54237854D01*
X150790568Y-54416425D01*
X150826282Y-54487854D01*
X150861997Y-54523568D01*
X150933425Y-54559282D01*
X151147711Y-54559282D01*
X151219139Y-54523568D01*
X151254854Y-54487854D01*
X159319282Y-54559282D02*
X159747854Y-54559282D01*
X159533568Y-54559282D02*
X159533568Y-53809282D01*
X159604997Y-53916425D01*
X159676425Y-53987854D01*
X159747854Y-54023568D01*
X158997854Y-54559282D02*
X158997854Y-53809282D01*
X158926425Y-54273568D02*
X158712139Y-54559282D01*
X158712139Y-54059282D02*
X158997854Y-54344997D01*
G04 #@! TO.C,R18*
X134947139Y-85166282D02*
X135197139Y-84809139D01*
X135375711Y-85166282D02*
X135375711Y-84416282D01*
X135089997Y-84416282D01*
X135018568Y-84451997D01*
X134982854Y-84487711D01*
X134947139Y-84559139D01*
X134947139Y-84666282D01*
X134982854Y-84737711D01*
X135018568Y-84773425D01*
X135089997Y-84809139D01*
X135375711Y-84809139D01*
X134232854Y-85166282D02*
X134661425Y-85166282D01*
X134447139Y-85166282D02*
X134447139Y-84416282D01*
X134518568Y-84523425D01*
X134589997Y-84594854D01*
X134661425Y-84630568D01*
X133804282Y-84737711D02*
X133875711Y-84701997D01*
X133911425Y-84666282D01*
X133947139Y-84594854D01*
X133947139Y-84559139D01*
X133911425Y-84487711D01*
X133875711Y-84451997D01*
X133804282Y-84416282D01*
X133661425Y-84416282D01*
X133589997Y-84451997D01*
X133554282Y-84487711D01*
X133518568Y-84559139D01*
X133518568Y-84594854D01*
X133554282Y-84666282D01*
X133589997Y-84701997D01*
X133661425Y-84737711D01*
X133804282Y-84737711D01*
X133875711Y-84773425D01*
X133911425Y-84809139D01*
X133947139Y-84880568D01*
X133947139Y-85023425D01*
X133911425Y-85094854D01*
X133875711Y-85130568D01*
X133804282Y-85166282D01*
X133661425Y-85166282D01*
X133589997Y-85130568D01*
X133554282Y-85094854D01*
X133518568Y-85023425D01*
X133518568Y-84880568D01*
X133554282Y-84809139D01*
X133589997Y-84773425D01*
X133661425Y-84737711D01*
X127694282Y-85039282D02*
X128122854Y-85039282D01*
X127908568Y-85039282D02*
X127908568Y-84289282D01*
X127979997Y-84396425D01*
X128051425Y-84467854D01*
X128122854Y-84503568D01*
X127372854Y-85039282D02*
X127372854Y-84289282D01*
X127122854Y-84824997D01*
X126872854Y-84289282D01*
X126872854Y-85039282D01*
G04 #@! TO.C,U4*
X147021425Y-46439282D02*
X147021425Y-47046425D01*
X146985711Y-47117854D01*
X146949997Y-47153568D01*
X146878568Y-47189282D01*
X146735711Y-47189282D01*
X146664282Y-47153568D01*
X146628568Y-47117854D01*
X146592854Y-47046425D01*
X146592854Y-46439282D01*
X145914282Y-46689282D02*
X145914282Y-47189282D01*
X146092854Y-46403568D02*
X146271425Y-46939282D01*
X145807139Y-46939282D01*
X149807139Y-53416282D02*
X150164282Y-53416282D01*
X150164282Y-52666282D01*
X149557139Y-53416282D02*
X149557139Y-52666282D01*
X149307139Y-53201997D01*
X149057139Y-52666282D01*
X149057139Y-53416282D01*
X148378568Y-52916282D02*
X148378568Y-53416282D01*
X148557139Y-52630568D02*
X148735711Y-53166282D01*
X148271425Y-53166282D01*
X147842854Y-52666282D02*
X147771425Y-52666282D01*
X147699997Y-52701997D01*
X147664282Y-52737711D01*
X147628568Y-52809139D01*
X147592854Y-52951997D01*
X147592854Y-53130568D01*
X147628568Y-53273425D01*
X147664282Y-53344854D01*
X147699997Y-53380568D01*
X147771425Y-53416282D01*
X147842854Y-53416282D01*
X147914282Y-53380568D01*
X147949997Y-53344854D01*
X147985711Y-53273425D01*
X148021425Y-53130568D01*
X148021425Y-52951997D01*
X147985711Y-52809139D01*
X147949997Y-52737711D01*
X147914282Y-52701997D01*
X147842854Y-52666282D01*
X146949997Y-52916282D02*
X146949997Y-53416282D01*
X147128568Y-52630568D02*
X147307139Y-53166282D01*
X146842854Y-53166282D01*
X146414282Y-52666282D02*
X146342854Y-52666282D01*
X146271425Y-52701997D01*
X146235711Y-52737711D01*
X146199997Y-52809139D01*
X146164282Y-52951997D01*
X146164282Y-53130568D01*
X146199997Y-53273425D01*
X146235711Y-53344854D01*
X146271425Y-53380568D01*
X146342854Y-53416282D01*
X146414282Y-53416282D01*
X146485711Y-53380568D01*
X146521425Y-53344854D01*
X146557139Y-53273425D01*
X146592854Y-53130568D01*
X146592854Y-52951997D01*
X146557139Y-52809139D01*
X146521425Y-52737711D01*
X146485711Y-52701997D01*
X146414282Y-52666282D01*
X145592854Y-53023425D02*
X145485711Y-53059139D01*
X145449997Y-53094854D01*
X145414282Y-53166282D01*
X145414282Y-53273425D01*
X145449997Y-53344854D01*
X145485711Y-53380568D01*
X145557139Y-53416282D01*
X145842854Y-53416282D01*
X145842854Y-52666282D01*
X145592854Y-52666282D01*
X145521425Y-52701997D01*
X145485711Y-52737711D01*
X145449997Y-52809139D01*
X145449997Y-52880568D01*
X145485711Y-52951997D01*
X145521425Y-52987711D01*
X145592854Y-53023425D01*
X145842854Y-53023425D01*
X145092854Y-53416282D02*
X145092854Y-52666282D01*
X144807139Y-52666282D02*
X144307139Y-52666282D01*
X144807139Y-53416282D01*
X144307139Y-53416282D01*
X144021425Y-53130568D02*
X143449997Y-53130568D01*
X142735711Y-52666282D02*
X143092854Y-52666282D01*
X143128568Y-53023425D01*
X143092854Y-52987711D01*
X143021425Y-52951997D01*
X142842854Y-52951997D01*
X142771425Y-52987711D01*
X142735711Y-53023425D01*
X142699997Y-53094854D01*
X142699997Y-53273425D01*
X142735711Y-53344854D01*
X142771425Y-53380568D01*
X142842854Y-53416282D01*
X143021425Y-53416282D01*
X143092854Y-53380568D01*
X143128568Y-53344854D01*
G04 #@! TO.C,J3*
X133507377Y-103416663D02*
X134221663Y-103416663D01*
X134364520Y-103369044D01*
X134459758Y-103273806D01*
X134507377Y-103130949D01*
X134507377Y-103035711D01*
X133507377Y-103797616D02*
X133507377Y-104416663D01*
X133888330Y-104083330D01*
X133888330Y-104226187D01*
X133935949Y-104321425D01*
X133983568Y-104369044D01*
X134078806Y-104416663D01*
X134316901Y-104416663D01*
X134412139Y-104369044D01*
X134459758Y-104321425D01*
X134507377Y-104226187D01*
X134507377Y-103940473D01*
X134459758Y-103845235D01*
X134412139Y-103797616D01*
G04 #@! TO.C,C10*
X135709139Y-88904854D02*
X135744854Y-88940568D01*
X135851997Y-88976282D01*
X135923425Y-88976282D01*
X136030568Y-88940568D01*
X136101997Y-88869139D01*
X136137711Y-88797711D01*
X136173425Y-88654854D01*
X136173425Y-88547711D01*
X136137711Y-88404854D01*
X136101997Y-88333425D01*
X136030568Y-88261997D01*
X135923425Y-88226282D01*
X135851997Y-88226282D01*
X135744854Y-88261997D01*
X135709139Y-88297711D01*
X134994854Y-88976282D02*
X135423425Y-88976282D01*
X135209139Y-88976282D02*
X135209139Y-88226282D01*
X135280568Y-88333425D01*
X135351997Y-88404854D01*
X135423425Y-88440568D01*
X134530568Y-88226282D02*
X134459139Y-88226282D01*
X134387711Y-88261997D01*
X134351997Y-88297711D01*
X134316282Y-88369139D01*
X134280568Y-88511997D01*
X134280568Y-88690568D01*
X134316282Y-88833425D01*
X134351997Y-88904854D01*
X134387711Y-88940568D01*
X134459139Y-88976282D01*
X134530568Y-88976282D01*
X134601997Y-88940568D01*
X134637711Y-88904854D01*
X134673425Y-88833425D01*
X134709139Y-88690568D01*
X134709139Y-88511997D01*
X134673425Y-88369139D01*
X134637711Y-88297711D01*
X134601997Y-88261997D01*
X134530568Y-88226282D01*
X130863568Y-88849282D02*
X131292139Y-88849282D01*
X131077854Y-88849282D02*
X131077854Y-88099282D01*
X131149282Y-88206425D01*
X131220711Y-88277854D01*
X131292139Y-88313568D01*
X130399282Y-88099282D02*
X130327854Y-88099282D01*
X130256425Y-88134997D01*
X130220711Y-88170711D01*
X130184997Y-88242139D01*
X130149282Y-88384997D01*
X130149282Y-88563568D01*
X130184997Y-88706425D01*
X130220711Y-88777854D01*
X130256425Y-88813568D01*
X130327854Y-88849282D01*
X130399282Y-88849282D01*
X130470711Y-88813568D01*
X130506425Y-88777854D01*
X130542139Y-88706425D01*
X130577854Y-88563568D01*
X130577854Y-88384997D01*
X130542139Y-88242139D01*
X130506425Y-88170711D01*
X130470711Y-88134997D01*
X130399282Y-88099282D01*
X129827854Y-88349282D02*
X129827854Y-88849282D01*
X129827854Y-88420711D02*
X129792139Y-88384997D01*
X129720711Y-88349282D01*
X129613568Y-88349282D01*
X129542139Y-88384997D01*
X129506425Y-88456425D01*
X129506425Y-88849282D01*
X128899282Y-88456425D02*
X129149282Y-88456425D01*
X129149282Y-88849282D02*
X129149282Y-88099282D01*
X128792139Y-88099282D01*
G04 #@! TO.C,C3*
X162672854Y-97909997D02*
X162708568Y-97874282D01*
X162744282Y-97767139D01*
X162744282Y-97695711D01*
X162708568Y-97588568D01*
X162637139Y-97517139D01*
X162565711Y-97481425D01*
X162422854Y-97445711D01*
X162315711Y-97445711D01*
X162172854Y-97481425D01*
X162101425Y-97517139D01*
X162029997Y-97588568D01*
X161994282Y-97695711D01*
X161994282Y-97767139D01*
X162029997Y-97874282D01*
X162065711Y-97909997D01*
X161994282Y-98159997D02*
X161994282Y-98624282D01*
X162279997Y-98374282D01*
X162279997Y-98481425D01*
X162315711Y-98552854D01*
X162351425Y-98588568D01*
X162422854Y-98624282D01*
X162601425Y-98624282D01*
X162672854Y-98588568D01*
X162708568Y-98552854D01*
X162744282Y-98481425D01*
X162744282Y-98267139D01*
X162708568Y-98195711D01*
X162672854Y-98159997D01*
X162744282Y-100049282D02*
X162744282Y-99620711D01*
X162744282Y-99834997D02*
X161994282Y-99834997D01*
X162101425Y-99763568D01*
X162172854Y-99692139D01*
X162208568Y-99620711D01*
X161994282Y-100513568D02*
X161994282Y-100584997D01*
X162029997Y-100656425D01*
X162065711Y-100692139D01*
X162137139Y-100727854D01*
X162279997Y-100763568D01*
X162458568Y-100763568D01*
X162601425Y-100727854D01*
X162672854Y-100692139D01*
X162708568Y-100656425D01*
X162744282Y-100584997D01*
X162744282Y-100513568D01*
X162708568Y-100442139D01*
X162672854Y-100406425D01*
X162601425Y-100370711D01*
X162458568Y-100334997D01*
X162279997Y-100334997D01*
X162137139Y-100370711D01*
X162065711Y-100406425D01*
X162029997Y-100442139D01*
X161994282Y-100513568D01*
X161994282Y-101227854D02*
X161994282Y-101299282D01*
X162029997Y-101370711D01*
X162065711Y-101406425D01*
X162137139Y-101442139D01*
X162279997Y-101477854D01*
X162458568Y-101477854D01*
X162601425Y-101442139D01*
X162672854Y-101406425D01*
X162708568Y-101370711D01*
X162744282Y-101299282D01*
X162744282Y-101227854D01*
X162708568Y-101156425D01*
X162672854Y-101120711D01*
X162601425Y-101084997D01*
X162458568Y-101049282D01*
X162279997Y-101049282D01*
X162137139Y-101084997D01*
X162065711Y-101120711D01*
X162029997Y-101156425D01*
X161994282Y-101227854D01*
X162244282Y-101799282D02*
X162744282Y-101799282D01*
X162315711Y-101799282D02*
X162279997Y-101834997D01*
X162244282Y-101906425D01*
X162244282Y-102013568D01*
X162279997Y-102084997D01*
X162351425Y-102120711D01*
X162744282Y-102120711D01*
X162351425Y-102727854D02*
X162351425Y-102477854D01*
X162744282Y-102477854D02*
X161994282Y-102477854D01*
X161994282Y-102834997D01*
G04 #@! TO.C,R16*
X106626139Y-77419282D02*
X106876139Y-77062139D01*
X107054711Y-77419282D02*
X107054711Y-76669282D01*
X106768997Y-76669282D01*
X106697568Y-76704997D01*
X106661854Y-76740711D01*
X106626139Y-76812139D01*
X106626139Y-76919282D01*
X106661854Y-76990711D01*
X106697568Y-77026425D01*
X106768997Y-77062139D01*
X107054711Y-77062139D01*
X105911854Y-77419282D02*
X106340425Y-77419282D01*
X106126139Y-77419282D02*
X106126139Y-76669282D01*
X106197568Y-76776425D01*
X106268997Y-76847854D01*
X106340425Y-76883568D01*
X105268997Y-76669282D02*
X105411854Y-76669282D01*
X105483282Y-76704997D01*
X105518997Y-76740711D01*
X105590425Y-76847854D01*
X105626139Y-76990711D01*
X105626139Y-77276425D01*
X105590425Y-77347854D01*
X105554711Y-77383568D01*
X105483282Y-77419282D01*
X105340425Y-77419282D01*
X105268997Y-77383568D01*
X105233282Y-77347854D01*
X105197568Y-77276425D01*
X105197568Y-77097854D01*
X105233282Y-77026425D01*
X105268997Y-76990711D01*
X105340425Y-76954997D01*
X105483282Y-76954997D01*
X105554711Y-76990711D01*
X105590425Y-77026425D01*
X105626139Y-77097854D01*
X114170711Y-76669282D02*
X114527854Y-76669282D01*
X114563568Y-77026425D01*
X114527854Y-76990711D01*
X114456425Y-76954997D01*
X114277854Y-76954997D01*
X114206425Y-76990711D01*
X114170711Y-77026425D01*
X114134997Y-77097854D01*
X114134997Y-77276425D01*
X114170711Y-77347854D01*
X114206425Y-77383568D01*
X114277854Y-77419282D01*
X114456425Y-77419282D01*
X114527854Y-77383568D01*
X114563568Y-77347854D01*
X113813568Y-77347854D02*
X113777854Y-77383568D01*
X113813568Y-77419282D01*
X113849282Y-77383568D01*
X113813568Y-77347854D01*
X113813568Y-77419282D01*
X113134997Y-76669282D02*
X113277854Y-76669282D01*
X113349282Y-76704997D01*
X113384997Y-76740711D01*
X113456425Y-76847854D01*
X113492139Y-76990711D01*
X113492139Y-77276425D01*
X113456425Y-77347854D01*
X113420711Y-77383568D01*
X113349282Y-77419282D01*
X113206425Y-77419282D01*
X113134997Y-77383568D01*
X113099282Y-77347854D01*
X113063568Y-77276425D01*
X113063568Y-77097854D01*
X113099282Y-77026425D01*
X113134997Y-76990711D01*
X113206425Y-76954997D01*
X113349282Y-76954997D01*
X113420711Y-76990711D01*
X113456425Y-77026425D01*
X113492139Y-77097854D01*
X112742139Y-77419282D02*
X112742139Y-76669282D01*
X112670711Y-77133568D02*
X112456425Y-77419282D01*
X112456425Y-76919282D02*
X112742139Y-77204997D01*
G04 #@! TO.C,R8*
X173324997Y-126060282D02*
X173574997Y-125703139D01*
X173753568Y-126060282D02*
X173753568Y-125310282D01*
X173467854Y-125310282D01*
X173396425Y-125345997D01*
X173360711Y-125381711D01*
X173324997Y-125453139D01*
X173324997Y-125560282D01*
X173360711Y-125631711D01*
X173396425Y-125667425D01*
X173467854Y-125703139D01*
X173753568Y-125703139D01*
X172896425Y-125631711D02*
X172967854Y-125595997D01*
X173003568Y-125560282D01*
X173039282Y-125488854D01*
X173039282Y-125453139D01*
X173003568Y-125381711D01*
X172967854Y-125345997D01*
X172896425Y-125310282D01*
X172753568Y-125310282D01*
X172682139Y-125345997D01*
X172646425Y-125381711D01*
X172610711Y-125453139D01*
X172610711Y-125488854D01*
X172646425Y-125560282D01*
X172682139Y-125595997D01*
X172753568Y-125631711D01*
X172896425Y-125631711D01*
X172967854Y-125667425D01*
X173003568Y-125703139D01*
X173039282Y-125774568D01*
X173039282Y-125917425D01*
X173003568Y-125988854D01*
X172967854Y-126024568D01*
X172896425Y-126060282D01*
X172753568Y-126060282D01*
X172682139Y-126024568D01*
X172646425Y-125988854D01*
X172610711Y-125917425D01*
X172610711Y-125774568D01*
X172646425Y-125703139D01*
X172682139Y-125667425D01*
X172753568Y-125631711D01*
X174003568Y-128219282D02*
X174432139Y-128219282D01*
X174217854Y-128219282D02*
X174217854Y-127469282D01*
X174289282Y-127576425D01*
X174360711Y-127647854D01*
X174432139Y-127683568D01*
X173539282Y-127469282D02*
X173467854Y-127469282D01*
X173396425Y-127504997D01*
X173360711Y-127540711D01*
X173324997Y-127612139D01*
X173289282Y-127754997D01*
X173289282Y-127933568D01*
X173324997Y-128076425D01*
X173360711Y-128147854D01*
X173396425Y-128183568D01*
X173467854Y-128219282D01*
X173539282Y-128219282D01*
X173610711Y-128183568D01*
X173646425Y-128147854D01*
X173682139Y-128076425D01*
X173717854Y-127933568D01*
X173717854Y-127754997D01*
X173682139Y-127612139D01*
X173646425Y-127540711D01*
X173610711Y-127504997D01*
X173539282Y-127469282D01*
X172824997Y-127469282D02*
X172753568Y-127469282D01*
X172682139Y-127504997D01*
X172646425Y-127540711D01*
X172610711Y-127612139D01*
X172574997Y-127754997D01*
X172574997Y-127933568D01*
X172610711Y-128076425D01*
X172646425Y-128147854D01*
X172682139Y-128183568D01*
X172753568Y-128219282D01*
X172824997Y-128219282D01*
X172896425Y-128183568D01*
X172932139Y-128147854D01*
X172967854Y-128076425D01*
X173003568Y-127933568D01*
X173003568Y-127754997D01*
X172967854Y-127612139D01*
X172932139Y-127540711D01*
X172896425Y-127504997D01*
X172824997Y-127469282D01*
X172253568Y-128219282D02*
X172253568Y-127469282D01*
X172182139Y-127933568D02*
X171967854Y-128219282D01*
X171967854Y-127719282D02*
X172253568Y-128004997D01*
G04 #@! TO.C,R21*
X149425139Y-109296282D02*
X149675139Y-108939139D01*
X149853711Y-109296282D02*
X149853711Y-108546282D01*
X149567997Y-108546282D01*
X149496568Y-108581997D01*
X149460854Y-108617711D01*
X149425139Y-108689139D01*
X149425139Y-108796282D01*
X149460854Y-108867711D01*
X149496568Y-108903425D01*
X149567997Y-108939139D01*
X149853711Y-108939139D01*
X149139425Y-108617711D02*
X149103711Y-108581997D01*
X149032282Y-108546282D01*
X148853711Y-108546282D01*
X148782282Y-108581997D01*
X148746568Y-108617711D01*
X148710854Y-108689139D01*
X148710854Y-108760568D01*
X148746568Y-108867711D01*
X149175139Y-109296282D01*
X148710854Y-109296282D01*
X147996568Y-109296282D02*
X148425139Y-109296282D01*
X148210854Y-109296282D02*
X148210854Y-108546282D01*
X148282282Y-108653425D01*
X148353711Y-108724854D01*
X148425139Y-108760568D01*
X142253568Y-109169282D02*
X142682139Y-109169282D01*
X142467854Y-109169282D02*
X142467854Y-108419282D01*
X142539282Y-108526425D01*
X142610711Y-108597854D01*
X142682139Y-108633568D01*
X141789282Y-108419282D02*
X141717854Y-108419282D01*
X141646425Y-108454997D01*
X141610711Y-108490711D01*
X141574997Y-108562139D01*
X141539282Y-108704997D01*
X141539282Y-108883568D01*
X141574997Y-109026425D01*
X141610711Y-109097854D01*
X141646425Y-109133568D01*
X141717854Y-109169282D01*
X141789282Y-109169282D01*
X141860711Y-109133568D01*
X141896425Y-109097854D01*
X141932139Y-109026425D01*
X141967854Y-108883568D01*
X141967854Y-108704997D01*
X141932139Y-108562139D01*
X141896425Y-108490711D01*
X141860711Y-108454997D01*
X141789282Y-108419282D01*
X141074997Y-108419282D02*
X141003568Y-108419282D01*
X140932139Y-108454997D01*
X140896425Y-108490711D01*
X140860711Y-108562139D01*
X140824997Y-108704997D01*
X140824997Y-108883568D01*
X140860711Y-109026425D01*
X140896425Y-109097854D01*
X140932139Y-109133568D01*
X141003568Y-109169282D01*
X141074997Y-109169282D01*
X141146425Y-109133568D01*
X141182139Y-109097854D01*
X141217854Y-109026425D01*
X141253568Y-108883568D01*
X141253568Y-108704997D01*
X141217854Y-108562139D01*
X141182139Y-108490711D01*
X141146425Y-108454997D01*
X141074997Y-108419282D01*
X140503568Y-109169282D02*
X140503568Y-108419282D01*
X140432139Y-108883568D02*
X140217854Y-109169282D01*
X140217854Y-108669282D02*
X140503568Y-108954997D01*
G04 #@! TO.C,U5*
X147021425Y-38819282D02*
X147021425Y-39426425D01*
X146985711Y-39497854D01*
X146949997Y-39533568D01*
X146878568Y-39569282D01*
X146735711Y-39569282D01*
X146664282Y-39533568D01*
X146628568Y-39497854D01*
X146592854Y-39426425D01*
X146592854Y-38819282D01*
X145878568Y-38819282D02*
X146235711Y-38819282D01*
X146271425Y-39176425D01*
X146235711Y-39140711D01*
X146164282Y-39104997D01*
X145985711Y-39104997D01*
X145914282Y-39140711D01*
X145878568Y-39176425D01*
X145842854Y-39247854D01*
X145842854Y-39426425D01*
X145878568Y-39497854D01*
X145914282Y-39533568D01*
X145985711Y-39569282D01*
X146164282Y-39569282D01*
X146235711Y-39533568D01*
X146271425Y-39497854D01*
X149807139Y-45796282D02*
X150164282Y-45796282D01*
X150164282Y-45046282D01*
X149557139Y-45796282D02*
X149557139Y-45046282D01*
X149307139Y-45581997D01*
X149057139Y-45046282D01*
X149057139Y-45796282D01*
X148378568Y-45296282D02*
X148378568Y-45796282D01*
X148557139Y-45010568D02*
X148735711Y-45546282D01*
X148271425Y-45546282D01*
X147842854Y-45046282D02*
X147771425Y-45046282D01*
X147699997Y-45081997D01*
X147664282Y-45117711D01*
X147628568Y-45189139D01*
X147592854Y-45331997D01*
X147592854Y-45510568D01*
X147628568Y-45653425D01*
X147664282Y-45724854D01*
X147699997Y-45760568D01*
X147771425Y-45796282D01*
X147842854Y-45796282D01*
X147914282Y-45760568D01*
X147949997Y-45724854D01*
X147985711Y-45653425D01*
X148021425Y-45510568D01*
X148021425Y-45331997D01*
X147985711Y-45189139D01*
X147949997Y-45117711D01*
X147914282Y-45081997D01*
X147842854Y-45046282D01*
X146949997Y-45296282D02*
X146949997Y-45796282D01*
X147128568Y-45010568D02*
X147307139Y-45546282D01*
X146842854Y-45546282D01*
X146414282Y-45046282D02*
X146342854Y-45046282D01*
X146271425Y-45081997D01*
X146235711Y-45117711D01*
X146199997Y-45189139D01*
X146164282Y-45331997D01*
X146164282Y-45510568D01*
X146199997Y-45653425D01*
X146235711Y-45724854D01*
X146271425Y-45760568D01*
X146342854Y-45796282D01*
X146414282Y-45796282D01*
X146485711Y-45760568D01*
X146521425Y-45724854D01*
X146557139Y-45653425D01*
X146592854Y-45510568D01*
X146592854Y-45331997D01*
X146557139Y-45189139D01*
X146521425Y-45117711D01*
X146485711Y-45081997D01*
X146414282Y-45046282D01*
X145592854Y-45403425D02*
X145485711Y-45439139D01*
X145449997Y-45474854D01*
X145414282Y-45546282D01*
X145414282Y-45653425D01*
X145449997Y-45724854D01*
X145485711Y-45760568D01*
X145557139Y-45796282D01*
X145842854Y-45796282D01*
X145842854Y-45046282D01*
X145592854Y-45046282D01*
X145521425Y-45081997D01*
X145485711Y-45117711D01*
X145449997Y-45189139D01*
X145449997Y-45260568D01*
X145485711Y-45331997D01*
X145521425Y-45367711D01*
X145592854Y-45403425D01*
X145842854Y-45403425D01*
X145092854Y-45796282D02*
X145092854Y-45046282D01*
X144807139Y-45046282D02*
X144307139Y-45046282D01*
X144807139Y-45796282D01*
X144307139Y-45796282D01*
X144021425Y-45510568D02*
X143449997Y-45510568D01*
X142735711Y-45046282D02*
X143092854Y-45046282D01*
X143128568Y-45403425D01*
X143092854Y-45367711D01*
X143021425Y-45331997D01*
X142842854Y-45331997D01*
X142771425Y-45367711D01*
X142735711Y-45403425D01*
X142699997Y-45474854D01*
X142699997Y-45653425D01*
X142735711Y-45724854D01*
X142771425Y-45760568D01*
X142842854Y-45796282D01*
X143021425Y-45796282D01*
X143092854Y-45760568D01*
X143128568Y-45724854D01*
G04 #@! TO.C,R12*
X181302139Y-106756282D02*
X181552139Y-106399139D01*
X181730711Y-106756282D02*
X181730711Y-106006282D01*
X181444997Y-106006282D01*
X181373568Y-106041997D01*
X181337854Y-106077711D01*
X181302139Y-106149139D01*
X181302139Y-106256282D01*
X181337854Y-106327711D01*
X181373568Y-106363425D01*
X181444997Y-106399139D01*
X181730711Y-106399139D01*
X180587854Y-106756282D02*
X181016425Y-106756282D01*
X180802139Y-106756282D02*
X180802139Y-106006282D01*
X180873568Y-106113425D01*
X180944997Y-106184854D01*
X181016425Y-106220568D01*
X180302139Y-106077711D02*
X180266425Y-106041997D01*
X180194997Y-106006282D01*
X180016425Y-106006282D01*
X179944997Y-106041997D01*
X179909282Y-106077711D01*
X179873568Y-106149139D01*
X179873568Y-106220568D01*
X179909282Y-106327711D01*
X180337854Y-106756282D01*
X179873568Y-106756282D01*
X173646425Y-106629282D02*
X174074997Y-106629282D01*
X173860711Y-106629282D02*
X173860711Y-105879282D01*
X173932139Y-105986425D01*
X174003568Y-106057854D01*
X174074997Y-106093568D01*
X173182139Y-105879282D02*
X173110711Y-105879282D01*
X173039282Y-105914997D01*
X173003568Y-105950711D01*
X172967854Y-106022139D01*
X172932139Y-106164997D01*
X172932139Y-106343568D01*
X172967854Y-106486425D01*
X173003568Y-106557854D01*
X173039282Y-106593568D01*
X173110711Y-106629282D01*
X173182139Y-106629282D01*
X173253568Y-106593568D01*
X173289282Y-106557854D01*
X173324997Y-106486425D01*
X173360711Y-106343568D01*
X173360711Y-106164997D01*
X173324997Y-106022139D01*
X173289282Y-105950711D01*
X173253568Y-105914997D01*
X173182139Y-105879282D01*
X172610711Y-106629282D02*
X172610711Y-105879282D01*
X172539282Y-106343568D02*
X172324997Y-106629282D01*
X172324997Y-106129282D02*
X172610711Y-106414997D01*
G04 #@! TO.C,R7*
X112364997Y-105529282D02*
X112614997Y-105172139D01*
X112793568Y-105529282D02*
X112793568Y-104779282D01*
X112507854Y-104779282D01*
X112436425Y-104814997D01*
X112400711Y-104850711D01*
X112364997Y-104922139D01*
X112364997Y-105029282D01*
X112400711Y-105100711D01*
X112436425Y-105136425D01*
X112507854Y-105172139D01*
X112793568Y-105172139D01*
X112114997Y-104779282D02*
X111614997Y-104779282D01*
X111936425Y-105529282D01*
X113114997Y-107399282D02*
X113114997Y-107899282D01*
X113293568Y-107113568D02*
X113472139Y-107649282D01*
X113007854Y-107649282D01*
X112793568Y-107149282D02*
X112293568Y-107149282D01*
X112614997Y-107899282D01*
X111864997Y-107149282D02*
X111793568Y-107149282D01*
X111722139Y-107184997D01*
X111686425Y-107220711D01*
X111650711Y-107292139D01*
X111614997Y-107434997D01*
X111614997Y-107613568D01*
X111650711Y-107756425D01*
X111686425Y-107827854D01*
X111722139Y-107863568D01*
X111793568Y-107899282D01*
X111864997Y-107899282D01*
X111936425Y-107863568D01*
X111972139Y-107827854D01*
X112007854Y-107756425D01*
X112043568Y-107613568D01*
X112043568Y-107434997D01*
X112007854Y-107292139D01*
X111972139Y-107220711D01*
X111936425Y-107184997D01*
X111864997Y-107149282D01*
X111293568Y-107899282D02*
X111293568Y-107149282D01*
X111222139Y-107613568D02*
X111007854Y-107899282D01*
X111007854Y-107399282D02*
X111293568Y-107684997D01*
G04 #@! TO.C,R29*
X181302139Y-76276282D02*
X181552139Y-75919139D01*
X181730711Y-76276282D02*
X181730711Y-75526282D01*
X181444997Y-75526282D01*
X181373568Y-75561997D01*
X181337854Y-75597711D01*
X181302139Y-75669139D01*
X181302139Y-75776282D01*
X181337854Y-75847711D01*
X181373568Y-75883425D01*
X181444997Y-75919139D01*
X181730711Y-75919139D01*
X181016425Y-75597711D02*
X180980711Y-75561997D01*
X180909282Y-75526282D01*
X180730711Y-75526282D01*
X180659282Y-75561997D01*
X180623568Y-75597711D01*
X180587854Y-75669139D01*
X180587854Y-75740568D01*
X180623568Y-75847711D01*
X181052139Y-76276282D01*
X180587854Y-76276282D01*
X180230711Y-76276282D02*
X180087854Y-76276282D01*
X180016425Y-76240568D01*
X179980711Y-76204854D01*
X179909282Y-76097711D01*
X179873568Y-75954854D01*
X179873568Y-75669139D01*
X179909282Y-75597711D01*
X179944997Y-75561997D01*
X180016425Y-75526282D01*
X180159282Y-75526282D01*
X180230711Y-75561997D01*
X180266425Y-75597711D01*
X180302139Y-75669139D01*
X180302139Y-75847711D01*
X180266425Y-75919139D01*
X180230711Y-75954854D01*
X180159282Y-75990568D01*
X180016425Y-75990568D01*
X179944997Y-75954854D01*
X179909282Y-75919139D01*
X179873568Y-75847711D01*
X173717854Y-75649282D02*
X173717854Y-76149282D01*
X173896425Y-75363568D02*
X174074997Y-75899282D01*
X173610711Y-75899282D01*
X173396425Y-75399282D02*
X172896425Y-75399282D01*
X173217854Y-76149282D01*
X172610711Y-76149282D02*
X172610711Y-75399282D01*
X172539282Y-75863568D02*
X172324997Y-76149282D01*
X172324997Y-75649282D02*
X172610711Y-75934997D01*
G04 #@! TO.C,R17*
X149425139Y-85039282D02*
X149675139Y-84682139D01*
X149853711Y-85039282D02*
X149853711Y-84289282D01*
X149567997Y-84289282D01*
X149496568Y-84324997D01*
X149460854Y-84360711D01*
X149425139Y-84432139D01*
X149425139Y-84539282D01*
X149460854Y-84610711D01*
X149496568Y-84646425D01*
X149567997Y-84682139D01*
X149853711Y-84682139D01*
X148710854Y-85039282D02*
X149139425Y-85039282D01*
X148925139Y-85039282D02*
X148925139Y-84289282D01*
X148996568Y-84396425D01*
X149067997Y-84467854D01*
X149139425Y-84503568D01*
X148460854Y-84289282D02*
X147960854Y-84289282D01*
X148282282Y-85039282D01*
X141967854Y-84539282D02*
X141967854Y-85039282D01*
X142146425Y-84253568D02*
X142324997Y-84789282D01*
X141860711Y-84789282D01*
X141646425Y-84289282D02*
X141146425Y-84289282D01*
X141467854Y-85039282D01*
X140860711Y-85039282D02*
X140860711Y-84289282D01*
X140789282Y-84753568D02*
X140574997Y-85039282D01*
X140574997Y-84539282D02*
X140860711Y-84824997D01*
G04 #@! TO.C,C2*
X147154997Y-89317854D02*
X147190711Y-89353568D01*
X147297854Y-89389282D01*
X147369282Y-89389282D01*
X147476425Y-89353568D01*
X147547854Y-89282139D01*
X147583568Y-89210711D01*
X147619282Y-89067854D01*
X147619282Y-88960711D01*
X147583568Y-88817854D01*
X147547854Y-88746425D01*
X147476425Y-88674997D01*
X147369282Y-88639282D01*
X147297854Y-88639282D01*
X147190711Y-88674997D01*
X147154997Y-88710711D01*
X146869282Y-88710711D02*
X146833568Y-88674997D01*
X146762139Y-88639282D01*
X146583568Y-88639282D01*
X146512139Y-88674997D01*
X146476425Y-88710711D01*
X146440711Y-88782139D01*
X146440711Y-88853568D01*
X146476425Y-88960711D01*
X146904997Y-89389282D01*
X146440711Y-89389282D01*
X144690711Y-89389282D02*
X145119282Y-89389282D01*
X144904997Y-89389282D02*
X144904997Y-88639282D01*
X144976425Y-88746425D01*
X145047854Y-88817854D01*
X145119282Y-88853568D01*
X144226425Y-88639282D02*
X144154997Y-88639282D01*
X144083568Y-88674997D01*
X144047854Y-88710711D01*
X144012139Y-88782139D01*
X143976425Y-88924997D01*
X143976425Y-89103568D01*
X144012139Y-89246425D01*
X144047854Y-89317854D01*
X144083568Y-89353568D01*
X144154997Y-89389282D01*
X144226425Y-89389282D01*
X144297854Y-89353568D01*
X144333568Y-89317854D01*
X144369282Y-89246425D01*
X144404997Y-89103568D01*
X144404997Y-88924997D01*
X144369282Y-88782139D01*
X144333568Y-88710711D01*
X144297854Y-88674997D01*
X144226425Y-88639282D01*
X143512139Y-88639282D02*
X143440711Y-88639282D01*
X143369282Y-88674997D01*
X143333568Y-88710711D01*
X143297854Y-88782139D01*
X143262139Y-88924997D01*
X143262139Y-89103568D01*
X143297854Y-89246425D01*
X143333568Y-89317854D01*
X143369282Y-89353568D01*
X143440711Y-89389282D01*
X143512139Y-89389282D01*
X143583568Y-89353568D01*
X143619282Y-89317854D01*
X143654997Y-89246425D01*
X143690711Y-89103568D01*
X143690711Y-88924997D01*
X143654997Y-88782139D01*
X143619282Y-88710711D01*
X143583568Y-88674997D01*
X143512139Y-88639282D01*
X142940711Y-88889282D02*
X142940711Y-89389282D01*
X142940711Y-88960711D02*
X142904997Y-88924997D01*
X142833568Y-88889282D01*
X142726425Y-88889282D01*
X142654997Y-88924997D01*
X142619282Y-88996425D01*
X142619282Y-89389282D01*
X142012139Y-88996425D02*
X142262139Y-88996425D01*
X142262139Y-89389282D02*
X142262139Y-88639282D01*
X141904997Y-88639282D01*
D11*
G04 #@! TO.C,R25*
X169159997Y-66919997D02*
X169929997Y-66919997D01*
X176469997Y-65549997D02*
X176469997Y-68289997D01*
X176469997Y-68289997D02*
X169929997Y-68289997D01*
X177239997Y-66919997D02*
X176469997Y-66919997D01*
X169929997Y-65549997D02*
X176469997Y-65549997D01*
X169929997Y-68289997D02*
X169929997Y-65549997D01*
G04 #@! TO.C,C7*
X132429997Y-120359997D02*
X132429997Y-117619997D01*
X124989997Y-120359997D02*
X132429997Y-120359997D01*
X124989997Y-120359997D02*
X124989997Y-117619997D01*
X124989997Y-117619997D02*
X132429997Y-117619997D01*
G04 #@! TO.C,C8*
X147709997Y-67019997D02*
X147709997Y-64279997D01*
X140269997Y-67019997D02*
X147709997Y-67019997D01*
X140269997Y-64279997D02*
X147709997Y-64279997D01*
X140269997Y-67019997D02*
X140269997Y-64279997D01*
G04 #@! TO.C,R14*
X123439997Y-77079997D02*
X124209997Y-77079997D01*
X130749997Y-78449997D02*
X124209997Y-78449997D01*
X124209997Y-78449997D02*
X124209997Y-75709997D01*
X131519997Y-77079997D02*
X130749997Y-77079997D01*
X130749997Y-75709997D02*
X130749997Y-78449997D01*
X124209997Y-75709997D02*
X130749997Y-75709997D01*
G04 #@! TO.C,C5*
X165229997Y-118368997D02*
X165229997Y-117110997D01*
X163389997Y-118368997D02*
X163389997Y-117110997D01*
G04 #@! TO.C,R1*
X176469997Y-69359997D02*
X176469997Y-72099997D01*
X169929997Y-69359997D02*
X176469997Y-69359997D01*
X169929997Y-72099997D02*
X169929997Y-69359997D01*
X176469997Y-72099997D02*
X169929997Y-72099997D01*
X177239997Y-70729997D02*
X176469997Y-70729997D01*
X169159997Y-70729997D02*
X169929997Y-70729997D01*
G04 #@! TO.C,C9*
X147749997Y-81989997D02*
X147749997Y-77249997D01*
X140309997Y-81989997D02*
X140309997Y-77249997D01*
X140309997Y-77249997D02*
X147749997Y-77249997D01*
X140309997Y-81989997D02*
X147749997Y-81989997D01*
G04 #@! TO.C,R28*
X162939997Y-93049997D02*
X162939997Y-86509997D01*
X162939997Y-86509997D02*
X165679997Y-86509997D01*
X164309997Y-85739997D02*
X164309997Y-86509997D01*
X165679997Y-93049997D02*
X162939997Y-93049997D01*
X165679997Y-86509997D02*
X165679997Y-93049997D01*
X164309997Y-93819997D02*
X164309997Y-93049997D01*
G04 #@! TO.C,R2*
X192979997Y-68289997D02*
X186439997Y-68289997D01*
X185669997Y-66919997D02*
X186439997Y-66919997D01*
X186439997Y-68289997D02*
X186439997Y-65549997D01*
X193749997Y-66919997D02*
X192979997Y-66919997D01*
X192979997Y-65549997D02*
X192979997Y-68289997D01*
X186439997Y-65549997D02*
X192979997Y-65549997D01*
G04 #@! TO.C,U2*
X160659997Y-89659997D02*
X160659997Y-100059997D01*
X157659997Y-89719997D02*
X157659997Y-99999997D01*
X156409997Y-89719997D02*
X157659997Y-89719997D01*
X153159997Y-99999997D02*
X153159997Y-89719997D01*
X150159997Y-89659997D02*
X160659997Y-89659997D01*
X160659997Y-100059997D02*
X150159997Y-100059997D01*
X157659997Y-99999997D02*
X153159997Y-99999997D01*
X150159997Y-100059997D02*
X150159997Y-89659997D01*
X153159997Y-89719997D02*
X154409997Y-89719997D01*
X154409997Y-89719997D02*
G75*
G03*
X156409997Y-89719997I1000000J0D01*
G01*
G04 #@! TO.C,R4*
X129479997Y-108929997D02*
X122939997Y-108929997D01*
X129479997Y-106189997D02*
X129479997Y-108929997D01*
X130249997Y-107559997D02*
X129479997Y-107559997D01*
X122169997Y-107559997D02*
X122939997Y-107559997D01*
X122939997Y-108929997D02*
X122939997Y-106189997D01*
X122939997Y-106189997D02*
X129479997Y-106189997D01*
G04 #@! TO.C,R15*
X124209997Y-79519997D02*
X130749997Y-79519997D01*
X131519997Y-80889997D02*
X130749997Y-80889997D01*
X130749997Y-79519997D02*
X130749997Y-82259997D01*
X123439997Y-80889997D02*
X124209997Y-80889997D01*
X124209997Y-82259997D02*
X124209997Y-79519997D01*
X130749997Y-82259997D02*
X124209997Y-82259997D01*
G04 #@! TO.C,R3*
X162499997Y-59399997D02*
X155959997Y-59399997D01*
X155959997Y-56659997D02*
X162499997Y-56659997D01*
X163269997Y-58029997D02*
X162499997Y-58029997D01*
X162499997Y-56659997D02*
X162499997Y-59399997D01*
X155189997Y-58029997D02*
X155959997Y-58029997D01*
X155959997Y-59399997D02*
X155959997Y-56659997D01*
G04 #@! TO.C,C11*
X124889997Y-87139997D02*
X117449997Y-87139997D01*
X117449997Y-87139997D02*
X117449997Y-89879997D01*
X124889997Y-89879997D02*
X117449997Y-89879997D01*
X124889997Y-87139997D02*
X124889997Y-89879997D01*
G04 #@! TO.C,C12*
X115999997Y-89879997D02*
X108559997Y-89879997D01*
X108559997Y-87139997D02*
X108559997Y-89879997D01*
X115999997Y-87139997D02*
X108559997Y-87139997D01*
X115999997Y-87139997D02*
X115999997Y-89879997D01*
G04 #@! TO.C,U6*
X179999997Y-47179997D02*
X176399997Y-47179997D01*
X178199997Y-42729996D02*
G75*
G03*
X176361519Y-47168475I0J-2600001D01*
G01*
X180038475Y-47168475D02*
G75*
G03*
X178199997Y-42729997I-1838478J1838478D01*
G01*
G04 #@! TO.C,C4*
X145908997Y-117369997D02*
X144650997Y-117369997D01*
X145908997Y-115529997D02*
X144650997Y-115529997D01*
G04 #@! TO.C,R13*
X138179997Y-73169997D02*
X144719997Y-73169997D01*
X144719997Y-73169997D02*
X144719997Y-75909997D01*
X138179997Y-75909997D02*
X138179997Y-73169997D01*
X145489997Y-74539997D02*
X144719997Y-74539997D01*
X137409997Y-74539997D02*
X138179997Y-74539997D01*
X144719997Y-75909997D02*
X138179997Y-75909997D01*
G04 #@! TO.C,D2*
X158379997Y-51529997D02*
X158379997Y-49289997D01*
X159099997Y-51529997D02*
X159099997Y-49289997D01*
X157729997Y-50409997D02*
X158379997Y-50409997D01*
X163269997Y-50409997D02*
X162619997Y-50409997D01*
X158979997Y-51529997D02*
X158979997Y-49289997D01*
X159219997Y-51529997D02*
X159219997Y-49289997D01*
X158379997Y-49289997D02*
X162619997Y-49289997D01*
X162619997Y-49289997D02*
X162619997Y-51529997D01*
X162619997Y-51529997D02*
X158379997Y-51529997D01*
G04 #@! TO.C,R19*
X192979997Y-85869997D02*
X192979997Y-88609997D01*
X186439997Y-85869997D02*
X192979997Y-85869997D01*
X185669997Y-87239997D02*
X186439997Y-87239997D01*
X193749997Y-87239997D02*
X192979997Y-87239997D01*
X186439997Y-88609997D02*
X186439997Y-85869997D01*
X192979997Y-88609997D02*
X186439997Y-88609997D01*
G04 #@! TO.C,J2*
X162979997Y-77079997D02*
X162979997Y-82219997D01*
X165639997Y-77079997D02*
X162979997Y-77079997D01*
X165639997Y-82219997D02*
X162979997Y-82219997D01*
X165639997Y-74479997D02*
X164309997Y-74479997D01*
X165639997Y-77079997D02*
X165639997Y-82219997D01*
X165639997Y-75809997D02*
X165639997Y-74479997D01*
G04 #@! TO.C,U3*
X153159997Y-60499997D02*
X154409997Y-60499997D01*
X160659997Y-60439997D02*
X160659997Y-80999997D01*
X153159997Y-80939997D02*
X153159997Y-60499997D01*
X160659997Y-80999997D02*
X150159997Y-80999997D01*
X157659997Y-80939997D02*
X153159997Y-80939997D01*
X157659997Y-60499997D02*
X157659997Y-80939997D01*
X156409997Y-60499997D02*
X157659997Y-60499997D01*
X150159997Y-80999997D02*
X150159997Y-60439997D01*
X150159997Y-60439997D02*
X160659997Y-60439997D01*
X154409997Y-60499997D02*
G75*
G03*
X156409997Y-60499997I1000000J0D01*
G01*
G04 #@! TO.C,R22*
X109469997Y-84699997D02*
X110239997Y-84699997D01*
X110239997Y-83329997D02*
X116779997Y-83329997D01*
X110239997Y-86069997D02*
X110239997Y-83329997D01*
X116779997Y-83329997D02*
X116779997Y-86069997D01*
X116779997Y-86069997D02*
X110239997Y-86069997D01*
X117549997Y-84699997D02*
X116779997Y-84699997D01*
G04 #@! TO.C,R30*
X192979997Y-75709997D02*
X192979997Y-78449997D01*
X186439997Y-75709997D02*
X192979997Y-75709997D01*
X192979997Y-78449997D02*
X186439997Y-78449997D01*
X193749997Y-77079997D02*
X192979997Y-77079997D01*
X186439997Y-78449997D02*
X186439997Y-75709997D01*
X185669997Y-77079997D02*
X186439997Y-77079997D01*
G04 #@! TO.C,C1*
X165229997Y-67540997D02*
X165229997Y-68798997D01*
X163389997Y-67540997D02*
X163389997Y-68798997D01*
G04 #@! TO.C,R5*
X129479997Y-113809997D02*
X129479997Y-116549997D01*
X122939997Y-116549997D02*
X122939997Y-113809997D01*
X122169997Y-115179997D02*
X122939997Y-115179997D01*
X129479997Y-116549997D02*
X122939997Y-116549997D01*
X130249997Y-115179997D02*
X129479997Y-115179997D01*
X122939997Y-113809997D02*
X129479997Y-113809997D01*
G04 #@! TO.C,R6*
X130249997Y-111369997D02*
X129479997Y-111369997D01*
X129479997Y-112739997D02*
X122939997Y-112739997D01*
X122939997Y-112739997D02*
X122939997Y-109999997D01*
X129479997Y-109999997D02*
X129479997Y-112739997D01*
X122939997Y-109999997D02*
X129479997Y-109999997D01*
X122169997Y-111369997D02*
X122939997Y-111369997D01*
G04 #@! TO.C,R9*
X176469997Y-111469997D02*
X169929997Y-111469997D01*
X169929997Y-111469997D02*
X169929997Y-108729997D01*
X176469997Y-108729997D02*
X176469997Y-111469997D01*
X177239997Y-110099997D02*
X176469997Y-110099997D01*
X169159997Y-110099997D02*
X169929997Y-110099997D01*
X169929997Y-108729997D02*
X176469997Y-108729997D01*
G04 #@! TO.C,R20*
X185669997Y-56759997D02*
X186439997Y-56759997D01*
X193749997Y-56759997D02*
X192979997Y-56759997D01*
X186439997Y-58129997D02*
X186439997Y-55389997D01*
X186439997Y-55389997D02*
X192979997Y-55389997D01*
X192979997Y-58129997D02*
X186439997Y-58129997D01*
X192979997Y-55389997D02*
X192979997Y-58129997D01*
G04 #@! TO.C,J1*
X165639997Y-135439997D02*
X164309997Y-135439997D01*
X162979997Y-138039997D02*
X162979997Y-158419997D01*
X165639997Y-158419997D02*
X162979997Y-158419997D01*
X165639997Y-138039997D02*
X165639997Y-158419997D01*
X165639997Y-138039997D02*
X162979997Y-138039997D01*
X165639997Y-136769997D02*
X165639997Y-135439997D01*
G04 #@! TO.C,R24*
X163189997Y-45329997D02*
X162419997Y-45329997D01*
X155879997Y-43959997D02*
X162419997Y-43959997D01*
X162419997Y-46699997D02*
X155879997Y-46699997D01*
X162419997Y-43959997D02*
X162419997Y-46699997D01*
X155109997Y-45329997D02*
X155879997Y-45329997D01*
X155879997Y-46699997D02*
X155879997Y-43959997D01*
G04 #@! TO.C,R31*
X169159997Y-102479997D02*
X169929997Y-102479997D01*
X177239997Y-102479997D02*
X176469997Y-102479997D01*
X169929997Y-103849997D02*
X169929997Y-101109997D01*
X176469997Y-103849997D02*
X169929997Y-103849997D01*
X176469997Y-101109997D02*
X176469997Y-103849997D01*
X169929997Y-101109997D02*
X176469997Y-101109997D01*
G04 #@! TO.C,R26*
X169159997Y-79619997D02*
X169929997Y-79619997D01*
X169929997Y-78249997D02*
X176469997Y-78249997D01*
X176469997Y-80989997D02*
X169929997Y-80989997D01*
X169929997Y-80989997D02*
X169929997Y-78249997D01*
X176469997Y-78249997D02*
X176469997Y-80989997D01*
X177239997Y-79619997D02*
X176469997Y-79619997D01*
G04 #@! TO.C,D1*
X113499997Y-82009997D02*
X113499997Y-79769997D01*
X112659997Y-82009997D02*
X112659997Y-79769997D01*
X112009997Y-80889997D02*
X112659997Y-80889997D01*
X113379997Y-82009997D02*
X113379997Y-79769997D01*
X112659997Y-79769997D02*
X116899997Y-79769997D01*
X116899997Y-82009997D02*
X112659997Y-82009997D01*
X117549997Y-80889997D02*
X116899997Y-80889997D01*
X113259997Y-82009997D02*
X113259997Y-79769997D01*
X116899997Y-79769997D02*
X116899997Y-82009997D01*
G04 #@! TO.C,R11*
X138179997Y-72099997D02*
X138179997Y-69359997D01*
X144719997Y-72099997D02*
X138179997Y-72099997D01*
X145489997Y-70729997D02*
X144719997Y-70729997D01*
X144719997Y-69359997D02*
X144719997Y-72099997D01*
X137409997Y-70729997D02*
X138179997Y-70729997D01*
X138179997Y-69359997D02*
X144719997Y-69359997D01*
G04 #@! TO.C,U1*
X160679997Y-125459997D02*
X150179997Y-125459997D01*
X160679997Y-107439997D02*
X160679997Y-125459997D01*
X157679997Y-125399997D02*
X156429997Y-125399997D01*
X154429997Y-125399997D02*
X153179997Y-125399997D01*
X153179997Y-107499997D02*
X157679997Y-107499997D01*
X150179997Y-107439997D02*
X160679997Y-107439997D01*
X157679997Y-107499997D02*
X157679997Y-125399997D01*
X153179997Y-125399997D02*
X153179997Y-107499997D01*
X150179997Y-125459997D02*
X150179997Y-107439997D01*
X156429997Y-125399997D02*
G75*
G03*
X154429997Y-125399997I-1000000J0D01*
G01*
G04 #@! TO.C,J4*
X110189997Y-96019997D02*
X110189997Y-103859997D01*
X109589997Y-103279997D02*
X109589997Y-101679997D01*
X104169997Y-96019997D02*
X110189997Y-96019997D01*
X110189997Y-103859997D02*
X104169997Y-103859997D01*
X109589997Y-101679997D02*
X110189997Y-101679997D01*
X110189997Y-98199997D02*
X109589997Y-98199997D01*
X105169997Y-102479997D02*
X105169997Y-97399997D01*
X109589997Y-100739997D02*
X109589997Y-99139997D01*
X105169997Y-97399997D02*
X104169997Y-97399997D01*
X105699997Y-97649997D02*
X105169997Y-97399997D01*
X109159997Y-104149997D02*
X105159997Y-104149997D01*
X104169997Y-102479997D02*
X105169997Y-102479997D01*
X109589997Y-96599997D02*
X110189997Y-96599997D01*
X104169997Y-103859997D02*
X104169997Y-96019997D01*
X105699997Y-102229997D02*
X105699997Y-97649997D01*
X110189997Y-103279997D02*
X109589997Y-103279997D01*
X109589997Y-98199997D02*
X109589997Y-96599997D01*
X105169997Y-102479997D02*
X105699997Y-102229997D01*
X110189997Y-100739997D02*
X109589997Y-100739997D01*
X104169997Y-97649997D02*
X105169997Y-97649997D01*
X109589997Y-99139997D02*
X110189997Y-99139997D01*
X104169997Y-102229997D02*
X105169997Y-102229997D01*
G04 #@! TO.C,R27*
X169929997Y-100039997D02*
X169929997Y-97299997D01*
X169929997Y-97299997D02*
X176469997Y-97299997D01*
X176469997Y-100039997D02*
X169929997Y-100039997D01*
X169159997Y-98669997D02*
X169929997Y-98669997D01*
X176469997Y-97299997D02*
X176469997Y-100039997D01*
X177239997Y-98669997D02*
X176469997Y-98669997D01*
G04 #@! TO.C,C13*
X166859997Y-43959997D02*
X174299997Y-43959997D01*
X174299997Y-46699997D02*
X174299997Y-43959997D01*
X166859997Y-46699997D02*
X166859997Y-43959997D01*
X166859997Y-46699997D02*
X174299997Y-46699997D01*
G04 #@! TO.C,C6*
X145908997Y-62759997D02*
X144650997Y-62759997D01*
X145908997Y-60919997D02*
X144650997Y-60919997D01*
G04 #@! TO.C,R10*
X138179997Y-111269997D02*
X144719997Y-111269997D01*
X144719997Y-111269997D02*
X144719997Y-114009997D01*
X138179997Y-114009997D02*
X138179997Y-111269997D01*
X145489997Y-112639997D02*
X144719997Y-112639997D01*
X137409997Y-112639997D02*
X138179997Y-112639997D01*
X144719997Y-114009997D02*
X138179997Y-114009997D01*
G04 #@! TO.C,R23*
X162499997Y-55589997D02*
X155959997Y-55589997D01*
X162499997Y-52849997D02*
X162499997Y-55589997D01*
X155959997Y-52849997D02*
X162499997Y-52849997D01*
X155959997Y-55589997D02*
X155959997Y-52849997D01*
X163269997Y-54219997D02*
X162499997Y-54219997D01*
X155189997Y-54219997D02*
X155959997Y-54219997D01*
G04 #@! TO.C,R18*
X130749997Y-86069997D02*
X124209997Y-86069997D01*
X124209997Y-86069997D02*
X124209997Y-83329997D01*
X124209997Y-83329997D02*
X130749997Y-83329997D01*
X123439997Y-84699997D02*
X124209997Y-84699997D01*
X131519997Y-84699997D02*
X130749997Y-84699997D01*
X130749997Y-83329997D02*
X130749997Y-86069997D01*
G04 #@! TO.C,U4*
X148249997Y-52259997D02*
X144649997Y-52259997D01*
X148249997Y-52259997D02*
G75*
G03*
X148774181Y-51532792I-1799991J1849994D01*
G01*
X144125813Y-51532792D02*
G75*
G03*
X144649997Y-52259997I2324175J1122789D01*
G01*
X148806397Y-49311190D02*
G75*
G03*
X146449997Y-47809997I-2356399J-1098804D01*
G01*
X146449997Y-47809997D02*
G75*
G03*
X144093597Y-49311190I2J-2600002D01*
G01*
G04 #@! TO.C,J3*
X137654997Y-105079997D02*
X142794997Y-105079997D01*
X137654997Y-102419997D02*
X137654997Y-105079997D01*
X136384997Y-102419997D02*
X135054997Y-102419997D01*
X137654997Y-102419997D02*
X142794997Y-102419997D01*
X135054997Y-102419997D02*
X135054997Y-103749997D01*
X142794997Y-102419997D02*
X142794997Y-105079997D01*
G04 #@! TO.C,C10*
X133739997Y-89879997D02*
X133739997Y-87139997D01*
X126299997Y-89879997D02*
X126299997Y-87139997D01*
X126299997Y-89879997D02*
X133739997Y-89879997D01*
X126299997Y-87139997D02*
X133739997Y-87139997D01*
G04 #@! TO.C,C3*
X165229997Y-100588997D02*
X165229997Y-99330997D01*
X163389997Y-100588997D02*
X163389997Y-99330997D01*
G04 #@! TO.C,R16*
X116779997Y-78449997D02*
X110239997Y-78449997D01*
X116779997Y-75709997D02*
X116779997Y-78449997D01*
X117549997Y-77079997D02*
X116779997Y-77079997D01*
X110239997Y-78449997D02*
X110239997Y-75709997D01*
X109469997Y-77079997D02*
X110239997Y-77079997D01*
X110239997Y-75709997D02*
X116779997Y-75709997D01*
G04 #@! TO.C,R8*
X177239997Y-127879997D02*
X176469997Y-127879997D01*
X176469997Y-126509997D02*
X176469997Y-129249997D01*
X169929997Y-129249997D02*
X169929997Y-126509997D01*
X176469997Y-129249997D02*
X169929997Y-129249997D01*
X169159997Y-127879997D02*
X169929997Y-127879997D01*
X169929997Y-126509997D02*
X176469997Y-126509997D01*
G04 #@! TO.C,R21*
X144719997Y-107459997D02*
X144719997Y-110199997D01*
X145489997Y-108829997D02*
X144719997Y-108829997D01*
X137409997Y-108829997D02*
X138179997Y-108829997D01*
X138179997Y-107459997D02*
X144719997Y-107459997D01*
X138179997Y-110199997D02*
X138179997Y-107459997D01*
X144719997Y-110199997D02*
X138179997Y-110199997D01*
G04 #@! TO.C,U5*
X148249997Y-44639997D02*
X144649997Y-44639997D01*
X148806397Y-41691190D02*
G75*
G03*
X146449997Y-40189997I-2356399J-1098804D01*
G01*
X146449997Y-40189997D02*
G75*
G03*
X144093597Y-41691190I2J-2600002D01*
G01*
X144125813Y-43912792D02*
G75*
G03*
X144649997Y-44639997I2324175J1122789D01*
G01*
X148249997Y-44639997D02*
G75*
G03*
X148774181Y-43912792I-1799991J1849994D01*
G01*
G04 #@! TO.C,R12*
X169929997Y-104919997D02*
X176469997Y-104919997D01*
X169159997Y-106289997D02*
X169929997Y-106289997D01*
X177239997Y-106289997D02*
X176469997Y-106289997D01*
X169929997Y-107659997D02*
X169929997Y-104919997D01*
X176469997Y-107659997D02*
X169929997Y-107659997D01*
X176469997Y-104919997D02*
X176469997Y-107659997D01*
G04 #@! TO.C,R7*
X116279997Y-107559997D02*
X115509997Y-107559997D01*
X108199997Y-107559997D02*
X108969997Y-107559997D01*
X115509997Y-108929997D02*
X108969997Y-108929997D01*
X115509997Y-106189997D02*
X115509997Y-108929997D01*
X108969997Y-108929997D02*
X108969997Y-106189997D01*
X108969997Y-106189997D02*
X115509997Y-106189997D01*
G04 #@! TO.C,R29*
X177239997Y-75809997D02*
X176469997Y-75809997D01*
X169159997Y-75809997D02*
X169929997Y-75809997D01*
X169929997Y-74439997D02*
X176469997Y-74439997D01*
X176469997Y-74439997D02*
X176469997Y-77179997D01*
X176469997Y-77179997D02*
X169929997Y-77179997D01*
X169929997Y-77179997D02*
X169929997Y-74439997D01*
G04 #@! TO.C,R17*
X145489997Y-84699997D02*
X144719997Y-84699997D01*
X137409997Y-84699997D02*
X138179997Y-84699997D01*
X138179997Y-86069997D02*
X138179997Y-83329997D01*
X144719997Y-83329997D02*
X144719997Y-86069997D01*
X144719997Y-86069997D02*
X138179997Y-86069997D01*
X138179997Y-83329997D02*
X144719997Y-83329997D01*
G04 #@! TO.C,C2*
X145908997Y-90129997D02*
X144650997Y-90129997D01*
X145908997Y-91969997D02*
X144650997Y-91969997D01*
G04 #@! TD*
M02*
