G04 #@! TF.GenerationSoftware,KiCad,Pcbnew,6.0.5-a6ca702e91~116~ubuntu20.04.1*
G04 #@! TF.CreationDate,2022-06-19T13:49:35-04:00*
G04 #@! TF.ProjectId,herovco_front,6865726f-7663-46f5-9f66-726f6e742e6b,rev?*
G04 #@! TF.SameCoordinates,Original*
G04 #@! TF.FileFunction,Legend,Top*
G04 #@! TF.FilePolarity,Positive*
%FSLAX46Y46*%
G04 Gerber Fmt 4.6, Leading zero omitted, Abs format (unit mm)*
G04 Created by KiCad (PCBNEW 6.0.5-a6ca702e91~116~ubuntu20.04.1) date 2022-06-19 13:49:35*
%MOMM*%
%LPD*%
G01*
G04 APERTURE LIST*
%ADD10C,0.120000*%
%ADD11C,0.150000*%
%ADD12C,0.100000*%
G04 APERTURE END LIST*
D10*
X120800000Y-118500000D02*
X102800000Y-118500000D01*
X120800000Y-135500000D02*
X102800000Y-135500000D01*
X120800000Y-118500000D02*
X120800000Y-135500000D01*
D11*
X178530642Y-81149535D02*
X178530642Y-80399535D01*
X178816357Y-80399535D01*
X178887785Y-80435250D01*
X178923500Y-80470964D01*
X178959214Y-80542392D01*
X178959214Y-80649535D01*
X178923500Y-80720964D01*
X178887785Y-80756678D01*
X178816357Y-80792392D01*
X178530642Y-80792392D01*
X179209214Y-80399535D02*
X179387785Y-81149535D01*
X179530642Y-80613821D01*
X179673500Y-81149535D01*
X179852071Y-80399535D01*
X180137785Y-81149535D02*
X180137785Y-80399535D01*
X180387785Y-80935250D01*
X180637785Y-80399535D01*
X180637785Y-81149535D01*
X181566357Y-81149535D02*
X181566357Y-80649535D01*
X181566357Y-80720964D02*
X181602071Y-80685250D01*
X181673500Y-80649535D01*
X181780642Y-80649535D01*
X181852071Y-80685250D01*
X181887785Y-80756678D01*
X181887785Y-81149535D01*
X181887785Y-80756678D02*
X181923500Y-80685250D01*
X181994928Y-80649535D01*
X182102071Y-80649535D01*
X182173500Y-80685250D01*
X182209214Y-80756678D01*
X182209214Y-81149535D01*
X182887785Y-81149535D02*
X182887785Y-80756678D01*
X182852071Y-80685250D01*
X182780642Y-80649535D01*
X182637785Y-80649535D01*
X182566357Y-80685250D01*
X182887785Y-81113821D02*
X182816357Y-81149535D01*
X182637785Y-81149535D01*
X182566357Y-81113821D01*
X182530642Y-81042392D01*
X182530642Y-80970964D01*
X182566357Y-80899535D01*
X182637785Y-80863821D01*
X182816357Y-80863821D01*
X182887785Y-80828107D01*
X183173500Y-81149535D02*
X183566357Y-80649535D01*
X183173500Y-80649535D02*
X183566357Y-81149535D01*
X181423500Y-82357035D02*
X181352071Y-82321321D01*
X181316357Y-82249892D01*
X181316357Y-81607035D01*
X181709214Y-82357035D02*
X181709214Y-81857035D01*
X181709214Y-81607035D02*
X181673500Y-81642750D01*
X181709214Y-81678464D01*
X181744928Y-81642750D01*
X181709214Y-81607035D01*
X181709214Y-81678464D01*
X182066357Y-82357035D02*
X182066357Y-81857035D01*
X182066357Y-81928464D02*
X182102071Y-81892750D01*
X182173500Y-81857035D01*
X182280642Y-81857035D01*
X182352071Y-81892750D01*
X182387785Y-81964178D01*
X182387785Y-82357035D01*
X182387785Y-81964178D02*
X182423500Y-81892750D01*
X182494928Y-81857035D01*
X182602071Y-81857035D01*
X182673500Y-81892750D01*
X182709214Y-81964178D01*
X182709214Y-82357035D01*
X183066357Y-82357035D02*
X183066357Y-81857035D01*
X183066357Y-81607035D02*
X183030642Y-81642750D01*
X183066357Y-81678464D01*
X183102071Y-81642750D01*
X183066357Y-81607035D01*
X183066357Y-81678464D01*
X183316357Y-81857035D02*
X183602071Y-81857035D01*
X183423500Y-81607035D02*
X183423500Y-82249892D01*
X183459214Y-82321321D01*
X183530642Y-82357035D01*
X183602071Y-82357035D01*
X135223571Y-100311071D02*
X135223571Y-100061071D01*
X134830714Y-100061071D02*
X135580714Y-100061071D01*
X135580714Y-100418214D01*
X134830714Y-100703928D02*
X135580714Y-100703928D01*
X135045000Y-100953928D01*
X135580714Y-101203928D01*
X134830714Y-101203928D01*
X114133333Y-131904761D02*
X114276190Y-131952380D01*
X114514285Y-131952380D01*
X114609523Y-131904761D01*
X114657142Y-131857142D01*
X114704761Y-131761904D01*
X114704761Y-131666666D01*
X114657142Y-131571428D01*
X114609523Y-131523809D01*
X114514285Y-131476190D01*
X114323809Y-131428571D01*
X114228571Y-131380952D01*
X114180952Y-131333333D01*
X114133333Y-131238095D01*
X114133333Y-131142857D01*
X114180952Y-131047619D01*
X114228571Y-131000000D01*
X114323809Y-130952380D01*
X114561904Y-130952380D01*
X114704761Y-131000000D01*
X115085714Y-131904761D02*
X115228571Y-131952380D01*
X115466666Y-131952380D01*
X115561904Y-131904761D01*
X115609523Y-131857142D01*
X115657142Y-131761904D01*
X115657142Y-131666666D01*
X115609523Y-131571428D01*
X115561904Y-131523809D01*
X115466666Y-131476190D01*
X115276190Y-131428571D01*
X115180952Y-131380952D01*
X115133333Y-131333333D01*
X115085714Y-131238095D01*
X115085714Y-131142857D01*
X115133333Y-131047619D01*
X115180952Y-131000000D01*
X115276190Y-130952380D01*
X115514285Y-130952380D01*
X115657142Y-131000000D01*
X116990476Y-131952380D02*
X116895238Y-131904761D01*
X116847619Y-131857142D01*
X116800000Y-131761904D01*
X116800000Y-131476190D01*
X116847619Y-131380952D01*
X116895238Y-131333333D01*
X116990476Y-131285714D01*
X117133333Y-131285714D01*
X117228571Y-131333333D01*
X117276190Y-131380952D01*
X117323809Y-131476190D01*
X117323809Y-131761904D01*
X117276190Y-131857142D01*
X117228571Y-131904761D01*
X117133333Y-131952380D01*
X116990476Y-131952380D01*
X117609523Y-131285714D02*
X117990476Y-131285714D01*
X117752380Y-131952380D02*
X117752380Y-131095238D01*
X117800000Y-131000000D01*
X117895238Y-130952380D01*
X117990476Y-130952380D01*
X118180952Y-131285714D02*
X118561904Y-131285714D01*
X118323809Y-131952380D02*
X118323809Y-131095238D01*
X118371428Y-131000000D01*
X118466666Y-130952380D01*
X118561904Y-130952380D01*
X158548214Y-148773571D02*
X158655357Y-148809285D01*
X158833928Y-148809285D01*
X158905357Y-148773571D01*
X158941071Y-148737857D01*
X158976785Y-148666428D01*
X158976785Y-148595000D01*
X158941071Y-148523571D01*
X158905357Y-148487857D01*
X158833928Y-148452142D01*
X158691071Y-148416428D01*
X158619642Y-148380714D01*
X158583928Y-148345000D01*
X158548214Y-148273571D01*
X158548214Y-148202142D01*
X158583928Y-148130714D01*
X158619642Y-148095000D01*
X158691071Y-148059285D01*
X158869642Y-148059285D01*
X158976785Y-148095000D01*
X159226785Y-148309285D02*
X159405357Y-148809285D01*
X159583928Y-148309285D02*
X159405357Y-148809285D01*
X159333928Y-148987857D01*
X159298214Y-149023571D01*
X159226785Y-149059285D01*
X159869642Y-148309285D02*
X159869642Y-148809285D01*
X159869642Y-148380714D02*
X159905357Y-148345000D01*
X159976785Y-148309285D01*
X160083928Y-148309285D01*
X160155357Y-148345000D01*
X160191071Y-148416428D01*
X160191071Y-148809285D01*
X160869642Y-148773571D02*
X160798214Y-148809285D01*
X160655357Y-148809285D01*
X160583928Y-148773571D01*
X160548214Y-148737857D01*
X160512500Y-148666428D01*
X160512500Y-148452142D01*
X160548214Y-148380714D01*
X160583928Y-148345000D01*
X160655357Y-148309285D01*
X160798214Y-148309285D01*
X160869642Y-148345000D01*
X180927500Y-60758107D02*
X180891785Y-60793821D01*
X180784642Y-60829535D01*
X180713214Y-60829535D01*
X180606071Y-60793821D01*
X180534642Y-60722392D01*
X180498928Y-60650964D01*
X180463214Y-60508107D01*
X180463214Y-60400964D01*
X180498928Y-60258107D01*
X180534642Y-60186678D01*
X180606071Y-60115250D01*
X180713214Y-60079535D01*
X180784642Y-60079535D01*
X180891785Y-60115250D01*
X180927500Y-60150964D01*
X181534642Y-60793821D02*
X181463214Y-60829535D01*
X181320357Y-60829535D01*
X181248928Y-60793821D01*
X181213214Y-60722392D01*
X181213214Y-60436678D01*
X181248928Y-60365250D01*
X181320357Y-60329535D01*
X181463214Y-60329535D01*
X181534642Y-60365250D01*
X181570357Y-60436678D01*
X181570357Y-60508107D01*
X181213214Y-60579535D01*
X181891785Y-60329535D02*
X181891785Y-60829535D01*
X181891785Y-60400964D02*
X181927500Y-60365250D01*
X181998928Y-60329535D01*
X182106071Y-60329535D01*
X182177500Y-60365250D01*
X182213214Y-60436678D01*
X182213214Y-60829535D01*
X182463214Y-60329535D02*
X182748928Y-60329535D01*
X182570357Y-60079535D02*
X182570357Y-60722392D01*
X182606071Y-60793821D01*
X182677500Y-60829535D01*
X182748928Y-60829535D01*
X183284642Y-60793821D02*
X183213214Y-60829535D01*
X183070357Y-60829535D01*
X182998928Y-60793821D01*
X182963214Y-60722392D01*
X182963214Y-60436678D01*
X182998928Y-60365250D01*
X183070357Y-60329535D01*
X183213214Y-60329535D01*
X183284642Y-60365250D01*
X183320357Y-60436678D01*
X183320357Y-60508107D01*
X182963214Y-60579535D01*
X183641785Y-60829535D02*
X183641785Y-60329535D01*
X183641785Y-60472392D02*
X183677500Y-60400964D01*
X183713214Y-60365250D01*
X183784642Y-60329535D01*
X183856071Y-60329535D01*
X181784642Y-61537035D02*
X182070357Y-61537035D01*
X181891785Y-62037035D02*
X181891785Y-61394178D01*
X181927500Y-61322750D01*
X181998928Y-61287035D01*
X182070357Y-61287035D01*
X182320357Y-62037035D02*
X182320357Y-61537035D01*
X182320357Y-61679892D02*
X182356071Y-61608464D01*
X182391785Y-61572750D01*
X182463214Y-61537035D01*
X182534642Y-61537035D01*
X183070357Y-62001321D02*
X182998928Y-62037035D01*
X182856071Y-62037035D01*
X182784642Y-62001321D01*
X182748928Y-61929892D01*
X182748928Y-61644178D01*
X182784642Y-61572750D01*
X182856071Y-61537035D01*
X182998928Y-61537035D01*
X183070357Y-61572750D01*
X183106071Y-61644178D01*
X183106071Y-61715607D01*
X182748928Y-61787035D01*
X183748928Y-61537035D02*
X183748928Y-62287035D01*
X183748928Y-62001321D02*
X183677500Y-62037035D01*
X183534642Y-62037035D01*
X183463214Y-62001321D01*
X183427500Y-61965607D01*
X183391785Y-61894178D01*
X183391785Y-61679892D01*
X183427500Y-61608464D01*
X183463214Y-61572750D01*
X183534642Y-61537035D01*
X183677500Y-61537035D01*
X183748928Y-61572750D01*
X179421619Y-144128571D02*
X179421619Y-143652380D01*
X180421619Y-143652380D01*
X179421619Y-144461904D02*
X180088285Y-144461904D01*
X180421619Y-144461904D02*
X180374000Y-144414285D01*
X180326380Y-144461904D01*
X180374000Y-144509523D01*
X180421619Y-144461904D01*
X180326380Y-144461904D01*
X180088285Y-144938095D02*
X179421619Y-144938095D01*
X179993047Y-144938095D02*
X180040666Y-144985714D01*
X180088285Y-145080952D01*
X180088285Y-145223809D01*
X180040666Y-145319047D01*
X179945428Y-145366666D01*
X179421619Y-145366666D01*
X179945428Y-146938095D02*
X179945428Y-146604761D01*
X179421619Y-146604761D02*
X180421619Y-146604761D01*
X180421619Y-147080952D01*
X179421619Y-147461904D02*
X180421619Y-147461904D01*
X179707333Y-147795238D01*
X180421619Y-148128571D01*
X179421619Y-148128571D01*
X179516857Y-149938095D02*
X179469238Y-149890476D01*
X179421619Y-149747619D01*
X179421619Y-149652380D01*
X179469238Y-149509523D01*
X179564476Y-149414285D01*
X179659714Y-149366666D01*
X179850190Y-149319047D01*
X179993047Y-149319047D01*
X180183523Y-149366666D01*
X180278761Y-149414285D01*
X180374000Y-149509523D01*
X180421619Y-149652380D01*
X180421619Y-149747619D01*
X180374000Y-149890476D01*
X180326380Y-149938095D01*
X180421619Y-150223809D02*
X179421619Y-150557142D01*
X180421619Y-150890476D01*
X156619642Y-155679285D02*
X156869642Y-156429285D01*
X157119642Y-155679285D01*
X157905357Y-155643571D02*
X157262500Y-156607857D01*
X158262500Y-156429285D02*
X158191071Y-156393571D01*
X158155357Y-156357857D01*
X158119642Y-156286428D01*
X158119642Y-156072142D01*
X158155357Y-156000714D01*
X158191071Y-155965000D01*
X158262500Y-155929285D01*
X158369642Y-155929285D01*
X158441071Y-155965000D01*
X158476785Y-156000714D01*
X158512500Y-156072142D01*
X158512500Y-156286428D01*
X158476785Y-156357857D01*
X158441071Y-156393571D01*
X158369642Y-156429285D01*
X158262500Y-156429285D01*
X159155357Y-156393571D02*
X159083928Y-156429285D01*
X158941071Y-156429285D01*
X158869642Y-156393571D01*
X158833928Y-156357857D01*
X158798214Y-156286428D01*
X158798214Y-156072142D01*
X158833928Y-156000714D01*
X158869642Y-155965000D01*
X158941071Y-155929285D01*
X159083928Y-155929285D01*
X159155357Y-155965000D01*
X159369642Y-155929285D02*
X159655357Y-155929285D01*
X159476785Y-155679285D02*
X159476785Y-156322142D01*
X159512500Y-156393571D01*
X159583928Y-156429285D01*
X159655357Y-156429285D01*
X160869642Y-156429285D02*
X160441071Y-156429285D01*
X160655357Y-156429285D02*
X160655357Y-155679285D01*
X160583928Y-155786428D01*
X160512500Y-155857857D01*
X160441071Y-155893571D01*
X159298214Y-135395000D02*
X159226785Y-135359285D01*
X159119642Y-135359285D01*
X159012500Y-135395000D01*
X158941071Y-135466428D01*
X158905357Y-135537857D01*
X158869642Y-135680714D01*
X158869642Y-135787857D01*
X158905357Y-135930714D01*
X158941071Y-136002142D01*
X159012500Y-136073571D01*
X159119642Y-136109285D01*
X159191071Y-136109285D01*
X159298214Y-136073571D01*
X159333928Y-136037857D01*
X159333928Y-135787857D01*
X159191071Y-135787857D01*
X159655357Y-136109285D02*
X159655357Y-135359285D01*
X160083928Y-136109285D01*
X160083928Y-135359285D01*
X160441071Y-136109285D02*
X160441071Y-135359285D01*
X160619642Y-135359285D01*
X160726785Y-135395000D01*
X160798214Y-135466428D01*
X160833928Y-135537857D01*
X160869642Y-135680714D01*
X160869642Y-135787857D01*
X160833928Y-135930714D01*
X160798214Y-136002142D01*
X160726785Y-136073571D01*
X160619642Y-136109285D01*
X160441071Y-136109285D01*
X105538095Y-119952380D02*
X105538095Y-118952380D01*
X105538095Y-119428571D02*
X106109523Y-119428571D01*
X106109523Y-119952380D02*
X106109523Y-118952380D01*
X106538095Y-119904761D02*
X106680952Y-119952380D01*
X106919047Y-119952380D01*
X107014285Y-119904761D01*
X107061904Y-119857142D01*
X107109523Y-119761904D01*
X107109523Y-119666666D01*
X107061904Y-119571428D01*
X107014285Y-119523809D01*
X106919047Y-119476190D01*
X106728571Y-119428571D01*
X106633333Y-119380952D01*
X106585714Y-119333333D01*
X106538095Y-119238095D01*
X106538095Y-119142857D01*
X106585714Y-119047619D01*
X106633333Y-119000000D01*
X106728571Y-118952380D01*
X106966666Y-118952380D01*
X107109523Y-119000000D01*
X129907428Y-94693809D02*
X129907428Y-94360476D01*
X129383619Y-94360476D02*
X130383619Y-94360476D01*
X130383619Y-94836666D01*
X129383619Y-95217619D02*
X130050285Y-95217619D01*
X130383619Y-95217619D02*
X130336000Y-95170000D01*
X130288380Y-95217619D01*
X130336000Y-95265238D01*
X130383619Y-95217619D01*
X130288380Y-95217619D01*
X130050285Y-95693809D02*
X129383619Y-95693809D01*
X129955047Y-95693809D02*
X130002666Y-95741428D01*
X130050285Y-95836666D01*
X130050285Y-95979523D01*
X130002666Y-96074761D01*
X129907428Y-96122380D01*
X129383619Y-96122380D01*
X129431238Y-96979523D02*
X129383619Y-96884285D01*
X129383619Y-96693809D01*
X129431238Y-96598571D01*
X129526476Y-96550952D01*
X129907428Y-96550952D01*
X130002666Y-96598571D01*
X130050285Y-96693809D01*
X130050285Y-96884285D01*
X130002666Y-96979523D01*
X129907428Y-97027142D01*
X129812190Y-97027142D01*
X129716952Y-96550952D01*
X130050285Y-98074761D02*
X130050285Y-98455714D01*
X130383619Y-98217619D02*
X129526476Y-98217619D01*
X129431238Y-98265238D01*
X129383619Y-98360476D01*
X129383619Y-98455714D01*
X130050285Y-99217619D02*
X129383619Y-99217619D01*
X130050285Y-98789047D02*
X129526476Y-98789047D01*
X129431238Y-98836666D01*
X129383619Y-98931904D01*
X129383619Y-99074761D01*
X129431238Y-99170000D01*
X129478857Y-99217619D01*
X130050285Y-99693809D02*
X129383619Y-99693809D01*
X129955047Y-99693809D02*
X130002666Y-99741428D01*
X130050285Y-99836666D01*
X130050285Y-99979523D01*
X130002666Y-100074761D01*
X129907428Y-100122380D01*
X129383619Y-100122380D01*
X129431238Y-100979523D02*
X129383619Y-100884285D01*
X129383619Y-100693809D01*
X129431238Y-100598571D01*
X129526476Y-100550952D01*
X129907428Y-100550952D01*
X130002666Y-100598571D01*
X130050285Y-100693809D01*
X130050285Y-100884285D01*
X130002666Y-100979523D01*
X129907428Y-101027142D01*
X129812190Y-101027142D01*
X129716952Y-100550952D01*
X137370714Y-99953928D02*
X138120714Y-99953928D01*
X138120714Y-100239642D01*
X138085000Y-100311071D01*
X138049285Y-100346785D01*
X137977857Y-100382500D01*
X137870714Y-100382500D01*
X137799285Y-100346785D01*
X137763571Y-100311071D01*
X137727857Y-100239642D01*
X137727857Y-99953928D01*
X138120714Y-100632500D02*
X137370714Y-100811071D01*
X137906428Y-100953928D01*
X137370714Y-101096785D01*
X138120714Y-101275357D01*
X159706785Y-80193571D02*
X159813928Y-80229285D01*
X159992500Y-80229285D01*
X160063928Y-80193571D01*
X160099642Y-80157857D01*
X160135357Y-80086428D01*
X160135357Y-80015000D01*
X160099642Y-79943571D01*
X160063928Y-79907857D01*
X159992500Y-79872142D01*
X159849642Y-79836428D01*
X159778214Y-79800714D01*
X159742500Y-79765000D01*
X159706785Y-79693571D01*
X159706785Y-79622142D01*
X159742500Y-79550714D01*
X159778214Y-79515000D01*
X159849642Y-79479285D01*
X160028214Y-79479285D01*
X160135357Y-79515000D01*
X160778214Y-80229285D02*
X160778214Y-79836428D01*
X160742500Y-79765000D01*
X160671071Y-79729285D01*
X160528214Y-79729285D01*
X160456785Y-79765000D01*
X160778214Y-80193571D02*
X160706785Y-80229285D01*
X160528214Y-80229285D01*
X160456785Y-80193571D01*
X160421071Y-80122142D01*
X160421071Y-80050714D01*
X160456785Y-79979285D01*
X160528214Y-79943571D01*
X160706785Y-79943571D01*
X160778214Y-79907857D01*
X161063928Y-79729285D02*
X161206785Y-80229285D01*
X161349642Y-79872142D01*
X161492500Y-80229285D01*
X161635357Y-79729285D01*
X105538095Y-131904761D02*
X105680952Y-131952380D01*
X105919047Y-131952380D01*
X106014285Y-131904761D01*
X106061904Y-131857142D01*
X106109523Y-131761904D01*
X106109523Y-131666666D01*
X106061904Y-131571428D01*
X106014285Y-131523809D01*
X105919047Y-131476190D01*
X105728571Y-131428571D01*
X105633333Y-131380952D01*
X105585714Y-131333333D01*
X105538095Y-131238095D01*
X105538095Y-131142857D01*
X105585714Y-131047619D01*
X105633333Y-131000000D01*
X105728571Y-130952380D01*
X105966666Y-130952380D01*
X106109523Y-131000000D01*
X106490476Y-131904761D02*
X106633333Y-131952380D01*
X106871428Y-131952380D01*
X106966666Y-131904761D01*
X107014285Y-131857142D01*
X107061904Y-131761904D01*
X107061904Y-131666666D01*
X107014285Y-131571428D01*
X106966666Y-131523809D01*
X106871428Y-131476190D01*
X106680952Y-131428571D01*
X106585714Y-131380952D01*
X106538095Y-131333333D01*
X106490476Y-131238095D01*
X106490476Y-131142857D01*
X106538095Y-131047619D01*
X106585714Y-131000000D01*
X106680952Y-130952380D01*
X106919047Y-130952380D01*
X107061904Y-131000000D01*
X157619642Y-138363571D02*
X158191071Y-138363571D01*
X158941071Y-138649285D02*
X158512500Y-138649285D01*
X158726785Y-138649285D02*
X158726785Y-137899285D01*
X158655357Y-138006428D01*
X158583928Y-138077857D01*
X158512500Y-138113571D01*
X159226785Y-137970714D02*
X159262500Y-137935000D01*
X159333928Y-137899285D01*
X159512500Y-137899285D01*
X159583928Y-137935000D01*
X159619642Y-137970714D01*
X159655357Y-138042142D01*
X159655357Y-138113571D01*
X159619642Y-138220714D01*
X159191071Y-138649285D01*
X159655357Y-138649285D01*
X160441071Y-137899285D02*
X160691071Y-138649285D01*
X160941071Y-137899285D01*
X156619642Y-153139285D02*
X156869642Y-153889285D01*
X157119642Y-153139285D01*
X157905357Y-153103571D02*
X157262500Y-154067857D01*
X158262500Y-153889285D02*
X158191071Y-153853571D01*
X158155357Y-153817857D01*
X158119642Y-153746428D01*
X158119642Y-153532142D01*
X158155357Y-153460714D01*
X158191071Y-153425000D01*
X158262500Y-153389285D01*
X158369642Y-153389285D01*
X158441071Y-153425000D01*
X158476785Y-153460714D01*
X158512500Y-153532142D01*
X158512500Y-153746428D01*
X158476785Y-153817857D01*
X158441071Y-153853571D01*
X158369642Y-153889285D01*
X158262500Y-153889285D01*
X159155357Y-153853571D02*
X159083928Y-153889285D01*
X158941071Y-153889285D01*
X158869642Y-153853571D01*
X158833928Y-153817857D01*
X158798214Y-153746428D01*
X158798214Y-153532142D01*
X158833928Y-153460714D01*
X158869642Y-153425000D01*
X158941071Y-153389285D01*
X159083928Y-153389285D01*
X159155357Y-153425000D01*
X159369642Y-153389285D02*
X159655357Y-153389285D01*
X159476785Y-153139285D02*
X159476785Y-153782142D01*
X159512500Y-153853571D01*
X159583928Y-153889285D01*
X159655357Y-153889285D01*
X160441071Y-153210714D02*
X160476785Y-153175000D01*
X160548214Y-153139285D01*
X160726785Y-153139285D01*
X160798214Y-153175000D01*
X160833928Y-153210714D01*
X160869642Y-153282142D01*
X160869642Y-153353571D01*
X160833928Y-153460714D01*
X160405357Y-153889285D01*
X160869642Y-153889285D01*
X157833928Y-151349285D02*
X157476785Y-151349285D01*
X157476785Y-150599285D01*
X158083928Y-151349285D02*
X158083928Y-150849285D01*
X158083928Y-150599285D02*
X158048214Y-150635000D01*
X158083928Y-150670714D01*
X158119642Y-150635000D01*
X158083928Y-150599285D01*
X158083928Y-150670714D01*
X158441071Y-150849285D02*
X158441071Y-151349285D01*
X158441071Y-150920714D02*
X158476785Y-150885000D01*
X158548214Y-150849285D01*
X158655357Y-150849285D01*
X158726785Y-150885000D01*
X158762500Y-150956428D01*
X158762500Y-151349285D01*
X159941071Y-150956428D02*
X159691071Y-150956428D01*
X159691071Y-151349285D02*
X159691071Y-150599285D01*
X160048214Y-150599285D01*
X160333928Y-151349285D02*
X160333928Y-150599285D01*
X160583928Y-151135000D01*
X160833928Y-150599285D01*
X160833928Y-151349285D01*
X114942857Y-119904761D02*
X115085714Y-119952380D01*
X115323809Y-119952380D01*
X115419047Y-119904761D01*
X115466666Y-119857142D01*
X115514285Y-119761904D01*
X115514285Y-119666666D01*
X115466666Y-119571428D01*
X115419047Y-119523809D01*
X115323809Y-119476190D01*
X115133333Y-119428571D01*
X115038095Y-119380952D01*
X114990476Y-119333333D01*
X114942857Y-119238095D01*
X114942857Y-119142857D01*
X114990476Y-119047619D01*
X115038095Y-119000000D01*
X115133333Y-118952380D01*
X115371428Y-118952380D01*
X115514285Y-119000000D01*
X116704761Y-119952380D02*
X116704761Y-119285714D01*
X116704761Y-118952380D02*
X116657142Y-119000000D01*
X116704761Y-119047619D01*
X116752380Y-119000000D01*
X116704761Y-118952380D01*
X116704761Y-119047619D01*
X117180952Y-119285714D02*
X117180952Y-119952380D01*
X117180952Y-119380952D02*
X117228571Y-119333333D01*
X117323809Y-119285714D01*
X117466666Y-119285714D01*
X117561904Y-119333333D01*
X117609523Y-119428571D01*
X117609523Y-119952380D01*
X157619642Y-140903571D02*
X158191071Y-140903571D01*
X157905357Y-141189285D02*
X157905357Y-140617857D01*
X158941071Y-141189285D02*
X158512500Y-141189285D01*
X158726785Y-141189285D02*
X158726785Y-140439285D01*
X158655357Y-140546428D01*
X158583928Y-140617857D01*
X158512500Y-140653571D01*
X159226785Y-140510714D02*
X159262500Y-140475000D01*
X159333928Y-140439285D01*
X159512500Y-140439285D01*
X159583928Y-140475000D01*
X159619642Y-140510714D01*
X159655357Y-140582142D01*
X159655357Y-140653571D01*
X159619642Y-140760714D01*
X159191071Y-141189285D01*
X159655357Y-141189285D01*
X160441071Y-140439285D02*
X160691071Y-141189285D01*
X160941071Y-140439285D01*
X179796500Y-91436535D02*
X179796500Y-90686535D01*
X179796500Y-91043678D02*
X180225071Y-91043678D01*
X180225071Y-91436535D02*
X180225071Y-90686535D01*
X180582214Y-91436535D02*
X180582214Y-90936535D01*
X180582214Y-90686535D02*
X180546500Y-90722250D01*
X180582214Y-90757964D01*
X180617928Y-90722250D01*
X180582214Y-90686535D01*
X180582214Y-90757964D01*
X181403642Y-90936535D02*
X181689357Y-90936535D01*
X181510785Y-91436535D02*
X181510785Y-90793678D01*
X181546500Y-90722250D01*
X181617928Y-90686535D01*
X181689357Y-90686535D01*
X181939357Y-91436535D02*
X181939357Y-90936535D01*
X181939357Y-91079392D02*
X181975071Y-91007964D01*
X182010785Y-90972250D01*
X182082214Y-90936535D01*
X182153642Y-90936535D01*
X182689357Y-91400821D02*
X182617928Y-91436535D01*
X182475071Y-91436535D01*
X182403642Y-91400821D01*
X182367928Y-91329392D01*
X182367928Y-91043678D01*
X182403642Y-90972250D01*
X182475071Y-90936535D01*
X182617928Y-90936535D01*
X182689357Y-90972250D01*
X182725071Y-91043678D01*
X182725071Y-91115107D01*
X182367928Y-91186535D01*
X183367928Y-90936535D02*
X183367928Y-91686535D01*
X183367928Y-91400821D02*
X183296500Y-91436535D01*
X183153642Y-91436535D01*
X183082214Y-91400821D01*
X183046500Y-91365107D01*
X183010785Y-91293678D01*
X183010785Y-91079392D01*
X183046500Y-91007964D01*
X183082214Y-90972250D01*
X183153642Y-90936535D01*
X183296500Y-90936535D01*
X183367928Y-90972250D01*
X180796500Y-92144035D02*
X181082214Y-92144035D01*
X180903642Y-91894035D02*
X180903642Y-92536892D01*
X180939357Y-92608321D01*
X181010785Y-92644035D01*
X181082214Y-92644035D01*
X181332214Y-92644035D02*
X181332214Y-92144035D01*
X181332214Y-92286892D02*
X181367928Y-92215464D01*
X181403642Y-92179750D01*
X181475071Y-92144035D01*
X181546500Y-92144035D01*
X182117928Y-92644035D02*
X182117928Y-92251178D01*
X182082214Y-92179750D01*
X182010785Y-92144035D01*
X181867928Y-92144035D01*
X181796500Y-92179750D01*
X182117928Y-92608321D02*
X182046500Y-92644035D01*
X181867928Y-92644035D01*
X181796500Y-92608321D01*
X181760785Y-92536892D01*
X181760785Y-92465464D01*
X181796500Y-92394035D01*
X181867928Y-92358321D01*
X182046500Y-92358321D01*
X182117928Y-92322607D01*
X182796500Y-92608321D02*
X182725071Y-92644035D01*
X182582214Y-92644035D01*
X182510785Y-92608321D01*
X182475071Y-92572607D01*
X182439357Y-92501178D01*
X182439357Y-92286892D01*
X182475071Y-92215464D01*
X182510785Y-92179750D01*
X182582214Y-92144035D01*
X182725071Y-92144035D01*
X182796500Y-92179750D01*
X183117928Y-92644035D02*
X183117928Y-91894035D01*
X183189357Y-92358321D02*
X183403642Y-92644035D01*
X183403642Y-92144035D02*
X183117928Y-92429750D01*
X139910714Y-98703928D02*
X140660714Y-98703928D01*
X140660714Y-98989642D01*
X140625000Y-99061071D01*
X140589285Y-99096785D01*
X140517857Y-99132500D01*
X140410714Y-99132500D01*
X140339285Y-99096785D01*
X140303571Y-99061071D01*
X140267857Y-98989642D01*
X140267857Y-98703928D01*
X139910714Y-99453928D02*
X140410714Y-99453928D01*
X140660714Y-99453928D02*
X140625000Y-99418214D01*
X140589285Y-99453928D01*
X140625000Y-99489642D01*
X140660714Y-99453928D01*
X140589285Y-99453928D01*
X140410714Y-99703928D02*
X140410714Y-99989642D01*
X140660714Y-99811071D02*
X140017857Y-99811071D01*
X139946428Y-99846785D01*
X139910714Y-99918214D01*
X139910714Y-99989642D01*
X139946428Y-100561071D02*
X139910714Y-100489642D01*
X139910714Y-100346785D01*
X139946428Y-100275357D01*
X139982142Y-100239642D01*
X140053571Y-100203928D01*
X140267857Y-100203928D01*
X140339285Y-100239642D01*
X140375000Y-100275357D01*
X140410714Y-100346785D01*
X140410714Y-100489642D01*
X140375000Y-100561071D01*
X139910714Y-100882500D02*
X140660714Y-100882500D01*
X139910714Y-101203928D02*
X140303571Y-101203928D01*
X140375000Y-101168214D01*
X140410714Y-101096785D01*
X140410714Y-100989642D01*
X140375000Y-100918214D01*
X140339285Y-100882500D01*
X157155357Y-145876428D02*
X157405357Y-145876428D01*
X157512500Y-146269285D02*
X157155357Y-146269285D01*
X157155357Y-145519285D01*
X157512500Y-145519285D01*
X157762500Y-146269285D02*
X158155357Y-145769285D01*
X157762500Y-145769285D02*
X158155357Y-146269285D01*
X158441071Y-145769285D02*
X158441071Y-146519285D01*
X158441071Y-145805000D02*
X158512500Y-145769285D01*
X158655357Y-145769285D01*
X158726785Y-145805000D01*
X158762500Y-145840714D01*
X158798214Y-145912142D01*
X158798214Y-146126428D01*
X158762500Y-146197857D01*
X158726785Y-146233571D01*
X158655357Y-146269285D01*
X158512500Y-146269285D01*
X158441071Y-146233571D01*
X159941071Y-145876428D02*
X159691071Y-145876428D01*
X159691071Y-146269285D02*
X159691071Y-145519285D01*
X160048214Y-145519285D01*
X160333928Y-146269285D02*
X160333928Y-145519285D01*
X160583928Y-146055000D01*
X160833928Y-145519285D01*
X160833928Y-146269285D01*
X179471142Y-71478285D02*
X179899714Y-71478285D01*
X179685428Y-72228285D02*
X179685428Y-71478285D01*
X180149714Y-72228285D02*
X180149714Y-71728285D01*
X180149714Y-71871142D02*
X180185428Y-71799714D01*
X180221142Y-71764000D01*
X180292571Y-71728285D01*
X180364000Y-71728285D01*
X180935428Y-72228285D02*
X180935428Y-71835428D01*
X180899714Y-71764000D01*
X180828285Y-71728285D01*
X180685428Y-71728285D01*
X180614000Y-71764000D01*
X180935428Y-72192571D02*
X180864000Y-72228285D01*
X180685428Y-72228285D01*
X180614000Y-72192571D01*
X180578285Y-72121142D01*
X180578285Y-72049714D01*
X180614000Y-71978285D01*
X180685428Y-71942571D01*
X180864000Y-71942571D01*
X180935428Y-71906857D01*
X181614000Y-72192571D02*
X181542571Y-72228285D01*
X181399714Y-72228285D01*
X181328285Y-72192571D01*
X181292571Y-72156857D01*
X181256857Y-72085428D01*
X181256857Y-71871142D01*
X181292571Y-71799714D01*
X181328285Y-71764000D01*
X181399714Y-71728285D01*
X181542571Y-71728285D01*
X181614000Y-71764000D01*
X181935428Y-72228285D02*
X181935428Y-71478285D01*
X182006857Y-71942571D02*
X182221142Y-72228285D01*
X182221142Y-71728285D02*
X181935428Y-72014000D01*
X182542571Y-72228285D02*
X182542571Y-71728285D01*
X182542571Y-71478285D02*
X182506857Y-71514000D01*
X182542571Y-71549714D01*
X182578285Y-71514000D01*
X182542571Y-71478285D01*
X182542571Y-71549714D01*
X182899714Y-71728285D02*
X182899714Y-72228285D01*
X182899714Y-71799714D02*
X182935428Y-71764000D01*
X183006857Y-71728285D01*
X183114000Y-71728285D01*
X183185428Y-71764000D01*
X183221142Y-71835428D01*
X183221142Y-72228285D01*
X183899714Y-71728285D02*
X183899714Y-72335428D01*
X183864000Y-72406857D01*
X183828285Y-72442571D01*
X183756857Y-72478285D01*
X183649714Y-72478285D01*
X183578285Y-72442571D01*
X183899714Y-72192571D02*
X183828285Y-72228285D01*
X183685428Y-72228285D01*
X183614000Y-72192571D01*
X183578285Y-72156857D01*
X183542571Y-72085428D01*
X183542571Y-71871142D01*
X183578285Y-71799714D01*
X183614000Y-71764000D01*
X183685428Y-71728285D01*
X183828285Y-71728285D01*
X183899714Y-71764000D01*
X179167619Y-53395142D02*
X180167619Y-53395142D01*
X180167619Y-53776095D01*
X180120000Y-53871333D01*
X180072380Y-53918952D01*
X179977142Y-53966571D01*
X179834285Y-53966571D01*
X179739047Y-53918952D01*
X179691428Y-53871333D01*
X179643809Y-53776095D01*
X179643809Y-53395142D01*
X179834285Y-54823714D02*
X179167619Y-54823714D01*
X179834285Y-54395142D02*
X179310476Y-54395142D01*
X179215238Y-54442761D01*
X179167619Y-54538000D01*
X179167619Y-54680857D01*
X179215238Y-54776095D01*
X179262857Y-54823714D01*
X179167619Y-55442761D02*
X179215238Y-55347523D01*
X179310476Y-55299904D01*
X180167619Y-55299904D01*
X179215238Y-55776095D02*
X179167619Y-55871333D01*
X179167619Y-56061809D01*
X179215238Y-56157047D01*
X179310476Y-56204666D01*
X179358095Y-56204666D01*
X179453333Y-56157047D01*
X179500952Y-56061809D01*
X179500952Y-55918952D01*
X179548571Y-55823714D01*
X179643809Y-55776095D01*
X179691428Y-55776095D01*
X179786666Y-55823714D01*
X179834285Y-55918952D01*
X179834285Y-56061809D01*
X179786666Y-56157047D01*
X179215238Y-57014190D02*
X179167619Y-56918952D01*
X179167619Y-56728476D01*
X179215238Y-56633238D01*
X179310476Y-56585619D01*
X179691428Y-56585619D01*
X179786666Y-56633238D01*
X179834285Y-56728476D01*
X179834285Y-56918952D01*
X179786666Y-57014190D01*
X179691428Y-57061809D01*
X179596190Y-57061809D01*
X179500952Y-56585619D01*
X179834285Y-58157047D02*
X179167619Y-58347523D01*
X179643809Y-58538000D01*
X179167619Y-58728476D01*
X179834285Y-58918952D01*
X179167619Y-59299904D02*
X179834285Y-59299904D01*
X180167619Y-59299904D02*
X180120000Y-59252285D01*
X180072380Y-59299904D01*
X180120000Y-59347523D01*
X180167619Y-59299904D01*
X180072380Y-59299904D01*
X179167619Y-60204666D02*
X180167619Y-60204666D01*
X179215238Y-60204666D02*
X179167619Y-60109428D01*
X179167619Y-59918952D01*
X179215238Y-59823714D01*
X179262857Y-59776095D01*
X179358095Y-59728476D01*
X179643809Y-59728476D01*
X179739047Y-59776095D01*
X179786666Y-59823714D01*
X179834285Y-59918952D01*
X179834285Y-60109428D01*
X179786666Y-60204666D01*
X179834285Y-60538000D02*
X179834285Y-60918952D01*
X180167619Y-60680857D02*
X179310476Y-60680857D01*
X179215238Y-60728476D01*
X179167619Y-60823714D01*
X179167619Y-60918952D01*
X179167619Y-61252285D02*
X180167619Y-61252285D01*
X179167619Y-61680857D02*
X179691428Y-61680857D01*
X179786666Y-61633238D01*
X179834285Y-61538000D01*
X179834285Y-61395142D01*
X179786666Y-61299904D01*
X179739047Y-61252285D01*
X180199428Y-115124857D02*
X180199428Y-114791523D01*
X179675619Y-114791523D02*
X180675619Y-114791523D01*
X180675619Y-115267714D01*
X179675619Y-115648666D02*
X180342285Y-115648666D01*
X180151809Y-115648666D02*
X180247047Y-115696285D01*
X180294666Y-115743904D01*
X180342285Y-115839142D01*
X180342285Y-115934380D01*
X179723238Y-116648666D02*
X179675619Y-116553428D01*
X179675619Y-116362952D01*
X179723238Y-116267714D01*
X179818476Y-116220095D01*
X180199428Y-116220095D01*
X180294666Y-116267714D01*
X180342285Y-116362952D01*
X180342285Y-116553428D01*
X180294666Y-116648666D01*
X180199428Y-116696285D01*
X180104190Y-116696285D01*
X180008952Y-116220095D01*
X180342285Y-117553428D02*
X179342285Y-117553428D01*
X179723238Y-117553428D02*
X179675619Y-117458190D01*
X179675619Y-117267714D01*
X179723238Y-117172476D01*
X179770857Y-117124857D01*
X179866095Y-117077238D01*
X180151809Y-117077238D01*
X180247047Y-117124857D01*
X180294666Y-117172476D01*
X180342285Y-117267714D01*
X180342285Y-117458190D01*
X180294666Y-117553428D01*
X179770857Y-119362952D02*
X179723238Y-119315333D01*
X179675619Y-119172476D01*
X179675619Y-119077238D01*
X179723238Y-118934380D01*
X179818476Y-118839142D01*
X179913714Y-118791523D01*
X180104190Y-118743904D01*
X180247047Y-118743904D01*
X180437523Y-118791523D01*
X180532761Y-118839142D01*
X180628000Y-118934380D01*
X180675619Y-119077238D01*
X180675619Y-119172476D01*
X180628000Y-119315333D01*
X180580380Y-119362952D01*
X180675619Y-119648666D02*
X179675619Y-119982000D01*
X180675619Y-120315333D01*
X177913809Y-39712380D02*
X177913809Y-38712380D01*
X177913809Y-39188571D02*
X178485238Y-39188571D01*
X178485238Y-39712380D02*
X178485238Y-38712380D01*
X179342380Y-39664761D02*
X179247142Y-39712380D01*
X179056666Y-39712380D01*
X178961428Y-39664761D01*
X178913809Y-39569523D01*
X178913809Y-39188571D01*
X178961428Y-39093333D01*
X179056666Y-39045714D01*
X179247142Y-39045714D01*
X179342380Y-39093333D01*
X179390000Y-39188571D01*
X179390000Y-39283809D01*
X178913809Y-39379047D01*
X179818571Y-39712380D02*
X179818571Y-39045714D01*
X179818571Y-39236190D02*
X179866190Y-39140952D01*
X179913809Y-39093333D01*
X180009047Y-39045714D01*
X180104285Y-39045714D01*
X180580476Y-39712380D02*
X180485238Y-39664761D01*
X180437619Y-39617142D01*
X180390000Y-39521904D01*
X180390000Y-39236190D01*
X180437619Y-39140952D01*
X180485238Y-39093333D01*
X180580476Y-39045714D01*
X180723333Y-39045714D01*
X180818571Y-39093333D01*
X180866190Y-39140952D01*
X180913809Y-39236190D01*
X180913809Y-39521904D01*
X180866190Y-39617142D01*
X180818571Y-39664761D01*
X180723333Y-39712380D01*
X180580476Y-39712380D01*
X181961428Y-38712380D02*
X182294761Y-39712380D01*
X182628095Y-38712380D01*
X183532857Y-39617142D02*
X183485238Y-39664761D01*
X183342380Y-39712380D01*
X183247142Y-39712380D01*
X183104285Y-39664761D01*
X183009047Y-39569523D01*
X182961428Y-39474285D01*
X182913809Y-39283809D01*
X182913809Y-39140952D01*
X182961428Y-38950476D01*
X183009047Y-38855238D01*
X183104285Y-38760000D01*
X183247142Y-38712380D01*
X183342380Y-38712380D01*
X183485238Y-38760000D01*
X183532857Y-38807619D01*
X184151904Y-38712380D02*
X184342380Y-38712380D01*
X184437619Y-38760000D01*
X184532857Y-38855238D01*
X184580476Y-39045714D01*
X184580476Y-39379047D01*
X184532857Y-39569523D01*
X184437619Y-39664761D01*
X184342380Y-39712380D01*
X184151904Y-39712380D01*
X184056666Y-39664761D01*
X183961428Y-39569523D01*
X183913809Y-39379047D01*
X183913809Y-39045714D01*
X183961428Y-38855238D01*
X184056666Y-38760000D01*
X184151904Y-38712380D01*
X185628095Y-39045714D02*
X186009047Y-39045714D01*
X185770952Y-39712380D02*
X185770952Y-38855238D01*
X185818571Y-38760000D01*
X185913809Y-38712380D01*
X186009047Y-38712380D01*
X186342380Y-39712380D02*
X186342380Y-39045714D01*
X186342380Y-39236190D02*
X186390000Y-39140952D01*
X186437619Y-39093333D01*
X186532857Y-39045714D01*
X186628095Y-39045714D01*
X187104285Y-39712380D02*
X187009047Y-39664761D01*
X186961428Y-39617142D01*
X186913809Y-39521904D01*
X186913809Y-39236190D01*
X186961428Y-39140952D01*
X187009047Y-39093333D01*
X187104285Y-39045714D01*
X187247142Y-39045714D01*
X187342380Y-39093333D01*
X187390000Y-39140952D01*
X187437619Y-39236190D01*
X187437619Y-39521904D01*
X187390000Y-39617142D01*
X187342380Y-39664761D01*
X187247142Y-39712380D01*
X187104285Y-39712380D01*
X187866190Y-39045714D02*
X187866190Y-39712380D01*
X187866190Y-39140952D02*
X187913809Y-39093333D01*
X188009047Y-39045714D01*
X188151904Y-39045714D01*
X188247142Y-39093333D01*
X188294761Y-39188571D01*
X188294761Y-39712380D01*
X188628095Y-39045714D02*
X189009047Y-39045714D01*
X188770952Y-38712380D02*
X188770952Y-39569523D01*
X188818571Y-39664761D01*
X188913809Y-39712380D01*
X189009047Y-39712380D01*
X190104285Y-39712380D02*
X190104285Y-38712380D01*
X190104285Y-39093333D02*
X190199523Y-39045714D01*
X190390000Y-39045714D01*
X190485238Y-39093333D01*
X190532857Y-39140952D01*
X190580476Y-39236190D01*
X190580476Y-39521904D01*
X190532857Y-39617142D01*
X190485238Y-39664761D01*
X190390000Y-39712380D01*
X190199523Y-39712380D01*
X190104285Y-39664761D01*
X191151904Y-39712380D02*
X191056666Y-39664761D01*
X191009047Y-39617142D01*
X190961428Y-39521904D01*
X190961428Y-39236190D01*
X191009047Y-39140952D01*
X191056666Y-39093333D01*
X191151904Y-39045714D01*
X191294761Y-39045714D01*
X191390000Y-39093333D01*
X191437619Y-39140952D01*
X191485238Y-39236190D01*
X191485238Y-39521904D01*
X191437619Y-39617142D01*
X191390000Y-39664761D01*
X191294761Y-39712380D01*
X191151904Y-39712380D01*
X192342380Y-39712380D02*
X192342380Y-39188571D01*
X192294761Y-39093333D01*
X192199523Y-39045714D01*
X192009047Y-39045714D01*
X191913809Y-39093333D01*
X192342380Y-39664761D02*
X192247142Y-39712380D01*
X192009047Y-39712380D01*
X191913809Y-39664761D01*
X191866190Y-39569523D01*
X191866190Y-39474285D01*
X191913809Y-39379047D01*
X192009047Y-39331428D01*
X192247142Y-39331428D01*
X192342380Y-39283809D01*
X192818571Y-39712380D02*
X192818571Y-39045714D01*
X192818571Y-39236190D02*
X192866190Y-39140952D01*
X192913809Y-39093333D01*
X193009047Y-39045714D01*
X193104285Y-39045714D01*
X193866190Y-39712380D02*
X193866190Y-38712380D01*
X193866190Y-39664761D02*
X193770952Y-39712380D01*
X193580476Y-39712380D01*
X193485238Y-39664761D01*
X193437619Y-39617142D01*
X193390000Y-39521904D01*
X193390000Y-39236190D01*
X193437619Y-39140952D01*
X193485238Y-39093333D01*
X193580476Y-39045714D01*
X193770952Y-39045714D01*
X193866190Y-39093333D01*
X158849642Y-77689285D02*
X158849642Y-76939285D01*
X159135357Y-76939285D01*
X159206785Y-76975000D01*
X159242500Y-77010714D01*
X159278214Y-77082142D01*
X159278214Y-77189285D01*
X159242500Y-77260714D01*
X159206785Y-77296428D01*
X159135357Y-77332142D01*
X158849642Y-77332142D01*
X159921071Y-77189285D02*
X159921071Y-77689285D01*
X159599642Y-77189285D02*
X159599642Y-77582142D01*
X159635357Y-77653571D01*
X159706785Y-77689285D01*
X159813928Y-77689285D01*
X159885357Y-77653571D01*
X159921071Y-77617857D01*
X160385357Y-77689285D02*
X160313928Y-77653571D01*
X160278214Y-77582142D01*
X160278214Y-76939285D01*
X160635357Y-77653571D02*
X160706785Y-77689285D01*
X160849642Y-77689285D01*
X160921071Y-77653571D01*
X160956785Y-77582142D01*
X160956785Y-77546428D01*
X160921071Y-77475000D01*
X160849642Y-77439285D01*
X160742500Y-77439285D01*
X160671071Y-77403571D01*
X160635357Y-77332142D01*
X160635357Y-77296428D01*
X160671071Y-77225000D01*
X160742500Y-77189285D01*
X160849642Y-77189285D01*
X160921071Y-77225000D01*
X161563928Y-77653571D02*
X161492500Y-77689285D01*
X161349642Y-77689285D01*
X161278214Y-77653571D01*
X161242500Y-77582142D01*
X161242500Y-77296428D01*
X161278214Y-77225000D01*
X161349642Y-77189285D01*
X161492500Y-77189285D01*
X161563928Y-77225000D01*
X161599642Y-77296428D01*
X161599642Y-77367857D01*
X161242500Y-77439285D01*
X106748095Y-126749761D02*
X106890952Y-126797380D01*
X107129047Y-126797380D01*
X107224285Y-126749761D01*
X107271904Y-126702142D01*
X107319523Y-126606904D01*
X107319523Y-126511666D01*
X107271904Y-126416428D01*
X107224285Y-126368809D01*
X107129047Y-126321190D01*
X106938571Y-126273571D01*
X106843333Y-126225952D01*
X106795714Y-126178333D01*
X106748095Y-126083095D01*
X106748095Y-125987857D01*
X106795714Y-125892619D01*
X106843333Y-125845000D01*
X106938571Y-125797380D01*
X107176666Y-125797380D01*
X107319523Y-125845000D01*
X107652857Y-126130714D02*
X107890952Y-126797380D01*
X108129047Y-126130714D02*
X107890952Y-126797380D01*
X107795714Y-127035476D01*
X107748095Y-127083095D01*
X107652857Y-127130714D01*
X108510000Y-126130714D02*
X108510000Y-126797380D01*
X108510000Y-126225952D02*
X108557619Y-126178333D01*
X108652857Y-126130714D01*
X108795714Y-126130714D01*
X108890952Y-126178333D01*
X108938571Y-126273571D01*
X108938571Y-126797380D01*
X109843333Y-126749761D02*
X109748095Y-126797380D01*
X109557619Y-126797380D01*
X109462380Y-126749761D01*
X109414761Y-126702142D01*
X109367142Y-126606904D01*
X109367142Y-126321190D01*
X109414761Y-126225952D01*
X109462380Y-126178333D01*
X109557619Y-126130714D01*
X109748095Y-126130714D01*
X109843333Y-126178333D01*
X110986190Y-126749761D02*
X111081428Y-126797380D01*
X111271904Y-126797380D01*
X111367142Y-126749761D01*
X111414761Y-126654523D01*
X111414761Y-126606904D01*
X111367142Y-126511666D01*
X111271904Y-126464047D01*
X111129047Y-126464047D01*
X111033809Y-126416428D01*
X110986190Y-126321190D01*
X110986190Y-126273571D01*
X111033809Y-126178333D01*
X111129047Y-126130714D01*
X111271904Y-126130714D01*
X111367142Y-126178333D01*
X111748095Y-126130714D02*
X111938571Y-126797380D01*
X112129047Y-126321190D01*
X112319523Y-126797380D01*
X112510000Y-126130714D01*
X112890952Y-126797380D02*
X112890952Y-126130714D01*
X112890952Y-125797380D02*
X112843333Y-125845000D01*
X112890952Y-125892619D01*
X112938571Y-125845000D01*
X112890952Y-125797380D01*
X112890952Y-125892619D01*
X113224285Y-126130714D02*
X113605238Y-126130714D01*
X113367142Y-125797380D02*
X113367142Y-126654523D01*
X113414761Y-126749761D01*
X113510000Y-126797380D01*
X113605238Y-126797380D01*
X114367142Y-126749761D02*
X114271904Y-126797380D01*
X114081428Y-126797380D01*
X113986190Y-126749761D01*
X113938571Y-126702142D01*
X113890952Y-126606904D01*
X113890952Y-126321190D01*
X113938571Y-126225952D01*
X113986190Y-126178333D01*
X114081428Y-126130714D01*
X114271904Y-126130714D01*
X114367142Y-126178333D01*
X114795714Y-126797380D02*
X114795714Y-125797380D01*
X115224285Y-126797380D02*
X115224285Y-126273571D01*
X115176666Y-126178333D01*
X115081428Y-126130714D01*
X114938571Y-126130714D01*
X114843333Y-126178333D01*
X114795714Y-126225952D01*
X106271904Y-128407380D02*
X106271904Y-127407380D01*
X106271904Y-128359761D02*
X106176666Y-128407380D01*
X105986190Y-128407380D01*
X105890952Y-128359761D01*
X105843333Y-128312142D01*
X105795714Y-128216904D01*
X105795714Y-127931190D01*
X105843333Y-127835952D01*
X105890952Y-127788333D01*
X105986190Y-127740714D01*
X106176666Y-127740714D01*
X106271904Y-127788333D01*
X107176666Y-128407380D02*
X107176666Y-127883571D01*
X107129047Y-127788333D01*
X107033809Y-127740714D01*
X106843333Y-127740714D01*
X106748095Y-127788333D01*
X107176666Y-128359761D02*
X107081428Y-128407380D01*
X106843333Y-128407380D01*
X106748095Y-128359761D01*
X106700476Y-128264523D01*
X106700476Y-128169285D01*
X106748095Y-128074047D01*
X106843333Y-128026428D01*
X107081428Y-128026428D01*
X107176666Y-127978809D01*
X108081428Y-127740714D02*
X108081428Y-128407380D01*
X107652857Y-127740714D02*
X107652857Y-128264523D01*
X107700476Y-128359761D01*
X107795714Y-128407380D01*
X107938571Y-128407380D01*
X108033809Y-128359761D01*
X108081428Y-128312142D01*
X108986190Y-127740714D02*
X108986190Y-128550238D01*
X108938571Y-128645476D01*
X108890952Y-128693095D01*
X108795714Y-128740714D01*
X108652857Y-128740714D01*
X108557619Y-128693095D01*
X108986190Y-128359761D02*
X108890952Y-128407380D01*
X108700476Y-128407380D01*
X108605238Y-128359761D01*
X108557619Y-128312142D01*
X108510000Y-128216904D01*
X108510000Y-127931190D01*
X108557619Y-127835952D01*
X108605238Y-127788333D01*
X108700476Y-127740714D01*
X108890952Y-127740714D01*
X108986190Y-127788333D01*
X109462380Y-128407380D02*
X109462380Y-127407380D01*
X109890952Y-128407380D02*
X109890952Y-127883571D01*
X109843333Y-127788333D01*
X109748095Y-127740714D01*
X109605238Y-127740714D01*
X109510000Y-127788333D01*
X109462380Y-127835952D01*
X110224285Y-127740714D02*
X110605238Y-127740714D01*
X110367142Y-127407380D02*
X110367142Y-128264523D01*
X110414761Y-128359761D01*
X110510000Y-128407380D01*
X110605238Y-128407380D01*
X111319523Y-128359761D02*
X111224285Y-128407380D01*
X111033809Y-128407380D01*
X110938571Y-128359761D01*
X110890952Y-128264523D01*
X110890952Y-127883571D01*
X110938571Y-127788333D01*
X111033809Y-127740714D01*
X111224285Y-127740714D01*
X111319523Y-127788333D01*
X111367142Y-127883571D01*
X111367142Y-127978809D01*
X110890952Y-128074047D01*
X111795714Y-128407380D02*
X111795714Y-127740714D01*
X111795714Y-127931190D02*
X111843333Y-127835952D01*
X111890952Y-127788333D01*
X111986190Y-127740714D01*
X112081428Y-127740714D01*
X112414761Y-128407380D02*
X112414761Y-127407380D01*
X112414761Y-127788333D02*
X112510000Y-127740714D01*
X112700476Y-127740714D01*
X112795714Y-127788333D01*
X112843333Y-127835952D01*
X112890952Y-127931190D01*
X112890952Y-128216904D01*
X112843333Y-128312142D01*
X112795714Y-128359761D01*
X112700476Y-128407380D01*
X112510000Y-128407380D01*
X112414761Y-128359761D01*
X113462380Y-128407380D02*
X113367142Y-128359761D01*
X113319523Y-128312142D01*
X113271904Y-128216904D01*
X113271904Y-127931190D01*
X113319523Y-127835952D01*
X113367142Y-127788333D01*
X113462380Y-127740714D01*
X113605238Y-127740714D01*
X113700476Y-127788333D01*
X113748095Y-127835952D01*
X113795714Y-127931190D01*
X113795714Y-128216904D01*
X113748095Y-128312142D01*
X113700476Y-128359761D01*
X113605238Y-128407380D01*
X113462380Y-128407380D01*
X114652857Y-128407380D02*
X114652857Y-127883571D01*
X114605238Y-127788333D01*
X114510000Y-127740714D01*
X114319523Y-127740714D01*
X114224285Y-127788333D01*
X114652857Y-128359761D02*
X114557619Y-128407380D01*
X114319523Y-128407380D01*
X114224285Y-128359761D01*
X114176666Y-128264523D01*
X114176666Y-128169285D01*
X114224285Y-128074047D01*
X114319523Y-128026428D01*
X114557619Y-128026428D01*
X114652857Y-127978809D01*
X115129047Y-128407380D02*
X115129047Y-127740714D01*
X115129047Y-127931190D02*
X115176666Y-127835952D01*
X115224285Y-127788333D01*
X115319523Y-127740714D01*
X115414761Y-127740714D01*
X116176666Y-128407380D02*
X116176666Y-127407380D01*
X116176666Y-128359761D02*
X116081428Y-128407380D01*
X115890952Y-128407380D01*
X115795714Y-128359761D01*
X115748095Y-128312142D01*
X115700476Y-128216904D01*
X115700476Y-127931190D01*
X115748095Y-127835952D01*
X115795714Y-127788333D01*
X115890952Y-127740714D01*
X116081428Y-127740714D01*
X116176666Y-127788333D01*
X158726785Y-143729285D02*
X158726785Y-142979285D01*
X159012500Y-142979285D01*
X159083928Y-143015000D01*
X159119642Y-143050714D01*
X159155357Y-143122142D01*
X159155357Y-143229285D01*
X159119642Y-143300714D01*
X159083928Y-143336428D01*
X159012500Y-143372142D01*
X158726785Y-143372142D01*
X159405357Y-142979285D02*
X159583928Y-143729285D01*
X159726785Y-143193571D01*
X159869642Y-143729285D01*
X160048214Y-142979285D01*
X160333928Y-143729285D02*
X160333928Y-142979285D01*
X160583928Y-143515000D01*
X160833928Y-142979285D01*
X160833928Y-143729285D01*
X160421071Y-74399285D02*
X160849642Y-74399285D01*
X160635357Y-75149285D02*
X160635357Y-74399285D01*
X161099642Y-75149285D02*
X161099642Y-74649285D01*
X161099642Y-74792142D02*
X161135357Y-74720714D01*
X161171071Y-74685000D01*
X161242500Y-74649285D01*
X161313928Y-74649285D01*
X161563928Y-75149285D02*
X161563928Y-74649285D01*
X161563928Y-74399285D02*
X161528214Y-74435000D01*
X161563928Y-74470714D01*
X161599642Y-74435000D01*
X161563928Y-74399285D01*
X161563928Y-74470714D01*
X179421619Y-86105238D02*
X180421619Y-86105238D01*
X180421619Y-86486190D01*
X180374000Y-86581428D01*
X180326380Y-86629047D01*
X180231142Y-86676666D01*
X180088285Y-86676666D01*
X179993047Y-86629047D01*
X179945428Y-86581428D01*
X179897809Y-86486190D01*
X179897809Y-86105238D01*
X180421619Y-87010000D02*
X179421619Y-87248095D01*
X180135904Y-87438571D01*
X179421619Y-87629047D01*
X180421619Y-87867142D01*
X179421619Y-88248095D02*
X180421619Y-88248095D01*
X179707333Y-88581428D01*
X180421619Y-88914761D01*
X179421619Y-88914761D01*
G04 #@! TO.C,RV6*
X185356571Y-58258285D02*
X185106571Y-57901142D01*
X184928000Y-58258285D02*
X184928000Y-57508285D01*
X185213714Y-57508285D01*
X185285142Y-57544000D01*
X185320857Y-57579714D01*
X185356571Y-57651142D01*
X185356571Y-57758285D01*
X185320857Y-57829714D01*
X185285142Y-57865428D01*
X185213714Y-57901142D01*
X184928000Y-57901142D01*
X185570857Y-57508285D02*
X185820857Y-58258285D01*
X186070857Y-57508285D01*
X186642285Y-57508285D02*
X186499428Y-57508285D01*
X186428000Y-57544000D01*
X186392285Y-57579714D01*
X186320857Y-57686857D01*
X186285142Y-57829714D01*
X186285142Y-58115428D01*
X186320857Y-58186857D01*
X186356571Y-58222571D01*
X186428000Y-58258285D01*
X186570857Y-58258285D01*
X186642285Y-58222571D01*
X186678000Y-58186857D01*
X186713714Y-58115428D01*
X186713714Y-57936857D01*
X186678000Y-57865428D01*
X186642285Y-57829714D01*
X186570857Y-57794000D01*
X186428000Y-57794000D01*
X186356571Y-57829714D01*
X186320857Y-57865428D01*
X186285142Y-57936857D01*
X191913000Y-57579714D02*
X191948714Y-57544000D01*
X192020142Y-57508285D01*
X192198714Y-57508285D01*
X192270142Y-57544000D01*
X192305857Y-57579714D01*
X192341571Y-57651142D01*
X192341571Y-57722571D01*
X192305857Y-57829714D01*
X191877285Y-58258285D01*
X192341571Y-58258285D01*
X192805857Y-57508285D02*
X192877285Y-57508285D01*
X192948714Y-57544000D01*
X192984428Y-57579714D01*
X193020142Y-57651142D01*
X193055857Y-57794000D01*
X193055857Y-57972571D01*
X193020142Y-58115428D01*
X192984428Y-58186857D01*
X192948714Y-58222571D01*
X192877285Y-58258285D01*
X192805857Y-58258285D01*
X192734428Y-58222571D01*
X192698714Y-58186857D01*
X192663000Y-58115428D01*
X192627285Y-57972571D01*
X192627285Y-57794000D01*
X192663000Y-57651142D01*
X192698714Y-57579714D01*
X192734428Y-57544000D01*
X192805857Y-57508285D01*
X193377285Y-58258285D02*
X193377285Y-57508285D01*
X193448714Y-57972571D02*
X193663000Y-58258285D01*
X193663000Y-57758285D02*
X193377285Y-58044000D01*
G04 #@! TO.C,R19*
X180621857Y-85436285D02*
X180371857Y-85079142D01*
X180193285Y-85436285D02*
X180193285Y-84686285D01*
X180479000Y-84686285D01*
X180550428Y-84722000D01*
X180586142Y-84757714D01*
X180621857Y-84829142D01*
X180621857Y-84936285D01*
X180586142Y-85007714D01*
X180550428Y-85043428D01*
X180479000Y-85079142D01*
X180193285Y-85079142D01*
X181336142Y-85436285D02*
X180907571Y-85436285D01*
X181121857Y-85436285D02*
X181121857Y-84686285D01*
X181050428Y-84793428D01*
X180979000Y-84864857D01*
X180907571Y-84900571D01*
X181693285Y-85436285D02*
X181836142Y-85436285D01*
X181907571Y-85400571D01*
X181943285Y-85364857D01*
X182014714Y-85257714D01*
X182050428Y-85114857D01*
X182050428Y-84829142D01*
X182014714Y-84757714D01*
X181979000Y-84722000D01*
X181907571Y-84686285D01*
X181764714Y-84686285D01*
X181693285Y-84722000D01*
X181657571Y-84757714D01*
X181621857Y-84829142D01*
X181621857Y-85007714D01*
X181657571Y-85079142D01*
X181693285Y-85114857D01*
X181764714Y-85150571D01*
X181907571Y-85150571D01*
X181979000Y-85114857D01*
X182014714Y-85079142D01*
X182050428Y-85007714D01*
X188295714Y-86579285D02*
X187867142Y-86579285D01*
X188081428Y-86579285D02*
X188081428Y-85829285D01*
X188010000Y-85936428D01*
X187938571Y-86007857D01*
X187867142Y-86043571D01*
X188617142Y-86579285D02*
X188617142Y-85829285D01*
X188867142Y-86365000D01*
X189117142Y-85829285D01*
X189117142Y-86579285D01*
G04 #@! TO.C,R2*
X181106000Y-66005285D02*
X180856000Y-65648142D01*
X180677428Y-66005285D02*
X180677428Y-65255285D01*
X180963142Y-65255285D01*
X181034571Y-65291000D01*
X181070285Y-65326714D01*
X181106000Y-65398142D01*
X181106000Y-65505285D01*
X181070285Y-65576714D01*
X181034571Y-65612428D01*
X180963142Y-65648142D01*
X180677428Y-65648142D01*
X181391714Y-65326714D02*
X181427428Y-65291000D01*
X181498857Y-65255285D01*
X181677428Y-65255285D01*
X181748857Y-65291000D01*
X181784571Y-65326714D01*
X181820285Y-65398142D01*
X181820285Y-65469571D01*
X181784571Y-65576714D01*
X181356000Y-66005285D01*
X181820285Y-66005285D01*
X187635000Y-65580714D02*
X187670714Y-65545000D01*
X187742142Y-65509285D01*
X187920714Y-65509285D01*
X187992142Y-65545000D01*
X188027857Y-65580714D01*
X188063571Y-65652142D01*
X188063571Y-65723571D01*
X188027857Y-65830714D01*
X187599285Y-66259285D01*
X188063571Y-66259285D01*
X188706428Y-65759285D02*
X188706428Y-66259285D01*
X188527857Y-65473571D02*
X188349285Y-66009285D01*
X188813571Y-66009285D01*
X189099285Y-66259285D02*
X189099285Y-65509285D01*
X189170714Y-65973571D02*
X189385000Y-66259285D01*
X189385000Y-65759285D02*
X189099285Y-66045000D01*
G04 #@! TO.C,RV1*
X116361571Y-90259285D02*
X116111571Y-89902142D01*
X115933000Y-90259285D02*
X115933000Y-89509285D01*
X116218714Y-89509285D01*
X116290142Y-89545000D01*
X116325857Y-89580714D01*
X116361571Y-89652142D01*
X116361571Y-89759285D01*
X116325857Y-89830714D01*
X116290142Y-89866428D01*
X116218714Y-89902142D01*
X115933000Y-89902142D01*
X116575857Y-89509285D02*
X116825857Y-90259285D01*
X117075857Y-89509285D01*
X117718714Y-90259285D02*
X117290142Y-90259285D01*
X117504428Y-90259285D02*
X117504428Y-89509285D01*
X117433000Y-89616428D01*
X117361571Y-89687857D01*
X117290142Y-89723571D01*
X127180428Y-90259285D02*
X126751857Y-90259285D01*
X126966142Y-90259285D02*
X126966142Y-89509285D01*
X126894714Y-89616428D01*
X126823285Y-89687857D01*
X126751857Y-89723571D01*
X127644714Y-89509285D02*
X127716142Y-89509285D01*
X127787571Y-89545000D01*
X127823285Y-89580714D01*
X127859000Y-89652142D01*
X127894714Y-89795000D01*
X127894714Y-89973571D01*
X127859000Y-90116428D01*
X127823285Y-90187857D01*
X127787571Y-90223571D01*
X127716142Y-90259285D01*
X127644714Y-90259285D01*
X127573285Y-90223571D01*
X127537571Y-90187857D01*
X127501857Y-90116428D01*
X127466142Y-89973571D01*
X127466142Y-89795000D01*
X127501857Y-89652142D01*
X127537571Y-89580714D01*
X127573285Y-89545000D01*
X127644714Y-89509285D01*
X128359000Y-89509285D02*
X128430428Y-89509285D01*
X128501857Y-89545000D01*
X128537571Y-89580714D01*
X128573285Y-89652142D01*
X128609000Y-89795000D01*
X128609000Y-89973571D01*
X128573285Y-90116428D01*
X128537571Y-90187857D01*
X128501857Y-90223571D01*
X128430428Y-90259285D01*
X128359000Y-90259285D01*
X128287571Y-90223571D01*
X128251857Y-90187857D01*
X128216142Y-90116428D01*
X128180428Y-89973571D01*
X128180428Y-89795000D01*
X128216142Y-89652142D01*
X128251857Y-89580714D01*
X128287571Y-89545000D01*
X128359000Y-89509285D01*
X128930428Y-90259285D02*
X128930428Y-89509285D01*
X129001857Y-89973571D02*
X129216142Y-90259285D01*
X129216142Y-89759285D02*
X128930428Y-90045000D01*
G04 #@! TO.C,TP3*
X190131285Y-150686428D02*
X190131285Y-150257857D01*
X190881285Y-150472142D02*
X190131285Y-150472142D01*
X190881285Y-150007857D02*
X190131285Y-150007857D01*
X190131285Y-149722142D01*
X190167000Y-149650714D01*
X190202714Y-149615000D01*
X190274142Y-149579285D01*
X190381285Y-149579285D01*
X190452714Y-149615000D01*
X190488428Y-149650714D01*
X190524142Y-149722142D01*
X190524142Y-150007857D01*
X190131285Y-149329285D02*
X190131285Y-148865000D01*
X190417000Y-149115000D01*
X190417000Y-149007857D01*
X190452714Y-148936428D01*
X190488428Y-148900714D01*
X190559857Y-148865000D01*
X190738428Y-148865000D01*
X190809857Y-148900714D01*
X190845571Y-148936428D01*
X190881285Y-149007857D01*
X190881285Y-149222142D01*
X190845571Y-149293571D01*
X190809857Y-149329285D01*
X191611571Y-151061428D02*
X191611571Y-150490000D01*
X191897285Y-149740000D02*
X191897285Y-150168571D01*
X191897285Y-149954285D02*
X191147285Y-149954285D01*
X191254428Y-150025714D01*
X191325857Y-150097142D01*
X191361571Y-150168571D01*
X191218714Y-149454285D02*
X191183000Y-149418571D01*
X191147285Y-149347142D01*
X191147285Y-149168571D01*
X191183000Y-149097142D01*
X191218714Y-149061428D01*
X191290142Y-149025714D01*
X191361571Y-149025714D01*
X191468714Y-149061428D01*
X191897285Y-149490000D01*
X191897285Y-149025714D01*
X191147285Y-148811428D02*
X191897285Y-148561428D01*
X191147285Y-148311428D01*
G04 #@! TO.C,RV7*
X166361571Y-50259285D02*
X166111571Y-49902142D01*
X165933000Y-50259285D02*
X165933000Y-49509285D01*
X166218714Y-49509285D01*
X166290142Y-49545000D01*
X166325857Y-49580714D01*
X166361571Y-49652142D01*
X166361571Y-49759285D01*
X166325857Y-49830714D01*
X166290142Y-49866428D01*
X166218714Y-49902142D01*
X165933000Y-49902142D01*
X166575857Y-49509285D02*
X166825857Y-50259285D01*
X167075857Y-49509285D01*
X167254428Y-49509285D02*
X167754428Y-49509285D01*
X167433000Y-50259285D01*
X177180428Y-50259285D02*
X176751857Y-50259285D01*
X176966142Y-50259285D02*
X176966142Y-49509285D01*
X176894714Y-49616428D01*
X176823285Y-49687857D01*
X176751857Y-49723571D01*
X177644714Y-49509285D02*
X177716142Y-49509285D01*
X177787571Y-49545000D01*
X177823285Y-49580714D01*
X177859000Y-49652142D01*
X177894714Y-49795000D01*
X177894714Y-49973571D01*
X177859000Y-50116428D01*
X177823285Y-50187857D01*
X177787571Y-50223571D01*
X177716142Y-50259285D01*
X177644714Y-50259285D01*
X177573285Y-50223571D01*
X177537571Y-50187857D01*
X177501857Y-50116428D01*
X177466142Y-49973571D01*
X177466142Y-49795000D01*
X177501857Y-49652142D01*
X177537571Y-49580714D01*
X177573285Y-49545000D01*
X177644714Y-49509285D01*
X178359000Y-49509285D02*
X178430428Y-49509285D01*
X178501857Y-49545000D01*
X178537571Y-49580714D01*
X178573285Y-49652142D01*
X178609000Y-49795000D01*
X178609000Y-49973571D01*
X178573285Y-50116428D01*
X178537571Y-50187857D01*
X178501857Y-50223571D01*
X178430428Y-50259285D01*
X178359000Y-50259285D01*
X178287571Y-50223571D01*
X178251857Y-50187857D01*
X178216142Y-50116428D01*
X178180428Y-49973571D01*
X178180428Y-49795000D01*
X178216142Y-49652142D01*
X178251857Y-49580714D01*
X178287571Y-49545000D01*
X178359000Y-49509285D01*
X178930428Y-50259285D02*
X178930428Y-49509285D01*
X179001857Y-49973571D02*
X179216142Y-50259285D01*
X179216142Y-49759285D02*
X178930428Y-50045000D01*
G04 #@! TO.C,RV9*
X185356571Y-78578285D02*
X185106571Y-78221142D01*
X184928000Y-78578285D02*
X184928000Y-77828285D01*
X185213714Y-77828285D01*
X185285142Y-77864000D01*
X185320857Y-77899714D01*
X185356571Y-77971142D01*
X185356571Y-78078285D01*
X185320857Y-78149714D01*
X185285142Y-78185428D01*
X185213714Y-78221142D01*
X184928000Y-78221142D01*
X185570857Y-77828285D02*
X185820857Y-78578285D01*
X186070857Y-77828285D01*
X186356571Y-78578285D02*
X186499428Y-78578285D01*
X186570857Y-78542571D01*
X186606571Y-78506857D01*
X186678000Y-78399714D01*
X186713714Y-78256857D01*
X186713714Y-77971142D01*
X186678000Y-77899714D01*
X186642285Y-77864000D01*
X186570857Y-77828285D01*
X186428000Y-77828285D01*
X186356571Y-77864000D01*
X186320857Y-77899714D01*
X186285142Y-77971142D01*
X186285142Y-78149714D01*
X186320857Y-78221142D01*
X186356571Y-78256857D01*
X186428000Y-78292571D01*
X186570857Y-78292571D01*
X186642285Y-78256857D01*
X186678000Y-78221142D01*
X186713714Y-78149714D01*
X192305857Y-77828285D02*
X191948714Y-77828285D01*
X191913000Y-78185428D01*
X191948714Y-78149714D01*
X192020142Y-78114000D01*
X192198714Y-78114000D01*
X192270142Y-78149714D01*
X192305857Y-78185428D01*
X192341571Y-78256857D01*
X192341571Y-78435428D01*
X192305857Y-78506857D01*
X192270142Y-78542571D01*
X192198714Y-78578285D01*
X192020142Y-78578285D01*
X191948714Y-78542571D01*
X191913000Y-78506857D01*
X192805857Y-77828285D02*
X192877285Y-77828285D01*
X192948714Y-77864000D01*
X192984428Y-77899714D01*
X193020142Y-77971142D01*
X193055857Y-78114000D01*
X193055857Y-78292571D01*
X193020142Y-78435428D01*
X192984428Y-78506857D01*
X192948714Y-78542571D01*
X192877285Y-78578285D01*
X192805857Y-78578285D01*
X192734428Y-78542571D01*
X192698714Y-78506857D01*
X192663000Y-78435428D01*
X192627285Y-78292571D01*
X192627285Y-78114000D01*
X192663000Y-77971142D01*
X192698714Y-77899714D01*
X192734428Y-77864000D01*
X192805857Y-77828285D01*
X193377285Y-78578285D02*
X193377285Y-77828285D01*
X193448714Y-78292571D02*
X193663000Y-78578285D01*
X193663000Y-78078285D02*
X193377285Y-78364000D01*
G04 #@! TO.C,TP1*
X190131285Y-137986428D02*
X190131285Y-137557857D01*
X190881285Y-137772142D02*
X190131285Y-137772142D01*
X190881285Y-137307857D02*
X190131285Y-137307857D01*
X190131285Y-137022142D01*
X190167000Y-136950714D01*
X190202714Y-136915000D01*
X190274142Y-136879285D01*
X190381285Y-136879285D01*
X190452714Y-136915000D01*
X190488428Y-136950714D01*
X190524142Y-137022142D01*
X190524142Y-137307857D01*
X190881285Y-136165000D02*
X190881285Y-136593571D01*
X190881285Y-136379285D02*
X190131285Y-136379285D01*
X190238428Y-136450714D01*
X190309857Y-136522142D01*
X190345571Y-136593571D01*
X191611571Y-138361428D02*
X191611571Y-137790000D01*
X191897285Y-138075714D02*
X191325857Y-138075714D01*
X191897285Y-137040000D02*
X191897285Y-137468571D01*
X191897285Y-137254285D02*
X191147285Y-137254285D01*
X191254428Y-137325714D01*
X191325857Y-137397142D01*
X191361571Y-137468571D01*
X191218714Y-136754285D02*
X191183000Y-136718571D01*
X191147285Y-136647142D01*
X191147285Y-136468571D01*
X191183000Y-136397142D01*
X191218714Y-136361428D01*
X191290142Y-136325714D01*
X191361571Y-136325714D01*
X191468714Y-136361428D01*
X191897285Y-136790000D01*
X191897285Y-136325714D01*
X191147285Y-136111428D02*
X191897285Y-135861428D01*
X191147285Y-135611428D01*
G04 #@! TO.C,R20*
X180748857Y-56353285D02*
X180498857Y-55996142D01*
X180320285Y-56353285D02*
X180320285Y-55603285D01*
X180606000Y-55603285D01*
X180677428Y-55639000D01*
X180713142Y-55674714D01*
X180748857Y-55746142D01*
X180748857Y-55853285D01*
X180713142Y-55924714D01*
X180677428Y-55960428D01*
X180606000Y-55996142D01*
X180320285Y-55996142D01*
X181034571Y-55674714D02*
X181070285Y-55639000D01*
X181141714Y-55603285D01*
X181320285Y-55603285D01*
X181391714Y-55639000D01*
X181427428Y-55674714D01*
X181463142Y-55746142D01*
X181463142Y-55817571D01*
X181427428Y-55924714D01*
X180998857Y-56353285D01*
X181463142Y-56353285D01*
X181927428Y-55603285D02*
X181998857Y-55603285D01*
X182070285Y-55639000D01*
X182106000Y-55674714D01*
X182141714Y-55746142D01*
X182177428Y-55889000D01*
X182177428Y-56067571D01*
X182141714Y-56210428D01*
X182106000Y-56281857D01*
X182070285Y-56317571D01*
X181998857Y-56353285D01*
X181927428Y-56353285D01*
X181856000Y-56317571D01*
X181820285Y-56281857D01*
X181784571Y-56210428D01*
X181748857Y-56067571D01*
X181748857Y-55889000D01*
X181784571Y-55746142D01*
X181820285Y-55674714D01*
X181856000Y-55639000D01*
X181927428Y-55603285D01*
X187992142Y-55599285D02*
X187992142Y-56099285D01*
X187813571Y-55313571D02*
X187635000Y-55849285D01*
X188099285Y-55849285D01*
X188313571Y-55349285D02*
X188813571Y-55349285D01*
X188492142Y-56099285D01*
X189099285Y-56099285D02*
X189099285Y-55349285D01*
X189170714Y-55813571D02*
X189385000Y-56099285D01*
X189385000Y-55599285D02*
X189099285Y-55885000D01*
G04 #@! TO.C,RV8*
X168638571Y-80259285D02*
X168388571Y-79902142D01*
X168210000Y-80259285D02*
X168210000Y-79509285D01*
X168495714Y-79509285D01*
X168567142Y-79545000D01*
X168602857Y-79580714D01*
X168638571Y-79652142D01*
X168638571Y-79759285D01*
X168602857Y-79830714D01*
X168567142Y-79866428D01*
X168495714Y-79902142D01*
X168210000Y-79902142D01*
X168852857Y-79509285D02*
X169102857Y-80259285D01*
X169352857Y-79509285D01*
X169710000Y-79830714D02*
X169638571Y-79795000D01*
X169602857Y-79759285D01*
X169567142Y-79687857D01*
X169567142Y-79652142D01*
X169602857Y-79580714D01*
X169638571Y-79545000D01*
X169710000Y-79509285D01*
X169852857Y-79509285D01*
X169924285Y-79545000D01*
X169960000Y-79580714D01*
X169995714Y-79652142D01*
X169995714Y-79687857D01*
X169960000Y-79759285D01*
X169924285Y-79795000D01*
X169852857Y-79830714D01*
X169710000Y-79830714D01*
X169638571Y-79866428D01*
X169602857Y-79902142D01*
X169567142Y-79973571D01*
X169567142Y-80116428D01*
X169602857Y-80187857D01*
X169638571Y-80223571D01*
X169710000Y-80259285D01*
X169852857Y-80259285D01*
X169924285Y-80223571D01*
X169960000Y-80187857D01*
X169995714Y-80116428D01*
X169995714Y-79973571D01*
X169960000Y-79902142D01*
X169924285Y-79866428D01*
X169852857Y-79830714D01*
X174250428Y-80259285D02*
X173821857Y-80259285D01*
X174036142Y-80259285D02*
X174036142Y-79509285D01*
X173964714Y-79616428D01*
X173893285Y-79687857D01*
X173821857Y-79723571D01*
X174714714Y-79509285D02*
X174786142Y-79509285D01*
X174857571Y-79545000D01*
X174893285Y-79580714D01*
X174929000Y-79652142D01*
X174964714Y-79795000D01*
X174964714Y-79973571D01*
X174929000Y-80116428D01*
X174893285Y-80187857D01*
X174857571Y-80223571D01*
X174786142Y-80259285D01*
X174714714Y-80259285D01*
X174643285Y-80223571D01*
X174607571Y-80187857D01*
X174571857Y-80116428D01*
X174536142Y-79973571D01*
X174536142Y-79795000D01*
X174571857Y-79652142D01*
X174607571Y-79580714D01*
X174643285Y-79545000D01*
X174714714Y-79509285D01*
X175429000Y-79509285D02*
X175500428Y-79509285D01*
X175571857Y-79545000D01*
X175607571Y-79580714D01*
X175643285Y-79652142D01*
X175679000Y-79795000D01*
X175679000Y-79973571D01*
X175643285Y-80116428D01*
X175607571Y-80187857D01*
X175571857Y-80223571D01*
X175500428Y-80259285D01*
X175429000Y-80259285D01*
X175357571Y-80223571D01*
X175321857Y-80187857D01*
X175286142Y-80116428D01*
X175250428Y-79973571D01*
X175250428Y-79795000D01*
X175286142Y-79652142D01*
X175321857Y-79580714D01*
X175357571Y-79545000D01*
X175429000Y-79509285D01*
X176000428Y-80259285D02*
X176000428Y-79509285D01*
X176071857Y-79973571D02*
X176286142Y-80259285D01*
X176286142Y-79759285D02*
X176000428Y-80045000D01*
G04 #@! TO.C,R30*
X180494857Y-76419285D02*
X180244857Y-76062142D01*
X180066285Y-76419285D02*
X180066285Y-75669285D01*
X180352000Y-75669285D01*
X180423428Y-75705000D01*
X180459142Y-75740714D01*
X180494857Y-75812142D01*
X180494857Y-75919285D01*
X180459142Y-75990714D01*
X180423428Y-76026428D01*
X180352000Y-76062142D01*
X180066285Y-76062142D01*
X180744857Y-75669285D02*
X181209142Y-75669285D01*
X180959142Y-75955000D01*
X181066285Y-75955000D01*
X181137714Y-75990714D01*
X181173428Y-76026428D01*
X181209142Y-76097857D01*
X181209142Y-76276428D01*
X181173428Y-76347857D01*
X181137714Y-76383571D01*
X181066285Y-76419285D01*
X180852000Y-76419285D01*
X180780571Y-76383571D01*
X180744857Y-76347857D01*
X181673428Y-75669285D02*
X181744857Y-75669285D01*
X181816285Y-75705000D01*
X181852000Y-75740714D01*
X181887714Y-75812142D01*
X181923428Y-75955000D01*
X181923428Y-76133571D01*
X181887714Y-76276428D01*
X181852000Y-76347857D01*
X181816285Y-76383571D01*
X181744857Y-76419285D01*
X181673428Y-76419285D01*
X181602000Y-76383571D01*
X181566285Y-76347857D01*
X181530571Y-76276428D01*
X181494857Y-76133571D01*
X181494857Y-75955000D01*
X181530571Y-75812142D01*
X181566285Y-75740714D01*
X181602000Y-75705000D01*
X181673428Y-75669285D01*
X187635000Y-75740714D02*
X187670714Y-75705000D01*
X187742142Y-75669285D01*
X187920714Y-75669285D01*
X187992142Y-75705000D01*
X188027857Y-75740714D01*
X188063571Y-75812142D01*
X188063571Y-75883571D01*
X188027857Y-75990714D01*
X187599285Y-76419285D01*
X188063571Y-76419285D01*
X188527857Y-75669285D02*
X188599285Y-75669285D01*
X188670714Y-75705000D01*
X188706428Y-75740714D01*
X188742142Y-75812142D01*
X188777857Y-75955000D01*
X188777857Y-76133571D01*
X188742142Y-76276428D01*
X188706428Y-76347857D01*
X188670714Y-76383571D01*
X188599285Y-76419285D01*
X188527857Y-76419285D01*
X188456428Y-76383571D01*
X188420714Y-76347857D01*
X188385000Y-76276428D01*
X188349285Y-76133571D01*
X188349285Y-75955000D01*
X188385000Y-75812142D01*
X188420714Y-75740714D01*
X188456428Y-75705000D01*
X188527857Y-75669285D01*
X189099285Y-76419285D02*
X189099285Y-75669285D01*
X189170714Y-76133571D02*
X189385000Y-76419285D01*
X189385000Y-75919285D02*
X189099285Y-76205000D01*
G04 #@! TO.C,RV5*
X185356571Y-88611285D02*
X185106571Y-88254142D01*
X184928000Y-88611285D02*
X184928000Y-87861285D01*
X185213714Y-87861285D01*
X185285142Y-87897000D01*
X185320857Y-87932714D01*
X185356571Y-88004142D01*
X185356571Y-88111285D01*
X185320857Y-88182714D01*
X185285142Y-88218428D01*
X185213714Y-88254142D01*
X184928000Y-88254142D01*
X185570857Y-87861285D02*
X185820857Y-88611285D01*
X186070857Y-87861285D01*
X186678000Y-87861285D02*
X186320857Y-87861285D01*
X186285142Y-88218428D01*
X186320857Y-88182714D01*
X186392285Y-88147000D01*
X186570857Y-88147000D01*
X186642285Y-88182714D01*
X186678000Y-88218428D01*
X186713714Y-88289857D01*
X186713714Y-88468428D01*
X186678000Y-88539857D01*
X186642285Y-88575571D01*
X186570857Y-88611285D01*
X186392285Y-88611285D01*
X186320857Y-88575571D01*
X186285142Y-88539857D01*
X191786000Y-87932714D02*
X191821714Y-87897000D01*
X191893142Y-87861285D01*
X192071714Y-87861285D01*
X192143142Y-87897000D01*
X192178857Y-87932714D01*
X192214571Y-88004142D01*
X192214571Y-88075571D01*
X192178857Y-88182714D01*
X191750285Y-88611285D01*
X192214571Y-88611285D01*
X192678857Y-87861285D02*
X192750285Y-87861285D01*
X192821714Y-87897000D01*
X192857428Y-87932714D01*
X192893142Y-88004142D01*
X192928857Y-88147000D01*
X192928857Y-88325571D01*
X192893142Y-88468428D01*
X192857428Y-88539857D01*
X192821714Y-88575571D01*
X192750285Y-88611285D01*
X192678857Y-88611285D01*
X192607428Y-88575571D01*
X192571714Y-88539857D01*
X192536000Y-88468428D01*
X192500285Y-88325571D01*
X192500285Y-88147000D01*
X192536000Y-88004142D01*
X192571714Y-87932714D01*
X192607428Y-87897000D01*
X192678857Y-87861285D01*
X193250285Y-88611285D02*
X193250285Y-87861285D01*
X193321714Y-88325571D02*
X193536000Y-88611285D01*
X193536000Y-88111285D02*
X193250285Y-88397000D01*
G04 #@! TO.C,TP6*
X170973571Y-40617285D02*
X171402142Y-40617285D01*
X171187857Y-41367285D02*
X171187857Y-40617285D01*
X171652142Y-41367285D02*
X171652142Y-40617285D01*
X171937857Y-40617285D01*
X172009285Y-40653000D01*
X172045000Y-40688714D01*
X172080714Y-40760142D01*
X172080714Y-40867285D01*
X172045000Y-40938714D01*
X172009285Y-40974428D01*
X171937857Y-41010142D01*
X171652142Y-41010142D01*
X172723571Y-40617285D02*
X172580714Y-40617285D01*
X172509285Y-40653000D01*
X172473571Y-40688714D01*
X172402142Y-40795857D01*
X172366428Y-40938714D01*
X172366428Y-41224428D01*
X172402142Y-41295857D01*
X172437857Y-41331571D01*
X172509285Y-41367285D01*
X172652142Y-41367285D01*
X172723571Y-41331571D01*
X172759285Y-41295857D01*
X172795000Y-41224428D01*
X172795000Y-41045857D01*
X172759285Y-40974428D01*
X172723571Y-40938714D01*
X172652142Y-40903000D01*
X172509285Y-40903000D01*
X172437857Y-40938714D01*
X172402142Y-40974428D01*
X172366428Y-41045857D01*
X170955714Y-40065571D02*
X171527142Y-40065571D01*
X172241428Y-39601285D02*
X171884285Y-39601285D01*
X171848571Y-39958428D01*
X171884285Y-39922714D01*
X171955714Y-39887000D01*
X172134285Y-39887000D01*
X172205714Y-39922714D01*
X172241428Y-39958428D01*
X172277142Y-40029857D01*
X172277142Y-40208428D01*
X172241428Y-40279857D01*
X172205714Y-40315571D01*
X172134285Y-40351285D01*
X171955714Y-40351285D01*
X171884285Y-40315571D01*
X171848571Y-40279857D01*
X172491428Y-39601285D02*
X172741428Y-40351285D01*
X172991428Y-39601285D01*
G04 #@! TO.C,TP4*
X151923571Y-40617285D02*
X152352142Y-40617285D01*
X152137857Y-41367285D02*
X152137857Y-40617285D01*
X152602142Y-41367285D02*
X152602142Y-40617285D01*
X152887857Y-40617285D01*
X152959285Y-40653000D01*
X152995000Y-40688714D01*
X153030714Y-40760142D01*
X153030714Y-40867285D01*
X152995000Y-40938714D01*
X152959285Y-40974428D01*
X152887857Y-41010142D01*
X152602142Y-41010142D01*
X153673571Y-40867285D02*
X153673571Y-41367285D01*
X153495000Y-40581571D02*
X153316428Y-41117285D01*
X153780714Y-41117285D01*
X150870000Y-40065571D02*
X151441428Y-40065571D01*
X152155714Y-39601285D02*
X151798571Y-39601285D01*
X151762857Y-39958428D01*
X151798571Y-39922714D01*
X151870000Y-39887000D01*
X152048571Y-39887000D01*
X152120000Y-39922714D01*
X152155714Y-39958428D01*
X152191428Y-40029857D01*
X152191428Y-40208428D01*
X152155714Y-40279857D01*
X152120000Y-40315571D01*
X152048571Y-40351285D01*
X151870000Y-40351285D01*
X151798571Y-40315571D01*
X151762857Y-40279857D01*
X152405714Y-39601285D02*
X152655714Y-40351285D01*
X152905714Y-39601285D01*
X153584285Y-40351285D02*
X153334285Y-39994142D01*
X153155714Y-40351285D02*
X153155714Y-39601285D01*
X153441428Y-39601285D01*
X153512857Y-39637000D01*
X153548571Y-39672714D01*
X153584285Y-39744142D01*
X153584285Y-39851285D01*
X153548571Y-39922714D01*
X153512857Y-39958428D01*
X153441428Y-39994142D01*
X153155714Y-39994142D01*
X153905714Y-39958428D02*
X154155714Y-39958428D01*
X154262857Y-40351285D02*
X153905714Y-40351285D01*
X153905714Y-39601285D01*
X154262857Y-39601285D01*
X154834285Y-39958428D02*
X154584285Y-39958428D01*
X154584285Y-40351285D02*
X154584285Y-39601285D01*
X154941428Y-39601285D01*
G04 #@! TO.C,TP2*
X158273571Y-40617285D02*
X158702142Y-40617285D01*
X158487857Y-41367285D02*
X158487857Y-40617285D01*
X158952142Y-41367285D02*
X158952142Y-40617285D01*
X159237857Y-40617285D01*
X159309285Y-40653000D01*
X159345000Y-40688714D01*
X159380714Y-40760142D01*
X159380714Y-40867285D01*
X159345000Y-40938714D01*
X159309285Y-40974428D01*
X159237857Y-41010142D01*
X158952142Y-41010142D01*
X159666428Y-40688714D02*
X159702142Y-40653000D01*
X159773571Y-40617285D01*
X159952142Y-40617285D01*
X160023571Y-40653000D01*
X160059285Y-40688714D01*
X160095000Y-40760142D01*
X160095000Y-40831571D01*
X160059285Y-40938714D01*
X159630714Y-41367285D01*
X160095000Y-41367285D01*
X157220000Y-40065571D02*
X157791428Y-40065571D01*
X157505714Y-40351285D02*
X157505714Y-39779857D01*
X158505714Y-39601285D02*
X158148571Y-39601285D01*
X158112857Y-39958428D01*
X158148571Y-39922714D01*
X158220000Y-39887000D01*
X158398571Y-39887000D01*
X158470000Y-39922714D01*
X158505714Y-39958428D01*
X158541428Y-40029857D01*
X158541428Y-40208428D01*
X158505714Y-40279857D01*
X158470000Y-40315571D01*
X158398571Y-40351285D01*
X158220000Y-40351285D01*
X158148571Y-40315571D01*
X158112857Y-40279857D01*
X158755714Y-39601285D02*
X159005714Y-40351285D01*
X159255714Y-39601285D01*
X159934285Y-40351285D02*
X159684285Y-39994142D01*
X159505714Y-40351285D02*
X159505714Y-39601285D01*
X159791428Y-39601285D01*
X159862857Y-39637000D01*
X159898571Y-39672714D01*
X159934285Y-39744142D01*
X159934285Y-39851285D01*
X159898571Y-39922714D01*
X159862857Y-39958428D01*
X159791428Y-39994142D01*
X159505714Y-39994142D01*
X160255714Y-39958428D02*
X160505714Y-39958428D01*
X160612857Y-40351285D02*
X160255714Y-40351285D01*
X160255714Y-39601285D01*
X160612857Y-39601285D01*
X161184285Y-39958428D02*
X160934285Y-39958428D01*
X160934285Y-40351285D02*
X160934285Y-39601285D01*
X161291428Y-39601285D01*
G04 #@! TO.C,RV3*
X168638571Y-110440285D02*
X168388571Y-110083142D01*
X168210000Y-110440285D02*
X168210000Y-109690285D01*
X168495714Y-109690285D01*
X168567142Y-109726000D01*
X168602857Y-109761714D01*
X168638571Y-109833142D01*
X168638571Y-109940285D01*
X168602857Y-110011714D01*
X168567142Y-110047428D01*
X168495714Y-110083142D01*
X168210000Y-110083142D01*
X168852857Y-109690285D02*
X169102857Y-110440285D01*
X169352857Y-109690285D01*
X169531428Y-109690285D02*
X169995714Y-109690285D01*
X169745714Y-109976000D01*
X169852857Y-109976000D01*
X169924285Y-110011714D01*
X169960000Y-110047428D01*
X169995714Y-110118857D01*
X169995714Y-110297428D01*
X169960000Y-110368857D01*
X169924285Y-110404571D01*
X169852857Y-110440285D01*
X169638571Y-110440285D01*
X169567142Y-110404571D01*
X169531428Y-110368857D01*
X174123428Y-110440285D02*
X173694857Y-110440285D01*
X173909142Y-110440285D02*
X173909142Y-109690285D01*
X173837714Y-109797428D01*
X173766285Y-109868857D01*
X173694857Y-109904571D01*
X174587714Y-109690285D02*
X174659142Y-109690285D01*
X174730571Y-109726000D01*
X174766285Y-109761714D01*
X174802000Y-109833142D01*
X174837714Y-109976000D01*
X174837714Y-110154571D01*
X174802000Y-110297428D01*
X174766285Y-110368857D01*
X174730571Y-110404571D01*
X174659142Y-110440285D01*
X174587714Y-110440285D01*
X174516285Y-110404571D01*
X174480571Y-110368857D01*
X174444857Y-110297428D01*
X174409142Y-110154571D01*
X174409142Y-109976000D01*
X174444857Y-109833142D01*
X174480571Y-109761714D01*
X174516285Y-109726000D01*
X174587714Y-109690285D01*
X175302000Y-109690285D02*
X175373428Y-109690285D01*
X175444857Y-109726000D01*
X175480571Y-109761714D01*
X175516285Y-109833142D01*
X175552000Y-109976000D01*
X175552000Y-110154571D01*
X175516285Y-110297428D01*
X175480571Y-110368857D01*
X175444857Y-110404571D01*
X175373428Y-110440285D01*
X175302000Y-110440285D01*
X175230571Y-110404571D01*
X175194857Y-110368857D01*
X175159142Y-110297428D01*
X175123428Y-110154571D01*
X175123428Y-109976000D01*
X175159142Y-109833142D01*
X175194857Y-109761714D01*
X175230571Y-109726000D01*
X175302000Y-109690285D01*
X175873428Y-110440285D02*
X175873428Y-109690285D01*
X175944857Y-110154571D02*
X176159142Y-110440285D01*
X176159142Y-109940285D02*
X175873428Y-110226000D01*
G04 #@! TO.C,RV2*
X185356571Y-68418285D02*
X185106571Y-68061142D01*
X184928000Y-68418285D02*
X184928000Y-67668285D01*
X185213714Y-67668285D01*
X185285142Y-67704000D01*
X185320857Y-67739714D01*
X185356571Y-67811142D01*
X185356571Y-67918285D01*
X185320857Y-67989714D01*
X185285142Y-68025428D01*
X185213714Y-68061142D01*
X184928000Y-68061142D01*
X185570857Y-67668285D02*
X185820857Y-68418285D01*
X186070857Y-67668285D01*
X186285142Y-67739714D02*
X186320857Y-67704000D01*
X186392285Y-67668285D01*
X186570857Y-67668285D01*
X186642285Y-67704000D01*
X186678000Y-67739714D01*
X186713714Y-67811142D01*
X186713714Y-67882571D01*
X186678000Y-67989714D01*
X186249428Y-68418285D01*
X186713714Y-68418285D01*
X192353571Y-68418285D02*
X191925000Y-68418285D01*
X192139285Y-68418285D02*
X192139285Y-67668285D01*
X192067857Y-67775428D01*
X191996428Y-67846857D01*
X191925000Y-67882571D01*
X192817857Y-67668285D02*
X192889285Y-67668285D01*
X192960714Y-67704000D01*
X192996428Y-67739714D01*
X193032142Y-67811142D01*
X193067857Y-67954000D01*
X193067857Y-68132571D01*
X193032142Y-68275428D01*
X192996428Y-68346857D01*
X192960714Y-68382571D01*
X192889285Y-68418285D01*
X192817857Y-68418285D01*
X192746428Y-68382571D01*
X192710714Y-68346857D01*
X192675000Y-68275428D01*
X192639285Y-68132571D01*
X192639285Y-67954000D01*
X192675000Y-67811142D01*
X192710714Y-67739714D01*
X192746428Y-67704000D01*
X192817857Y-67668285D01*
X193389285Y-68418285D02*
X193389285Y-67668285D01*
X193460714Y-68132571D02*
X193675000Y-68418285D01*
X193675000Y-67918285D02*
X193389285Y-68204000D01*
G04 #@! TO.C,TP5*
X190131285Y-144576428D02*
X190131285Y-144147857D01*
X190881285Y-144362142D02*
X190131285Y-144362142D01*
X190881285Y-143897857D02*
X190131285Y-143897857D01*
X190131285Y-143612142D01*
X190167000Y-143540714D01*
X190202714Y-143505000D01*
X190274142Y-143469285D01*
X190381285Y-143469285D01*
X190452714Y-143505000D01*
X190488428Y-143540714D01*
X190524142Y-143612142D01*
X190524142Y-143897857D01*
X190131285Y-142790714D02*
X190131285Y-143147857D01*
X190488428Y-143183571D01*
X190452714Y-143147857D01*
X190417000Y-143076428D01*
X190417000Y-142897857D01*
X190452714Y-142826428D01*
X190488428Y-142790714D01*
X190559857Y-142755000D01*
X190738428Y-142755000D01*
X190809857Y-142790714D01*
X190845571Y-142826428D01*
X190881285Y-142897857D01*
X190881285Y-143076428D01*
X190845571Y-143147857D01*
X190809857Y-143183571D01*
X191183000Y-144201428D02*
X191147285Y-144272857D01*
X191147285Y-144380000D01*
X191183000Y-144487142D01*
X191254428Y-144558571D01*
X191325857Y-144594285D01*
X191468714Y-144630000D01*
X191575857Y-144630000D01*
X191718714Y-144594285D01*
X191790142Y-144558571D01*
X191861571Y-144487142D01*
X191897285Y-144380000D01*
X191897285Y-144308571D01*
X191861571Y-144201428D01*
X191825857Y-144165714D01*
X191575857Y-144165714D01*
X191575857Y-144308571D01*
X191897285Y-143844285D02*
X191147285Y-143844285D01*
X191897285Y-143415714D01*
X191147285Y-143415714D01*
X191897285Y-143058571D02*
X191147285Y-143058571D01*
X191147285Y-142880000D01*
X191183000Y-142772857D01*
X191254428Y-142701428D01*
X191325857Y-142665714D01*
X191468714Y-142630000D01*
X191575857Y-142630000D01*
X191718714Y-142665714D01*
X191790142Y-142701428D01*
X191861571Y-142772857D01*
X191897285Y-142880000D01*
X191897285Y-143058571D01*
G04 #@! TO.C,RV4*
X166361571Y-140259285D02*
X166111571Y-139902142D01*
X165933000Y-140259285D02*
X165933000Y-139509285D01*
X166218714Y-139509285D01*
X166290142Y-139545000D01*
X166325857Y-139580714D01*
X166361571Y-139652142D01*
X166361571Y-139759285D01*
X166325857Y-139830714D01*
X166290142Y-139866428D01*
X166218714Y-139902142D01*
X165933000Y-139902142D01*
X166575857Y-139509285D02*
X166825857Y-140259285D01*
X167075857Y-139509285D01*
X167647285Y-139759285D02*
X167647285Y-140259285D01*
X167468714Y-139473571D02*
X167290142Y-140009285D01*
X167754428Y-140009285D01*
X177180428Y-140259285D02*
X176751857Y-140259285D01*
X176966142Y-140259285D02*
X176966142Y-139509285D01*
X176894714Y-139616428D01*
X176823285Y-139687857D01*
X176751857Y-139723571D01*
X177644714Y-139509285D02*
X177716142Y-139509285D01*
X177787571Y-139545000D01*
X177823285Y-139580714D01*
X177859000Y-139652142D01*
X177894714Y-139795000D01*
X177894714Y-139973571D01*
X177859000Y-140116428D01*
X177823285Y-140187857D01*
X177787571Y-140223571D01*
X177716142Y-140259285D01*
X177644714Y-140259285D01*
X177573285Y-140223571D01*
X177537571Y-140187857D01*
X177501857Y-140116428D01*
X177466142Y-139973571D01*
X177466142Y-139795000D01*
X177501857Y-139652142D01*
X177537571Y-139580714D01*
X177573285Y-139545000D01*
X177644714Y-139509285D01*
X178359000Y-139509285D02*
X178430428Y-139509285D01*
X178501857Y-139545000D01*
X178537571Y-139580714D01*
X178573285Y-139652142D01*
X178609000Y-139795000D01*
X178609000Y-139973571D01*
X178573285Y-140116428D01*
X178537571Y-140187857D01*
X178501857Y-140223571D01*
X178430428Y-140259285D01*
X178359000Y-140259285D01*
X178287571Y-140223571D01*
X178251857Y-140187857D01*
X178216142Y-140116428D01*
X178180428Y-139973571D01*
X178180428Y-139795000D01*
X178216142Y-139652142D01*
X178251857Y-139580714D01*
X178287571Y-139545000D01*
X178359000Y-139509285D01*
X178930428Y-140259285D02*
X178930428Y-139509285D01*
X179001857Y-139973571D02*
X179216142Y-140259285D01*
X179216142Y-139759285D02*
X178930428Y-140045000D01*
D10*
G04 #@! TO.C,RV6*
X184415000Y-63890000D02*
X194185000Y-63890000D01*
X194185000Y-58820000D02*
X194185000Y-63890000D01*
D12*
X192800000Y-63584500D02*
X192800000Y-61415500D01*
D10*
X184415000Y-58820000D02*
X194185000Y-58820000D01*
X184415000Y-58820000D02*
X184415000Y-63890000D01*
D12*
X191711293Y-62328499D02*
G75*
G03*
X192800000Y-61404500I1080403J-169603D01*
G01*
D10*
G04 #@! TO.C,R19*
X191780000Y-84870000D02*
X185240000Y-84870000D01*
X185240000Y-87610000D02*
X191780000Y-87610000D01*
X184470000Y-86240000D02*
X185240000Y-86240000D01*
X191780000Y-87610000D02*
X191780000Y-84870000D01*
X192550000Y-86240000D02*
X191780000Y-86240000D01*
X185240000Y-84870000D02*
X185240000Y-87610000D01*
G04 #@! TO.C,R2*
X192550000Y-65920000D02*
X191780000Y-65920000D01*
X184470000Y-65920000D02*
X185240000Y-65920000D01*
X191780000Y-64550000D02*
X185240000Y-64550000D01*
X185240000Y-67290000D02*
X191780000Y-67290000D01*
X185240000Y-64550000D02*
X185240000Y-67290000D01*
X191780000Y-67290000D02*
X191780000Y-64550000D01*
G04 #@! TO.C,RV1*
X117180000Y-93810000D02*
X117180000Y-92630000D01*
X117180000Y-99160000D02*
X117180000Y-98330000D01*
X117180000Y-102370000D02*
X121900000Y-102370000D01*
X125710000Y-92630000D02*
X128770000Y-92630000D01*
X117180000Y-92620000D02*
X121900000Y-92620000D01*
X117180000Y-96710000D02*
X117180000Y-96180000D01*
X125710000Y-102370000D02*
X128770000Y-102370000D01*
X117180000Y-102370000D02*
X117180000Y-100880000D01*
X128770000Y-102370000D02*
X128770000Y-92630000D01*
G04 #@! TO.C,TP3*
X194540000Y-149740000D02*
G75*
G03*
X194540000Y-149740000I-950000J0D01*
G01*
G04 #@! TO.C,RV7*
X167180000Y-62370000D02*
X171900000Y-62370000D01*
X167180000Y-62370000D02*
X167180000Y-60880000D01*
X167180000Y-53810000D02*
X167180000Y-52630000D01*
X175710000Y-52630000D02*
X178770000Y-52630000D01*
X167180000Y-59160000D02*
X167180000Y-58330000D01*
X167180000Y-52620000D02*
X171900000Y-52620000D01*
X178770000Y-62370000D02*
X178770000Y-52630000D01*
X167180000Y-56710000D02*
X167180000Y-56180000D01*
X175710000Y-62370000D02*
X178770000Y-62370000D01*
G04 #@! TO.C,RV9*
X184415000Y-83890000D02*
X194185000Y-83890000D01*
X184415000Y-78820000D02*
X194185000Y-78820000D01*
X184415000Y-78820000D02*
X184415000Y-83890000D01*
D12*
X192800000Y-83584500D02*
X192800000Y-81415500D01*
D10*
X194185000Y-78820000D02*
X194185000Y-83890000D01*
D12*
X191711293Y-82328499D02*
G75*
G03*
X192800000Y-81404500I1080403J-169603D01*
G01*
D10*
G04 #@! TO.C,TP1*
X194540000Y-137040000D02*
G75*
G03*
X194540000Y-137040000I-950000J0D01*
G01*
G04 #@! TO.C,R20*
X185240000Y-57130000D02*
X191780000Y-57130000D01*
X184470000Y-55760000D02*
X185240000Y-55760000D01*
X192550000Y-55760000D02*
X191780000Y-55760000D01*
X185240000Y-54390000D02*
X185240000Y-57130000D01*
X191780000Y-54390000D02*
X185240000Y-54390000D01*
X191780000Y-57130000D02*
X191780000Y-54390000D01*
G04 #@! TO.C,RV8*
X175710000Y-82630000D02*
X178770000Y-82630000D01*
X167180000Y-92370000D02*
X171900000Y-92370000D01*
X167180000Y-83810000D02*
X167180000Y-82630000D01*
X167180000Y-86710000D02*
X167180000Y-86180000D01*
X175710000Y-92370000D02*
X178770000Y-92370000D01*
X167180000Y-92370000D02*
X167180000Y-90880000D01*
X167180000Y-82620000D02*
X171900000Y-82620000D01*
X178770000Y-92370000D02*
X178770000Y-82630000D01*
X167180000Y-89160000D02*
X167180000Y-88330000D01*
G04 #@! TO.C,R30*
X191780000Y-77450000D02*
X191780000Y-74710000D01*
X185240000Y-77450000D02*
X191780000Y-77450000D01*
X191780000Y-74710000D02*
X185240000Y-74710000D01*
X184470000Y-76080000D02*
X185240000Y-76080000D01*
X192550000Y-76080000D02*
X191780000Y-76080000D01*
X185240000Y-74710000D02*
X185240000Y-77450000D01*
G04 #@! TO.C,RV5*
X184415000Y-88820000D02*
X194185000Y-88820000D01*
X194185000Y-88820000D02*
X194185000Y-93890000D01*
X184415000Y-93890000D02*
X194185000Y-93890000D01*
D12*
X192800000Y-93584500D02*
X192800000Y-91415500D01*
D10*
X184415000Y-88820000D02*
X184415000Y-93890000D01*
D12*
X191711293Y-92328499D02*
G75*
G03*
X192800000Y-91404500I1080403J-169603D01*
G01*
D10*
G04 #@! TO.C,TP6*
X172870000Y-37980000D02*
G75*
G03*
X172870000Y-37980000I-950000J0D01*
G01*
G04 #@! TO.C,TP4*
X153820000Y-37980000D02*
G75*
G03*
X153820000Y-37980000I-950000J0D01*
G01*
G04 #@! TO.C,TP2*
X160170000Y-37980000D02*
G75*
G03*
X160170000Y-37980000I-950000J0D01*
G01*
G04 #@! TO.C,RV3*
X167180000Y-119160000D02*
X167180000Y-118330000D01*
X175710000Y-122370000D02*
X178770000Y-122370000D01*
X175710000Y-112630000D02*
X178770000Y-112630000D01*
X167180000Y-122370000D02*
X167180000Y-120880000D01*
X167180000Y-113810000D02*
X167180000Y-112630000D01*
X167180000Y-122370000D02*
X171900000Y-122370000D01*
X167180000Y-112620000D02*
X171900000Y-112620000D01*
X167180000Y-116710000D02*
X167180000Y-116180000D01*
X178770000Y-122370000D02*
X178770000Y-112630000D01*
G04 #@! TO.C,RV2*
X184415000Y-68820000D02*
X184415000Y-73890000D01*
X184415000Y-73890000D02*
X194185000Y-73890000D01*
X184415000Y-68820000D02*
X194185000Y-68820000D01*
X194185000Y-68820000D02*
X194185000Y-73890000D01*
D12*
X192800000Y-73584500D02*
X192800000Y-71415500D01*
X191711293Y-72328499D02*
G75*
G03*
X192800000Y-71404500I1080403J-169603D01*
G01*
D10*
G04 #@! TO.C,TP5*
X194540000Y-143630000D02*
G75*
G03*
X194540000Y-143630000I-950000J0D01*
G01*
G04 #@! TO.C,RV4*
X167180000Y-142620000D02*
X171900000Y-142620000D01*
X167180000Y-152370000D02*
X171900000Y-152370000D01*
X175710000Y-142630000D02*
X178770000Y-142630000D01*
X167180000Y-146710000D02*
X167180000Y-146180000D01*
X178770000Y-152370000D02*
X178770000Y-142630000D01*
X167180000Y-149160000D02*
X167180000Y-148330000D01*
X167180000Y-143810000D02*
X167180000Y-142630000D01*
X167180000Y-152370000D02*
X167180000Y-150880000D01*
X175710000Y-152370000D02*
X178770000Y-152370000D01*
G04 #@! TD*
M02*
