G04 #@! TF.GenerationSoftware,KiCad,Pcbnew,6.0.1-79c1e3a40b~116~ubuntu20.04.1*
G04 #@! TF.CreationDate,2022-01-29T15:48:48-05:00*
G04 #@! TF.ProjectId,herovco_panel,6865726f-7663-46f5-9f70-616e656c2e6b,rev?*
G04 #@! TF.SameCoordinates,Original*
G04 #@! TF.FileFunction,Other,Comment*
%FSLAX46Y46*%
G04 Gerber Fmt 4.6, Leading zero omitted, Abs format (unit mm)*
G04 Created by KiCad (PCBNEW 6.0.1-79c1e3a40b~116~ubuntu20.04.1) date 2022-01-29 15:48:48*
%MOMM*%
%LPD*%
G01*
G04 APERTURE LIST*
%ADD10C,0.120000*%
%ADD11C,0.150000*%
G04 APERTURE END LIST*
D10*
G04 #@! TO.C,H23*
X113100000Y-13600000D02*
X110300000Y-13600000D01*
X113100000Y-7600000D02*
X110300000Y-7600000D01*
X113100000Y-201600000D02*
X110300000Y-201600000D01*
X113100000Y-207600000D02*
X110300000Y-207600000D01*
X113100000Y-207600000D02*
G75*
G03*
X113100000Y-201600000I0J3000000D01*
G01*
X110300000Y-201600000D02*
G75*
G03*
X110300000Y-207600000I0J-3000000D01*
G01*
X113100000Y-13600000D02*
G75*
G03*
X113100000Y-7600000I0J3000000D01*
G01*
X110300000Y-7600000D02*
G75*
G03*
X110300000Y-13600000I0J-3000000D01*
G01*
D11*
G04 #@! TO.C,H3*
X97100000Y-42600000D02*
G75*
G03*
X97100000Y-42600000I-6000000J0D01*
G01*
G04 #@! TO.C,H1*
X38100000Y-157600000D02*
G75*
G03*
X38100000Y-157600000I-9500000J0D01*
G01*
D10*
G04 #@! TO.C,H22*
X19100000Y-201600000D02*
X21900000Y-201600000D01*
X19100000Y-207600000D02*
X21900000Y-207600000D01*
X19100000Y-7600000D02*
X21900000Y-7600000D01*
X19100000Y-13600000D02*
X21900000Y-13600000D01*
X19100000Y-201600000D02*
G75*
G03*
X19100000Y-207600000I0J-3000000D01*
G01*
X19100000Y-7600000D02*
G75*
G03*
X19100000Y-13600000I0J-3000000D01*
G01*
X21900000Y-13600000D02*
G75*
G03*
X21900000Y-7600000I0J3000000D01*
G01*
X21900000Y-207600000D02*
G75*
G03*
X21900000Y-201600000I0J3000000D01*
G01*
D11*
G04 #@! TO.C,H2*
X38100000Y-182600000D02*
G75*
G03*
X38100000Y-182600000I-9500000J0D01*
G01*
G04 #@! TO.C,H8*
X63100000Y-157600000D02*
G75*
G03*
X63100000Y-157600000I-9500000J0D01*
G01*
G04 #@! TO.C,H9*
X63100000Y-182600000D02*
G75*
G03*
X63100000Y-182600000I-9500000J0D01*
G01*
G04 #@! TO.C,H14*
X88100000Y-157600000D02*
G75*
G03*
X88100000Y-157600000I-9500000J0D01*
G01*
G04 #@! TO.C,H15*
X88100000Y-182600000D02*
G75*
G03*
X88100000Y-182600000I-9500000J0D01*
G01*
G04 #@! TO.C,H17*
X113100000Y-157600000D02*
G75*
G03*
X113100000Y-157600000I-9500000J0D01*
G01*
G04 #@! TO.C,H18*
X113100000Y-182600000D02*
G75*
G03*
X113100000Y-182600000I-9500000J0D01*
G01*
G04 #@! TO.C,H5*
X112100000Y-47600000D02*
G75*
G03*
X112100000Y-47600000I-2000000J0D01*
G01*
G04 #@! TO.C,H6*
X112100000Y-57600000D02*
G75*
G03*
X112100000Y-57600000I-2000000J0D01*
G01*
G04 #@! TO.C,H7*
X97100000Y-72600000D02*
G75*
G03*
X97100000Y-72600000I-6000000J0D01*
G01*
G04 #@! TO.C,H10*
X50600000Y-42600000D02*
G75*
G03*
X50600000Y-42600000I-9500000J0D01*
G01*
G04 #@! TO.C,H11*
X112100000Y-67600000D02*
G75*
G03*
X112100000Y-67600000I-2000000J0D01*
G01*
G04 #@! TO.C,H12*
X112100000Y-77600000D02*
G75*
G03*
X112100000Y-77600000I-2000000J0D01*
G01*
G04 #@! TO.C,H13*
X97100000Y-132600000D02*
G75*
G03*
X97100000Y-132600000I-6000000J0D01*
G01*
G04 #@! TO.C,H16*
X97100000Y-102600000D02*
G75*
G03*
X97100000Y-102600000I-6000000J0D01*
G01*
G04 #@! TO.C,H19*
X47100000Y-82600000D02*
G75*
G03*
X47100000Y-82600000I-6000000J0D01*
G01*
G04 #@! TO.C,H20*
X63100000Y-132600000D02*
G75*
G03*
X63100000Y-132600000I-9500000J0D01*
G01*
G04 #@! TO.C,H21*
X38100000Y-132600000D02*
G75*
G03*
X38100000Y-132600000I-9500000J0D01*
G01*
G04 #@! TD*
M02*
